<svg width="30" height="30" viewBox="0 0 30 30" fill="none" xmlns="http://www.w3.org/2000/svg">
<rect x="6.00631" y="-0.612372" width="25" height="25" rx="12.5" transform="rotate(15 6.00631 -0.612372)" stroke="black"/>
<path d="M8.81304 6.24054C12.1074 4.58662 14.652 4.1353 18.2958 5.27485C20.7359 6.03802 23.1623 7.86572 24.3718 10.0853C24.7752 10.8254 25.057 11.5914 25.304 12.3882C25.4456 12.8444 25.5597 13.3551 25.771 13.7857C25.8492 14.4719 25.8764 15.1581 25.9075 15.8465C25.5401 15.8681 24.6695 15.0227 24.1163 14.8761C24.1484 17.3036 23.441 19.7119 21.6602 21.4536C20.0016 23.076 17.7108 24.0771 15.3201 24.0639C15.1669 24.0631 15.0139 24.0585 14.861 24.0504C14.708 24.0422 14.5552 24.0303 14.4027 24.0146C14.2502 23.999 14.0981 23.9798 13.9465 23.957C13.7948 23.934 13.6437 23.9075 13.4933 23.8773C13.3429 23.8471 13.1932 23.8134 13.0444 23.776C12.8956 23.7387 12.7477 23.6977 12.6009 23.6533C12.454 23.6088 12.3083 23.5609 12.1637 23.5095C12.0192 23.458 11.876 23.4031 11.7342 23.3448C11.5923 23.2865 11.452 23.2248 11.3132 23.1597C11.1745 23.0947 11.0374 23.0265 10.902 22.9549C10.7665 22.8833 10.633 22.8085 10.5012 22.7305C10.3696 22.6526 10.24 22.5715 10.1123 22.4873C9.98466 22.4032 9.8592 22.3161 9.73594 22.226C9.61268 22.1359 9.49177 22.0429 9.37321 21.947C9.25454 21.8511 9.13842 21.7525 9.02485 21.6511C8.91119 21.5497 8.80016 21.4456 8.69177 21.339C8.58023 21.2303 8.47149 21.1191 8.36554 21.0053C8.2596 20.8916 8.15656 20.7754 8.05642 20.6567C7.95637 20.5381 7.85936 20.4172 7.7654 20.294C7.67144 20.1707 7.58066 20.0454 7.49304 19.918C7.40543 19.7906 7.32105 19.6611 7.2399 19.5297C7.15884 19.3983 7.08119 19.2651 7.00696 19.13C6.93261 18.9951 6.86173 18.8584 6.79432 18.7201C6.72699 18.5818 6.6632 18.442 6.60297 18.3007C6.5427 18.1595 6.48604 18.017 6.43298 17.8732C6.38002 17.7293 6.33072 17.5843 6.28507 17.4382C6.23945 17.2921 6.19758 17.1451 6.15947 16.9972C6.12137 16.8492 6.08707 16.7005 6.05655 16.551C6.02598 16.4015 5.99928 16.2514 5.97646 16.1008C5.95357 15.9501 5.93456 15.7991 5.91942 15.6477C5.90429 15.4963 5.89307 15.3447 5.88578 15.1929C5.87841 15.0411 5.87491 14.8892 5.87528 14.7374C5.87676 13.8734 6.03412 13.0252 6.24686 12.1924C5.67889 12.0668 5.16864 11.7484 4.62549 11.5467C6.05263 8.67648 6.09319 8.23596 8.81304 6.24054Z" fill="#FE8A33"/>
<path d="M9.41688 3.89089C12.5749 2.47436 15.6798 2.18963 18.9475 3.44633C19.0457 3.4846 19.1435 3.52414 19.2408 3.56495C19.3381 3.60568 19.4348 3.64765 19.531 3.69088C19.6273 3.73411 19.7229 3.7785 19.8181 3.82406C19.9132 3.86967 20.0077 3.91646 20.1017 3.96441C20.1957 4.01236 20.2891 4.0615 20.3818 4.11182C20.4745 4.16213 20.5665 4.21362 20.658 4.2663C20.7495 4.31891 20.8403 4.37268 20.9304 4.4276C21.0205 4.48254 21.11 4.5386 21.1987 4.59579C21.2874 4.65288 21.3754 4.71114 21.4627 4.77056C21.55 4.82997 21.6366 4.89045 21.7224 4.95199C21.8081 5.01353 21.8932 5.07617 21.9774 5.13991C22.0617 5.20357 22.1451 5.26831 22.2276 5.33413C22.3103 5.3999 22.3921 5.4667 22.4731 5.53454C22.5541 5.60246 22.6342 5.67134 22.7134 5.74116C22.7927 5.81108 22.8712 5.88194 22.9487 5.95374C23.0262 6.02561 23.1027 6.09842 23.1784 6.17217C23.2542 6.24603 23.329 6.32076 23.4028 6.39636C23.4767 6.47207 23.5496 6.54866 23.6216 6.62613C23.6936 6.70359 23.7646 6.78197 23.8346 6.86128C23.9047 6.94059 23.9737 7.02075 24.0418 7.10179C24.1098 7.18282 24.1769 7.26472 24.2429 7.34748C24.3089 7.43014 24.3738 7.51367 24.4378 7.59806C24.5017 7.68244 24.5647 7.7676 24.6266 7.85353C24.6884 7.93954 24.7492 8.02626 24.8089 8.11369C24.8686 8.20122 24.9272 8.28946 24.9847 8.37839C25.0423 8.46734 25.0987 8.55704 25.1541 8.64749C25.2094 8.73786 25.2636 8.82892 25.3166 8.92066C25.3697 9.01243 25.4216 9.10485 25.4725 9.19794C25.5232 9.291 25.5729 9.38472 25.6214 9.4791C25.6698 9.57346 25.7171 9.66839 25.7633 9.7639C25.8094 9.85946 25.8544 9.95555 25.8981 10.0521C25.9419 10.1488 25.9844 10.2461 26.0258 10.3438C26.2488 10.8634 26.4339 11.4231 26.5412 11.9798L26.3911 11.8151C26.3656 11.7867 26.3414 11.7572 26.3157 11.729C26.0037 11.386 25.2733 10.9206 24.8428 10.7484L24.7826 10.7697C24.8637 11.6244 25.4569 12.357 25.3624 13.2579C25.1641 12.8289 25.0602 12.3184 24.9293 11.8628C24.7008 11.0672 24.4385 10.3028 24.059 9.56577C22.9209 7.35543 20.6075 5.55186 18.2686 4.81523C14.776 3.71533 12.3225 4.19699 9.13377 5.89247C9.43518 5.45512 9.27131 4.92985 9.41618 4.43603C9.48666 4.19573 9.52991 4.12515 9.41688 3.89089Z" fill="#F3E260"/>
<path d="M9.41709 3.89089C9.53012 4.12515 9.48687 4.19572 9.4164 4.43603C9.27152 4.92985 9.43539 5.45511 9.13399 5.89247C6.49409 7.92354 6.44999 8.36547 5.04374 11.2583C5.564 11.4541 6.05125 11.7673 6.59627 11.8866C6.38197 12.7236 6.22077 13.5755 6.20937 14.4413C6.20726 14.5935 6.20887 14.7456 6.21421 14.8977C6.21947 15.0497 6.22851 15.2015 6.24133 15.3531C6.25415 15.5046 6.27069 15.6558 6.29097 15.8065C6.31119 15.9572 6.33515 16.1072 6.36284 16.2568C6.39047 16.4062 6.42176 16.5548 6.4567 16.7027C6.49167 16.8505 6.53025 16.9973 6.57246 17.1432C6.61467 17.2891 6.66043 17.4338 6.70974 17.5774C6.75913 17.7209 6.81201 17.8631 6.86836 18.0039C6.92468 18.1447 6.98444 18.2841 7.04762 18.4219C7.11089 18.5598 7.1775 18.6959 7.24747 18.8303C7.31734 18.9648 7.39051 19.0974 7.46698 19.2281C7.54346 19.3589 7.62315 19.4876 7.70605 19.6143C7.78888 19.741 7.87478 19.8655 7.96375 19.9879C8.05273 20.1103 8.14467 20.2304 8.23957 20.3481C8.33455 20.4658 8.43234 20.5811 8.53296 20.6939C8.63358 20.8067 8.73692 20.9169 8.84298 21.0245C8.94604 21.1301 9.05166 21.2331 9.15984 21.3334C9.26795 21.4337 9.37853 21.5312 9.4916 21.6259C9.60456 21.7206 9.71982 21.8124 9.83737 21.9013C9.95492 21.9902 10.0746 22.0761 10.1965 22.1589C10.3183 22.2417 10.4421 22.3215 10.5679 22.3981C10.6937 22.4747 10.8214 22.5482 10.9508 22.6183C11.0803 22.6885 11.2115 22.7553 11.3442 22.8189C11.477 22.8824 11.6112 22.9426 11.747 22.9994C11.8828 23.0562 12.02 23.1096 12.1584 23.1595C12.2969 23.2093 12.4366 23.2557 12.5774 23.2986C12.7181 23.3414 12.8599 23.3807 13.0026 23.4164C13.1454 23.4522 13.289 23.4843 13.4334 23.5128C13.5778 23.5412 13.7228 23.5661 13.8685 23.5874C14.0141 23.6085 14.1602 23.626 14.3067 23.6399C14.4533 23.6538 14.6002 23.664 14.7473 23.6704C14.8943 23.6768 15.0415 23.6796 15.1888 23.6787C17.4889 23.6643 19.7045 22.6346 21.319 20.9896C23.0525 19.2236 23.7609 16.802 23.7581 14.3698C24.2886 14.5102 25.1164 15.3474 25.4702 15.3215C25.4482 14.632 25.43 13.9447 25.3626 13.2579C25.4571 12.357 24.864 11.6244 24.7828 10.7697L24.843 10.7484C25.2735 10.9206 26.0039 11.386 26.3159 11.729C26.3416 11.7572 26.3658 11.7867 26.3913 11.8151L26.5414 11.9798C26.6786 12.2611 26.695 12.6854 26.732 12.9939C26.9462 14.782 26.8273 16.5395 26.3042 18.2723C26.2756 18.3666 26.2458 18.4606 26.2149 18.5543C26.184 18.6479 26.1519 18.7411 26.1188 18.8339C26.0856 18.9267 26.0513 19.0191 26.0159 19.1111C25.9805 19.203 25.9439 19.2945 25.9062 19.3856C25.8685 19.4767 25.8298 19.5673 25.7899 19.6574C25.75 19.7476 25.7091 19.8372 25.667 19.9262C25.625 20.0154 25.5819 20.104 25.5376 20.1921C25.4934 20.2801 25.4481 20.3676 25.4017 20.4545C25.3553 20.5414 25.308 20.6278 25.2595 20.7135C25.2111 20.7994 25.1616 20.8846 25.111 20.9691C25.0605 21.0536 25.0089 21.1376 24.9563 21.2208C24.9037 21.3041 24.8501 21.3866 24.7956 21.4686C24.741 21.5506 24.6854 21.6319 24.6289 21.7124C24.5723 21.793 24.5147 21.8729 24.4562 21.952C24.3977 22.0312 24.3382 22.1096 24.2778 22.1874C24.2174 22.265 24.156 22.3419 24.0938 22.418C24.0315 22.4942 23.9683 22.5696 23.9041 22.6442C23.84 22.7189 23.775 22.7927 23.7091 22.8657C23.6431 22.9386 23.5763 23.0108 23.5087 23.0821C23.441 23.1535 23.3724 23.224 23.303 23.2937C23.2336 23.3633 23.1634 23.432 23.0924 23.5C23.0213 23.5679 22.9494 23.6349 22.8767 23.701C22.804 23.7671 22.7305 23.8324 22.6562 23.8966C22.5819 23.961 22.5069 24.0243 22.431 24.0867C22.3553 24.1492 22.2787 24.2107 22.2014 24.2713C22.124 24.3319 22.046 24.3914 21.9673 24.45C21.8885 24.5086 21.809 24.5662 21.7289 24.6229C21.6487 24.6796 21.5679 24.7352 21.4864 24.7898C21.4049 24.8444 21.3228 24.898 21.24 24.9506C21.1571 25.0032 21.0736 25.0548 20.9896 25.1053C20.9055 25.1559 20.8209 25.2054 20.7357 25.2538C20.6504 25.3022 20.5646 25.3496 20.4782 25.3958C17.6494 26.9075 14.4195 27.1408 11.3905 26.1814C11.2934 26.15 11.1967 26.1175 11.1004 26.0838C11.0041 26.05 10.9082 26.0151 10.8127 25.9789C10.7172 25.9428 10.6222 25.9055 10.5278 25.867C10.4332 25.8286 10.3391 25.789 10.2455 25.7482C10.1519 25.7074 10.0589 25.6655 9.96635 25.6224C9.87382 25.5792 9.7818 25.535 9.6903 25.4896C9.59888 25.4443 9.50798 25.3978 9.4176 25.3502C9.3273 25.3027 9.23757 25.2539 9.1484 25.2041C9.0593 25.1543 8.97079 25.1034 8.88288 25.0514C8.79499 24.9993 8.70773 24.9462 8.6211 24.892C8.53455 24.8379 8.44862 24.7826 8.36333 24.7264C8.27813 24.6701 8.1936 24.6127 8.10974 24.5543C8.02586 24.496 7.94274 24.4366 7.86038 24.3761C7.77793 24.3157 7.69626 24.2542 7.61537 24.1918C7.53442 24.1293 7.45429 24.0658 7.37498 24.0014C7.29559 23.937 7.21702 23.8715 7.13926 23.8052C7.0615 23.7388 6.98456 23.6715 6.90844 23.6032C6.83234 23.5348 6.75704 23.4656 6.68253 23.3955C6.60812 23.3253 6.53456 23.2542 6.46185 23.1822C6.38914 23.1102 6.3173 23.0374 6.24635 22.9637C6.17541 22.8899 6.10535 22.8153 6.03617 22.7398C5.96706 22.6643 5.89889 22.5879 5.83164 22.5107C5.76437 22.4335 5.69806 22.3555 5.63271 22.2767C5.56727 22.1978 5.50286 22.1182 5.43948 22.0378C5.37602 21.9574 5.31354 21.8762 5.25205 21.7942C5.19056 21.7122 5.1301 21.6295 5.07066 21.546C5.0112 21.4625 4.95276 21.3783 4.89536 21.2933C4.83801 21.2084 4.78164 21.1228 4.72625 21.0364C4.67091 20.9502 4.61663 20.8632 4.5634 20.7755C4.51018 20.6878 4.45803 20.5994 4.40695 20.5105C4.35588 20.4215 4.30591 20.3319 4.25707 20.2417C4.20814 20.1515 4.16033 20.0607 4.11363 19.9692C4.07075 19.8854 4.02888 19.8011 3.98803 19.7162C3.94718 19.6313 3.90735 19.5459 3.86856 19.46C3.82977 19.3742 3.79205 19.2879 3.75543 19.201C3.71872 19.1142 3.68311 19.0269 3.6486 18.9392C3.61403 18.8515 3.58056 18.7633 3.54817 18.6749C3.51572 18.5863 3.48441 18.4973 3.45422 18.408C3.42395 18.3187 3.39478 18.229 3.36672 18.1389C3.33863 18.0488 3.31167 17.9584 3.28584 17.8677C3.26001 17.7769 3.23526 17.6859 3.21159 17.5945C3.18792 17.5031 3.1654 17.4115 3.14402 17.3195C3.12257 17.2276 3.10226 17.1354 3.0831 17.043C3.06394 16.9505 3.04588 16.8579 3.02892 16.765C3.01206 16.672 2.99627 16.5789 2.98156 16.4856C2.96695 16.3923 2.95342 16.2988 2.94099 16.2051C2.92863 16.1114 2.91739 16.0176 2.90727 15.9237C2.89714 15.8297 2.88816 15.7357 2.88032 15.6416C2.87251 15.5474 2.86584 15.4531 2.86032 15.3587C2.8548 15.2643 2.85041 15.1699 2.84715 15.0754C2.8439 14.981 2.84182 14.8865 2.84091 14.7919C2.83992 14.6974 2.84015 14.6028 2.84159 14.5082C2.84293 14.4137 2.84538 14.3191 2.84895 14.2247C2.85261 14.1301 2.85742 14.0357 2.86337 13.9414C2.86934 13.8469 2.87646 13.7526 2.88471 13.6583C2.89286 13.5641 2.9022 13.47 2.91271 13.376C2.92325 13.2819 2.93491 13.188 2.94768 13.0943C2.96054 13.0005 2.97448 12.907 2.9895 12.8136C3.00459 12.7202 3.02076 12.627 3.03799 12.534C3.05533 12.441 3.0738 12.3482 3.09342 12.2557C3.11297 12.163 3.13367 12.0707 3.1555 11.9786C3.17731 11.8865 3.20021 11.7948 3.22422 11.7032C3.2483 11.6117 3.27348 11.5205 3.29974 11.4296C3.326 11.3387 3.35334 11.2481 3.38175 11.1579C4.4265 7.94391 6.42008 5.44148 9.41709 3.89089Z" fill="#FE8A33"/>
<path d="M23.758 14.3698C24.2885 14.5102 25.1163 15.3474 25.4701 15.3215C25.6522 17.4415 24.6018 19.7122 23.2789 21.3142C23.223 21.3831 23.1663 21.4512 23.1087 21.5185C23.0511 21.586 22.9927 21.6527 22.9335 21.7186C22.8743 21.7846 22.8144 21.8498 22.7536 21.9143C22.6927 21.9787 22.6311 22.0424 22.5688 22.1054C22.5064 22.1683 22.4433 22.2304 22.3795 22.2917C22.3157 22.3531 22.2511 22.4137 22.1857 22.4735C22.1204 22.5333 22.0543 22.5922 21.9875 22.6503C21.9208 22.7084 21.8533 22.7657 21.7851 22.8221C21.717 22.8786 21.6481 22.9342 21.5786 22.9889C21.509 23.0437 21.4388 23.0975 21.368 23.1505C21.2972 23.2035 21.2257 23.2556 21.1536 23.3067C21.0815 23.358 21.0088 23.4083 20.9355 23.4576C20.8622 23.507 20.7882 23.5555 20.7138 23.6031C20.6392 23.6506 20.5641 23.6972 20.4885 23.7429C20.4129 23.7886 20.3367 23.8333 20.26 23.8771C20.1832 23.9209 20.1059 23.9637 20.0282 24.0055C19.9504 24.0474 19.8722 24.0883 19.7934 24.1283C19.7147 24.1682 19.6354 24.2071 19.5557 24.245C19.476 24.283 19.3958 24.3199 19.3152 24.3558C19.2347 24.3918 19.1536 24.4267 19.0721 24.4606C18.9907 24.4945 18.9089 24.5274 18.8266 24.5593C18.7444 24.5912 18.6618 24.6221 18.5788 24.6518C18.4958 24.6817 18.4124 24.7104 18.3287 24.7382C18.2451 24.766 18.161 24.7927 18.0767 24.8183C17.9924 24.844 17.9078 24.8686 17.8229 24.892C17.7379 24.9156 17.6527 24.9381 17.5672 24.9595C17.4818 24.9809 17.3962 25.0013 17.3102 25.0205C17.2243 25.0398 17.1381 25.058 17.0517 25.0752C16.9653 25.0922 16.8787 25.1083 16.7919 25.1233C16.7051 25.1383 16.6182 25.1521 16.5312 25.1649C16.4441 25.1777 16.3569 25.1894 16.2694 25.2C16.1821 25.2106 16.0946 25.2201 16.007 25.2286C13.2782 25.4768 10.3796 24.5127 8.30581 22.7244C6.17119 20.8836 4.73216 18.2112 4.52363 15.3644C4.4212 13.9644 4.55476 12.5788 5.04362 11.2583C5.56388 11.4541 6.05113 11.7673 6.59614 11.8867C6.38184 12.7237 6.22065 13.5755 6.20924 14.4414C6.20713 14.5935 6.20875 14.7456 6.21409 14.8977C6.21935 15.0498 6.22839 15.2016 6.24121 15.3531C6.25402 15.5046 6.27057 15.6558 6.29085 15.8065C6.31107 15.9572 6.33502 16.1073 6.36271 16.2568C6.39034 16.4062 6.42163 16.5548 6.45658 16.7027C6.49154 16.8505 6.53013 16.9973 6.57234 17.1432C6.61454 17.2891 6.6603 17.4339 6.70962 17.5774C6.75901 17.7209 6.81188 17.8631 6.86823 18.0039C6.92456 18.1448 6.98431 18.2841 7.0475 18.4219C7.11076 18.5598 7.17738 18.6959 7.24735 18.8303C7.31721 18.9648 7.39039 19.0974 7.46686 19.2281C7.54333 19.3589 7.62302 19.4876 7.70593 19.6143C7.78875 19.741 7.87465 19.8655 7.96363 19.988C8.05261 20.1104 8.14455 20.2304 8.23944 20.3481C8.33442 20.4659 8.43222 20.5811 8.53284 20.6939C8.63345 20.8067 8.73679 20.9169 8.84285 21.0245C8.94591 21.1301 9.05154 21.2331 9.15972 21.3334C9.26782 21.4337 9.37841 21.5312 9.49148 21.6259C9.60444 21.7206 9.7197 21.8124 9.83725 21.9013C9.9548 21.9902 10.0745 22.0761 10.1964 22.1589C10.3182 22.2418 10.442 22.3215 10.5677 22.3981C10.6936 22.4748 10.8212 22.5482 10.9507 22.6184C11.0802 22.6885 11.2113 22.7553 11.3441 22.8189C11.4768 22.8825 11.6111 22.9426 11.7469 22.9994C11.8827 23.0562 12.0198 23.1096 12.1583 23.1595C12.2968 23.2094 12.4365 23.2557 12.5772 23.2986C12.718 23.3415 12.8597 23.3807 13.0025 23.4165C13.1453 23.4522 13.2889 23.4843 13.4333 23.5128C13.5776 23.5413 13.7227 23.5661 13.8684 23.5874C14.014 23.6085 14.1601 23.626 14.3066 23.6399C14.4532 23.6538 14.6001 23.664 14.7471 23.6704C14.8942 23.6769 15.0414 23.6796 15.1887 23.6787C17.4887 23.6644 19.7043 22.6346 21.3189 20.9896C23.0524 19.2236 23.7608 16.802 23.758 14.3698Z" fill="#F3E260"/>
<path d="M14.0877 5.8797C15.0745 5.46206 17.0153 5.99189 17.9683 6.38149C19.0726 6.83269 20.3536 7.53705 21.1106 8.48959C20.7163 8.40527 20.3887 8.07045 19.9827 7.96127C18.9157 7.67408 17.7656 7.71196 16.7194 7.33757C15.9621 7.06648 15.5909 6.70025 15.255 5.98954C14.8676 5.9246 14.4668 5.97814 14.0877 5.8797Z" fill="#F3E260"/>
<path d="M9.13389 5.89253C12.3226 4.19705 14.7761 3.71539 18.2687 4.81529C20.6076 5.55192 22.9211 7.35549 24.0591 9.56582C24.4386 10.3029 24.7009 11.0672 24.9294 11.8629C25.0603 12.3184 25.1642 12.8289 25.3625 13.258C25.4299 13.9447 25.4481 14.6321 25.4701 15.3216C25.1163 15.3474 24.2885 14.5103 23.758 14.3698C23.7607 14.3437 23.7658 14.3179 23.766 14.2916C23.7823 12.5921 22.3217 9.63972 21.1105 8.4896C20.3535 7.53707 19.0725 6.83271 17.9682 6.38151C17.0152 5.99191 15.0745 5.46207 14.0877 5.87972C14.0619 5.88683 14.0365 5.8952 14.0105 5.90092C13.8745 5.9312 13.9181 5.92181 13.7768 5.91746C13.5182 5.90925 13.2509 5.98823 12.9995 6.04477C12.8043 6.08842 12.6109 6.13881 12.4191 6.19595C12.2273 6.25306 12.0377 6.31673 11.8501 6.38693C11.6626 6.45714 11.4777 6.53376 11.2953 6.61678C11.1129 6.69978 10.9335 6.78901 10.7572 6.88446C10.5808 6.97991 10.4079 7.08128 10.2384 7.18859C10.0689 7.296 9.90321 7.40914 9.7413 7.52799C9.57939 7.64685 9.42171 7.77116 9.26827 7.90092C9.11486 8.0306 8.96596 8.16546 8.82159 8.3055C7.76872 9.33503 7.12685 10.5241 6.59617 11.8867C6.05115 11.7674 5.56391 11.4542 5.04365 11.2584C6.44989 8.36553 6.49399 7.9236 9.13389 5.89253Z" fill="#FEFEA0"/>
<path d="M16.2235 9.03717C16.4314 9.08163 16.6595 9.11357 16.797 9.29616C16.9705 9.5266 16.9246 9.8902 16.9165 10.1657C17.9286 10.6534 18.7443 11.3876 19.1673 12.4559C19.3139 12.8261 19.4591 13.2804 19.2742 13.6651C19.1702 13.8814 18.9694 14.0528 18.7424 14.1229C18.3475 14.245 17.6278 14.1496 17.267 13.9522C16.841 13.7192 16.8899 13.1763 16.7621 12.7621C16.695 12.5449 16.5998 12.2828 16.3909 12.1703C16.133 12.4104 15.8865 13.7077 15.7836 14.1013C15.9363 14.1745 16.0879 14.2498 16.2386 14.3272C17.1459 14.7957 17.993 15.5514 18.2883 16.567C18.4936 17.2732 18.4212 18.0364 18.0548 18.6797C17.4968 19.6593 16.4823 20.093 15.4165 20.1731C15.0435 20.2011 14.5994 20.1887 14.2543 20.3437C13.7988 20.5483 14.0764 20.9498 13.2295 21.1819C13.0918 21.1104 12.9434 21.0327 12.8394 20.9136C12.5819 20.6193 12.6501 20.1567 12.6677 19.7945C12.2467 19.5849 11.8305 19.314 11.477 19.0016C10.8176 18.4186 10.3017 17.5917 10.2709 16.6863C10.2618 16.4216 10.2757 15.9161 10.506 15.7342C10.9413 15.3906 12.4138 15.8921 12.93 16.0313L12.8388 17.1304C13.0192 17.3644 13.2286 17.5816 13.4241 17.8032L14.0476 15.4804C13.8939 15.4233 13.7436 15.3587 13.5965 15.2864C13.4493 15.2142 13.3062 15.1347 13.1671 15.048C13.0279 14.9612 12.8934 14.8676 12.7636 14.7673C12.6337 14.667 12.5092 14.5603 12.39 14.4473C11.8514 13.9278 11.4106 13.231 11.4123 12.4548C11.4139 11.8341 11.7005 11.262 12.1321 10.8287C13.0535 9.90412 14.2939 9.7682 15.5204 9.77969C15.7077 9.4392 15.891 9.2392 16.2235 9.03717Z" fill="#FEFEFE"/>
</svg>
