<svg viewBox="0 0 37 43" fill="none" xmlns="http://www.w3.org/2000/svg">
<path d="M23.0058 3.54421C22.9114 3.25198 23.0158 2.81633 23.012 2.50638C23.0095 2.29209 22.9731 2.06361 22.9879 1.85205C22.9905 1.81419 23.0027 1.78228 23.0158 1.7471C23.1299 2.24403 23.1071 3.04238 23.0058 3.54421Z" fill="black"/>
<path d="M15.9487 5.09962C15.3422 5.09942 14.831 5.0292 14.368 4.60314C13.9086 4.18042 13.7495 3.66723 13.7271 3.05697C13.6963 2.22 13.6531 1.28176 14.2704 0.62854C14.6886 0.186076 15.1868 0.0550882 15.7773 0.0359459C16.8858 8.59052e-06 18.004 0.0392019 19.1133 0.0396613C19.9122 0.0399945 20.8046 -0.0814926 21.5864 0.0991427C21.8924 0.169826 22.206 0.360426 22.4323 0.5755C22.7369 0.864997 23.003 1.31932 23.0158 1.7471C23.0027 1.78228 22.9905 1.81419 22.9879 1.85205C22.9731 2.06361 23.0095 2.29209 23.012 2.50638C23.0158 2.81633 22.9114 3.25198 23.0058 3.54421C22.9241 4.03176 22.6482 4.45463 22.2472 4.74005C21.8322 5.03551 21.406 5.08862 20.9116 5.12587C20.9078 5.47252 20.8961 5.8215 20.9072 6.16795C22.7112 6.47679 24.4321 6.95853 26.0998 7.72361C26.4641 7.8907 26.8569 8.06042 27.1935 8.27875C27.491 7.97176 27.7928 7.66908 28.0989 7.3707C27.7577 7.02592 27.3955 6.70567 27.077 6.33842C27.5468 5.77399 28.3499 4.8825 28.9778 4.52979C29.0305 4.49964 29.0847 4.47238 29.1403 4.44802C29.1959 4.42362 29.2527 4.40223 29.3106 4.38386C29.3685 4.36548 29.4271 4.3502 29.4866 4.33802C29.5461 4.32587 29.6061 4.3169 29.6666 4.31111C30.3081 4.24968 30.8355 4.4462 31.3226 4.85696C31.8203 5.27656 33.111 6.53297 33.4082 7.08352C33.5074 7.26737 33.55 7.50266 33.5668 7.70918C33.6243 8.4157 33.3855 8.99265 32.9269 9.52254C32.5445 9.96425 32.0923 10.4204 31.6478 10.7955C31.3752 10.5843 31.1435 10.3228 30.8666 10.1196L30.5001 10.529C33.4918 13.3159 35.5385 16.4604 36.4027 20.4912C36.5148 20.9951 36.6046 21.503 36.6721 22.0148C36.7396 22.5266 36.7844 23.0404 36.8066 23.5562C36.9821 28.5123 35.3546 33.1594 31.955 36.8043C30.1691 38.7191 27.7205 40.5299 25.269 41.4782C24.7555 41.6727 24.235 41.846 23.7073 41.998C23.4015 42.0868 23.0855 42.1612 22.7843 42.2633C22.7694 42.2634 22.7544 42.2632 22.7394 42.2636C22.4856 42.2709 22.1979 42.3786 21.949 42.4368C21.6785 42.5001 21.4017 42.5484 21.1276 42.5931C20.2223 42.7404 19.278 42.7663 18.3615 42.7765C17.2784 42.7884 16.2185 42.6713 15.1508 42.5032C14.7726 42.4437 14.3661 42.296 13.9878 42.2798C13.6825 42.146 13.3444 42.0647 13.0251 41.9702C12.6354 41.8548 12.2555 41.7281 11.8786 41.5757C8.98832 40.4078 6.5021 38.7465 4.45121 36.3867C4.35345 36.2735 4.2571 36.1591 4.16216 36.0435C4.06722 35.928 3.9737 35.8113 3.88159 35.6934C3.78951 35.5755 3.69888 35.4565 3.6097 35.3364C3.52055 35.2163 3.43287 35.0952 3.34665 34.9729C3.26046 34.8507 3.17577 34.7274 3.09258 34.6031C3.00938 34.4788 2.92774 34.3535 2.84764 34.2271C2.76751 34.1008 2.68895 33.9735 2.61195 33.8453C2.53498 33.7171 2.45958 33.5879 2.38574 33.4578C2.31191 33.3277 2.23969 33.1967 2.16908 33.0649C2.09847 32.933 2.02948 32.8003 1.96211 32.6668C1.89473 32.5332 1.82901 32.3988 1.76493 32.2637C1.70085 32.1285 1.63846 31.9926 1.57775 31.8559C1.517 31.7192 1.45794 31.5818 1.40056 31.4437C1.34318 31.3055 1.2875 31.1667 1.23352 31.0272C1.17957 30.8877 1.12733 30.7476 1.07678 30.6067C1.02623 30.466 0.977431 30.3246 0.930383 30.1826C0.883301 30.0407 0.837969 29.8981 0.794388 29.755C0.750806 29.6119 0.708991 29.4683 0.668943 29.3242C0.628861 29.1801 0.590564 29.0355 0.554049 28.8905C0.517535 28.7454 0.482804 28.5999 0.449857 28.454C0.416909 28.3081 0.385747 28.1618 0.356367 28.0152C0.327021 27.8685 0.299458 27.7215 0.273679 27.5742C0.2479 27.4268 0.223938 27.2792 0.201794 27.1313C0.17965 26.9833 0.159323 26.8351 0.140814 26.6867C0.122304 26.5383 0.105611 26.3896 0.0907365 26.2408C0.0758615 26.092 0.0628209 25.943 0.0516142 25.7938C0.0403738 25.6447 0.0309845 25.4954 0.023446 25.346C0.0158739 25.1966 0.0101357 25.0472 0.00623188 24.8976C0.00232804 24.7481 0.000258269 24.5985 2.26925e-05 24.449C-0.000212884 24.2994 0.00138573 24.1498 0.00481843 24.0003C0.00825112 23.8507 0.0135181 23.7013 0.0206191 23.5519C0.02772 23.4024 0.0366383 23.2531 0.0473738 23.1039C0.0588498 22.9547 0.0721599 22.8055 0.0873041 22.6565C0.102448 22.5075 0.11941 22.3588 0.138189 22.2102C0.156967 22.0617 0.177563 21.9133 0.199977 21.7653C0.222424 21.6173 0.246655 21.4695 0.272669 21.322C0.298717 21.1746 0.326566 21.0274 0.356215 20.8807C0.385864 20.7339 0.417314 20.5875 0.450564 20.4415C0.48378 20.2955 0.518797 20.1499 0.555614 20.0047C0.592397 19.8596 0.630965 19.7149 0.671316 19.5707C0.711667 19.4265 0.753784 19.2828 0.797669 19.1396C0.84152 18.9965 0.887138 18.8539 0.934522 18.7118C0.981873 18.5698 1.03097 18.4283 1.08183 18.2874C1.13264 18.1466 1.18519 18.0064 1.23948 17.8668C1.29373 17.7273 1.34969 17.5884 1.40738 17.4502C1.46506 17.312 1.52442 17.1746 1.58547 17.0378C1.64649 16.9011 1.70918 16.7651 1.77356 16.6299C1.83794 16.4947 1.90397 16.3603 1.97165 16.2267C2.03933 16.0931 2.10862 15.9604 2.17953 15.8286C2.25044 15.6967 2.32296 15.5657 2.3971 15.4356C2.47124 15.3055 2.54696 15.1763 2.62427 15.048C2.70157 14.9198 2.78042 14.7925 2.86082 14.6662C2.94125 14.5398 3.02321 14.4145 3.10671 14.2903C3.19017 14.1659 3.27516 14.0427 3.36169 13.9204C3.44821 13.7982 3.5362 13.677 3.62565 13.557C3.71514 13.4369 3.80609 13.318 3.8985 13.2001C3.99088 13.0823 4.08471 12.9656 4.17998 12.85C4.27522 12.7345 4.37188 12.6201 4.46994 12.507C4.56798 12.3938 4.66741 12.2819 4.76823 12.1711C4.86903 12.0604 4.97117 11.9509 5.07465 11.8427C5.17814 11.7345 5.28294 11.6275 5.38905 11.5218C5.49512 11.4162 5.6025 11.3118 5.71116 11.2088C5.81983 11.1058 5.92975 11.0041 6.0409 10.9038C6.15206 10.8034 6.26443 10.7045 6.37802 10.6069C6.22672 10.4378 6.05978 10.2914 5.88689 10.145C5.65296 10.3694 5.42004 10.5922 5.17163 10.8007C4.68136 10.3771 3.87084 9.6539 3.50677 9.1454C3.17839 8.68679 3.07708 8.12029 3.17168 7.56748C3.21423 7.31866 3.31419 7.08619 3.45548 6.8776C3.73969 6.45801 5.29798 4.88897 5.71965 4.59315C6.14474 4.29491 6.70437 4.23297 7.20635 4.32091C7.96463 4.45377 8.40517 4.93758 8.91891 5.46515C9.20484 5.75875 9.49843 6.06138 9.73377 6.39774C9.42372 6.75559 9.06566 7.11845 8.70064 7.41901C9.00034 7.73911 9.28253 8.07875 9.55947 8.41863C10.7844 7.58797 12.8058 6.86514 14.245 6.52338C14.8105 6.38905 15.3796 6.30515 15.9505 6.20121L15.9487 5.09962Z" fill="black"/>
<path d="M15.6738 4.07355C15.5666 4.0895 15.4719 4.0787 15.3695 4.04306C15.1369 3.96214 14.9685 3.75703 14.8701 3.5381C14.6692 3.09059 14.6599 2.09425 14.8438 1.65022C14.9481 1.39857 15.1248 1.24269 15.3741 1.14294C14.9401 1.65829 14.8164 2.09945 14.8764 2.77271C14.914 3.19538 15.0458 3.58949 15.3831 3.87132C15.4728 3.94624 15.5759 4.00964 15.6738 4.07355Z" fill="#F1E462"/>
<path d="M28.5268 6.38637C28.7097 6.11569 28.9413 5.84042 29.1983 5.63724C29.5209 5.38226 29.8456 5.3082 30.2479 5.35697C30.3089 5.40316 30.3664 5.45465 30.4248 5.50417C29.8669 5.88414 29.3681 6.26572 28.9004 6.75418C28.7718 6.63645 28.6504 6.50949 28.5268 6.38637Z" fill="#FEFEFE"/>
<path d="M18.0318 5.10089C18.6298 5.08514 19.2364 5.12356 19.8364 5.12295L19.836 6.03348C19.3723 6.01278 18.9055 5.98304 18.4413 5.98966C18.4471 5.7003 18.4352 5.41155 18.4253 5.1224C18.292 5.1227 18.164 5.1224 18.0318 5.10089Z" fill="#3A0895"/>
<path d="M16.946 5.12049C17.3091 5.10514 17.6682 5.09827 18.0318 5.10089C18.164 5.1224 18.292 5.1227 18.4253 5.1224C18.4352 5.41155 18.4471 5.7003 18.4413 5.98966C17.9479 5.98769 17.4537 6.01112 16.9608 6.03177L16.946 5.12049Z" fill="#9A27DD"/>
<path d="M28.8023 8.11577C29.0974 8.25348 29.7968 9.12099 30.0773 9.40237C29.9771 9.51944 29.8175 9.7516 29.6736 9.80637C29.5978 9.83525 29.5843 9.81717 29.5159 9.78244C29.0752 9.41595 28.5906 9.11085 28.1085 8.80256C28.3325 8.56798 28.5753 8.34854 28.8023 8.11577Z" fill="#9A27DD"/>
<path d="M8.02332 8.11399C8.24155 8.20622 8.55862 8.72203 8.68593 8.92411C8.20692 9.17888 7.74997 9.51675 7.30629 9.82933L7.14869 9.97007C6.99856 9.80651 6.86166 9.62821 6.72087 9.45648C7.16262 9.01497 7.59287 8.56635 8.02332 8.11399Z" fill="#9A27DD"/>
<path d="M31.6528 6.69605C32.0153 7.03478 32.5327 7.42903 32.5425 7.97286C32.5504 8.40957 32.2807 8.73729 31.9886 9.02619L31.6168 9.39112C31.3779 9.13776 31.12 8.89883 30.8869 8.64118C30.8973 8.63199 30.9078 8.62295 30.918 8.61366C31.4944 8.09204 31.6251 7.44276 31.6528 6.69605Z" fill="#FE8A33"/>
<path d="M4.40334 8.7445C4.2728 8.55025 4.17638 8.32374 4.16537 8.08764C4.1476 7.70646 4.31515 7.43901 4.56225 7.16803C4.9395 6.75434 5.96956 5.64538 6.41056 5.39379C6.52419 5.32897 6.6675 5.30862 6.79658 5.30554C7.10492 5.29807 7.37585 5.40176 7.60124 5.60959C7.33602 5.6315 7.04565 5.65735 6.80264 5.77285C6.46846 5.93166 5.33723 7.10508 5.04566 7.44603C4.88684 7.63175 4.75009 7.8104 4.65625 8.03787C4.5726 8.2407 4.53686 8.5824 4.40334 8.7445Z" fill="#E3D7B2"/>
<path d="M30.4248 5.50417C30.8508 5.87682 31.2699 6.27948 31.6528 6.69605C31.6251 7.44276 31.4944 8.09204 30.918 8.61366C30.9078 8.62295 30.8973 8.63199 30.8869 8.64118C30.1893 8.05964 29.5453 7.39397 28.9004 6.75418C29.3681 6.26572 29.8669 5.88414 30.4248 5.50417Z" fill="#F1E462"/>
<path d="M15.3741 1.14294C15.5504 1.09008 15.7114 1.07332 15.8945 1.06484C16.2491 1.04838 16.6062 1.06545 16.9612 1.06822L20.1821 1.06767C20.484 1.06767 20.7911 1.05495 21.0918 1.07983C21.2505 1.09296 21.3813 1.12582 21.5241 1.19867C21.4338 1.23178 21.3389 1.2445 21.2502 1.27928C20.9915 1.38055 20.7654 1.53684 20.4842 1.57323C20.09 1.62427 19.6672 1.59307 19.2686 1.59166L17.2897 1.58747C16.9572 1.58525 16.5917 1.50998 16.2715 1.61912C16.1069 1.67525 15.9699 1.84472 15.8616 1.97551C15.8391 2.2732 15.8101 2.5725 15.8146 2.8713C15.7925 3.27807 15.8274 3.6961 15.7934 4.09964L15.6738 4.07355C15.5759 4.00964 15.4728 3.94624 15.3831 3.87132C15.0458 3.58949 14.914 3.19538 14.8764 2.77271C14.8164 2.09945 14.9401 1.65829 15.3741 1.14294Z" fill="#FEFEFE"/>
<path d="M7.60124 5.60959C7.85355 5.85467 8.07889 6.12077 8.32352 6.37216C7.28467 7.4205 6.21377 8.43657 5.17498 9.48521C4.91657 9.24785 4.6247 9.01624 4.40334 8.7445C4.53686 8.5824 4.5726 8.2407 4.65625 8.03787C4.75009 7.8104 4.88684 7.63175 5.04566 7.44603C5.33723 7.10508 6.46846 5.93166 6.80264 5.77285C7.04565 5.65735 7.33602 5.6315 7.60124 5.60959Z" fill="#F1E462"/>
<path d="M21.5241 1.19867C21.7592 1.3488 21.9344 1.52801 21.993 1.81267C21.9965 1.82984 21.9993 1.84715 22.0021 1.86447C21.7483 2.21647 21.5243 2.62021 21.06 2.69341C20.6634 2.75596 20.2474 2.71133 19.8479 2.70346C19.1306 2.68932 18.4117 2.69674 17.6943 2.69644C17.2229 2.69629 16.7246 2.66418 16.2573 2.72905C16.092 2.75202 15.9619 2.79568 15.8146 2.8713C15.8101 2.5725 15.8391 2.2732 15.8616 1.97551C15.9699 1.84472 16.1069 1.67525 16.2715 1.61912C16.5917 1.50998 16.9572 1.58525 17.2897 1.58747L19.2686 1.59166C19.6672 1.59307 20.09 1.62427 20.4842 1.57323C20.7654 1.53684 20.9915 1.38055 21.2502 1.27928C21.3389 1.2445 21.4338 1.23178 21.5241 1.19867Z" fill="#F1E462"/>
<path d="M22.0021 1.86447C22.007 2.44227 22.1989 3.32583 21.7429 3.77622C21.3827 4.13216 20.8505 4.09733 20.3801 4.08401C19.3521 4.05493 18.3253 4.06028 17.297 4.05967C16.8527 4.05942 16.2079 3.98137 15.7934 4.09964C15.8274 3.6961 15.7925 3.27807 15.8146 2.8713C15.9619 2.79568 16.092 2.75202 16.2573 2.72905C16.7246 2.66418 17.2229 2.69629 17.6943 2.69644C18.4117 2.69674 19.1306 2.68932 19.8479 2.70346C20.2474 2.71133 20.6634 2.75596 21.06 2.69341C21.5243 2.62021 21.7483 2.21647 22.0021 1.86447Z" fill="#C8C813"/>
<path d="M6.12309 36.1831C5.9201 36.0118 5.73403 35.7876 5.55765 35.5883C5.4648 35.4834 5.37326 35.3774 5.28304 35.2703C5.19281 35.1631 5.10395 35.0549 5.01645 34.9455C4.92891 34.8362 4.84276 34.7257 4.75799 34.6142C4.67321 34.5027 4.58983 34.3902 4.50785 34.2766C4.42587 34.163 4.34531 34.0484 4.26615 33.9328C4.18703 33.8173 4.10936 33.7007 4.03313 33.5832C3.95691 33.4657 3.88214 33.3473 3.80885 33.2279C3.73558 33.1086 3.6638 32.9883 3.5935 32.8671C3.52319 32.7459 3.45442 32.6239 3.38718 32.501C3.31991 32.3782 3.25418 32.2545 3.19 32.13C3.12582 32.0055 3.06319 31.8803 3.00211 31.7542C2.94107 31.6281 2.88158 31.5013 2.82366 31.3738C2.76575 31.2462 2.70943 31.118 2.65471 30.989C2.59998 30.8601 2.54688 30.7305 2.49539 30.6002C2.44386 30.47 2.39399 30.3391 2.34576 30.2076C2.2975 30.0761 2.25089 29.944 2.20593 29.8114C2.161 29.6787 2.11771 29.5455 2.07604 29.4118C2.03441 29.278 1.99443 29.1438 1.9561 29.0091C1.9178 28.8743 1.88119 28.7391 1.84626 28.6035C1.81129 28.4679 1.77804 28.3318 1.7465 28.1953C1.71494 28.0589 1.68507 27.922 1.6569 27.7848C1.62877 27.6476 1.60233 27.51 1.5776 27.3722C1.55286 27.2343 1.52984 27.0962 1.50854 26.9577C1.48724 26.8193 1.46765 26.6806 1.44978 26.5416C1.43194 26.4027 1.41584 26.2636 1.40147 26.1243C1.38707 25.9849 1.37441 25.8454 1.36351 25.7058C1.35257 25.5662 1.34338 25.4264 1.33594 25.2865C1.32851 25.1466 1.3228 25.0067 1.31883 24.8667C1.31486 24.7267 1.31264 24.5866 1.31217 24.4465C1.3117 24.3065 1.31296 24.1664 1.31595 24.0264C1.31895 23.8864 1.32369 23.7464 1.33019 23.6064C1.33669 23.4665 1.34491 23.3267 1.35488 23.187C1.3681 22.9981 1.38456 22.8094 1.40425 22.6211C1.42393 22.4327 1.44683 22.2448 1.47295 22.0572C1.49907 21.8696 1.52838 21.6826 1.56089 21.496C1.5934 21.3094 1.6291 21.1235 1.66801 20.9381C1.70688 20.7528 1.74891 20.5681 1.79411 20.3842C1.83931 20.2003 1.88763 20.0172 1.93909 19.835C1.99055 19.6527 2.04512 19.4714 2.1028 19.291C2.16045 19.1107 2.22118 18.9313 2.28498 18.753C2.34879 18.5747 2.41563 18.3975 2.48549 18.2215C2.55536 18.0455 2.62822 17.8707 2.70407 17.6972C2.77993 17.5236 2.85873 17.3514 2.94048 17.1806C3.02219 17.0098 3.10681 16.8404 3.19434 16.6724C3.28188 16.5045 3.37227 16.3381 3.46553 16.1733C3.55875 16.0084 3.65476 15.8452 3.75357 15.6837C3.85238 15.5221 3.95393 15.3623 4.05822 15.2042C4.16248 15.0461 4.26943 14.8899 4.37908 14.7355C4.59796 14.4338 4.82519 14.1386 5.06077 13.8498C5.29635 13.561 5.5399 13.2791 5.79143 13.0041C6.04296 12.7291 6.30206 12.4614 6.56873 12.2011C6.8354 11.9407 7.10923 11.6881 7.3902 11.4432C7.49275 11.353 7.59638 11.264 7.70112 11.1763C7.80588 11.0885 7.91169 11.0021 8.01854 10.917C8.12539 10.8318 8.23328 10.748 8.34222 10.6655C8.45113 10.5831 8.56104 10.502 8.67196 10.4222C8.78288 10.3424 8.89477 10.264 9.00761 10.187C9.12045 10.1099 9.23422 10.0343 9.34891 9.96007C9.4636 9.88583 9.57918 9.81302 9.69566 9.74164C9.81217 9.67026 9.92952 9.60031 10.0477 9.53179C10.1659 9.46327 10.2849 9.39622 10.4048 9.33063C10.5247 9.26507 10.6453 9.20097 10.7667 9.13834C10.8881 9.07571 11.0103 9.0146 11.1333 8.955C11.2562 8.89537 11.3798 8.83726 11.5042 8.78069C11.6285 8.72408 11.7536 8.66903 11.8793 8.61552C12.005 8.56201 12.1313 8.51006 12.2583 8.45968C12.3853 8.40927 12.5129 8.36042 12.6411 8.31314C12.7693 8.26589 12.898 8.2202 13.0273 8.17608C13.1566 8.13196 13.2865 8.08946 13.4168 8.04857C13.5472 8.00764 13.678 7.96832 13.8093 7.93059C13.9407 7.8929 14.0724 7.85682 14.2046 7.82236C14.3368 7.7879 14.4694 7.75507 14.6024 7.72387C14.7354 7.69264 14.8688 7.66306 15.0026 7.63513C15.1363 7.6072 15.2704 7.58091 15.4047 7.55628C15.5391 7.53164 15.6738 7.50866 15.8087 7.48732C15.9437 7.46602 16.0789 7.44636 16.2143 7.42836C16.3497 7.41036 16.4854 7.39402 16.6212 7.37934C16.757 7.36467 16.893 7.35166 17.0292 7.34032C17.1653 7.32898 17.3016 7.31932 17.438 7.31135C17.5744 7.30334 17.7109 7.29703 17.8474 7.29242C17.9839 7.28777 18.1205 7.28481 18.2571 7.28353C18.3937 7.28225 18.5304 7.28266 18.667 7.28474C18.8036 7.28683 18.9402 7.29058 19.0767 7.296C19.2132 7.30145 19.3496 7.30857 19.486 7.31735C22.9462 7.53432 26.2689 8.93582 28.9791 11.067C29.6291 11.5782 30.2662 12.1151 30.8148 12.7361C30.8052 12.7353 30.7954 12.7358 30.786 12.7335C30.6598 12.7042 29.8145 11.9407 29.6262 11.7924C29.0719 11.3557 28.499 10.9235 27.903 10.546C27.7698 10.463 27.6356 10.3819 27.5003 10.3026C27.365 10.2232 27.2286 10.1457 27.0912 10.0699C26.9539 9.9942 26.8155 9.92031 26.6762 9.84826C26.5369 9.77617 26.3966 9.70597 26.2554 9.63765C26.1142 9.5693 25.9721 9.50283 25.8291 9.43825C25.6862 9.37367 25.5424 9.31101 25.3978 9.25026C25.2531 9.18952 25.1077 9.13069 24.9615 9.07378C24.8154 9.01687 24.6684 8.96192 24.5208 8.90891C24.3732 8.85591 24.2249 8.80487 24.0759 8.7558C23.9269 8.70673 23.7773 8.65965 23.627 8.61456C23.4768 8.56943 23.3259 8.52632 23.1745 8.48523C23.0232 8.44413 22.8713 8.40505 22.7188 8.36796C22.5664 8.33091 22.4135 8.29587 22.2602 8.26286C22.1068 8.22984 21.953 8.19887 21.7989 8.16992C21.6447 8.14098 21.4902 8.11409 21.3353 8.08925C21.1804 8.06442 21.0252 8.04163 20.8697 8.0209C20.7142 8.00017 20.5585 7.98151 20.4025 7.96492C20.2465 7.94833 20.0903 7.93382 19.9339 7.92141C19.7776 7.90895 19.6211 7.89857 19.4644 7.89026C19.3077 7.88198 19.151 7.87577 18.9942 7.87163C18.8374 7.86749 18.6805 7.86542 18.5237 7.86542C18.3668 7.86546 18.21 7.86756 18.0532 7.87173C17.8964 7.87594 17.7396 7.8822 17.583 7.89051C17.4263 7.89886 17.2698 7.90927 17.1135 7.92176C16.9571 7.93428 16.8009 7.94885 16.6449 7.96548C16.489 7.9821 16.3332 8.00079 16.1777 8.02156C16.0222 8.04232 15.867 8.06514 15.7122 8.09001C15.5573 8.11492 15.4028 8.14185 15.2486 8.17083C15.0944 8.19981 14.9407 8.23082 14.7873 8.26387C14.634 8.29695 14.4811 8.33205 14.3287 8.36917C14.1763 8.40626 14.0244 8.44538 13.873 8.48654C13.7216 8.5277 13.5708 8.57084 13.4206 8.61597C12.4428 8.91835 11.5431 9.33865 10.6312 9.79757C10.542 9.84146 10.4532 9.8862 10.3649 9.9318C10.2765 9.9774 10.1887 10.0239 10.1012 10.0712C10.0138 10.1185 9.92683 10.1666 9.84034 10.2156C9.75382 10.2645 9.66778 10.3143 9.58223 10.365C9.49668 10.4156 9.41162 10.467 9.32705 10.5193C9.24251 10.5716 9.15846 10.6246 9.0749 10.6785C8.99137 10.7324 8.90836 10.7871 8.82588 10.8425C8.74339 10.898 8.66145 10.9543 8.58004 11.0113C8.49863 11.0684 8.41779 11.1262 8.33753 11.1848C8.25723 11.2434 8.1775 11.3028 8.09835 11.363C8.01919 11.4231 7.94063 11.484 7.86265 11.5457C7.78468 11.6073 7.70731 11.6697 7.63054 11.7329C7.55378 11.796 7.47762 11.8599 7.40207 11.9245C7.32651 11.9891 7.2516 12.0544 7.17733 12.1205C7.10302 12.1866 7.02937 12.2533 6.95637 12.3208C6.88338 12.3883 6.81104 12.4564 6.73936 12.5253C6.66764 12.5942 6.59661 12.6637 6.52628 12.7339C6.45591 12.8042 6.38623 12.8751 6.31724 12.9466C6.24825 13.0182 6.17996 13.0904 6.11238 13.1633C6.04477 13.2362 5.97789 13.3098 5.91172 13.3839C5.84553 13.4581 5.78005 13.5329 5.7153 13.6083C5.65059 13.6838 5.58658 13.7598 5.52327 13.8365C5.46001 13.9132 5.39748 13.9904 5.33569 14.0682C5.2739 14.1461 5.21287 14.2246 5.15259 14.3036C5.09229 14.3827 5.03277 14.4623 4.97404 14.5425C4.91528 14.6227 4.8573 14.7034 4.80009 14.7847C4.74291 14.866 4.6865 14.9479 4.63087 15.0303C4.57524 15.1126 4.52042 15.1956 4.46641 15.279C4.41239 15.3625 4.35919 15.4464 4.30679 15.5309C4.25436 15.6153 4.20276 15.7003 4.15201 15.7858C4.10123 15.8713 4.05127 15.9572 4.00214 16.0436C3.95304 16.13 3.90476 16.2169 3.85731 16.3043C3.48436 16.9883 3.13801 17.6939 2.89459 18.4355C1.34155 23.1675 1.40985 28.219 3.68451 32.7044C4.22577 33.7718 4.90509 34.7012 5.67911 35.6104C5.78411 35.7337 6.11415 36.0492 6.12309 36.1831Z" fill="#FEFEFE"/>
<path d="M30.8796 12.7984C34.0848 16.3635 35.6585 20.6462 35.3989 25.4478C35.1561 29.9412 32.8663 34.2669 29.5363 37.2453C26.357 40.0888 21.8911 41.6203 17.6373 41.3757C14.3276 41.1854 11.3902 40.2355 8.6613 38.3409C8.01514 37.8922 7.36672 37.4277 6.82041 36.8576C6.91855 36.8673 6.99139 36.8965 7.07716 36.944C7.33295 37.0855 7.56607 37.2746 7.81605 37.4278C8.3673 37.7681 8.9362 38.0758 9.52275 38.3509C11.3056 39.2085 13.196 39.7158 15.1488 40.0117C19.403 40.6565 23.9052 39.3176 27.3354 36.7852C27.5148 36.6504 27.6913 36.5122 27.8652 36.3705C28.039 36.2287 28.21 36.0836 28.3781 35.9351C28.5462 35.7866 28.7113 35.6349 28.8734 35.4798C29.0355 35.3248 29.1945 35.1666 29.3503 35.0053C29.5061 34.844 29.6587 34.6796 29.808 34.5123C29.9574 34.3449 30.1033 34.1746 30.2459 34.0015C30.3885 33.8283 30.5276 33.6525 30.6632 33.4738C30.7989 33.2952 30.9309 33.1139 31.0594 32.93C31.1878 32.7462 31.3125 32.5598 31.4336 32.371C31.5547 32.1822 31.672 31.991 31.7855 31.7976C31.899 31.6041 32.0086 31.4085 32.1144 31.2107C32.2202 31.0129 32.322 30.8131 32.4198 30.6113C32.5177 30.4094 32.6115 30.2057 32.7013 30.0002C32.7911 29.7947 32.8768 29.5874 32.9583 29.3785C33.04 29.1696 33.1174 28.9591 33.1906 28.7471C33.2639 28.5351 33.3329 28.3217 33.3977 28.107C33.4625 27.8923 33.5231 27.6763 33.5793 27.4592C33.6356 27.2421 33.6875 27.0239 33.7351 26.8048C33.7828 26.5856 33.8261 26.3655 33.865 26.1446C33.9039 25.9237 33.9384 25.7022 33.9686 25.4799C33.9987 25.2576 34.0245 25.0349 34.0458 24.8116C34.0671 24.5883 34.084 24.3647 34.0965 24.1407C34.109 23.9168 34.117 23.6926 34.1206 23.4684C34.1242 23.2441 34.1234 23.0199 34.1181 22.7956C34.1128 22.5714 34.1031 22.3473 34.089 22.1235C34.0748 21.8997 34.0563 21.6762 34.0333 21.453C34.0103 21.2299 33.9829 21.0074 33.9511 20.7853C33.9193 20.5633 33.8831 20.342 33.8426 20.1214C33.802 19.9008 33.7571 19.6811 33.7078 19.4623C33.6586 19.2434 33.605 19.0256 33.5472 18.809C33.4893 18.5923 33.4271 18.3768 33.3607 18.1625C33.2943 17.9483 33.2237 17.7355 33.1489 17.524C32.8678 16.7186 32.5715 16.114 32.1968 15.3531C31.9326 14.8165 31.6669 14.2746 31.3435 13.7704C31.2237 13.5837 30.8287 13.0435 30.8698 12.8402C30.8726 12.8262 30.8764 12.8123 30.8796 12.7984Z" fill="#9A27DD"/>
<path d="M6.12309 36.1831C6.11415 36.0492 5.78411 35.7337 5.67911 35.6104C4.90509 34.7012 4.22577 33.7718 3.68451 32.7044C1.40985 28.219 1.34155 23.1675 2.89459 18.4355C3.13801 17.6939 3.48436 16.9883 3.85731 16.3043C3.90476 16.2169 3.95304 16.13 4.00214 16.0436C4.05127 15.9572 4.10123 15.8713 4.15201 15.7858C4.20276 15.7003 4.25436 15.6153 4.30679 15.5309C4.35919 15.4464 4.41239 15.3625 4.46641 15.279C4.52042 15.1956 4.57524 15.1126 4.63087 15.0303C4.6865 14.9479 4.74291 14.866 4.80009 14.7847C4.8573 14.7034 4.91528 14.6227 4.97404 14.5425C5.03277 14.4623 5.09229 14.3827 5.15259 14.3036C5.21287 14.2246 5.2739 14.1461 5.33569 14.0682C5.39748 13.9904 5.46001 13.9132 5.52327 13.8365C5.58658 13.7598 5.65059 13.6838 5.7153 13.6083C5.78005 13.5329 5.84553 13.4581 5.91172 13.3839C5.97789 13.3098 6.04477 13.2362 6.11238 13.1633C6.17996 13.0904 6.24825 13.0182 6.31724 12.9466C6.38623 12.8751 6.45591 12.8042 6.52628 12.7339C6.59661 12.6637 6.66764 12.5942 6.73936 12.5253C6.81104 12.4564 6.88338 12.3883 6.95637 12.3208C7.02937 12.2533 7.10302 12.1866 7.17733 12.1205C7.2516 12.0544 7.32651 11.9891 7.40207 11.9245C7.47762 11.8599 7.55378 11.796 7.63054 11.7329C7.70731 11.6697 7.78468 11.6073 7.86265 11.5457C7.94063 11.484 8.01919 11.4231 8.09835 11.363C8.1775 11.3028 8.25723 11.2434 8.33753 11.1848C8.41779 11.1262 8.49863 11.0684 8.58004 11.0113C8.66145 10.9543 8.74339 10.898 8.82588 10.8425C8.90836 10.7871 8.99137 10.7324 9.0749 10.6785C9.15846 10.6246 9.24251 10.5716 9.32705 10.5193C9.41162 10.467 9.49668 10.4156 9.58223 10.365C9.66778 10.3143 9.75382 10.2645 9.84034 10.2156C9.92683 10.1666 10.0138 10.1185 10.1012 10.0712C10.1887 10.0239 10.2765 9.9774 10.3649 9.9318C10.4532 9.8862 10.542 9.84146 10.6312 9.79757C11.5431 9.33865 12.4428 8.91835 13.4206 8.61597C13.5708 8.57084 13.7216 8.5277 13.873 8.48654C14.0244 8.44538 14.1763 8.40626 14.3287 8.36917C14.4811 8.33205 14.634 8.29695 14.7873 8.26387C14.9407 8.23082 15.0944 8.19981 15.2486 8.17083C15.4028 8.14185 15.5573 8.11492 15.7122 8.09001C15.867 8.06514 16.0222 8.04232 16.1777 8.02156C16.3332 8.00079 16.489 7.9821 16.6449 7.96548C16.8009 7.94885 16.9571 7.93428 17.1135 7.92176C17.2698 7.90927 17.4263 7.89886 17.583 7.89051C17.7396 7.8822 17.8964 7.87594 18.0532 7.87173C18.21 7.86756 18.3668 7.86546 18.5237 7.86542C18.6805 7.86542 18.8374 7.86749 18.9942 7.87163C19.151 7.87577 19.3077 7.88198 19.4644 7.89026C19.6211 7.89857 19.7776 7.90895 19.9339 7.92141C20.0903 7.93382 20.2465 7.94833 20.4025 7.96492C20.5585 7.98151 20.7142 8.00017 20.8697 8.0209C21.0252 8.04163 21.1804 8.06442 21.3353 8.08925C21.4902 8.11409 21.6447 8.14098 21.7989 8.16992C21.953 8.19887 22.1068 8.22984 22.2602 8.26286C22.4135 8.29587 22.5664 8.33091 22.7188 8.36796C22.8713 8.40505 23.0232 8.44413 23.1745 8.48523C23.3259 8.52632 23.4768 8.56943 23.627 8.61456C23.7773 8.65965 23.9269 8.70673 24.0759 8.7558C24.2249 8.80487 24.3732 8.85591 24.5208 8.90891C24.6684 8.96192 24.8154 9.01687 24.9615 9.07378C25.1077 9.13069 25.2531 9.18952 25.3978 9.25026C25.5424 9.31101 25.6862 9.37367 25.8291 9.43825C25.9721 9.50283 26.1142 9.5693 26.2554 9.63765C26.3966 9.70597 26.5369 9.77617 26.6762 9.84826C26.8155 9.92031 26.9539 9.9942 27.0912 10.0699C27.2286 10.1457 27.365 10.2232 27.5003 10.3026C27.6356 10.3819 27.7698 10.463 27.903 10.546C28.499 10.9235 29.0719 11.3557 29.6262 11.7924C29.8145 11.9407 30.6598 12.7042 30.786 12.7335C30.7954 12.7358 30.8052 12.7353 30.8148 12.7361L30.8796 12.7984C30.8764 12.8123 30.8726 12.8262 30.8698 12.8402C30.8287 13.0435 31.2237 13.5837 31.3435 13.7704C31.6669 14.2746 31.9326 14.8165 32.1968 15.3531C32.5715 16.114 32.8678 16.7186 33.1489 17.524C33.2237 17.7355 33.2943 17.9483 33.3607 18.1625C33.4271 18.3768 33.4893 18.5923 33.5472 18.809C33.605 19.0256 33.6586 19.2434 33.7078 19.4623C33.7571 19.6811 33.802 19.9008 33.8426 20.1214C33.8831 20.342 33.9193 20.5633 33.9511 20.7853C33.9829 21.0074 34.0103 21.2299 34.0333 21.453C34.0563 21.6762 34.0748 21.8997 34.089 22.1235C34.1031 22.3473 34.1128 22.5714 34.1181 22.7956C34.1234 23.0199 34.1242 23.2441 34.1206 23.4684C34.117 23.6926 34.109 23.9168 34.0965 24.1407C34.084 24.3647 34.0671 24.5883 34.0458 24.8116C34.0245 25.0349 33.9987 25.2576 33.9686 25.4799C33.9384 25.7022 33.9039 25.9237 33.865 26.1446C33.8261 26.3655 33.7828 26.5856 33.7351 26.8048C33.6875 27.0239 33.6356 27.2421 33.5793 27.4592C33.5231 27.6763 33.4625 27.8923 33.3977 28.107C33.3329 28.3217 33.2639 28.5351 33.1906 28.7471C33.1174 28.9591 33.04 29.1696 32.9583 29.3785C32.8768 29.5874 32.7911 29.7947 32.7013 30.0002C32.6115 30.2057 32.5177 30.4094 32.4198 30.6113C32.322 30.8131 32.2202 31.0129 32.1144 31.2107C32.0086 31.4085 31.899 31.6041 31.7855 31.7976C31.672 31.991 31.5547 32.1822 31.4336 32.371C31.3125 32.5598 31.1878 32.7462 31.0594 32.93C30.9309 33.1139 30.7989 33.2952 30.6632 33.4738C30.5276 33.6525 30.3885 33.8283 30.2459 34.0015C30.1033 34.1746 29.9574 34.3449 29.808 34.5123C29.6587 34.6796 29.5061 34.844 29.3503 35.0053C29.1945 35.1666 29.0355 35.3248 28.8734 35.4798C28.7113 35.6349 28.5462 35.7866 28.3781 35.9351C28.21 36.0836 28.039 36.2287 27.8652 36.3705C27.6913 36.5122 27.5148 36.6504 27.3354 36.7852C23.9052 39.3176 19.403 40.6565 15.1488 40.0117C13.196 39.7158 11.3056 39.2085 9.52275 38.3509C8.9362 38.0758 8.3673 37.7681 7.81605 37.4278C7.56607 37.2746 7.33295 37.0855 7.07716 36.944C6.99139 36.8965 6.91855 36.8673 6.82041 36.8576C6.567 36.6592 6.33677 36.4233 6.12309 36.1831Z" fill="#BC72F5"/>
<path d="M14.7736 8.58393C14.8583 8.57737 14.9455 8.56818 15.0272 8.59741C15.155 8.64319 15.2795 8.7279 15.3361 8.85521C15.3873 8.97051 15.3851 9.13043 15.3389 9.24684C15.298 9.34982 15.2189 9.44518 15.1192 9.49501C14.809 9.65003 14.4347 9.69516 14.1042 9.79834C13.6203 9.94948 13.1517 10.1445 12.6822 10.3346C12.5979 10.3409 12.5042 10.3293 12.424 10.3014C12.2113 10.2276 12.1213 10.0418 12.0364 9.85079C12.0674 9.76735 12.0989 9.68426 12.1498 9.61051C12.4969 9.10716 14.1694 8.70942 14.7736 8.58393Z" fill="#FEFEFE"/>
<path d="M10.9741 10.0199C11.0648 10.0154 11.1571 10.0141 11.2465 10.0331C11.3833 10.062 11.5373 10.1607 11.6047 10.2855C11.6518 10.3726 11.6547 10.4668 11.6255 10.5601C11.5827 10.6973 11.4859 10.8012 11.3762 10.8894C11.0832 11.125 10.705 11.2969 10.3767 11.4805C10.0024 11.6875 9.63916 11.9124 9.28708 12.1553C8.34445 12.7969 7.47275 13.5918 6.72472 14.4504C6.55184 14.6476 6.3848 14.8495 6.2236 15.0563C6.0624 15.2631 5.90729 15.4744 5.75827 15.6901C5.60925 15.9059 5.46658 16.1257 5.33024 16.3497C5.19391 16.5736 5.06416 16.8014 4.94099 17.0328C4.66496 17.5425 4.42411 18.065 4.23723 18.614C4.11563 18.9714 4.03314 19.401 3.85969 19.7345C3.79941 19.8503 3.66564 19.9222 3.55549 19.9808C3.41521 19.9973 3.26972 20.0011 3.13978 19.9365C3.04533 19.8896 2.97976 19.8035 2.94715 19.7044C2.75052 19.1068 3.55413 17.4962 3.83813 16.91C4.96885 14.5761 6.88813 12.5676 9.00691 11.1077C9.61086 10.6915 10.2797 10.2607 10.9741 10.0199Z" fill="#FEFEFE"/>
<path d="M18.3056 10.3325C18.72 10.3361 19.1357 10.3376 19.5488 10.3729C19.6534 10.3823 19.7579 10.3927 19.8622 10.4044C19.9666 10.416 20.0708 10.4288 20.1748 10.4427C20.2789 10.4566 20.3829 10.4717 20.4866 10.4879C20.5904 10.5041 20.6939 10.5214 20.7973 10.5398C20.9007 10.5583 21.0038 10.5779 21.1068 10.5986C21.2097 10.6193 21.3124 10.6412 21.4149 10.6642C21.5173 10.6871 21.6195 10.7112 21.7215 10.7365C21.8234 10.7617 21.9251 10.788 22.0264 10.8155C22.1278 10.8429 22.2288 10.8715 22.3295 10.9011C22.4303 10.9308 22.5307 10.9615 22.6307 10.9934C22.7308 11.0253 22.8305 11.0582 22.9298 11.0922C23.0291 11.1263 23.1281 11.1614 23.2267 11.1976C23.3252 11.2339 23.4234 11.2712 23.5211 11.3096C23.6188 11.3479 23.7162 11.3873 23.813 11.4278C23.9099 11.4684 24.0064 11.5099 24.1024 11.5525C24.1983 11.5951 24.2938 11.6388 24.3888 11.6835C24.4838 11.7282 24.5783 11.7739 24.6723 11.8207C24.7664 11.8675 24.8599 11.9154 24.9528 11.9642C25.0458 12.013 25.1382 12.0629 25.23 12.1137C25.3219 12.1646 25.4132 12.2164 25.504 12.2693C25.5947 12.3221 25.6848 12.376 25.7744 12.4308C25.8639 12.4857 25.9529 12.5415 26.0412 12.5983C26.1295 12.6551 26.2172 12.7128 26.3043 12.7715C26.3913 12.8302 26.4777 12.8899 26.5635 12.9505C26.6492 13.0111 26.7343 13.0726 26.8187 13.1351C26.9031 13.1976 26.9868 13.2609 27.0699 13.3253C27.1529 13.3896 27.2352 13.4548 27.3168 13.5209C27.3983 13.587 27.4792 13.654 27.5593 13.7218C27.6394 13.7897 27.7188 13.8585 27.7974 13.9281C27.876 13.9977 27.9538 14.0682 28.0309 14.1395C28.1079 14.2109 28.1842 14.283 28.2597 14.356C28.3352 14.429 28.4099 14.5028 28.4837 14.5775C28.5653 14.6587 28.6459 14.7409 28.7255 14.8241C28.805 14.9074 28.8836 14.9916 28.9611 15.0767C29.0386 15.1619 29.115 15.248 29.1904 15.335C29.2657 15.422 29.34 15.51 29.4132 15.5989C29.4864 15.6877 29.5585 15.7775 29.6295 15.8682C29.7005 15.9588 29.7704 16.0503 29.8391 16.1427C29.9078 16.2351 29.9754 16.3283 30.0418 16.4223C30.1083 16.5163 30.1735 16.6112 30.2376 16.7068C30.3017 16.8025 30.3646 16.8989 30.4263 16.9961C30.4881 17.0933 30.5486 17.1913 30.6079 17.29C30.6672 17.3886 30.7252 17.488 30.7821 17.5882C30.8389 17.6883 30.8945 17.7891 30.9489 17.8906C31.0033 17.9921 31.0564 18.0942 31.1082 18.1971C31.16 18.2999 31.2106 18.4033 31.2599 18.5074C31.3092 18.6114 31.3572 18.716 31.4039 18.8212C31.4506 18.9265 31.496 19.0323 31.5401 19.1387C31.5842 19.245 31.627 19.3519 31.6685 19.4593C31.7099 19.5667 31.7501 19.6746 31.7889 19.783C31.8277 19.8914 31.8651 20.0003 31.9012 20.1096C31.9374 20.2189 31.9722 20.3287 32.0056 20.4389C32.039 20.549 32.071 20.6596 32.1017 20.7706C32.1324 20.8816 32.1617 20.9929 32.1896 21.1046C32.2176 21.2163 32.2441 21.3283 32.2693 21.4407C32.2945 21.553 32.3183 21.6657 32.3407 21.7786C32.3631 21.8916 32.3841 22.0047 32.4037 22.1182C32.4233 22.2316 32.4415 22.3453 32.4583 22.4592C32.4751 22.5731 32.4905 22.6872 32.5045 22.8015C32.5185 22.9158 32.5311 23.0302 32.5422 23.1448C32.5534 23.2594 32.5632 23.3741 32.5715 23.489C32.5798 23.6038 32.5867 23.7187 32.5923 23.8337C32.5978 23.9487 32.6019 24.0638 32.6045 24.1789C32.6072 24.294 32.6084 24.4091 32.6083 24.5243C32.6082 24.6407 32.6067 24.7572 32.6038 24.8736C32.6009 24.99 32.5965 25.1064 32.5907 25.2227C32.585 25.3391 32.5777 25.4553 32.5691 25.5714C32.5604 25.6876 32.5504 25.8036 32.5389 25.9195C32.5274 26.0354 32.5145 26.1511 32.5001 26.2667C32.4858 26.3823 32.47 26.4977 32.4528 26.6129C32.4356 26.7281 32.417 26.843 32.397 26.9577C32.377 27.0725 32.3556 27.1869 32.3327 27.3012C32.3099 27.4153 32.2856 27.5292 32.26 27.6429C32.2344 27.7565 32.2074 27.8698 32.1789 27.9827C32.1505 28.0956 32.1207 28.2082 32.0895 28.3204C32.0583 28.4326 32.0257 28.5444 31.9918 28.6559C31.9578 28.7673 31.9225 28.8782 31.8858 28.9888C31.8492 29.0993 31.8111 29.2094 31.7717 29.319C31.7323 29.4286 31.6916 29.5377 31.6495 29.6463C31.6075 29.7549 31.5641 29.863 31.5193 29.9705C31.4746 30.078 31.4286 30.185 31.3812 30.2914C31.3338 30.3978 31.2852 30.5036 31.2352 30.6088C31.1852 30.714 31.134 30.8185 31.0814 30.9225C31.0289 31.0264 30.9751 31.1297 30.92 31.2323C30.8649 31.3349 30.8086 31.4369 30.751 31.5381C30.6934 31.6393 30.6346 31.7398 30.5745 31.8396C30.5144 31.9394 30.4531 32.0384 30.3906 32.1367C30.3281 32.235 30.2644 32.3325 30.1995 32.4291C30.1346 32.5259 30.0685 32.6218 30.0013 32.7168C29.934 32.8119 29.8656 32.9061 29.796 32.9995C29.7264 33.0929 29.6557 33.1854 29.5839 33.2771C29.512 33.3688 29.439 33.4595 29.3649 33.5494C29.2908 33.6392 29.2156 33.7282 29.1394 33.8162C29.0631 33.9042 28.9857 33.9912 28.9073 34.0773C28.8289 34.1634 28.7494 34.2486 28.6689 34.3327C28.5884 34.4169 28.5068 34.5 28.4243 34.5822C28.3559 34.6496 28.2869 34.7164 28.2172 34.7825C28.1476 34.8486 28.0772 34.9139 28.0062 34.9786C27.9352 35.0432 27.8635 35.1071 27.7912 35.1703C27.7188 35.2335 27.6459 35.2959 27.5723 35.3575C27.4986 35.4192 27.4244 35.4801 27.3496 35.5403C27.2747 35.6005 27.1992 35.6598 27.1232 35.7184C27.0471 35.7771 26.9705 35.8349 26.8932 35.8919C26.8159 35.9489 26.7381 36.0052 26.6597 36.0606C26.5813 36.1161 26.5023 36.1707 26.4228 36.2245C26.3432 36.2784 26.2632 36.3314 26.1826 36.3836C26.102 36.4358 26.0208 36.4871 25.9391 36.5376C25.8575 36.5882 25.7753 36.6379 25.6926 36.6867C25.61 36.7355 25.5268 36.7835 25.4431 36.8307C25.3595 36.8778 25.2753 36.9241 25.1907 36.9695C25.1061 37.0149 25.021 37.0595 24.9355 37.1032C24.85 37.1468 24.764 37.1896 24.6776 37.2315C24.5912 37.2735 24.5044 37.3145 24.4172 37.3546C24.3299 37.3948 24.2423 37.434 24.1542 37.4723C24.0662 37.5107 23.9777 37.5481 23.8889 37.5846C23.8001 37.6212 23.7109 37.6568 23.6214 37.6915C23.5319 37.7262 23.442 37.76 23.3518 37.7929C23.2615 37.8257 23.171 37.8577 23.0801 37.8887C22.9892 37.9197 22.898 37.9498 22.8065 37.9789C22.715 38.008 22.6232 38.0363 22.5311 38.0635C22.439 38.0908 22.3467 38.1171 22.254 38.1425C22.1614 38.1678 22.0686 38.1923 21.9754 38.2158C21.8823 38.2392 21.789 38.2617 21.6954 38.2833C21.6018 38.3048 21.508 38.3254 21.4141 38.3451C21.3201 38.3647 21.2259 38.3834 21.1315 38.4011C21.0371 38.4188 20.9425 38.4356 20.8478 38.4513C20.7531 38.4671 20.6582 38.4819 20.5631 38.4957C20.4681 38.5096 20.373 38.5224 20.2777 38.5343C19.7155 38.6086 19.1493 38.666 18.5818 38.6661C18.4682 38.6668 18.3545 38.6662 18.2409 38.6643C18.1273 38.6623 18.0138 38.659 17.9002 38.6544C17.7867 38.6497 17.6733 38.6437 17.5599 38.6364C17.4465 38.629 17.3332 38.6203 17.2201 38.6103C17.1069 38.6002 16.9938 38.5888 16.8809 38.5761C16.768 38.5634 16.6553 38.5493 16.5427 38.5339C16.4301 38.5185 16.3178 38.5017 16.2056 38.4836C16.0934 38.4655 15.9815 38.4461 15.8697 38.4254C15.7581 38.4046 15.6466 38.3826 15.5354 38.3591C15.4242 38.3357 15.3133 38.311 15.2027 38.285C15.0921 38.259 14.9818 38.2316 14.8719 38.2029C14.7619 38.1743 14.6524 38.1443 14.5432 38.1131C14.4339 38.0818 14.3251 38.0493 14.2166 38.0154C14.1081 37.9815 14.0001 37.9464 13.8925 37.91C13.7848 37.8736 13.6777 37.8359 13.571 37.7969C13.4642 37.7579 13.3579 37.7177 13.2522 37.6762C13.1464 37.6347 13.0411 37.592 12.9364 37.548C12.8316 37.504 12.7274 37.4587 12.6237 37.4123C12.52 37.3658 12.4169 37.3181 12.3144 37.2691C12.2118 37.2202 12.1099 37.1701 12.0085 37.1187C11.9072 37.0674 11.8065 37.0148 11.7063 36.9611C11.6062 36.9073 11.5068 36.8524 11.408 36.7963C11.3092 36.7402 11.2111 36.6829 11.1137 36.6245C11.0162 36.566 10.9195 36.5064 10.8234 36.4457C10.7274 36.3849 10.6321 36.323 10.5376 36.26C10.443 36.197 10.3493 36.1329 10.2562 36.0676C10.1632 36.0024 10.071 35.9361 9.97955 35.8687C9.88808 35.8012 9.79745 35.7327 9.70766 35.6631C9.61784 35.5935 9.52886 35.5229 9.44072 35.4512C9.35258 35.3795 9.2653 35.3067 9.17888 35.233C9.09249 35.1591 9.00697 35.0844 8.92233 35.0086C8.83769 34.9327 8.75398 34.8559 8.67119 34.7781C8.58591 34.6985 8.50164 34.6178 8.41838 34.5361C8.33509 34.4544 8.25286 34.3716 8.17168 34.2878C8.09048 34.2041 8.01033 34.1193 7.93124 34.0335C7.85216 33.9477 7.77415 33.861 7.69721 33.7732C7.62028 33.6855 7.54446 33.5969 7.46975 33.5073C7.39507 33.4176 7.3215 33.3271 7.24905 33.2356C7.17659 33.1442 7.10529 33.0519 7.03516 32.9586C6.96499 32.8654 6.89602 32.7713 6.82824 32.6763C6.76043 32.5814 6.69383 32.4856 6.62844 32.389C6.56301 32.2924 6.49882 32.195 6.43585 32.0967C6.37285 31.9985 6.3111 31.8996 6.25059 31.7998C6.19011 31.7 6.13086 31.5995 6.07285 31.4983C6.01486 31.3971 5.95814 31.2951 5.90267 31.1925C5.84721 31.0898 5.79305 30.9865 5.74018 30.8825C5.68731 30.7785 5.63573 30.6738 5.58545 30.5685C5.53521 30.4633 5.48626 30.3574 5.4386 30.2509C5.39098 30.1443 5.34471 30.0373 5.29978 29.9296C5.25482 29.8219 5.21122 29.7137 5.16899 29.605C5.12672 29.4962 5.08583 29.387 5.04632 29.2772C5.00678 29.1674 4.96863 29.0571 4.93188 28.9464C4.8951 28.8357 4.85971 28.7245 4.82572 28.6129C4.79169 28.5013 4.75908 28.3893 4.72789 28.2769C4.69669 28.1644 4.66689 28.0517 4.63848 27.9385C4.61011 27.8253 4.58314 27.7118 4.55756 27.598C4.53202 27.4841 4.50789 27.37 4.48517 27.2555C4.46249 27.1411 4.44122 27.0264 4.42137 26.9114C4.40151 26.7964 4.3831 26.6812 4.36614 26.5658C4.34918 26.4504 4.33365 26.3348 4.31955 26.219C4.30545 26.1031 4.29281 25.9871 4.28164 25.871C4.27043 25.7548 4.26069 25.6386 4.25241 25.5222C4.24413 25.4058 4.2373 25.2894 4.23191 25.1728C4.22653 25.0563 4.22259 24.9397 4.2201 24.8231C4.21744 24.7089 4.2162 24.5947 4.21636 24.4805C4.2165 24.3663 4.21805 24.2521 4.22101 24.138C4.22397 24.0238 4.22833 23.9097 4.23408 23.7957C4.23984 23.6816 4.24699 23.5677 4.25554 23.4538C4.26409 23.3399 4.27403 23.2262 4.28537 23.1125C4.29671 22.9989 4.30945 22.8854 4.32359 22.7721C4.33772 22.6588 4.35323 22.5457 4.37013 22.4327C4.38702 22.3198 4.40531 22.2071 4.425 22.0946C4.44466 21.9821 4.46569 21.8699 4.4881 21.7579C4.51055 21.6459 4.53434 21.5342 4.55948 21.4228C4.58466 21.3115 4.61119 21.2004 4.63909 21.0897C4.66696 20.9789 4.69618 20.8685 4.72678 20.7585C4.7574 20.6485 4.78935 20.5389 4.82264 20.4296C4.85592 20.3204 4.89053 20.2116 4.92648 20.1032C4.96245 19.9948 4.99974 19.8869 5.03834 19.7794C5.07694 19.6719 5.11686 19.5649 5.15808 19.4585C5.19931 19.352 5.24185 19.246 5.2857 19.1405C5.32952 19.0351 5.37463 18.9302 5.42104 18.8258C5.46745 18.7215 5.51512 18.6178 5.56405 18.5146C5.61302 18.4114 5.66323 18.3088 5.71468 18.2069C5.76617 18.105 5.81889 18.0037 5.87284 17.9031C5.92679 17.8024 5.98196 17.7024 6.03837 17.6031C6.09477 17.5038 6.15239 17.4052 6.21121 17.3074C6.27004 17.2095 6.33006 17.1123 6.39128 17.0159C6.45246 16.9195 6.51484 16.8239 6.57841 16.729C6.64195 16.6342 6.70666 16.5401 6.77256 16.4468C6.83842 16.3535 6.90541 16.261 6.97352 16.1693C7.04167 16.0777 7.11092 15.9869 7.18125 15.897C7.25162 15.807 7.32309 15.718 7.39564 15.6298C7.4682 15.5416 7.54182 15.4543 7.6165 15.3679C7.69117 15.2815 7.76691 15.1961 7.84371 15.1116C7.92047 15.027 7.99828 14.9435 8.07713 14.8608C8.15932 14.7739 8.24256 14.6879 8.32686 14.6031C8.4112 14.5182 8.49656 14.4344 8.58295 14.3516C8.66934 14.2688 8.75674 14.1871 8.84515 14.1065C8.93359 14.0259 9.02301 13.9465 9.1134 13.8681C9.2038 13.7897 9.29513 13.7124 9.38741 13.6363C9.47973 13.5602 9.57296 13.4853 9.66713 13.4115C9.76129 13.3377 9.85636 13.265 9.95234 13.1936C10.0483 13.1222 10.1452 13.0519 10.2429 12.9828C10.3406 12.9138 10.4391 12.846 10.5385 12.7794C10.6379 12.7128 10.7381 12.6474 10.8391 12.5833C10.9401 12.5192 11.0419 12.4563 11.1445 12.3947C11.2471 12.3332 11.3504 12.2728 11.4544 12.2138C11.5585 12.1548 11.6633 12.0971 11.7688 12.0406C11.8743 11.9842 11.9805 11.9291 12.0873 11.8753C12.1942 11.8215 12.3017 11.769 12.4099 11.7179C12.5181 11.6667 12.6268 11.617 12.7362 11.5685C12.8456 11.5201 12.9556 11.473 13.0662 11.4273C13.1768 11.3816 13.2879 11.3373 13.3995 11.2944C13.5112 11.2514 13.6234 11.2098 13.7361 11.1697C13.8488 11.1295 13.962 11.0907 14.0756 11.0534C14.1893 11.016 14.3034 10.9801 14.4179 10.9455C14.5325 10.911 14.6474 10.8779 14.7628 10.8462C14.8782 10.8145 14.9939 10.7843 15.1101 10.7555C15.2262 10.7267 15.3426 10.6993 15.4594 10.6734C15.5762 10.6475 15.6933 10.623 15.8107 10.6C15.9282 10.577 16.0458 10.5554 16.1637 10.5353C16.2817 10.5152 16.3999 10.4966 16.5183 10.4794C16.6367 10.4622 16.7553 10.4465 16.8741 10.4323C16.9929 10.4181 17.1118 10.4053 17.2309 10.394C17.35 10.3828 17.4693 10.373 17.5886 10.3647C17.708 10.3563 17.8274 10.3495 17.9469 10.3441C18.0665 10.3388 18.186 10.3349 18.3056 10.3325Z" fill="black"/>
<path d="M31.7738 24.5485C31.7266 25.2827 31.7052 26.0016 31.579 26.7284C31.5616 26.8232 31.5432 26.9178 31.5238 27.0123C31.5044 27.1067 31.4841 27.2009 31.4627 27.295C31.4414 27.389 31.419 27.4828 31.3957 27.5763C31.3723 27.6698 31.348 27.7631 31.3228 27.8561C31.2975 27.9492 31.2712 28.042 31.244 28.1344C31.2167 28.2269 31.1885 28.3191 31.1594 28.411C31.1302 28.5029 31.1 28.5945 31.0689 28.6858C31.0378 28.777 31.0058 28.8679 30.9728 28.9585C30.9398 29.0491 30.9058 29.1393 30.8709 29.2292C30.836 29.3191 30.8002 29.4086 30.7634 29.4977C30.7266 29.5868 30.6889 29.6755 30.6503 29.7639C30.6116 29.8522 30.572 29.9401 30.5315 30.0276C30.491 30.1151 30.4496 30.2021 30.4073 30.2888C30.365 30.3754 30.3218 30.4616 30.2777 30.5473C30.2335 30.633 30.1885 30.7182 30.1426 30.803C30.0966 30.8878 30.0498 30.9721 30.0021 31.0559C29.9544 31.1397 29.9059 31.2229 29.8564 31.3057C29.807 31.3885 29.7567 31.4707 29.7056 31.5525C29.6544 31.6342 29.6024 31.7153 29.5495 31.796C29.4966 31.8766 29.4429 31.9566 29.3884 32.0361C29.3338 32.1156 29.2784 32.1945 29.2222 32.2729C29.166 32.3512 29.109 32.4289 29.0511 32.5061C28.9933 32.5832 28.9347 32.6597 28.8752 32.7356C28.8158 32.8115 28.7555 32.8868 28.6945 32.9614C28.6335 33.0361 28.5717 33.1101 28.5091 33.1834C28.4465 33.2567 28.3832 33.3294 28.3191 33.4014C28.2549 33.4734 28.1901 33.5448 28.1244 33.6154C28.0589 33.686 27.9925 33.756 27.9255 33.8252C27.8583 33.8945 27.7906 33.963 27.7221 34.0309C27.6535 34.0987 27.5843 34.1658 27.5144 34.2322C27.4445 34.2985 27.3738 34.3642 27.3025 34.429C27.2312 34.494 27.1593 34.5581 27.0866 34.6215C25.2335 36.2505 22.8427 37.3941 20.3956 37.7459C19.707 37.8449 19.0379 37.8583 18.3448 37.8744C18.415 37.5288 18.3481 36.8511 18.3527 36.4546C18.3768 36.3089 18.3723 36.1629 18.3716 36.0157L18.4054 36.0162C19.2578 36.0259 20.0902 35.898 20.9143 35.6877C22.9499 35.168 24.6836 34.1742 26.1802 32.7017C28.4155 30.5025 29.6054 27.6677 29.6321 24.5335L31.7738 24.5485Z" fill="#F65E1C"/>
<path d="M26.8033 24.5295C27.7459 24.5311 28.6896 24.5226 29.6321 24.5335C29.6054 27.6677 28.4155 30.5025 26.1802 32.7017C24.6836 34.1742 22.9499 35.168 20.9143 35.6877C20.0902 35.898 19.2578 36.0259 18.4054 36.0162L18.3716 36.0157C18.3723 36.1629 18.3768 36.3089 18.3527 36.4546L18.3472 36.013C18.3206 35.0546 18.3446 34.0885 18.3426 33.1293C18.5067 33.0612 19.4016 33.0512 19.6651 33.0208C20.5009 32.9242 21.3596 32.6195 22.1085 32.2456C22.4863 32.057 22.8809 31.82 23.217 31.5647C23.4383 31.3967 23.647 31.1999 23.8787 31.0475C23.9388 31.008 23.9826 30.9797 24.0565 30.9761C24.1778 30.8703 24.2745 30.7358 24.3869 30.62C24.3889 30.5646 24.4161 30.5426 24.4492 30.4986C24.763 30.0801 25.067 29.7705 25.3704 29.3098C26.331 27.8513 26.7077 26.2488 26.8033 24.5295Z" fill="#FE8A33"/>
<path d="M24.0565 30.9761C24.1778 30.8703 24.2745 30.7358 24.3869 30.62L25.4696 31.6978C25.0759 32.083 24.6866 32.4724 24.3017 32.8663C23.9697 32.4951 23.6339 32.1316 23.2757 31.7853C23.5389 31.5186 23.8051 31.2542 24.0565 30.9761Z" fill="#FEFEFE"/>
<path d="M5.0781 24.5645C5.12122 23.9326 5.14328 23.3051 5.23015 22.6766C5.24536 22.5683 5.26192 22.4602 5.27983 22.3522C5.29773 22.2443 5.31696 22.1366 5.33753 22.0292C5.35809 21.9217 5.37996 21.8145 5.40315 21.7076C5.42637 21.6007 5.45091 21.4941 5.47675 21.3878C5.5026 21.2815 5.52976 21.1756 5.55823 21.0699C5.5867 20.9643 5.61647 20.859 5.64753 20.7541C5.67859 20.6492 5.71095 20.5448 5.7446 20.4406C5.77826 20.3365 5.81319 20.2329 5.8494 20.1297C5.88565 20.0264 5.92314 19.9237 5.96187 19.8214C6.00064 19.7191 6.04065 19.6173 6.08191 19.5159C6.12321 19.4146 6.16575 19.3138 6.20953 19.2136C6.25328 19.1133 6.29828 19.0136 6.34452 18.9145C6.39076 18.8153 6.43821 18.7167 6.48687 18.6188C6.53557 18.5208 6.58544 18.4234 6.6365 18.3267C6.68758 18.23 6.73986 18.1339 6.79334 18.0384C6.84678 17.943 6.9014 17.8482 6.9572 17.7541C7.013 17.66 7.06996 17.5666 7.12808 17.4739C7.1862 17.3812 7.24545 17.2893 7.30582 17.198C7.3662 17.1068 7.4277 17.0164 7.49033 16.9267C7.55296 16.837 7.61668 16.7481 7.6815 16.6599C7.74632 16.5718 7.81223 16.4845 7.87923 16.398C7.9462 16.3115 8.01423 16.2258 8.08333 16.141C8.15242 16.0562 8.22255 15.9723 8.29373 15.8892C8.36491 15.8061 8.43711 15.7239 8.51034 15.6426C8.58354 15.5614 8.65773 15.481 8.73291 15.4015C8.80813 15.322 8.8843 15.2435 8.96144 15.1659C9.03857 15.0884 9.11665 15.0118 9.19567 14.9362C9.27472 14.8605 9.35468 14.7858 9.43555 14.7122C9.51642 14.6385 9.5982 14.5658 9.68089 14.4942C9.76354 14.4225 9.84709 14.3519 9.93153 14.2824C10.016 14.2128 10.1012 14.1443 10.1873 14.0768C10.2734 14.0093 10.3604 13.9429 10.4481 13.8776C10.5733 13.7833 10.7001 13.6911 10.8286 13.6013C10.957 13.5114 11.087 13.4239 11.2186 13.3386C11.3501 13.2533 11.4832 13.1704 11.6176 13.0899C11.7521 13.0093 11.888 12.9312 12.0252 12.8555C12.1625 12.7797 12.301 12.7065 12.4409 12.6356C12.5807 12.5648 12.7218 12.4965 12.8641 12.4306C13.0063 12.3648 13.1497 12.3015 13.2943 12.2408C13.4388 12.18 13.5843 12.1219 13.7309 12.0663C13.8774 12.0107 14.0249 11.9577 14.1734 11.9073C14.3218 11.857 14.4711 11.8092 14.6213 11.7641C14.7714 11.7191 14.9223 11.6767 15.074 11.6369C15.2256 11.5972 15.3779 11.5602 15.5309 11.5258C15.6838 11.4915 15.8373 11.4599 15.9914 11.431C16.1455 11.4021 16.3 11.3759 16.455 11.3525C16.61 11.329 16.7654 11.3084 16.9211 11.2905C17.0768 11.2725 17.2328 11.2574 17.3891 11.245C17.9252 11.2005 18.5002 11.1507 19.0353 11.2252C18.9284 11.2261 18.8216 11.2251 18.7148 11.2223C18.7122 11.9825 18.7147 12.7426 18.7225 13.5028C18.7263 13.9656 18.7585 14.4611 18.7054 14.9199C18.6789 14.4324 18.7003 13.9392 18.6995 13.4509C18.6079 13.4497 18.5163 13.4498 18.4247 13.4509C18.3331 13.4521 18.2415 13.4544 18.1499 13.4579C18.0584 13.4613 17.9669 13.466 17.8755 13.4717C17.7841 13.4774 17.6927 13.4843 17.6015 13.4924C17.5102 13.5004 17.4191 13.5096 17.328 13.5199C17.237 13.5302 17.1461 13.5416 17.0554 13.5542C16.9646 13.5668 16.8741 13.5805 16.7837 13.5953C16.6933 13.6102 16.6031 13.6262 16.5131 13.6433C16.4231 13.6604 16.3333 13.6786 16.2438 13.698C16.1542 13.7173 16.065 13.7378 15.9759 13.7593C15.8869 13.7809 15.7981 13.8036 15.7097 13.8274C15.6212 13.8512 15.5331 13.8761 15.4452 13.9022C15.3574 13.9281 15.2699 13.9552 15.1827 13.9834C15.0956 14.0116 15.0088 14.0409 14.9223 14.0713C14.8359 14.1016 14.7498 14.1331 14.6642 14.1656C14.5786 14.1981 14.4933 14.2317 14.4085 14.2663C14.3237 14.301 14.2394 14.3367 14.1555 14.3734C14.0716 14.4102 13.9881 14.448 13.9052 14.4868C13.8222 14.5257 13.7397 14.5655 13.6578 14.6065C13.5758 14.6474 13.4943 14.6893 13.4134 14.7322C13.3325 14.7752 13.2521 14.8191 13.1723 14.8641C13.0925 14.909 13.0132 14.955 12.9345 15.0019C12.8559 15.0488 12.7778 15.0967 12.7003 15.1456C12.6228 15.1945 12.546 15.2444 12.4698 15.2952C12.3935 15.346 12.318 15.3977 12.243 15.4504C12.1681 15.5031 12.0938 15.5567 12.0202 15.6113C11.9466 15.6658 11.8737 15.7213 11.8015 15.7777C11.7293 15.8341 11.6578 15.8913 11.587 15.9495C11.5163 16.0077 11.4462 16.0667 11.3769 16.1266C11.3076 16.1865 11.2391 16.2473 11.1713 16.309C11.1036 16.3706 11.0366 16.4331 10.9703 16.4964C10.9041 16.5597 10.8387 16.6238 10.7741 16.6887C10.709 16.7524 10.6447 16.8169 10.5813 16.8822C10.5178 16.9475 10.4551 17.0135 10.3933 17.0803C10.3315 17.1472 10.2705 17.2148 10.2103 17.2831C10.1502 17.3515 10.0909 17.4205 10.0324 17.4903C9.97398 17.5602 9.9164 17.6307 9.85969 17.7019C9.80299 17.7732 9.74719 17.8451 9.6923 17.9177C9.63738 17.9903 9.58336 18.0636 9.53026 18.1376C9.47718 18.2116 9.42502 18.2862 9.37377 18.3614C9.32251 18.4367 9.2722 18.5126 9.22283 18.5891C9.17346 18.6656 9.12505 18.7427 9.0776 18.8204C9.03014 18.8981 8.98367 18.9764 8.93817 19.0552C8.89267 19.1341 8.84814 19.2135 8.80459 19.2935C8.76105 19.3734 8.71851 19.4539 8.67698 19.535C8.63542 19.616 8.59488 19.6975 8.55537 19.7795C8.51583 19.8615 8.47731 19.944 8.43982 20.027C8.40236 20.11 8.36593 20.1934 8.33053 20.2773C8.29509 20.3612 8.26072 20.4455 8.2274 20.5302C8.19408 20.6149 8.16182 20.7001 8.13063 20.7856C8.09943 20.8712 8.06929 20.9571 8.04021 21.0433C8.0111 21.1296 7.98309 21.2162 7.95617 21.3032C7.92924 21.3902 7.9034 21.4775 7.87863 21.5651C7.85386 21.6527 7.83018 21.7406 7.8076 21.8288C7.78502 21.9171 7.76353 22.0055 7.74314 22.0942C7.72274 22.183 7.70346 22.2719 7.68529 22.3612C7.66708 22.4504 7.65 22.5398 7.63405 22.6294C7.6181 22.7191 7.60324 22.8089 7.58947 22.8989C7.57574 22.9889 7.56312 23.0791 7.55161 23.1694C7.5401 23.2597 7.52972 23.3502 7.52047 23.4408C7.51121 23.5313 7.50307 23.622 7.49603 23.7128C7.48903 23.8036 7.48316 23.8944 7.47841 23.9853C7.47364 24.0763 7.47 24.1672 7.46751 24.2582C7.46499 24.3493 7.46361 24.4403 7.46337 24.5313C7.65823 24.5346 7.85768 24.53 8.05127 24.5522C7.38568 24.5716 6.7152 24.5533 6.04925 24.5476C5.74031 24.545 5.38276 24.5136 5.0781 24.5645Z" fill="#FEBC75"/>
<path d="M21.0142 24.5004L21.1412 24.5049C21.5459 24.5999 22.4732 24.5297 22.9346 24.5276C24.2231 24.5215 25.5149 24.5131 26.8033 24.5295C26.7077 26.2488 26.331 27.8513 25.3704 29.3098C25.067 29.7705 24.763 30.0801 24.4492 30.4986C24.4161 30.5426 24.3889 30.5646 24.3869 30.62C24.2745 30.7358 24.1778 30.8703 24.0565 30.9761C23.9826 30.9797 23.9388 31.008 23.8787 31.0475C23.647 31.1999 23.4383 31.3967 23.217 31.5647C22.8809 31.82 22.4863 32.057 22.1085 32.2456C21.3596 32.6195 20.5009 32.9242 19.6651 33.0208C19.4016 33.0512 18.5067 33.0612 18.3426 33.1293C18.3316 33.1303 18.3207 33.132 18.3098 33.1323C18.0317 33.1387 17.7293 33.0738 17.4538 33.0348C16.2431 32.8634 14.9773 32.3782 13.9587 31.7024C13.5016 31.3991 13.0786 31.0464 12.6606 30.6922C13.0917 30.2365 13.5677 29.8215 14.0145 29.3809C14.5524 28.8505 15.0665 28.2958 15.6059 27.766C15.9921 27.3869 16.4457 27.0371 16.7792 26.6119C17.3204 27.0116 17.8805 27.2499 18.5638 27.2228C18.6062 27.2208 18.6486 27.2178 18.691 27.2137C18.7333 27.2097 18.7755 27.2045 18.8176 27.1984C18.8596 27.1922 18.9015 27.185 18.9433 27.1768C18.985 27.1685 19.0264 27.1593 19.0677 27.149C19.109 27.1387 19.1499 27.1274 19.1906 27.115C19.2313 27.1027 19.2717 27.0894 19.3117 27.075C19.3518 27.0607 19.3914 27.0454 19.4307 27.0291C19.47 27.0128 19.5088 26.9955 19.5472 26.9773C19.5857 26.959 19.6236 26.9399 19.6611 26.9198C19.6985 26.8997 19.7354 26.8786 19.7719 26.8567C19.8083 26.8347 19.8442 26.8119 19.8794 26.7882C19.9147 26.7645 19.9494 26.7399 19.9835 26.7144C20.0176 26.689 20.051 26.6627 20.0837 26.6356C20.1165 26.6085 20.1486 26.5806 20.1799 26.5519C20.2113 26.5232 20.242 26.4937 20.2719 26.4635C20.3018 26.4333 20.331 26.4024 20.3594 26.3707C20.8145 25.8703 21.0459 25.174 21.0142 24.5004Z" fill="#FEBC75"/>
<path d="M19.0353 11.2252C22.6843 11.4048 25.4268 12.8353 28.0326 15.3468C30.4932 17.8068 31.698 21.1026 31.7738 24.5485L29.6321 24.5335C28.6896 24.5226 27.7459 24.5311 26.8033 24.5295C25.5149 24.5131 24.2231 24.5215 22.9346 24.5276C22.4732 24.5297 21.5459 24.5999 21.1412 24.5049L21.0142 24.5004C20.9428 23.8788 20.7302 23.3312 20.29 22.8759C20.7682 22.3169 21.366 21.8468 21.8927 21.3328L23.4407 19.8096C23.7806 19.4747 24.1174 19.1287 24.4793 18.8177C24.4678 18.8012 24.4566 18.7844 24.4443 18.7686C24.1526 18.3957 23.7565 18.0678 23.3794 17.7838C21.9366 16.697 20.4566 16.2523 18.6839 16.0394C18.7029 15.6667 18.7024 15.2931 18.7054 14.9199C18.7585 14.4611 18.7263 13.9656 18.7225 13.5028C18.7147 12.7426 18.7122 11.9825 18.7148 11.2223C18.8216 11.2251 18.9284 11.2261 19.0353 11.2252Z" fill="#FEFEFE"/>
<path d="M28.0326 15.3468C30.4932 17.8068 31.698 21.1026 31.7738 24.5485L29.6321 24.5335C28.6896 24.5226 27.7459 24.5311 26.8033 24.5295C25.5149 24.5131 24.2231 24.5215 22.9346 24.5276C22.4732 24.5297 21.5459 24.5999 21.1412 24.5049C21.9308 24.537 22.7272 24.5033 23.5179 24.5026C25.558 24.5009 27.6052 24.4733 29.6448 24.5139C29.6413 24.3259 29.6366 24.138 29.6307 23.9501C29.5567 21.7904 28.8983 19.7371 27.8147 17.8754C27.5449 17.4118 27.2529 16.9071 26.8598 16.539L28.0326 15.3468Z" fill="#E3D7B2"/>
<path d="M8.05127 24.5522L15.8537 24.5587C15.855 24.6672 15.8485 24.7822 15.867 24.8892C15.9599 25.5837 16.2827 26.1231 16.7792 26.6119C16.4457 27.0371 15.9921 27.3869 15.6059 27.766C15.0665 28.2958 14.5524 28.8505 14.0145 29.3809C13.5677 29.8215 13.0917 30.2365 12.6606 30.6922C13.0786 31.0464 13.5016 31.3991 13.9587 31.7024C14.9773 32.3782 16.2431 32.8634 17.4538 33.0348C17.7293 33.0738 18.0317 33.1387 18.3098 33.1323C18.3207 33.132 18.3316 33.1303 18.3426 33.1293C18.3446 34.0885 18.3206 35.0546 18.3472 36.013L18.3527 36.4546C18.3481 36.8511 18.415 37.5288 18.3448 37.8744C18.3247 37.8761 18.3046 37.8775 18.2843 37.8777C17.8531 37.8831 17.4096 37.8332 16.9818 37.784C14.1291 37.4556 11.2244 36.1855 9.19952 34.1212C9.06695 33.9927 8.93585 33.8628 8.80622 33.7314C6.45604 31.3168 5.03267 27.944 5.0781 24.5645C5.38276 24.5136 5.74031 24.545 6.04925 24.5476C6.7152 24.5533 7.38568 24.5716 8.05127 24.5522Z" fill="#FEFEFE"/>
<path d="M9.19952 34.1212C9.64269 33.7432 10.0792 33.339 10.4702 32.907C10.9362 33.3886 11.5185 33.8048 12.0879 34.1564C12.2041 34.2286 12.3214 34.2988 12.4399 34.3671C12.5584 34.4354 12.678 34.5017 12.7987 34.5659C12.9194 34.6303 13.0411 34.6925 13.1639 34.7528C13.2866 34.813 13.4104 34.8713 13.535 34.9274C13.6597 34.9836 13.7853 35.0376 13.9118 35.0896C14.0383 35.1416 14.1657 35.1914 14.2938 35.2392C14.4219 35.287 14.5508 35.3326 14.6805 35.3761C14.8102 35.4195 14.9405 35.4609 15.0715 35.5C15.2026 35.5391 15.3342 35.5761 15.4665 35.6108C15.5987 35.6456 15.7315 35.6782 15.8649 35.7086C15.9982 35.7389 16.132 35.7671 16.2663 35.793C16.4006 35.8189 16.5353 35.8426 16.6703 35.8641C16.8054 35.8855 16.9407 35.9047 17.0764 35.9217C17.2121 35.9386 17.3481 35.9533 17.4843 35.9658C17.6205 35.9782 17.7568 35.9884 17.8934 35.9963C18.0299 36.0043 18.1665 36.0099 18.3032 36.0133C18.3179 36.0136 18.3325 36.0131 18.3472 36.013L18.3527 36.4546C18.3481 36.8511 18.415 37.5288 18.3448 37.8744C18.3247 37.8761 18.3046 37.8775 18.2843 37.8777C17.8531 37.8831 17.4096 37.8332 16.9818 37.784C14.1291 37.4556 11.2244 36.1855 9.19952 34.1212Z" fill="#E3D7B2"/>
<path d="M7.46337 24.5313C7.46361 24.4403 7.46499 24.3493 7.46751 24.2582C7.47 24.1672 7.47364 24.0763 7.47841 23.9853C7.48316 23.8944 7.48903 23.8036 7.49603 23.7128C7.50307 23.622 7.51121 23.5313 7.52047 23.4408C7.52972 23.3502 7.5401 23.2597 7.55161 23.1694C7.56312 23.0791 7.57574 22.9889 7.58947 22.8989C7.60324 22.8089 7.6181 22.7191 7.63405 22.6294C7.65 22.5398 7.66708 22.4504 7.68529 22.3612C7.70346 22.2719 7.72274 22.183 7.74314 22.0942C7.76353 22.0055 7.78502 21.9171 7.8076 21.8288C7.83018 21.7406 7.85386 21.6527 7.87863 21.5651C7.9034 21.4775 7.92924 21.3902 7.95617 21.3032C7.98309 21.2162 8.0111 21.1296 8.04021 21.0433C8.06929 20.9571 8.09943 20.8712 8.13063 20.7856C8.16182 20.7001 8.19408 20.6149 8.2274 20.5302C8.26072 20.4455 8.29509 20.3612 8.33053 20.2773C8.36593 20.1934 8.40236 20.11 8.43982 20.027C8.47731 19.944 8.51583 19.8615 8.55537 19.7795C8.59488 19.6975 8.63542 19.616 8.67698 19.535C8.71851 19.4539 8.76105 19.3734 8.80459 19.2935C8.84814 19.2135 8.89267 19.1341 8.93817 19.0552C8.98367 18.9764 9.03014 18.8981 9.0776 18.8204C9.12505 18.7427 9.17346 18.6656 9.22283 18.5891C9.2722 18.5126 9.32251 18.4367 9.37377 18.3614C9.42502 18.2862 9.47718 18.2116 9.53026 18.1376C9.58336 18.0636 9.63738 17.9903 9.6923 17.9177C9.74719 17.8451 9.80299 17.7732 9.85969 17.7019C9.9164 17.6307 9.97398 17.5602 10.0324 17.4903C10.0909 17.4205 10.1502 17.3515 10.2103 17.2831C10.2705 17.2148 10.3315 17.1472 10.3933 17.0803C10.4551 17.0135 10.5178 16.9475 10.5813 16.8822C10.6447 16.8169 10.709 16.7524 10.7741 16.6887C10.8387 16.6238 10.9041 16.5597 10.9703 16.4964C11.0366 16.4331 11.1036 16.3706 11.1713 16.309C11.2391 16.2473 11.3076 16.1865 11.3769 16.1266C11.4462 16.0667 11.5163 16.0077 11.587 15.9495C11.6578 15.8913 11.7293 15.8341 11.8015 15.7777C11.8737 15.7213 11.9466 15.6658 12.0202 15.6113C12.0938 15.5567 12.1681 15.5031 12.243 15.4504C12.318 15.3977 12.3935 15.346 12.4698 15.2952C12.546 15.2444 12.6228 15.1945 12.7003 15.1456C12.7778 15.0967 12.8559 15.0488 12.9345 15.0019C13.0132 14.955 13.0925 14.909 13.1723 14.8641C13.2521 14.8191 13.3325 14.7752 13.4134 14.7322C13.4943 14.6893 13.5758 14.6474 13.6578 14.6065C13.7397 14.5655 13.8222 14.5257 13.9052 14.4868C13.9881 14.448 14.0716 14.4102 14.1555 14.3734C14.2394 14.3367 14.3237 14.301 14.4085 14.2663C14.4933 14.2317 14.5786 14.1981 14.6642 14.1656C14.7498 14.1331 14.8359 14.1016 14.9223 14.0713C15.0088 14.0409 15.0956 14.0116 15.1827 13.9834C15.2699 13.9552 15.3574 13.9281 15.4452 13.9022C15.5331 13.8761 15.6212 13.8512 15.7097 13.8274C15.7981 13.8036 15.8869 13.7809 15.9759 13.7593C16.065 13.7378 16.1542 13.7173 16.2438 13.698C16.3333 13.6786 16.4231 13.6604 16.5131 13.6433C16.6031 13.6262 16.6933 13.6102 16.7837 13.5953C16.8741 13.5805 16.9646 13.5668 17.0554 13.5542C17.1461 13.5416 17.237 13.5302 17.328 13.5199C17.4191 13.5096 17.5102 13.5004 17.6015 13.4924C17.6927 13.4843 17.7841 13.4774 17.8755 13.4717C17.9669 13.466 18.0584 13.4613 18.1499 13.4579C18.2415 13.4544 18.3331 13.4521 18.4247 13.4509C18.5163 13.4498 18.6079 13.4497 18.6995 13.4509C18.7003 13.9392 18.6789 14.4324 18.7054 14.9199C18.7024 15.2931 18.7029 15.6667 18.6839 16.0394C20.4566 16.2523 21.9366 16.697 23.3794 17.7838C23.7565 18.0678 24.1526 18.3957 24.4443 18.7686C24.4566 18.7844 24.4678 18.8012 24.4793 18.8177C24.1174 19.1287 23.7806 19.4747 23.4407 19.8096L21.8927 21.3328C21.366 21.8468 20.7682 22.3169 20.29 22.8759C20.7302 23.3312 20.9428 23.8788 21.0142 24.5004C21.0459 25.174 20.8145 25.8703 20.3594 26.3707C20.331 26.4024 20.3018 26.4333 20.2719 26.4635C20.242 26.4937 20.2113 26.5232 20.1799 26.5519C20.1486 26.5806 20.1165 26.6085 20.0837 26.6356C20.051 26.6627 20.0176 26.689 19.9835 26.7144C19.9494 26.7399 19.9147 26.7645 19.8794 26.7882C19.8442 26.8119 19.8083 26.8347 19.7719 26.8567C19.7354 26.8786 19.6985 26.8997 19.6611 26.9198C19.6236 26.9399 19.5857 26.959 19.5472 26.9773C19.5088 26.9955 19.47 27.0128 19.4307 27.0291C19.3914 27.0454 19.3518 27.0607 19.3117 27.075C19.2717 27.0894 19.2313 27.1027 19.1906 27.115C19.1499 27.1274 19.109 27.1387 19.0677 27.149C19.0264 27.1593 18.985 27.1685 18.9433 27.1768C18.9015 27.185 18.8596 27.1922 18.8176 27.1984C18.7755 27.2045 18.7333 27.2097 18.691 27.2137C18.6486 27.2178 18.6062 27.2208 18.5638 27.2228C17.8805 27.2499 17.3204 27.0116 16.7792 26.6119C16.2827 26.1231 15.9599 25.5837 15.867 24.8892C15.8485 24.7822 15.855 24.6672 15.8537 24.5587L8.05127 24.5522C7.85768 24.53 7.65823 24.5346 7.46337 24.5313Z" fill="#FE8A33"/>
<path d="M12.9142 15.9372C13.074 16.0482 13.1101 16.5032 13.2638 16.6972C13.5071 17.0044 13.9793 17.068 14.3431 17.1106C14.1069 17.1636 13.862 17.2181 13.6405 17.3183C13.1969 17.519 13.0773 17.8846 12.9217 18.305L12.897 18.3211C12.8355 18.2584 12.6051 17.63 12.5127 17.4672C12.2051 17.3222 11.9026 17.2326 11.5747 17.149C11.8934 17.057 12.245 16.9648 12.5368 16.8073C12.713 16.5332 12.8073 16.2425 12.9142 15.9372Z" fill="#FEFEFE"/>
<path d="M11.2489 17.9655C11.3745 17.9714 11.51 18.0033 11.623 18.0587C11.8531 18.1716 11.9639 18.3639 12.039 18.5995C11.9457 19.015 11.5946 19.3189 11.3501 19.6509C11.1654 19.9015 10.9932 20.1707 10.8394 20.4416C10.559 20.9355 10.3166 21.4563 10.1642 22.0048C10.0876 22.2804 10.0646 22.5954 9.9486 22.8561C9.84194 23.0958 9.69913 23.1922 9.46364 23.2811C9.34334 23.2967 9.22789 23.2932 9.10971 23.2631C8.95489 23.2237 8.82929 23.1317 8.75216 22.991C8.5775 22.6728 8.71066 22.2145 8.804 21.8877C9.17105 20.6029 10.0406 18.6354 11.2489 17.9655Z" fill="#FEFEFE"/>
<path d="M17.8939 17.035L18.9294 17.0344L18.9295 20.118C18.9296 20.7854 18.918 21.4545 18.9493 22.1213C19.4857 22.2741 19.8786 22.499 20.29 22.8759C20.7302 23.3312 20.9428 23.8788 21.0142 24.5004C21.0459 25.174 20.8145 25.8703 20.3594 26.3707C20.331 26.4024 20.3018 26.4333 20.2719 26.4635C20.242 26.4937 20.2113 26.5232 20.1799 26.5519C20.1486 26.5806 20.1165 26.6085 20.0837 26.6356C20.051 26.6627 20.0176 26.689 19.9835 26.7144C19.9494 26.7399 19.9147 26.7645 19.8794 26.7882C19.8442 26.8119 19.8083 26.8347 19.7719 26.8567C19.7354 26.8786 19.6985 26.8997 19.6611 26.9198C19.6236 26.9399 19.5857 26.959 19.5472 26.9773C19.5088 26.9955 19.47 27.0128 19.4307 27.0291C19.3914 27.0454 19.3518 27.0607 19.3117 27.075C19.2717 27.0894 19.2313 27.1027 19.1906 27.115C19.1499 27.1274 19.109 27.1387 19.0677 27.149C19.0264 27.1593 18.985 27.1685 18.9433 27.1768C18.9015 27.185 18.8596 27.1922 18.8176 27.1984C18.7755 27.2045 18.7333 27.2097 18.691 27.2137C18.6486 27.2178 18.6062 27.2208 18.5638 27.2228C17.8805 27.2499 17.3204 27.0116 16.7792 26.6119C16.2827 26.1231 15.9599 25.5837 15.867 24.8892C15.8828 24.2732 15.9507 23.7534 16.291 23.2234C16.6643 22.6421 17.2358 22.2931 17.9049 22.1492C17.9047 20.4452 17.9254 18.7384 17.8939 17.035Z" fill="black"/>
<path d="M19.6678 23.4624C19.9846 23.8179 20.1456 24.3191 20.1147 24.7917C20.1131 24.8185 20.1109 24.8453 20.1079 24.8719C20.105 24.8986 20.1013 24.9252 20.0971 24.9517C20.0928 24.9782 20.0879 25.0046 20.0823 25.0309C20.0767 25.0572 20.0705 25.0833 20.0636 25.1092C20.0566 25.1351 20.0491 25.1609 20.0409 25.1864C20.0327 25.212 20.0239 25.2374 20.0144 25.2625C20.005 25.2876 19.9949 25.3125 19.9842 25.3371C19.9735 25.3618 19.9622 25.3861 19.9503 25.4101C19.9384 25.4342 19.9258 25.4579 19.9127 25.4814C19.8996 25.5048 19.8859 25.5279 19.8717 25.5507C19.8574 25.5734 19.8426 25.5958 19.8272 25.6178C19.8118 25.6398 19.7959 25.6614 19.7794 25.6826C19.763 25.7038 19.746 25.7246 19.7285 25.745C19.711 25.7653 19.693 25.7852 19.6745 25.8047C19.656 25.8241 19.6371 25.8431 19.6176 25.8616C19.5982 25.8801 19.5783 25.8981 19.5579 25.9157C19.2196 26.2072 18.7819 26.3339 18.3393 26.2999C18.013 26.2749 17.6423 26.1501 17.3895 25.9373C17.5158 25.7791 17.6791 25.6388 17.8182 25.4908C18.1424 25.1459 18.464 24.805 18.7988 24.47C19.1154 24.1532 19.4442 23.8552 19.6678 23.4624Z" fill="#E3D7B2"/>
<path d="M17.3895 25.9373C17.3687 25.9202 17.348 25.9027 17.3277 25.8849C16.98 25.5823 16.7616 25.2045 16.732 24.7393C16.7303 24.7113 16.7293 24.6833 16.7289 24.6553C16.7286 24.6273 16.729 24.5993 16.7301 24.5713C16.7311 24.5433 16.7328 24.5153 16.7353 24.4874C16.7378 24.4595 16.7409 24.4316 16.7447 24.4039C16.7485 24.3761 16.7531 24.3485 16.7583 24.3209C16.7635 24.2934 16.7694 24.266 16.7759 24.2387C16.7825 24.2115 16.7897 24.1845 16.7976 24.1576C16.8056 24.1307 16.8141 24.104 16.8234 24.0776C16.8326 24.0511 16.8425 24.0249 16.853 23.999C16.8636 23.973 16.8747 23.9473 16.8866 23.9219C16.8984 23.8965 16.9108 23.8714 16.9239 23.8466C16.937 23.8218 16.9506 23.7974 16.9649 23.7733C16.9792 23.7491 16.9941 23.7254 17.0095 23.702C17.025 23.6786 17.041 23.6557 17.0576 23.6331C17.0742 23.6105 17.0914 23.5884 17.1091 23.5666C17.1268 23.5449 17.145 23.5237 17.1637 23.5028C17.1823 23.4825 17.2014 23.4626 17.221 23.4432C17.2406 23.4238 17.2607 23.405 17.2812 23.3866C17.3017 23.3682 17.3227 23.3503 17.3441 23.3329C17.3655 23.3156 17.3874 23.2988 17.4096 23.2825C17.4319 23.2662 17.4545 23.2505 17.4775 23.2354C17.5006 23.2202 17.524 23.2056 17.5477 23.1917C17.5714 23.1777 17.5955 23.1643 17.62 23.1515C17.6444 23.1387 17.6691 23.1265 17.6941 23.115C17.7191 23.1034 17.7444 23.0925 17.77 23.0822C17.7955 23.0718 17.8213 23.0622 17.8474 23.0532C17.8734 23.0441 17.8997 23.0358 17.9261 23.028C17.9526 23.0203 17.9793 23.0132 18.0061 23.0068C18.0329 23.0004 18.0598 22.9947 18.0869 22.9896C18.114 22.9846 18.1412 22.9802 18.1686 22.9765C18.1958 22.9727 18.2232 22.9697 18.2507 22.9673C18.2781 22.965 18.3057 22.9633 18.3332 22.9623C18.8339 22.9437 19.3009 23.1243 19.6678 23.4624C19.4442 23.8552 19.1154 24.1532 18.7988 24.47C18.464 24.805 18.1424 25.1459 17.8182 25.4908C17.6791 25.6388 17.5158 25.7791 17.3895 25.9373Z" fill="#FEFEFE"/>
</svg>
