<svg width="131" height="123" viewBox="0 0 131 123" fill="none" xmlns="http://www.w3.org/2000/svg">
<path d="M26.0221 86.169C26.6699 86.6183 27.2699 87.1509 27.8521 87.6819L30.5267 90.1087C32.3328 91.7268 34.1766 93.3222 35.9166 95.0111C36.6509 95.6975 37.3746 96.4017 38.1246 97.0704C39.1328 97.9336 40.1184 98.8193 41.0177 99.7972C40.8439 100.455 40.7784 101.174 40.661 101.847C40.4258 103.197 40.1258 104.547 39.6689 105.84C37.1623 112.932 32.4868 116.804 25.9297 119.916C28.8349 117.016 30.2853 114.047 31.4383 110.149C24.4085 117.5 14.3525 120.316 4.46236 120.577C4.9518 113.073 6.95071 105.527 11.5435 99.4564C12.7577 97.8516 14.1569 96.4291 15.5589 94.9919C12.4662 95.6488 10.4359 96.525 7.85431 98.3207C8.44465 96.9921 9.15638 95.7012 10.03 94.537C13.86 89.4338 19.8915 87.0206 26.0221 86.169Z" fill="#F65E1D"/>
<path d="M27.8521 87.6819L30.5267 90.1087C32.3328 91.7268 34.1766 93.3222 35.9166 95.0111C36.6509 95.6975 37.3746 96.4017 38.1246 97.0704C37.3509 101.005 36.4648 103.689 34.2452 107.066C34.5596 105.343 34.5067 103.459 34.5568 101.706C33.0821 103.277 31.5795 104.831 29.9206 106.209C26.0051 109.463 20.753 112.594 15.4761 112.079C14.6049 111.994 13.5986 111.785 13.0374 111.051C12.2831 110.064 12.4156 108.528 12.5975 107.373C13.5668 101.219 18.3668 96.1777 23.2101 92.6283C21.5167 92.8394 19.8244 93.0594 18.1333 93.2883C21.3513 90.4707 23.8834 89.1516 27.8521 87.6819Z" fill="#FED00A"/>
<path d="M30.5267 90.1087C32.3328 91.7268 34.1766 93.3222 35.9166 95.0111C33.9338 98.0771 31.4602 100.821 28.4123 102.858C26.1983 104.338 23.9197 105.343 21.2653 105.697C20.7048 105.772 20.0803 105.881 19.5214 105.752C19.1577 105.669 18.8599 105.465 18.6807 105.133C18.3192 104.464 18.5284 103.536 18.7172 102.837C20.2978 96.9902 25.5141 92.9949 30.5267 90.1087Z" fill="#FEBC76"/>
<path d="M50.1027 36.1921C51.9492 33.9117 54.0379 31.8006 56.0942 29.7098C57.9752 27.7697 59.9199 25.8954 61.928 24.087C63.9362 22.2788 66.0032 20.5405 68.1293 18.8722C79.2755 10.1973 94.8654 1.78195 109.045 0.28656C109.712 0.213112 110.38 0.153768 111.05 0.10853C111.719 0.0632801 112.389 0.0321784 113.06 0.0152232C113.731 -0.001732 114.402 -0.00452398 115.073 0.00684712C115.744 0.0182075 116.414 0.0437201 117.084 0.0833854C117.754 0.12304 118.423 0.176815 119.09 0.244711C119.758 0.312596 120.424 0.394537 121.088 0.490534C121.752 0.586532 122.414 0.696502 123.074 0.820441C123.733 0.94437 124.39 1.08216 125.043 1.2338C126.076 1.46659 127.446 1.68104 128.296 2.33893C129.626 3.36938 130.127 8.80364 130.291 10.5498C131.907 27.7469 121.385 45.7581 110.817 58.4918C109.573 60.0027 108.296 61.4854 106.987 62.94C105.677 64.3946 104.336 65.8196 102.963 67.2149C101.591 68.6103 100.188 69.9746 98.7553 71.308C97.3225 72.6414 95.861 73.9426 94.3708 75.2115C96.6382 81.545 100.773 88.0315 97.5391 94.8588C96.9266 96.1519 96.0975 97.3859 95.1596 98.4654C92.5696 101.446 89.3192 103.892 86.1633 106.239C84.4814 107.504 82.7747 108.734 81.0433 109.93C79.3119 111.126 77.5572 112.286 75.7791 113.411C74.0011 114.537 72.2011 115.626 70.3793 116.679C68.5575 117.732 66.7152 118.748 64.8525 119.726C63.284 120.563 60.8566 122.047 59.2883 122.588C58.4875 122.864 57.5791 122.943 56.8067 122.534C56.1757 122.2 55.7628 121.568 55.5791 120.89C55.455 120.431 55.49 119.984 55.6403 119.537C55.9838 118.514 56.5514 117.536 57.0472 116.58C57.6422 115.432 58.2298 114.281 58.8102 113.126C60.9797 108.839 63.1013 104.508 65.3568 100.267C63.7152 98.6492 62.1843 96.9253 60.5476 95.3048C59.3854 95.8309 57.8812 96.2504 56.6347 96.5063C55.1062 98.2937 52.1716 102.087 50.4091 103.24C50.2508 103.345 50.0864 103.439 49.916 103.523C49.7455 103.606 49.5703 103.679 49.3905 103.74C49.2107 103.801 49.0277 103.85 48.8415 103.887C48.6553 103.925 48.4675 103.95 48.2781 103.963C46.4784 104.092 44.81 103.34 43.4746 102.174C42.6175 101.425 41.8185 100.605 41.0177 99.7972C40.1184 98.8193 39.1328 97.9336 38.1246 97.0704C37.3746 96.4017 36.6509 95.6975 35.9166 95.0111C34.1766 93.3222 32.3328 91.7268 30.5267 90.1087L27.8521 87.6819C27.2699 87.1509 26.6699 86.6183 26.0221 86.169C24.5737 84.7542 23.4729 83.3738 23.4332 81.2558C23.3869 78.7911 25.054 77.2674 26.5838 75.5664C27.4906 74.5577 28.3948 73.5423 29.3437 72.5731C29.6525 72.2609 29.9683 71.9559 30.2911 71.6582L31.1489 68.3944C28.9379 66.7088 27.2585 64.3974 25.0657 62.7105C22.8545 63.7324 20.7251 64.933 18.5508 66.0296C15.3583 67.6468 12.1227 69.173 8.84423 70.6081C7.06778 71.3978 5.21733 72.3592 3.33454 72.8487C2.76886 72.9959 2.07026 73.1283 1.50972 72.9148C1.43615 72.8869 1.36419 72.8553 1.29383 72.82C1.22346 72.7849 1.15502 72.7463 1.08851 72.7042C1.02199 72.6623 0.957712 72.6171 0.895678 72.5686C0.833644 72.5201 0.774173 72.4687 0.717264 72.4143C0.660462 72.36 0.606436 72.3029 0.555186 72.2431C0.504043 72.1834 0.455942 72.1213 0.410885 72.0567C0.365935 71.9921 0.324294 71.9255 0.285963 71.8568C0.247633 71.7881 0.212825 71.7176 0.181542 71.6454C-0.194986 70.7857 0.0775999 69.9524 0.424498 69.1364C4.26504 60.1011 13.1331 48.5628 19.8788 41.1643C21.2832 39.6241 22.6593 38.003 24.2743 36.678C25.75 35.4673 27.3722 34.5604 29.1405 33.8537C30.9789 33.1189 33.0659 32.8415 35.0375 32.9313C37.295 33.0342 39.5263 33.6631 41.7161 34.1817L50.1027 36.1921ZM30.7733 74.5656C29.5007 75.8612 26.9263 78.1069 26.1276 79.6377C26.0695 79.7514 26.0183 79.8683 25.9742 79.9883C25.9302 80.1082 25.8936 80.2303 25.8643 80.3547C25.8351 80.4791 25.8134 80.6048 25.7993 80.7317C25.7852 80.8587 25.7789 80.9861 25.7803 81.1139C25.7822 81.6928 25.9278 82.2947 26.2539 82.7761C28.3311 80.7751 30.5143 78.3124 32.3009 76.0441C31.8045 75.5371 31.269 75.0705 30.7733 74.5656Z" fill="black"/>
<path d="M86.5822 81.2459L92.4804 76.8784C92.8867 77.9215 93.3419 78.9442 93.79 79.97C92.5412 80.4774 91.4298 81.6656 90.354 82.4837C89.6242 83.0386 88.8476 83.5359 88.0743 84.0278C87.5385 83.108 87.2028 82.1278 86.5822 81.2459Z" fill="#B6500F"/>
<path d="M37.2298 59.8142C38.1829 60.9244 39.0145 62.1619 39.8687 63.3493C37.6647 67.079 35.9872 70.7202 34.5022 74.7787C33.8786 74.1125 33.1662 73.5168 32.5187 72.8708C32.9851 68.973 35.4925 63.3578 37.2298 59.8142Z" fill="#E3D0FB"/>
<path d="M49.4626 91.9598C50.9786 93.3011 52.4511 94.689 53.965 96.0316C52.7572 97.4883 49.9709 101.41 48.0899 101.623C47.0517 101.74 46.0783 101.225 45.3083 100.575C44.8651 100.2 44.404 99.7436 44.0253 99.3036C45.7437 96.7687 47.8892 94.6109 49.4626 91.9598Z" fill="#9836E3"/>
<path d="M63.4093 85.8958C65.1204 86.969 66.9129 88.0118 68.5482 89.197C66.5289 90.2472 64.4685 91.2095 62.3672 92.0841C60.2658 92.9588 58.131 93.7423 55.9628 94.4349C54.7745 93.5266 53.2733 92.3073 52.2727 91.2148C53.1965 90.9939 54.2519 90.3725 55.1217 89.9735C57.9087 88.6955 60.7643 87.4524 63.4093 85.8958Z" fill="#F65E1D"/>
<path d="M97.9413 5.32136C106.166 2.34438 116.705 1.27023 125.188 3.79091C124.116 4.02986 122.83 3.81461 121.731 3.79988C120.65 3.78514 119.504 3.87227 118.43 4.00248C111.604 4.83 105.336 6.96489 99.0076 9.55413C98.5566 8.15373 98.238 6.76053 97.9413 5.32136Z" fill="#E3D0FB"/>
<path d="M127.103 5.2581C128.364 12.0505 128.467 17.6982 126.677 24.3956C126.184 26.2408 125.524 28.0141 124.984 29.8397C123.114 29.6062 121.268 29.3416 119.434 28.8992C120.284 27.5217 120.889 26.0368 121.533 24.5563C123.383 20.3025 124.901 16.0015 125.944 11.4782C126.201 10.3621 126.778 5.84603 127.103 5.2581Z" fill="#F65E1D"/>
<path d="M24.885 55.9515C26.5779 57.3093 31.9452 60.1768 34.0717 60.6377C33.3051 62.3711 32.6745 64.1623 31.9445 65.911C29.792 63.8972 27.5758 61.9425 25.4343 59.9194C23.1931 60.9631 21.0297 62.1355 18.8144 63.2319C15.1606 65.037 11.4708 66.7651 7.74508 68.4162C6.08266 69.1474 4.24983 70.1459 2.47962 70.553C2.66636 70.1707 2.95993 69.7141 3.069 69.31C4.22677 68.6646 5.00865 67.273 5.98464 66.3796C7.44943 65.9571 8.809 64.7593 10.1373 64.018C13.0008 62.4196 15.9058 60.8853 18.7843 59.3126C20.8199 58.2005 22.8339 57.0332 24.885 55.9515Z" fill="#F65E1D"/>
<path d="M53.0347 77.9455C54.5889 79.1673 56.0894 80.455 57.6456 81.6731C59.5262 83.145 61.4544 84.5255 63.4093 85.8958C60.7643 87.4524 57.9087 88.6955 55.1217 89.9735C54.2519 90.3725 53.1965 90.9939 52.2727 91.2148C50.0625 89.3619 47.9677 87.2927 45.8946 85.2864C47.152 83.8416 48.5333 82.5221 49.8811 81.1635C50.9394 80.0969 51.9578 78.9942 53.0347 77.9455Z" fill="#FE8A33"/>
<path d="M39.8687 63.3493C40.8705 64.7593 41.9161 66.1361 43.0056 67.4795C44.0951 68.8227 45.2262 70.13 46.3991 71.4012C47.9209 73.0414 49.5622 74.5954 51.1465 76.1767C49.5017 77.8214 47.8074 79.3997 46.1376 81.0167C45.343 81.7859 44.5869 82.6014 43.7833 83.3596C40.7534 80.4449 37.4143 77.8084 34.5022 74.7787C35.9872 70.7202 37.6647 67.079 39.8687 63.3493Z" fill="#FE8A33"/>
<path d="M3.069 69.31C3.96843 66.6775 5.64992 64.2091 7.13008 61.8746C8.5716 59.5694 10.0714 57.3028 11.6295 55.0747C14.9986 50.3383 22.7408 40.3381 27.3673 37.404C32.4985 34.1498 35.9225 35.1373 41.3555 36.507C43.7071 37.1076 46.0683 37.6677 48.439 38.1872C47.5636 39.45 46.5093 40.6262 45.5828 41.8577C45.5484 41.8548 45.5139 41.8522 45.4795 41.8489C44.3528 41.7387 43.2045 41.3317 42.1162 41.029C36.1581 39.3724 32.9676 37.7988 27.6661 42.0713C25.2627 44.0082 23.1524 46.2954 21.0478 48.5427C16.8532 53.022 12.9119 57.6314 9.02826 62.3855C8.37546 63.1847 6.25771 65.566 5.98464 66.3796C5.00865 67.273 4.22677 68.6646 3.069 69.31Z" fill="#FEBC76"/>
<path d="M32.3009 76.0441C34.3257 78.2227 36.7303 80.1235 38.9022 82.1623L44.7818 87.6374C46.324 89.0911 47.8314 90.6046 49.4626 91.9598C47.8892 94.6109 45.7437 96.7687 44.0253 99.3036C42.2853 97.5882 40.4352 95.9586 38.6387 94.301L31.8135 87.9729C29.9629 86.2858 27.838 84.7232 26.2539 82.7761C28.3311 80.7751 30.5143 78.3124 32.3009 76.0441Z" fill="#BC72F5"/>
<path d="M5.98464 66.3796C6.25771 65.566 8.37546 63.1847 9.02826 62.3855C12.9119 57.6314 16.8532 53.022 21.0478 48.5427C23.1524 46.2954 25.2627 44.0082 27.6661 42.0713C32.9676 37.7988 36.1581 39.3724 42.1162 41.029C43.2045 41.3317 44.3528 41.7387 45.4795 41.8489C45.5139 41.8522 45.5484 41.8548 45.5828 41.8577C44.4686 43.4179 43.2985 44.9389 42.2094 46.5169C39.3926 50.5986 36.0783 56.0813 34.0717 60.6377C31.9452 60.1768 26.5779 57.3093 24.885 55.9515C22.8339 57.0332 20.8199 58.2005 18.7843 59.3126C15.9058 60.8853 13.0008 62.4196 10.1373 64.018C8.809 64.7593 7.44943 65.9571 5.98464 66.3796Z" fill="#FE8A33"/>
<path d="M38.4078 57.2414C40.1514 54.4389 41.7507 51.55 43.6133 48.8209C54.1897 33.3252 67.9196 19.9113 84.5871 11.0923C88.1435 9.21059 91.8846 7.60631 95.6034 6.07394C95.8534 7.59334 96.4119 9.06565 96.9404 10.5059L96.8533 10.5668C95.8211 11.2745 94.5852 11.6884 93.4453 12.1954C92.3103 12.7004 91.1897 13.2686 90.0788 13.8252C86.6352 15.5507 83.2623 17.6446 80.043 19.758C66.6702 28.5374 56.7767 39.1619 47.508 52.0674C46.2563 53.8371 45.0723 55.6508 43.9559 57.5087C43.1414 58.8345 42.3603 60.2152 41.4094 61.4483C40.3333 60.0879 39.3644 58.6865 38.4078 57.2414Z" fill="#E3D0FB"/>
<path d="M125.188 3.79091C125.79 3.86714 126.333 4.08464 126.837 4.42385L127.103 5.2581C126.778 5.84603 126.201 10.3621 125.944 11.4782C124.901 16.0015 123.383 20.3025 121.533 24.5563C120.889 26.0368 120.284 27.5217 119.434 28.8992C118.594 28.6054 117.761 28.2927 116.935 27.9611C109.308 24.8451 102.168 17.0826 99.0076 9.55413C105.336 6.96489 111.604 4.83 118.43 4.00248C119.504 3.87227 120.65 3.78514 121.731 3.79988C122.83 3.81461 124.116 4.02986 125.188 3.79091Z" fill="#FE8A33"/>
<path d="M118.693 31.0636C120.521 31.5913 122.318 31.8463 124.187 32.157C122.731 36.6851 120.171 40.8469 117.665 44.8596C115.404 48.5032 112.965 52.0236 110.348 55.4208C100.344 68.1543 86.5412 79.9587 72.1212 87.3787C71.7956 87.5469 71.4674 87.7096 71.1365 87.867C69.3082 86.9011 67.6057 85.7802 65.9117 84.5969C70.0566 82.0745 74.1944 79.5579 78.1462 76.7354C78.9674 76.1444 79.7821 75.5445 80.5902 74.9358C81.3985 74.327 82.2 73.7096 82.9947 73.0835C83.7893 72.4573 84.5772 71.8225 85.3581 71.1792C86.1389 70.5358 86.9127 69.884 87.6794 69.2239C88.4461 68.5637 89.2056 67.8953 89.9578 67.2186C90.7099 66.5418 91.4545 65.857 92.1918 65.1641C92.929 64.4711 93.6587 63.7702 94.3806 63.0614C95.1025 62.3526 95.8166 61.636 96.523 60.9116C97.2294 60.1873 97.9278 59.4553 98.6182 58.7157C99.3087 57.9762 99.991 57.2292 100.665 56.4748C101.339 55.7203 102.005 54.9586 102.663 54.1897C103.32 53.4207 103.97 52.6447 104.61 51.8616C105.251 51.0786 105.883 50.2886 106.506 49.4918C107.13 48.695 107.745 47.8915 108.351 47.0813C108.957 46.271 109.554 45.4543 110.142 44.6311C110.73 43.8079 111.309 42.9784 111.879 42.1426C113.099 40.3393 114.291 38.518 115.455 36.6787C116.61 34.8742 117.832 33.0313 118.693 31.0636Z" fill="#9836E3"/>
<path d="M93.79 79.97C95.4551 84.3327 97.3288 89.1636 95.2913 93.7455C94.8182 94.8093 94.2051 95.8378 93.458 96.7323C91.4677 99.1154 88.9783 101.083 86.5415 102.983C84.6758 104.413 82.7795 105.802 80.8527 107.149C78.9259 108.496 76.9704 109.799 74.9861 111.06C73.0018 112.321 70.9908 113.537 68.953 114.709C66.9151 115.881 64.8525 117.008 62.765 118.089C61.2307 118.9 59.7323 119.785 58.1483 120.496L58.0414 120.454C58.0079 119.778 59.8426 116.042 60.3089 115.373C60.8505 114.081 61.5903 112.869 62.2288 111.623C63.327 109.48 64.386 107.324 65.5147 105.197C66.4512 103.432 67.4682 101.66 68.0984 99.7575C67.4789 98.6069 66.3676 97.7488 65.4194 96.8819L62.9884 94.2917C71.2214 91.0785 79.2949 86.2049 86.5822 81.2459C87.2028 82.1278 87.5385 83.108 88.0743 84.0278C88.8476 83.5359 89.6242 83.0386 90.354 82.4837C91.4298 81.6656 92.5412 80.4774 93.79 79.97Z" fill="#F65E1D"/>
<path d="M88.0039 84.0261C88.7536 86.4922 88.2467 88.6313 87.0583 90.8619C83.7852 97.0061 70.4222 107.752 64.5359 112.368C63.5565 113.136 61.6466 114.991 60.6071 115.334C60.5068 115.367 60.4131 115.373 60.3089 115.373C60.8505 114.081 61.5903 112.869 62.2288 111.623C63.327 109.48 64.386 107.324 65.5147 105.197C66.4512 103.432 67.4682 101.66 68.0984 99.7575C67.4789 98.6069 66.3676 97.7488 65.4194 96.8819C66.1885 96.2586 67.911 95.7398 68.8785 95.2922C71.1717 94.2491 73.4237 93.1235 75.6344 91.9154C77.8452 90.7074 80.0087 89.42 82.125 88.0533C83.2647 87.3189 84.4191 86.5936 85.5238 85.8075C86.3368 85.2292 87.1472 84.5257 88.0039 84.0261Z" fill="#FE8A33"/>
<path d="M96.9404 10.5059C101.074 19.401 107.902 27.1415 117.296 30.5945C117.751 30.7617 118.223 30.9454 118.693 31.0636C117.832 33.0313 116.61 34.8742 115.455 36.6787C114.291 38.518 113.099 40.3393 111.879 42.1426C111.309 42.9784 110.73 43.8079 110.142 44.6311C109.554 45.4543 108.957 46.271 108.351 47.0813C107.745 47.8915 107.13 48.695 106.506 49.4918C105.883 50.2886 105.251 51.0786 104.61 51.8616C103.97 52.6447 103.32 53.4207 102.663 54.1897C102.005 54.9586 101.339 55.7203 100.665 56.4748C99.991 57.2292 99.3087 57.9762 98.6182 58.7157C97.9278 59.4553 97.2294 60.1873 96.523 60.9116C95.8166 61.636 95.1025 62.3526 94.3806 63.0614C93.6587 63.7702 92.929 64.4711 92.1918 65.1641C91.4545 65.857 90.7099 66.5418 89.9578 67.2186C89.2056 67.8953 88.4461 68.5637 87.6794 69.2239C86.9127 69.884 86.1389 70.5358 85.3581 71.1792C84.5772 71.8225 83.7893 72.4573 82.9947 73.0835C82.2 73.7096 81.3985 74.327 80.5902 74.9358C79.7821 75.5445 78.9674 76.1444 78.1462 76.7354C74.1944 79.5579 70.0566 82.0745 65.9117 84.5969C62.0427 82.1523 58.3172 79.303 54.8767 76.2821C55.9345 74.9869 57.123 73.7907 58.2145 72.5213C61.1378 69.1212 63.9327 65.695 66.5141 62.0245C61.8645 66.1022 57.2987 70.2717 52.8169 74.533C51.6177 73.2646 50.3431 72.0698 49.1545 70.7905C47.7715 69.3121 46.434 67.7938 45.1421 66.2353C43.85 64.6769 42.6058 63.0812 41.4094 61.4483C42.3603 60.2152 43.1414 58.8345 43.9559 57.5087C45.0723 55.6508 46.2563 53.8371 47.508 52.0674C56.7767 39.1619 66.6702 28.5374 80.043 19.758C83.2623 17.6446 86.6352 15.5507 90.0788 13.8252C91.1897 13.2686 92.3103 12.7004 93.4453 12.1954C94.5852 11.6884 95.8211 11.2745 96.8533 10.5668L96.9404 10.5059Z" fill="#BC72F5"/>
<path d="M87.8527 23.6743C91.7917 23.1548 96.1629 24.7432 99.2744 27.0887C99.3801 27.1687 99.4848 27.2499 99.5886 27.3323C99.6923 27.4148 99.795 27.4986 99.8968 27.5837C99.9984 27.6687 100.099 27.755 100.198 27.8425C100.298 27.9301 100.397 28.0188 100.494 28.1087C100.591 28.1987 100.687 28.2899 100.783 28.3823C100.878 28.4745 100.972 28.568 101.064 28.6627C101.157 28.7573 101.249 28.853 101.339 28.9499C101.43 29.0468 101.519 29.1448 101.607 29.2439C101.695 29.343 101.782 29.4431 101.867 29.5444C101.953 29.6456 102.037 29.7479 102.121 29.8512C102.204 29.9546 102.285 30.0589 102.366 30.1642C102.446 30.2696 102.525 30.3758 102.603 30.483C102.681 30.5903 102.758 30.6986 102.833 30.8077C102.908 30.9169 102.982 31.027 103.054 31.1379C103.127 31.249 103.198 31.3608 103.268 31.4734C103.337 31.5862 103.406 31.6998 103.473 31.8143C103.54 31.9287 103.605 32.0439 103.669 32.1599C103.733 32.2759 103.796 32.3927 103.857 32.5103C103.918 32.6278 103.978 32.7462 104.036 32.8652C104.095 32.9842 104.152 33.104 104.207 33.2244C104.262 33.3449 104.316 33.466 104.368 33.5878C104.421 33.7095 104.472 33.832 104.521 33.9551C104.57 34.0781 104.618 34.2017 104.664 34.3258C104.711 34.4501 104.755 34.5749 104.799 34.7001C104.842 34.8255 104.884 34.9513 104.924 35.0776C104.964 35.2039 105.002 35.3307 105.039 35.458C105.076 35.5853 105.112 35.7131 105.146 35.8412C105.18 35.9693 105.212 36.0979 105.242 36.2269C105.273 36.3559 105.302 36.4852 105.33 36.6148C105.357 36.7445 105.383 36.8745 105.407 37.0048C105.432 37.135 105.454 37.2656 105.475 37.3965C105.497 37.5274 105.516 37.6585 105.534 37.7898C105.551 37.9198 105.567 38.0499 105.581 38.1801C105.595 38.3104 105.607 38.4408 105.618 38.5714C105.628 38.7021 105.638 38.8328 105.645 38.9636C105.653 39.0944 105.659 39.2253 105.663 39.3563C105.667 39.4872 105.67 39.6182 105.671 39.7494C105.672 39.8804 105.672 40.0114 105.67 40.1424C105.668 40.2734 105.664 40.4043 105.659 40.5352C105.653 40.6663 105.646 40.7971 105.638 40.9278C105.629 41.0586 105.619 41.1892 105.607 41.3197C105.596 41.4503 105.582 41.5806 105.567 41.7108C105.552 41.8409 105.536 41.9709 105.518 42.1008C105.499 42.2305 105.48 42.36 105.458 42.4893C105.437 42.6186 105.414 42.7476 105.39 42.8764C105.365 43.0051 105.339 43.1335 105.311 43.2616C105.284 43.3896 105.254 43.5173 105.224 43.6447C105.193 43.7721 105.16 43.8991 105.127 44.0257C105.093 44.1522 105.057 44.2783 105.02 44.404C104.983 44.5298 104.944 44.655 104.904 44.7797C104.864 44.9044 104.823 45.0286 104.779 45.1524C104.736 45.2761 104.692 45.3994 104.645 45.522C104.599 45.6446 104.551 45.7666 104.502 45.8881C104.453 46.0095 104.402 46.1304 104.35 46.2506C104.298 46.3708 104.245 46.4903 104.189 46.6092C104.134 46.7281 104.078 46.8463 104.02 46.9638C103.962 47.0813 103.902 47.1981 103.841 47.3142C103.781 47.4302 103.718 47.5455 103.655 47.66C103.591 47.7744 103.526 47.8881 103.459 48.0011C103.393 48.1139 103.325 48.226 103.256 48.3373C103.186 48.4485 103.116 48.5589 103.044 48.6685C102.972 48.7779 102.898 48.8865 102.824 48.9942C102.749 49.102 102.673 49.2087 102.596 49.3145C102.519 49.4203 102.44 49.5252 102.36 49.6291C99.4957 53.3405 95.279 55.1879 90.7214 55.7554C90.6697 55.7626 90.6181 55.7704 90.5662 55.777C86.8967 56.2379 82.1015 54.5883 79.2493 52.3093C75.9012 49.6342 73.4787 45.732 73.0067 41.4284C72.5315 37.0951 73.7413 32.8995 76.4942 29.5227C79.2882 26.0957 83.4976 24.1186 87.8527 23.6743Z" fill="black"/>
<path d="M100.707 31.9568C102.846 35.1314 103.732 38.7408 102.987 42.5313C102.966 42.6407 102.942 42.7498 102.918 42.8586C102.893 42.9675 102.867 43.0761 102.84 43.1842C102.812 43.2925 102.784 43.4003 102.753 43.5077C102.723 43.6153 102.692 43.7223 102.659 43.829C102.627 43.9358 102.593 44.0421 102.557 44.1479C102.522 44.2538 102.485 44.3592 102.447 44.464C102.409 44.569 102.37 44.6735 102.329 44.7775C102.289 44.8814 102.247 44.9849 102.204 45.0877C102.16 45.1906 102.116 45.293 102.07 45.3949C102.024 45.4966 101.977 45.5978 101.929 45.6985C101.881 45.7991 101.831 45.8991 101.781 45.9985C101.73 46.0979 101.678 46.1967 101.625 46.2948C101.571 46.3928 101.517 46.4902 101.461 46.5869C101.406 46.6836 101.349 46.7797 101.291 46.875C101.233 46.9704 101.173 47.065 101.113 47.1588C101.053 47.2526 100.991 47.3456 100.928 47.438C100.866 47.5302 100.802 47.6217 100.737 47.7125C100.672 47.8031 100.605 47.893 100.538 47.982C100.471 48.0711 100.402 48.1593 100.333 48.2466C100.263 48.3339 100.193 48.4204 100.121 48.5061C100.05 48.5917 99.9771 48.6764 99.9033 48.7601C99.8295 48.8439 99.7547 48.9267 99.6789 49.0086C99.6031 49.0905 99.5263 49.1714 99.4485 49.2514C99.3706 49.3314 99.2918 49.4104 99.2121 49.4884C99.1322 49.5665 99.0514 49.6435 98.9697 49.7194C98.888 49.7954 98.8053 49.8704 98.7217 49.9444C98.6381 50.0183 98.5535 50.0912 98.4681 50.163C98.3827 50.2349 98.2965 50.3056 98.2093 50.3752C98.1221 50.445 98.0341 50.5136 97.9452 50.581C97.8563 50.6485 97.7665 50.7149 97.676 50.7801C97.5855 50.8453 97.4941 50.9094 97.402 50.9723C97.3098 51.0353 97.2169 51.0971 97.1231 51.1578C97.028 51.2201 96.9321 51.2812 96.8355 51.3411C96.7388 51.4011 96.6414 51.4599 96.5434 51.5175C96.4453 51.575 96.3464 51.6313 96.2469 51.6864C96.1474 51.7415 96.0473 51.7954 95.9465 51.8482C95.8457 51.9008 95.7442 51.9522 95.6422 52.0024C95.5401 52.0526 95.4374 52.1015 95.3342 52.1491C95.231 52.1967 95.1271 52.2431 95.0227 52.2883C94.9183 52.3334 94.8133 52.3772 94.7078 52.4198C94.6023 52.4623 94.4964 52.5035 94.3899 52.5434C94.2834 52.5834 94.1764 52.622 94.069 52.6592C93.9615 52.6965 93.8537 52.7325 93.7453 52.7672C93.6369 52.8018 93.5282 52.8351 93.419 52.8671C93.3099 52.899 93.2004 52.9296 93.0904 52.9589C92.9805 52.9882 92.8703 53.0162 92.7597 53.0426C92.6492 53.0692 92.5383 53.0945 92.427 53.1184C92.3159 53.1422 92.2044 53.1647 92.0926 53.1858C91.9808 53.2069 91.8688 53.2266 91.7566 53.2449C91.6444 53.2633 91.5319 53.2803 91.4192 53.2958C91.3065 53.3114 91.1937 53.3256 91.0808 53.3384C90.9677 53.3514 90.8545 53.3628 90.7412 53.3729C90.628 53.3829 90.5146 53.3916 90.4011 53.3988C90.2876 53.4061 90.174 53.4119 90.0604 53.4163C89.9467 53.4208 89.833 53.4239 89.7193 53.4256C89.6056 53.4273 89.4919 53.4275 89.3781 53.4264C89.2644 53.4253 89.1507 53.4228 89.037 53.4188C88.9234 53.4149 88.8098 53.4096 88.6962 53.403C88.5827 53.3963 88.4693 53.3881 88.356 53.3786C88.2426 53.3691 88.1294 53.3583 88.0163 53.346C87.9033 53.3337 87.7904 53.32 87.6776 53.305C87.5649 53.2899 87.4523 53.2735 87.34 53.2556C87.2277 53.2379 87.1156 53.2188 87.0037 53.1982C86.8919 53.1775 86.7803 53.1556 86.6689 53.1323C82.7852 52.3282 79.6206 50 77.4148 46.7459C78.2897 46.9931 79.1912 47.1241 80.074 47.3401L80.431 47.5498C81.5135 48.782 83.0411 49.7522 84.5379 50.3973C87.475 51.6635 90.7454 51.7771 93.7219 50.5701C93.9075 50.4966 94.0912 50.4185 94.273 50.3358C94.4548 50.2533 94.6345 50.1663 94.8119 50.0748C94.9895 49.9834 95.1647 49.8877 95.3376 49.7876C95.5103 49.6877 95.6806 49.5835 95.8483 49.4752C96.016 49.3668 96.181 49.2544 96.3432 49.1379C96.5054 49.0214 96.6646 48.901 96.8209 48.7767C96.9772 48.6524 97.1303 48.5244 97.2803 48.3927C97.4303 48.2609 97.577 48.1255 97.7204 47.9865C97.8638 47.8475 98.0036 47.7051 98.14 47.5592C98.2763 47.4134 98.409 47.2643 98.5381 47.1119C98.6672 46.9595 98.7925 46.8041 98.9138 46.6455C99.0352 46.4871 99.1527 46.3257 99.2662 46.1614C99.3797 45.9971 99.4891 45.8302 99.5945 45.6606C99.6998 45.4909 99.8008 45.3187 99.8977 45.1441C99.9945 44.9695 100.087 44.7926 100.175 44.6135C100.263 44.4343 100.347 44.2531 100.427 44.0699C101.428 41.7015 101.666 38.953 100.959 36.4705C100.717 35.6213 100.343 34.7928 100.013 33.9743C100.227 33.2946 100.515 32.6458 100.707 31.9568Z" fill="#C5BCBB"/>
<path d="M77.4148 46.7459C75.5416 44.1476 74.9695 40.4979 75.3842 37.3741C75.831 34.0084 77.7526 30.9664 80.4336 28.9193C83.4394 26.6239 87.4553 25.6197 91.1919 26.1423C95.1106 26.6902 98.3619 28.8204 100.707 31.9568C100.515 32.6458 100.227 33.2946 100.013 33.9743C100.343 34.7928 100.717 35.6213 100.959 36.4705C101.666 38.953 101.428 41.7015 100.427 44.0699C100.347 44.2531 100.263 44.4343 100.175 44.6135C100.087 44.7926 99.9945 44.9695 99.8977 45.1441C99.8008 45.3187 99.6998 45.4909 99.5945 45.6606C99.4891 45.8302 99.3797 45.9971 99.2662 46.1614C99.1527 46.3257 99.0352 46.4871 98.9138 46.6455C98.7925 46.8041 98.6672 46.9595 98.5381 47.1119C98.409 47.2643 98.2763 47.4134 98.14 47.5592C98.0036 47.7051 97.8638 47.8475 97.7204 47.9865C97.577 48.1255 97.4303 48.2609 97.2803 48.3927C97.1303 48.5244 96.9772 48.6524 96.8209 48.7767C96.6646 48.901 96.5054 49.0214 96.3432 49.1379C96.181 49.2544 96.016 49.3668 95.8483 49.4752C95.6806 49.5835 95.5103 49.6877 95.3376 49.7876C95.1647 49.8877 94.9895 49.9834 94.8119 50.0748C94.6345 50.1663 94.4548 50.2533 94.273 50.3358C94.0912 50.4185 93.9075 50.4966 93.7219 50.5701C90.7454 51.7771 87.475 51.6635 84.5379 50.3973C83.0411 49.7522 81.5135 48.782 80.431 47.5498L80.074 47.3401C79.1912 47.1241 78.2897 46.9931 77.4148 46.7459Z" fill="#E3D0FB"/>
<path d="M84.7133 34.5665C84.905 34.5699 85.003 34.5417 85.1678 34.6516C85.0073 34.712 84.8456 34.7608 84.6814 34.8101C84.6267 35.0022 85.4535 35.8684 85.6119 36.3476C85.7771 36.8472 85.7314 37.2412 85.475 37.6998C84.9473 38.644 84.5453 38.8563 83.5928 39.1147L83.5919 39.1955L83.6949 39.2783C84.131 39.2558 84.5592 39.0532 84.9668 38.9045L85.1214 38.9793C84.7226 39.2245 84.3204 39.4077 83.8911 39.591C83.1207 39.1994 82.5555 38.6754 81.9391 38.0754C81.9162 37.2343 81.9719 36.2839 82.5006 35.5903C83.0379 34.8851 83.8768 34.667 84.7133 34.5665Z" fill="#FEFEFE"/>
<path d="M98.0689 37.6057C97.8637 36.9596 97.6052 36.331 97.3576 35.7001C97.6835 36.2469 97.917 36.8419 98.2055 37.4093C98.4002 36.9018 98.4762 36.4223 98.5413 35.8862L98.6805 36.2812C98.9131 36.8542 99.086 37.474 99.2111 38.0794C99.7108 40.4986 99.3578 43.0588 97.9808 45.138C97.8888 45.2766 97.7933 45.4128 97.6946 45.5467C97.5958 45.6806 97.4938 45.812 97.3885 45.9408C97.2834 46.0697 97.1751 46.1959 97.0637 46.3194C96.9523 46.443 96.8379 46.5637 96.7205 46.6817C96.6033 46.7997 96.4832 46.9147 96.3602 47.0267C96.2372 47.1388 96.1115 47.2478 95.9833 47.3537C95.855 47.4596 95.7241 47.5624 95.5908 47.6619C95.4575 47.7613 95.3218 47.8574 95.1837 47.9503C95.0457 48.0431 94.9055 48.1325 94.7631 48.2186C94.6206 48.3045 94.4761 48.3869 94.3297 48.4657C94.1832 48.5446 94.0348 48.6199 93.8846 48.6915C93.7345 48.7631 93.5827 48.8309 93.4291 48.8951C93.2756 48.9592 93.1206 49.0196 92.9642 49.0762C92.8078 49.1328 92.65 49.1855 92.491 49.2343C92.332 49.2831 92.1718 49.328 92.0105 49.369C91.8493 49.41 91.6871 49.447 91.5241 49.48C88.4145 50.0942 85.6433 49.3009 83.0526 47.5844C84.3579 47.3739 85.6657 47.167 86.9387 46.8022C91.7693 45.4179 95.6504 41.9376 98.0689 37.6057Z" fill="#E976A5"/>
<path d="M80.074 47.3401C79.8053 46.994 79.516 46.6678 79.2643 46.3084C79.1488 46.145 79.0373 45.979 78.93 45.8102C78.8227 45.6412 78.7196 45.4699 78.6206 45.2961C78.5217 45.1221 78.4271 44.9459 78.3368 44.7674C78.2466 44.5889 78.1608 44.4082 78.0793 44.2254C77.9978 44.0427 77.9209 43.8581 77.8485 43.6716C77.7761 43.4851 77.7084 43.2969 77.6453 43.107C77.5822 42.9172 77.5237 42.726 77.4699 42.5334C77.4161 42.3406 77.3671 42.1467 77.3229 41.9515C77.2787 41.7564 77.2392 41.5604 77.2045 41.3634C77.1699 41.1663 77.1401 40.9685 77.1151 40.77C77.0902 40.5716 77.0701 40.3726 77.0549 40.1731C77.0398 39.9736 77.0295 39.7738 77.0242 39.5738C77.0187 39.3739 77.0182 39.1739 77.0226 38.9739C77.0271 38.7738 77.0364 38.574 77.0506 38.3744C77.0648 38.1749 77.0839 37.9758 77.1079 37.7772C77.132 37.5786 77.1608 37.3807 77.1944 37.1835C77.7396 34.1468 79.4694 31.6924 81.9898 29.9584C84.7637 28.0498 88.0687 27.4148 91.3671 28.0506C95.1302 28.7759 97.9002 30.7702 100.008 33.9146C99.6879 34.8499 99.3681 35.5453 98.6805 36.2812L98.5413 35.8862C97.6171 33.6285 95.5011 31.6692 93.2677 30.7316C90.792 29.6924 87.6978 29.6531 85.2178 30.6935C82.8896 31.6701 80.7725 33.8359 79.8452 36.1835C78.8833 38.619 78.9829 41.2973 80.0362 43.6863C80.6392 45.0539 81.6119 46.5803 82.8252 47.4815C82.0289 47.5467 81.2292 47.633 80.431 47.5498L80.074 47.3401Z" fill="#FEFEFE"/>
</svg>
