<svg width="24" height="28" viewBox="0 0 24 28" fill="none" xmlns="http://www.w3.org/2000/svg">
<path d="M1.5386 9.44987L1.53854 9.44986L1.54018 9.44125C2.2191 5.88357 5.09278 2.84694 8.76602 1.77581C9.63945 1.519 10.8215 1.3999 11.9808 1.4023C13.1406 1.40471 14.34 1.52886 15.251 1.79358C18.9091 2.82749 21.7816 5.86727 22.4599 9.44186L22.46 9.44185L22.4614 9.44987C22.5587 10.0036 22.6262 10.4205 22.5896 10.7598C22.5449 11.1741 22.3545 11.4374 22.1586 11.6871L22.1587 11.6872L22.1511 11.6964C21.7682 12.165 21.2504 12.4293 20.6409 12.4883C20.0522 12.5454 19.4007 12.4101 18.7081 12.1377L18.706 12.1368C17.0639 11.4838 15.2771 11.7129 13.7827 12.7965L13.7827 12.7965L13.7798 12.7987C13.2106 13.2061 12.6298 13.4594 12 13.4594C11.3702 13.4594 10.7894 13.2061 10.2202 12.7987L10.2202 12.7987L10.2173 12.7965C8.72292 11.7129 6.93607 11.4838 5.29402 12.1368L5.29191 12.1377C4.59933 12.4101 3.94776 12.5454 3.35914 12.4883C2.74961 12.4293 2.23177 12.165 1.84887 11.6964L1.84878 11.6965L1.8414 11.6871C1.64549 11.4374 1.45509 11.1741 1.41039 10.7598C1.37378 10.4205 1.44129 10.0036 1.5386 9.44987Z" fill="#E6E3D4" stroke="black" stroke-width="1.2"/>
<path d="M8.40569 15.0434L8.40196 15.0528L8.39791 15.0621C8.28972 15.3103 8.09415 15.5543 7.77274 15.6596C7.47239 15.7579 7.17691 15.6959 6.94222 15.6029C6.48605 15.4221 5.96397 15.0047 5.38895 14.4489C4.84336 13.9295 4.44464 13.505 4.23737 13.146C4.1312 12.9622 4.03437 12.7277 4.05011 12.4636C4.06713 12.1783 4.20769 11.9615 4.37605 11.8113C4.52279 11.6719 4.73088 11.5476 5.00645 11.5405C5.2592 11.5341 5.48269 11.6304 5.66051 11.7322C6.00837 11.9314 6.45763 12.3194 7.06831 12.8799L7.06834 12.8799L7.07335 12.8846C7.51568 13.3 7.85906 13.648 8.08417 13.9297C8.19523 14.0687 8.29915 14.218 8.3679 14.3708C8.42957 14.5078 8.51604 14.7649 8.40569 15.0434Z" fill="#E6E3D4" stroke="black" stroke-width="1.2"/>
<path d="M15.8096 15.4547C16.068 15.6948 16.4228 15.725 16.6586 15.725C16.8854 15.725 17.0919 15.625 17.213 15.5598C17.3595 15.481 17.5148 15.3765 17.6675 15.2629C17.9748 15.0342 18.3182 14.7331 18.6349 14.4253C18.9513 14.1178 19.2562 13.789 19.4818 13.5009C19.5932 13.3586 19.6973 13.211 19.7734 13.0711C19.8113 13.0014 19.8506 12.9185 19.8783 12.8284C19.9031 12.7474 19.9365 12.6043 19.9038 12.4389L19.3152 12.5555L19.9044 12.4422C19.8609 12.2158 19.7483 11.8959 19.4306 11.7158C19.1103 11.5343 18.774 11.6035 18.5469 11.6902C18.1035 11.8595 17.56 12.2924 16.9238 12.8856L15.8096 15.4547ZM15.8096 15.4547C15.4705 15.1398 15.5272 14.7215 15.6221 14.47M15.8096 15.4547L15.6221 14.47M15.6221 14.47C15.7153 14.2231 15.8933 13.9729 16.0975 13.7321M15.6221 14.47L16.0975 13.7321M16.0975 13.7321C16.3099 13.4815 16.5877 13.1989 16.9238 12.8856L16.0975 13.7321Z" fill="#E6E3D4" stroke="black" stroke-width="1.2"/>
<mask id="path-4-outside-1_2007_1871" maskUnits="userSpaceOnUse" x="3.66406" y="13" width="16" height="15" fill="black">
<rect fill="white" x="3.66406" y="13" width="16" height="15"/>
<path fill-rule="evenodd" clip-rule="evenodd" d="M5.66406 20.1108C5.66406 17.7476 7.01282 15.8533 9.42424 14.8217C10.8752 14.2028 13.1231 14.2028 14.574 14.8217C16.9855 15.8533 18.3342 17.7476 18.3342 20.1108C18.3342 22.0051 17.8846 23.0741 16.5154 24.3308C15.1667 25.5686 13.9814 26 11.9991 26C10.0169 26 8.8316 25.5686 7.48284 24.3308C6.11365 23.0741 5.66406 22.0051 5.66406 20.1108ZM10.482 22.4511C10.6477 22.4971 10.7637 22.647 10.7637 22.8189V23.0023C10.7637 23.2646 10.9763 23.4772 11.2386 23.4772H11.3106C11.5331 23.4772 11.7134 23.2968 11.7134 23.0744V22.7762C11.7134 22.7184 11.7603 22.6716 11.8181 22.6716C11.8663 22.6716 11.9146 22.669 11.9629 22.664C12.0385 22.664 12.0997 22.7252 12.0997 22.8008V23.082C12.0997 23.3128 12.2869 23.5 12.5178 23.5H12.5786C12.8431 23.5 13.0575 23.2856 13.0575 23.0211V22.8611C13.0575 22.6074 13.215 22.3874 13.4202 22.2384C13.5512 22.1432 13.661 22.0343 13.7496 21.9115C13.916 21.6835 13.9991 21.4301 13.9991 21.1515C13.9991 20.9387 13.9482 20.7486 13.8462 20.5814C13.7496 20.4092 13.6209 20.2521 13.4599 20.1102C13.2989 19.9683 13.1192 19.8391 12.9207 19.7226C12.7275 19.606 12.5344 19.4946 12.3412 19.3882C12.1963 19.3071 12.0595 19.2362 11.9307 19.1754C11.8073 19.1095 11.7054 19.0436 11.6249 18.9777C11.5498 18.9119 11.5122 18.8359 11.5122 18.7497C11.5122 18.6535 11.5605 18.5775 11.6571 18.5217C11.7537 18.466 11.8851 18.4381 12.0515 18.4381C12.1749 18.4381 12.2875 18.4457 12.3895 18.4609C12.4914 18.471 12.6041 18.4913 12.7275 18.5217C13.0066 18.5876 13.3021 18.4689 13.423 18.2089L13.5519 17.9315C13.6057 17.8159 13.5687 17.6758 13.4519 17.6249C13.3232 17.5594 13.2346 17.4316 13.2346 17.2873V17.0184C13.2346 16.739 12.9963 16.5189 12.7178 16.541L12.6297 16.548C12.4305 16.5638 12.2768 16.7301 12.2768 16.93V17.1925C12.2768 17.2592 12.2228 17.3132 12.1561 17.3132C12.1185 17.3082 12.0783 17.3056 12.0354 17.3056H11.979C11.9479 17.3056 11.9227 17.2804 11.9227 17.2493V16.9189C11.9227 16.6932 11.7301 16.5154 11.5051 16.5334L11.41 16.541C11.1632 16.5608 10.973 16.7668 10.973 17.0144V17.1061C10.973 17.3413 10.8236 17.5443 10.6275 17.6742C10.4809 17.7712 10.3573 17.8865 10.2567 18.0201C10.0904 18.243 10.0045 18.4989 9.99915 18.7877C9.99915 19.0056 10.0501 19.2032 10.1521 19.3806C10.254 19.5528 10.3881 19.7074 10.5545 19.8442C10.7208 19.981 10.8979 20.1051 11.0857 20.2166C11.2788 20.3281 11.4639 20.4345 11.641 20.5358C11.7805 20.6118 11.9146 20.6878 12.0434 20.7638C12.1722 20.8398 12.2768 20.9159 12.3573 20.9919C12.4431 21.0679 12.4861 21.1464 12.4861 21.2275C12.4861 21.2883 12.4592 21.344 12.4056 21.3947C12.3573 21.4403 12.2795 21.4758 12.1722 21.5011C12.0702 21.5264 11.9388 21.5391 11.7778 21.5391C11.649 21.5391 11.5015 21.5239 11.3352 21.4935C11.1742 21.458 11.0186 21.4149 10.8684 21.3643C10.6664 21.2936 10.4308 21.3748 10.3408 21.5689L10.1221 22.0405C10.0664 22.1605 10.113 22.3035 10.2325 22.3599C10.313 22.3903 10.3962 22.4207 10.482 22.4511Z"/>
</mask>
<path fill-rule="evenodd" clip-rule="evenodd" d="M5.66406 20.1108C5.66406 17.7476 7.01282 15.8533 9.42424 14.8217C10.8752 14.2028 13.1231 14.2028 14.574 14.8217C16.9855 15.8533 18.3342 17.7476 18.3342 20.1108C18.3342 22.0051 17.8846 23.0741 16.5154 24.3308C15.1667 25.5686 13.9814 26 11.9991 26C10.0169 26 8.8316 25.5686 7.48284 24.3308C6.11365 23.0741 5.66406 22.0051 5.66406 20.1108ZM10.482 22.4511C10.6477 22.4971 10.7637 22.647 10.7637 22.8189V23.0023C10.7637 23.2646 10.9763 23.4772 11.2386 23.4772H11.3106C11.5331 23.4772 11.7134 23.2968 11.7134 23.0744V22.7762C11.7134 22.7184 11.7603 22.6716 11.8181 22.6716C11.8663 22.6716 11.9146 22.669 11.9629 22.664C12.0385 22.664 12.0997 22.7252 12.0997 22.8008V23.082C12.0997 23.3128 12.2869 23.5 12.5178 23.5H12.5786C12.8431 23.5 13.0575 23.2856 13.0575 23.0211V22.8611C13.0575 22.6074 13.215 22.3874 13.4202 22.2384C13.5512 22.1432 13.661 22.0343 13.7496 21.9115C13.916 21.6835 13.9991 21.4301 13.9991 21.1515C13.9991 20.9387 13.9482 20.7486 13.8462 20.5814C13.7496 20.4092 13.6209 20.2521 13.4599 20.1102C13.2989 19.9683 13.1192 19.8391 12.9207 19.7226C12.7275 19.606 12.5344 19.4946 12.3412 19.3882C12.1963 19.3071 12.0595 19.2362 11.9307 19.1754C11.8073 19.1095 11.7054 19.0436 11.6249 18.9777C11.5498 18.9119 11.5122 18.8359 11.5122 18.7497C11.5122 18.6535 11.5605 18.5775 11.6571 18.5217C11.7537 18.466 11.8851 18.4381 12.0515 18.4381C12.1749 18.4381 12.2875 18.4457 12.3895 18.4609C12.4914 18.471 12.6041 18.4913 12.7275 18.5217C13.0066 18.5876 13.3021 18.4689 13.423 18.2089L13.5519 17.9315C13.6057 17.8159 13.5687 17.6758 13.4519 17.6249C13.3232 17.5594 13.2346 17.4316 13.2346 17.2873V17.0184C13.2346 16.739 12.9963 16.5189 12.7178 16.541L12.6297 16.548C12.4305 16.5638 12.2768 16.7301 12.2768 16.93V17.1925C12.2768 17.2592 12.2228 17.3132 12.1561 17.3132C12.1185 17.3082 12.0783 17.3056 12.0354 17.3056H11.979C11.9479 17.3056 11.9227 17.2804 11.9227 17.2493V16.9189C11.9227 16.6932 11.7301 16.5154 11.5051 16.5334L11.41 16.541C11.1632 16.5608 10.973 16.7668 10.973 17.0144V17.1061C10.973 17.3413 10.8236 17.5443 10.6275 17.6742C10.4809 17.7712 10.3573 17.8865 10.2567 18.0201C10.0904 18.243 10.0045 18.4989 9.99915 18.7877C9.99915 19.0056 10.0501 19.2032 10.1521 19.3806C10.254 19.5528 10.3881 19.7074 10.5545 19.8442C10.7208 19.981 10.8979 20.1051 11.0857 20.2166C11.2788 20.3281 11.4639 20.4345 11.641 20.5358C11.7805 20.6118 11.9146 20.6878 12.0434 20.7638C12.1722 20.8398 12.2768 20.9159 12.3573 20.9919C12.4431 21.0679 12.4861 21.1464 12.4861 21.2275C12.4861 21.2883 12.4592 21.344 12.4056 21.3947C12.3573 21.4403 12.2795 21.4758 12.1722 21.5011C12.0702 21.5264 11.9388 21.5391 11.7778 21.5391C11.649 21.5391 11.5015 21.5239 11.3352 21.4935C11.1742 21.458 11.0186 21.4149 10.8684 21.3643C10.6664 21.2936 10.4308 21.3748 10.3408 21.5689L10.1221 22.0405C10.0664 22.1605 10.113 22.3035 10.2325 22.3599C10.313 22.3903 10.3962 22.4207 10.482 22.4511Z" fill="#E6E3D4"/>
<path d="M9.42424 14.8217L8.95227 13.7184L8.9534 13.718L9.42424 14.8217ZM14.574 14.8217L15.0449 13.718L15.046 13.7184L14.574 14.8217ZM16.5154 24.3308L15.704 23.4467V23.4467L16.5154 24.3308ZM7.48284 24.3308L8.29425 23.4467H8.29425L7.48284 24.3308ZM13.7496 21.9115L12.7767 21.2091L12.7802 21.2043L13.7496 21.9115ZM13.8462 20.5814L12.8216 21.2061L12.8102 21.1874L12.7995 21.1682L13.8462 20.5814ZM13.4599 20.1102L12.6664 21.0104L12.6664 21.0104L13.4599 20.1102ZM12.9207 19.7226L12.3132 20.7574L12.3069 20.7538L12.3008 20.7501L12.9207 19.7226ZM12.3412 19.3882L11.7622 20.4393L11.7552 20.4353L12.3412 19.3882ZM11.9307 19.1754L11.4184 20.2605L11.3917 20.2479L11.3657 20.234L11.9307 19.1754ZM11.6249 18.9777L10.8649 19.9064L10.8491 19.8934L10.8337 19.88L11.6249 18.9777ZM11.6571 18.5217L11.0573 17.4824L11.0573 17.4824L11.6571 18.5217ZM12.3895 18.4609L12.2708 19.655L12.2416 19.6521L12.2125 19.6478L12.3895 18.4609ZM10.2567 18.0201L9.29487 17.3025L9.29808 17.2982L10.2567 18.0201ZM9.99915 18.7877H8.79915V18.7766L8.79935 18.7654L9.99915 18.7877ZM10.1521 19.3806L9.11933 19.9917L9.11548 19.9852L9.11171 19.9786L10.1521 19.3806ZM10.5545 19.8442L11.3168 18.9174L11.3168 18.9174L10.5545 19.8442ZM11.0857 20.2166L10.4859 21.256L10.4795 21.2523L10.4731 21.2485L11.0857 20.2166ZM11.641 20.5358L11.0669 21.5896L11.0558 21.5836L11.0449 21.5773L11.641 20.5358ZM12.0434 20.7638L11.4335 21.7973L11.4335 21.7973L12.0434 20.7638ZM12.3573 20.9919L11.5618 21.8903L11.5474 21.8776L11.5334 21.8643L12.3573 20.9919ZM12.4056 21.3947L13.2295 22.2671L13.2295 22.2671L12.4056 21.3947ZM12.1722 21.5011L11.8827 20.3364L11.8965 20.3332L12.1722 21.5011ZM11.3352 21.4935L11.1194 22.6739L11.0981 22.67L11.0769 22.6654L11.3352 21.4935ZM10.6275 17.6742L11.2899 18.6748L10.6275 17.6742ZM11.41 16.541L11.3142 15.3449L11.41 16.541ZM11.5051 16.5334L11.6008 17.7296L11.5051 16.5334ZM10.3408 21.5689L11.4294 22.0738L10.3408 21.5689ZM12.6297 16.548L12.7247 17.7442L12.6297 16.548ZM12.7178 16.541L12.8127 17.7372L12.7178 16.541ZM13.4202 22.2384L12.715 21.2674L13.4202 22.2384ZM13.5519 17.9315L12.4638 17.4257L13.5519 17.9315ZM10.1221 22.0405L9.03344 21.5357L10.1221 22.0405ZM13.423 18.2089L12.3348 17.703L13.423 18.2089ZM9.8962 15.925C7.86322 16.7947 6.86406 18.2931 6.86406 20.1108H4.46406C4.46406 17.2021 6.16242 14.9119 8.95227 13.7184L9.8962 15.925ZM14.1032 15.9255C13.5639 15.6954 12.8082 15.5575 11.9991 15.5575C11.1901 15.5575 10.4344 15.6954 9.89507 15.9255L8.9534 13.718C9.86501 13.3291 10.9588 13.1575 11.9991 13.1575C13.0395 13.1575 14.1333 13.3291 15.0449 13.718L14.1032 15.9255ZM17.1342 20.1108C17.1342 18.2931 16.135 16.7947 14.1021 15.925L15.046 13.7184C17.8359 14.9119 19.5342 17.2021 19.5342 20.1108H17.1342ZM15.704 23.4467C16.3115 22.8891 16.6405 22.4414 16.8354 21.9869C17.0319 21.5288 17.1342 20.9661 17.1342 20.1108H19.5342C19.5342 21.1498 19.4118 22.0687 19.0411 22.9329C18.669 23.8007 18.0885 24.5158 17.3268 25.2149L15.704 23.4467ZM11.9991 24.8C12.9054 24.8 13.5446 24.7008 14.08 24.5036C14.6086 24.3088 15.1112 23.9907 15.704 23.4467L17.3268 25.2149C16.5709 25.9087 15.8065 26.4252 14.9097 26.7556C14.0197 27.0835 13.0751 27.2 11.9991 27.2V24.8ZM8.29425 23.4467C8.88703 23.9907 9.38969 24.3088 9.91828 24.5036C10.4537 24.7008 11.0928 24.8 11.9991 24.8V27.2C10.9232 27.2 9.97856 27.0835 9.08857 26.7556C8.19176 26.4252 7.42741 25.9087 6.67144 25.2149L8.29425 23.4467ZM6.86406 20.1108C6.86406 20.9661 6.9664 21.5288 7.16286 21.9869C7.35778 22.4414 7.68674 22.8891 8.29425 23.4467L6.67144 25.2149C5.90975 24.5158 5.32932 23.8006 4.95715 22.9329C4.58652 22.0687 4.46406 21.1498 4.46406 20.1108H6.86406ZM9.56373 23.0023V22.8189H11.9637V23.0023H9.56373ZM11.3106 24.6772H11.2386V22.2772H11.3106V24.6772ZM12.9134 22.7762V23.0744H10.5134V22.7762H12.9134ZM12.0882 23.8574C11.9985 23.8668 11.9084 23.8716 11.8181 23.8716V21.4716C11.8243 21.4716 11.8308 21.4712 11.8377 21.4705L12.0882 23.8574ZM10.8997 23.082V22.8008H13.2997V23.082H10.8997ZM12.5786 24.7H12.5178V22.3H12.5786V24.7ZM14.2575 22.8611V23.0211H11.8575V22.8611H14.2575ZM14.7226 22.614C14.5545 22.8467 14.3522 23.0446 14.1254 23.2093L12.715 21.2674C12.7502 21.2419 12.7675 21.2219 12.7767 21.2091L14.7226 22.614ZM15.1991 21.1515C15.1991 21.6878 15.0332 22.1881 14.7191 22.6187L12.7802 21.2043C12.7937 21.1857 12.7964 21.1769 12.7966 21.1762C12.797 21.1751 12.7975 21.1734 12.7979 21.1704C12.7984 21.1673 12.7991 21.1612 12.7991 21.1515H15.1991ZM14.8708 19.9568C15.0974 20.3283 15.1991 20.7381 15.1991 21.1515H12.7991C12.7991 21.1415 12.7981 21.146 12.8019 21.1603C12.8059 21.1752 12.8128 21.1916 12.8216 21.2061L14.8708 19.9568ZM14.2534 19.21C14.5071 19.4336 14.7247 19.6946 14.893 19.9946L12.7995 21.1682C12.7745 21.1237 12.7347 21.0706 12.6664 21.0104L14.2534 19.21ZM13.5282 18.6877C13.7881 18.8403 14.0309 19.0139 14.2534 19.21L12.6664 21.0104C12.567 20.9228 12.4503 20.838 12.3132 20.7574L13.5282 18.6877ZM12.9202 18.3371C13.1275 18.4513 13.3343 18.5706 13.5406 18.6951L12.3008 20.7501C12.1208 20.6415 11.9412 20.5379 11.7622 20.4392L12.9202 18.3371ZM12.4431 18.0902C12.6005 18.1646 12.7621 18.2486 12.9272 18.341L11.7552 20.4353C11.6306 20.3656 11.5185 20.3077 11.4184 20.2605L12.4431 18.0902ZM12.3849 18.0491C12.3849 18.0491 12.3871 18.0509 12.3918 18.0543C12.3966 18.0577 12.4035 18.0625 12.413 18.0686C12.4321 18.081 12.4592 18.0972 12.4958 18.1167L11.3657 20.234C11.1952 20.143 11.0226 20.0354 10.8649 19.9064L12.3849 18.0491ZM12.7122 18.7497C12.7122 18.6115 12.6805 18.4697 12.6162 18.3397C12.554 18.2139 12.476 18.1281 12.4161 18.0755L10.8337 19.88C10.5447 19.6265 10.3122 19.2381 10.3122 18.7497H12.7122ZM12.2569 19.5611C12.3369 19.5149 12.4598 19.4237 12.5613 19.264C12.6679 19.0962 12.7122 18.9131 12.7122 18.7497H10.3122C10.3122 18.1494 10.6595 17.7119 11.0573 17.4824L12.2569 19.5611ZM12.0515 19.6381C12.0331 19.6381 12.0443 19.6399 12.077 19.6329C12.1101 19.6259 12.1763 19.6076 12.2569 19.5611L11.0573 17.4824C11.4045 17.282 11.7706 17.2381 12.0515 17.2381V19.6381ZM12.2125 19.6478C12.1792 19.6428 12.1268 19.6381 12.0515 19.6381V17.2381C12.2229 17.2381 12.3958 17.2486 12.5665 17.274L12.2125 19.6478ZM12.4405 19.6869C12.3598 19.667 12.3044 19.6584 12.2708 19.655L12.5082 17.2668C12.6784 17.2837 12.8484 17.3156 13.0146 17.3566L12.4405 19.6869ZM14.6401 18.4374L14.5111 18.7148L12.3348 17.703L12.4638 17.4257L14.6401 18.4374ZM14.4346 17.0184V17.2873H12.0346V17.0184H14.4346ZM12.5348 15.3518L12.6229 15.3448L12.8127 17.7372L12.7247 17.7442L12.5348 15.3518ZM11.0768 17.1925V16.93H13.4768V17.1925H11.0768ZM12.0354 16.1056C12.1251 16.1056 12.2194 16.1109 12.3165 16.124L11.9957 18.5025C12.0177 18.5054 12.0315 18.5056 12.0354 18.5056V16.1056ZM11.979 16.1056H12.0354V18.5056H11.979V16.1056ZM13.1227 16.9189V17.2493H10.7227V16.9189H13.1227ZM11.3142 15.3449L11.4094 15.3372L11.6008 17.7296L11.5057 17.7372L11.3142 15.3449ZM9.77299 17.1061V17.0144H12.173V17.1061H9.77299ZM9.29808 17.2982C9.48497 17.05 9.71048 16.8421 9.96504 16.6736L11.2899 18.6748C11.2512 18.7004 11.2296 18.723 11.2153 18.7419L9.29808 17.2982ZM8.79935 18.7654C8.80919 18.236 8.97241 17.7347 9.29488 17.3025L11.2185 18.7377C11.209 18.7504 11.2065 18.7572 11.2052 18.7609C11.2038 18.765 11.1995 18.7793 11.1989 18.81L8.79935 18.7654ZM9.11171 19.9786C8.89833 19.6074 8.79915 19.2013 8.79915 18.7877H11.1991C11.1991 18.7953 11.1996 18.7997 11.1998 18.8012C11.2 18.8027 11.2 18.802 11.1993 18.7996C11.1987 18.7972 11.1977 18.7941 11.1963 18.7906C11.1949 18.7871 11.1935 18.7844 11.1924 18.7825L9.11171 19.9786ZM9.7922 20.771C9.52625 20.5522 9.2976 20.2929 9.11933 19.9917L11.1848 18.7694C11.2104 18.8127 11.25 18.8625 11.3168 18.9174L9.7922 20.771ZM10.4731 21.2485C10.2336 21.1063 10.0064 20.9471 9.7922 20.771L11.3168 18.9174C11.4353 19.0149 11.5622 19.104 11.6982 19.1847L10.4731 21.2485ZM11.0449 21.5773C10.8665 21.4752 10.6801 21.3681 10.4859 21.256L11.6855 19.1773C11.8775 19.2881 12.0614 19.3938 12.2371 19.4943L11.0449 21.5773ZM11.4335 21.7973C11.3172 21.7287 11.1951 21.6594 11.0669 21.5896L12.2151 19.4821C12.3659 19.5642 12.5121 19.647 12.6534 19.7304L11.4335 21.7973ZM11.5334 21.8643C11.5361 21.8669 11.5306 21.8614 11.5132 21.8487C11.4959 21.8362 11.47 21.8189 11.4335 21.7973L12.6534 19.7304C12.8343 19.8372 13.0175 19.9648 13.1812 20.1194L11.5334 21.8643ZM11.2861 21.2275C11.2861 21.6136 11.5003 21.8359 11.5618 21.8903L13.1527 20.0934C13.386 20.2999 13.6861 20.6792 13.6861 21.2275H11.2861ZM11.5817 20.5222C11.522 20.5786 11.4458 20.6674 11.3847 20.7944C11.3213 20.926 11.2861 21.0745 11.2861 21.2275H13.6861C13.6861 21.6874 13.468 22.0419 13.2295 22.2671L11.5817 20.5222ZM11.8965 20.3332C11.8945 20.3337 11.8627 20.341 11.8132 20.3636C11.7648 20.3857 11.6765 20.4327 11.5817 20.5222L13.2295 22.2671C12.9575 22.524 12.6402 22.6236 12.4479 22.669L11.8965 20.3332ZM11.7778 20.3391C11.8278 20.3391 11.8617 20.3371 11.882 20.3351C11.9032 20.3331 11.9014 20.3319 11.8828 20.3365L12.4616 22.6657C12.229 22.7235 11.9905 22.7391 11.7778 22.7391V20.3391ZM11.5509 20.313C11.6668 20.3342 11.7398 20.3391 11.7778 20.3391V22.7391C11.5583 22.7391 11.3362 22.7136 11.1194 22.6739L11.5509 20.313ZM11.2519 20.2272C11.3594 20.2635 11.4731 20.2951 11.5934 20.3216L11.0769 22.6654C10.8753 22.6209 10.6778 22.5664 10.4849 22.5013L11.2519 20.2272ZM9.03344 21.5357L9.25217 21.064L11.4294 22.0738L11.2107 22.5454L9.03344 21.5357ZM10.0815 23.5823C9.98821 23.5493 9.89721 23.516 9.8085 23.4825L10.6566 21.2374C10.7288 21.2646 10.8042 21.2922 10.8826 21.32L10.0815 23.5823ZM12.173 17.1061C12.173 17.8745 11.6958 18.406 11.2899 18.6748L9.96504 16.6736C9.94459 16.6871 9.90451 16.7182 9.86388 16.7815C9.82038 16.8492 9.77299 16.9614 9.77299 17.1061H12.173ZM11.5057 17.7372C11.8825 17.707 12.173 17.3924 12.173 17.0144H9.77299C9.77299 16.1412 10.4438 15.4145 11.3142 15.3449L11.5057 17.7372ZM10.7227 16.9189C10.7227 17.3937 11.1276 17.7675 11.6008 17.7296L11.4094 15.3372C12.3327 15.2634 13.1227 15.9927 13.1227 16.9189H10.7227ZM11.979 18.5056C11.2852 18.5056 10.7227 17.9432 10.7227 17.2493H13.1227C13.1227 16.6177 12.6107 16.1056 11.979 16.1056V18.5056ZM10.4722 22.497C10.766 22.5998 11.2227 22.5196 11.4294 22.0738L9.25217 21.064C9.63895 20.23 10.5669 19.9875 11.2645 20.2316L10.4722 22.497ZM12.7247 17.7442C13.1493 17.7105 13.4768 17.3561 13.4768 16.93H11.0768C11.0768 16.1042 11.7116 15.4171 12.5348 15.3518L12.7247 17.7442ZM12.0346 17.0184C12.0346 17.4391 12.3933 17.7705 12.8127 17.7372L12.6229 15.3448C13.5994 15.2673 14.4346 16.0388 14.4346 17.0184H12.0346ZM10.5134 22.7762C10.5134 22.0557 11.0975 21.4716 11.8181 21.4716V23.8716C12.423 23.8716 12.9134 23.3811 12.9134 22.7762H10.5134ZM12.9079 18.6945C12.4305 18.4517 12.0346 17.9405 12.0346 17.2873H14.4346C14.4346 16.9227 14.2159 16.6671 13.9958 16.5552L12.9079 18.6945ZM11.8575 22.8611C11.8575 22.0883 12.3272 21.5492 12.715 21.2674L14.1254 23.2093C14.1273 23.2079 14.1527 23.1899 14.183 23.1409C14.216 23.0875 14.2575 22.9904 14.2575 22.8611H11.8575ZM12.5786 22.3C12.1804 22.3 11.8575 22.6229 11.8575 23.0211H14.2575C14.2575 23.9483 13.5058 24.7 12.5786 24.7V22.3ZM13.2997 23.082C13.2997 22.6501 12.9496 22.3 12.5178 22.3V24.7C11.6242 24.7 10.8997 23.9756 10.8997 23.082H13.2997ZM9.56373 22.8189C9.56373 23.1966 9.8173 23.5119 10.1609 23.6074L10.8032 21.2949C11.478 21.4824 11.9637 22.0975 11.9637 22.8189H9.56373ZM12.4638 17.4257C12.2979 17.7825 12.3396 18.4491 12.9724 18.7249L13.9313 16.5248C14.7979 16.9025 14.9134 17.8494 14.6401 18.4374L12.4638 17.4257ZM11.3106 22.2772C10.8703 22.2772 10.5134 22.6341 10.5134 23.0744H12.9134C12.9134 23.9596 12.1958 24.6772 11.3106 24.6772V22.2772ZM11.2107 22.5454C11.413 22.1091 11.2628 21.5194 10.7449 21.2748L9.72018 23.4451C8.96313 23.0876 8.71987 22.2118 9.03344 21.5357L11.2107 22.5454ZM13.4768 17.1925C13.4768 17.9219 12.8855 18.5132 12.1561 18.5132V16.1132C11.56 16.1132 11.0768 16.5965 11.0768 17.1925H13.4768ZM11.9629 21.464C12.7012 21.464 13.2997 22.0625 13.2997 22.8008H10.8997C10.8997 23.388 11.3758 23.864 11.9629 23.864V21.464ZM13.0032 17.3538C12.8131 17.3089 12.4889 17.3716 12.3348 17.703L14.5111 18.7148C14.1153 19.5663 13.2001 19.8663 12.4518 19.6896L13.0032 17.3538ZM11.9637 23.0023C11.9637 22.6019 11.6391 22.2772 11.2386 22.2772V24.6772C10.3136 24.6772 9.56373 23.9273 9.56373 23.0023H11.9637Z" fill="black" mask="url(#path-4-outside-1_2007_1871)"/>
</svg>
