<svg width="33" height="33" viewBox="0 0 33 33" fill="none" xmlns="http://www.w3.org/2000/svg">
<path d="M28.7326 6.08969C29.2624 6.67406 29.6861 7.32641 30.095 7.99881C30.1463 8.08192 30.1968 8.16549 30.2464 8.24954C30.2961 8.33358 30.345 8.41809 30.393 8.50305C30.4411 8.58804 30.4883 8.67347 30.5348 8.75935C30.5812 8.84523 30.6268 8.93154 30.6716 9.0183C30.7164 9.10506 30.7604 9.19223 30.8035 9.27981C30.8466 9.36739 30.8889 9.45538 30.9304 9.54378C30.9718 9.63218 31.0124 9.72095 31.0522 9.81011C31.092 9.8993 31.1309 9.98883 31.169 10.0787C31.207 10.1686 31.2442 10.2589 31.2805 10.3495C31.3169 10.4401 31.3524 10.5311 31.387 10.6224C31.4216 10.7137 31.4553 10.8053 31.4882 10.8972C31.521 10.9891 31.553 11.0814 31.5841 11.1739C31.6152 11.2665 31.6455 11.3593 31.6748 11.4524C31.7041 11.5455 31.7326 11.6389 31.7601 11.7326C31.7877 11.8262 31.8144 11.9202 31.8401 12.0143C31.8659 12.1085 31.8908 12.2029 31.9147 12.2975C31.9387 12.3922 31.9618 12.4871 31.9839 12.5821C32.0061 12.6772 32.0274 12.7725 32.0477 12.868C32.068 12.9635 32.0875 13.0591 32.106 13.155C32.1245 13.2509 32.1422 13.3469 32.1589 13.4431C32.1756 13.5392 32.1913 13.6356 32.2062 13.7321C32.2211 13.8286 32.235 13.9252 32.248 14.022C32.2611 14.1187 32.2732 14.2156 32.2843 14.3126C32.2955 14.4096 32.3058 14.5067 32.3151 14.6039C32.3244 14.701 32.3328 14.7983 32.3403 14.8956C32.3478 14.993 32.3543 15.0904 32.36 15.1879C32.3656 15.2853 32.3703 15.3829 32.374 15.4804C32.3778 15.578 32.3806 15.6756 32.3825 15.7732C32.3844 15.8708 32.3854 15.9684 32.3855 16.066C32.3855 16.1637 32.3846 16.2613 32.3828 16.3589C32.381 16.4565 32.3782 16.5541 32.3746 16.6517C32.3709 16.7492 32.3663 16.8467 32.3608 16.9442C32.3539 17.0803 32.3453 17.2162 32.335 17.352C32.3248 17.4879 32.3129 17.6236 32.2993 17.7591C32.2857 17.8947 32.2704 18.03 32.2535 18.1652C32.2366 18.3003 32.218 18.4353 32.1978 18.57C32.1775 18.7047 32.1556 18.8391 32.132 18.9733C32.1085 19.1075 32.0833 19.2413 32.0565 19.3749C32.0296 19.5084 32.0011 19.6416 31.971 19.7745C31.9409 19.9073 31.9091 20.0398 31.8757 20.1718C31.8424 20.3039 31.8073 20.4356 31.7707 20.5668C31.7341 20.698 31.6958 20.8287 31.656 20.959C31.6162 21.0892 31.5747 21.219 31.5317 21.3482C31.4886 21.4775 31.444 21.6062 31.3978 21.7343C31.3516 21.8624 31.3039 21.99 31.2545 22.117C31.2052 22.2439 31.1543 22.3703 31.1018 22.496C31.0493 22.6217 30.9954 22.7468 30.9398 22.8712C30.8843 22.9956 30.8272 23.1192 30.7687 23.2422C30.7101 23.3652 30.65 23.4875 30.5884 23.609C30.5268 23.7305 30.4638 23.8512 30.3992 23.9712C30.3347 24.0911 30.2687 24.2102 30.2012 24.3286C30.1337 24.4469 30.0647 24.5644 29.9943 24.681C29.924 24.7977 29.8521 24.9134 29.7789 25.0283C29.7057 25.1431 29.6311 25.2571 29.555 25.3701C29.479 25.4831 29.4016 25.5952 29.3228 25.7063C29.244 25.8174 29.1639 25.9276 29.0823 26.0367C29.0008 26.1459 28.918 26.254 28.8338 26.3611C28.7497 26.4682 28.6642 26.5743 28.5774 26.6793C28.4906 26.7843 28.4026 26.8882 28.3133 26.991C28.2239 27.0939 28.1333 27.1956 28.0415 27.2963C27.9497 27.3969 27.8566 27.4963 27.7624 27.5946C27.6681 27.6929 27.5726 27.7901 27.4759 27.8861C27.3792 27.982 27.2814 28.0768 27.1824 28.1704C27.0834 28.2639 26.9832 28.3562 26.882 28.4474C26.7838 28.5355 26.6847 28.6225 26.5844 28.7082C26.4842 28.7939 26.3829 28.8784 26.2806 28.9616C26.1782 29.0448 26.0749 29.1268 25.9705 29.2075C25.8661 29.2881 25.7608 29.3675 25.6545 29.4455C25.5481 29.5236 25.4408 29.6003 25.3326 29.6757C25.2244 29.7511 25.1153 29.8252 25.0052 29.8979C24.8952 29.9706 24.7842 30.042 24.6724 30.1119C24.5606 30.1819 24.4479 30.2505 24.3344 30.3176C24.2209 30.3848 24.1065 30.4506 23.9914 30.5149C23.8762 30.5792 23.7603 30.6422 23.6436 30.7037C23.5269 30.7651 23.4095 30.8251 23.2913 30.8837C23.1731 30.9423 23.0542 30.9994 22.9346 31.055C22.815 31.1107 22.6948 31.1648 22.5738 31.2175C22.4529 31.2702 22.3313 31.3213 22.2091 31.3709C22.0869 31.4206 21.9641 31.4688 21.8407 31.5154C21.7173 31.562 21.5933 31.6071 21.4688 31.6506C21.3443 31.6942 21.2193 31.7362 21.0937 31.7766C20.9682 31.8171 20.8422 31.856 20.7157 31.8933C20.5892 31.9307 20.4622 31.9665 20.3348 32.0006C20.2074 32.0348 20.0797 32.0675 19.9515 32.0985C19.8233 32.1295 19.6947 32.159 19.5658 32.1868C19.4368 32.2147 19.3076 32.241 19.178 32.2656C19.0484 32.2903 18.9185 32.3134 18.7884 32.3348C18.6582 32.3562 18.5278 32.3761 18.3972 32.3943C18.2666 32.4125 18.1357 32.4291 18.0047 32.4441C17.8736 32.4591 17.7424 32.4725 17.611 32.4842C17.4797 32.496 17.3481 32.5061 17.2165 32.5146C17.0849 32.5231 16.9532 32.53 16.8214 32.5352C16.6896 32.5404 16.5577 32.544 16.4258 32.546C16.2939 32.548 16.162 32.5483 16.0301 32.547C15.8982 32.5457 15.7664 32.5428 15.6346 32.5383C15.5027 32.5337 15.371 32.5275 15.2393 32.5197C14.4554 32.479 13.6972 32.3558 12.93 32.1936C12.825 32.1718 12.7203 32.1489 12.6158 32.125C12.5112 32.101 12.407 32.076 12.3029 32.05C12.1989 32.024 12.0951 31.997 11.9917 31.9689C11.8882 31.9408 11.785 31.9117 11.6821 31.8815C11.5791 31.8514 11.4766 31.8202 11.3743 31.788C11.272 31.7558 11.17 31.7226 11.0684 31.6884C10.9668 31.6542 10.8655 31.6189 10.7646 31.5826C10.6637 31.5464 10.5631 31.5091 10.463 31.4709C10.3628 31.4326 10.263 31.3933 10.1636 31.3531C10.0643 31.3128 9.96529 31.2715 9.86674 31.2293C9.76818 31.1871 9.67005 31.1439 9.57235 31.0996C9.47465 31.0555 9.37741 31.0103 9.28062 30.9641C9.1838 30.918 9.08747 30.8709 8.99163 30.8228C8.89575 30.7748 8.80038 30.7257 8.70552 30.6758C8.61066 30.6258 8.5163 30.5749 8.42244 30.523C8.32855 30.4712 8.23522 30.4184 8.14244 30.3647C8.04962 30.3109 7.95736 30.2563 7.86565 30.2007C7.77394 30.1452 7.6828 30.0887 7.59222 30.0313C7.50162 29.9739 7.41161 29.9156 7.3222 29.8565C7.23279 29.7973 7.14398 29.7372 7.05577 29.6762C6.96753 29.6153 6.87992 29.5534 6.79294 29.4907C6.70596 29.428 6.61961 29.3644 6.5339 29.3C6.44818 29.2356 6.36312 29.1703 6.27873 29.1041C6.1943 29.038 6.11056 28.971 6.02749 28.9032C5.94442 28.8354 5.86204 28.7668 5.78036 28.6974C5.69865 28.6279 5.61764 28.5576 5.53735 28.4866C5.45706 28.4155 5.37749 28.3436 5.29864 28.2709C5.21977 28.1983 5.14164 28.1248 5.06424 28.0506C4.98685 27.9764 4.91022 27.9014 4.83434 27.8257C4.75843 27.7499 4.68329 27.6734 4.60893 27.5961C4.53456 27.5189 4.46098 27.4409 4.3882 27.3622C4.31538 27.2834 4.24336 27.204 4.17215 27.1238C3.26497 26.1144 2.07186 24.4469 1.62463 23.1614C1.82379 23.3904 1.97058 23.6719 2.1275 23.931C2.34463 24.2909 2.56919 24.6462 2.80118 24.9968C3.84758 26.5516 5.27509 27.9193 6.82989 28.9598C10.2427 31.2436 14.8195 32.2666 18.862 31.4536C18.9875 31.4284 19.1126 31.4016 19.2374 31.3733C19.3622 31.3449 19.4866 31.315 19.6106 31.2836C19.7346 31.2522 19.8583 31.2192 19.9815 31.1848C20.1047 31.1502 20.2275 31.1142 20.3498 31.0767C20.4721 31.0392 20.594 31.0001 20.7154 30.9596C20.8367 30.919 20.9576 30.877 21.0779 30.8335C21.1982 30.7899 21.318 30.7449 21.4372 30.6984C21.5564 30.6519 21.675 30.6039 21.793 30.5544C21.911 30.505 22.0284 30.4541 22.1452 30.4017C22.262 30.3494 22.3781 30.2956 22.4935 30.2403C22.6089 30.1851 22.7236 30.1285 22.8376 30.0704C22.9517 30.0123 23.065 29.9528 23.1775 29.892C23.29 29.8311 23.4018 29.7688 23.5128 29.7052C23.6238 29.6415 23.734 29.5765 23.8434 29.5101C23.9528 29.4437 24.0614 29.376 24.1691 29.3069C24.2768 29.2379 24.3836 29.1675 24.4896 29.0958C24.5956 29.0241 24.7007 28.951 24.8048 28.8767C24.909 28.8024 25.0122 28.7268 25.1145 28.6499C25.2168 28.5731 25.3181 28.4949 25.4184 28.4155C25.5188 28.3361 25.6182 28.2555 25.7165 28.1737C25.8149 28.0918 25.9122 28.0088 26.0085 27.9245C26.1048 27.8403 26.2001 27.7548 26.2943 27.6682C26.3884 27.5816 26.4815 27.4938 26.5736 27.4049C26.6656 27.316 26.7564 27.2259 26.8462 27.1348C26.936 27.0436 27.0247 26.9513 27.1121 26.8579C27.1996 26.7645 27.2859 26.6701 27.3711 26.5746C27.4563 26.4791 27.5402 26.3825 27.623 26.285C27.7058 26.1873 27.7873 26.0887 27.8676 25.9891C27.9479 25.8895 28.027 25.7889 28.1048 25.6874C28.1826 25.5858 28.2592 25.4833 28.3345 25.3798C28.4098 25.2764 28.4838 25.172 28.5565 25.0667C28.6292 24.9614 28.7006 24.8552 28.7706 24.7481C28.8471 24.6339 28.922 24.5187 28.9956 24.4026C29.0692 24.2864 29.1413 24.1694 29.2119 24.0515C29.2825 23.9336 29.3517 23.8148 29.4194 23.6952C29.4871 23.5755 29.5533 23.4551 29.618 23.3338C29.6827 23.2125 29.7459 23.0905 29.8076 22.9676C29.8692 22.8448 29.9294 22.7212 29.988 22.5968C30.0466 22.4725 30.1037 22.3475 30.1592 22.2217C30.2146 22.0959 30.2686 21.9695 30.3209 21.8424C30.3733 21.7153 30.4241 21.5876 30.4732 21.4592C30.5224 21.3309 30.57 21.2019 30.616 21.0724C30.662 20.9429 30.7063 20.8128 30.7491 20.6821C30.7918 20.5515 30.833 20.4204 30.8725 20.2887C30.912 20.157 30.9498 20.0249 30.986 19.8923C31.0222 19.7597 31.0568 19.6267 31.0897 19.4932C31.1226 19.3597 31.1539 19.2259 31.1835 19.0917C31.2131 18.9574 31.241 18.8228 31.2672 18.6879C31.2934 18.553 31.318 18.4177 31.3409 18.2822C31.3638 18.1467 31.385 18.0109 31.4045 17.8748C31.424 17.7387 31.4418 17.6024 31.4579 17.466C31.4741 17.3294 31.4885 17.1927 31.5012 17.0559C31.514 16.919 31.525 16.782 31.5343 16.6449C31.5436 16.5077 31.5513 16.3705 31.5572 16.2332C31.5631 16.0958 31.5673 15.9584 31.5698 15.821C31.5723 15.6835 31.5731 15.5461 31.5722 15.4087C31.5713 15.2712 31.5687 15.1338 31.5644 14.9964C31.5601 14.859 31.554 14.7217 31.5463 14.5845C31.5386 14.4472 31.5292 14.3101 31.518 14.1731C31.5069 14.0361 31.4941 13.8992 31.4795 13.7626C31.465 13.6258 31.4487 13.4894 31.4308 13.3531C31.4129 13.2168 31.3933 13.0808 31.372 12.945C31.3507 12.8092 31.3277 12.6737 31.3031 12.5384C31.2784 12.4032 31.252 12.2683 31.224 12.1337C31.0202 11.1605 30.719 10.2258 30.3672 9.29727C30.1673 8.76995 29.9192 8.23534 29.6537 7.73745C29.4476 7.35101 28.7968 6.43573 28.7362 6.11131C28.7348 6.10412 28.7338 6.09688 28.7326 6.08969Z" fill="black"/>
<path d="M1.62463 23.1614C1.54484 22.9964 1.4679 22.8301 1.39375 22.6624C1.31958 22.4948 1.24826 22.3259 1.17979 22.1559C1.11132 21.9858 1.04574 21.8147 0.983044 21.6424C0.920348 21.4701 0.860569 21.2969 0.803708 21.1226C0.746878 20.9483 0.69298 20.7731 0.642016 20.597C0.591083 20.4209 0.543131 20.244 0.498158 20.0663C0.453186 19.8886 0.411226 19.7102 0.372278 19.531C0.333329 19.3519 0.297408 19.1722 0.264515 18.9919C0.231622 18.8115 0.201787 18.6307 0.175012 18.4494C0.148206 18.268 0.124474 18.0862 0.103817 17.9041C0.0831598 17.7219 0.0655782 17.5395 0.0510711 17.3568C0.0365955 17.174 0.0251944 16.9911 0.0168686 16.8079C0.0085112 16.6248 0.0032606 16.4416 0.00111606 16.2583C-0.00102847 16.075 -8.24663e-05 15.8917 0.0039543 15.7084C0.00799107 15.5252 0.0151183 15.342 0.0253364 15.159C0.0355544 14.9759 0.0488475 14.7931 0.0652153 14.6106C0.410927 10.5367 2.54007 6.50949 5.66249 3.88387C5.76578 3.79651 5.87014 3.71045 5.97556 3.62568C6.08096 3.54094 6.1874 3.45749 6.29488 3.37533C6.40236 3.29321 6.51083 3.21241 6.6203 3.13294C6.72979 3.05346 6.84024 2.97536 6.95163 2.89863C7.06302 2.8219 7.17535 2.74656 7.28863 2.67261C7.40188 2.59865 7.51603 2.52612 7.63108 2.455C7.74616 2.38385 7.86209 2.31414 7.97887 2.24586C8.09562 2.17758 8.21323 2.11077 8.33168 2.04542C8.4501 1.98005 8.56931 1.91615 8.68931 1.85374C8.80931 1.7913 8.93007 1.73037 9.05158 1.67095C9.17309 1.6115 9.29532 1.55357 9.41825 1.49715C9.54121 1.44073 9.66484 1.38584 9.78913 1.33248C9.91342 1.27908 10.0384 1.22725 10.1639 1.17698C10.2895 1.12671 10.4157 1.07799 10.5425 1.03081C10.6693 0.983659 10.7966 0.938073 10.9245 0.894047C11.0524 0.850052 11.1809 0.807619 11.3098 0.766746C11.4388 0.725905 11.5682 0.686674 11.6982 0.64905C11.8281 0.611394 11.9585 0.575346 12.0893 0.540908C12.2201 0.506501 12.3513 0.473702 12.4829 0.442511C12.6146 0.411321 12.7465 0.381771 12.8789 0.353861C13.0113 0.325919 13.144 0.299632 13.2769 0.275001C13.41 0.250339 13.5433 0.227333 13.6768 0.205982C13.8104 0.184631 13.9442 0.164937 14.0783 0.146897C14.2123 0.128827 14.3466 0.112427 14.4811 0.0976989C14.6155 0.082971 14.7502 0.0699152 14.885 0.0585302C15.0198 0.0471137 15.1547 0.0373682 15.2897 0.0292946C15.4247 0.0212211 15.5598 0.0148195 15.695 0.0100889C15.8302 0.00535831 15.9654 0.00228308 16.1007 0.000863907C16.2359 -0.000523732 16.3712 -0.000239643 16.5065 0.00171567C16.6417 0.00367098 16.7769 0.00728218 16.9121 0.0125489C17.0473 0.0178472 17.1824 0.0248009 17.3173 0.0334105C17.4523 0.0420517 17.5872 0.0523486 17.7219 0.0643013C21.4378 0.391421 25.1014 2.2935 27.7124 4.92664C28.075 5.29226 28.4018 5.69554 28.7326 6.08969C28.7338 6.09688 28.7348 6.10412 28.7362 6.11131C28.7968 6.43573 29.4476 7.35101 29.6537 7.73745C29.9192 8.23534 30.1673 8.76995 30.3672 9.29727C30.719 10.2258 31.0202 11.1605 31.224 12.1337C31.252 12.2683 31.2784 12.4032 31.3031 12.5384C31.3277 12.6737 31.3507 12.8092 31.372 12.945C31.3933 13.0808 31.4129 13.2168 31.4308 13.3531C31.4487 13.4894 31.465 13.6258 31.4795 13.7626C31.4941 13.8992 31.5069 14.0361 31.518 14.1731C31.5292 14.3101 31.5386 14.4472 31.5463 14.5845C31.554 14.7217 31.5601 14.859 31.5644 14.9964C31.5687 15.1338 31.5713 15.2712 31.5722 15.4087C31.5731 15.5461 31.5723 15.6835 31.5698 15.821C31.5673 15.9584 31.5631 16.0958 31.5572 16.2332C31.5513 16.3705 31.5436 16.5077 31.5343 16.6449C31.525 16.782 31.514 16.919 31.5012 17.0559C31.4885 17.1927 31.4741 17.3294 31.4579 17.466C31.4418 17.6024 31.424 17.7387 31.4045 17.8748C31.385 18.0109 31.3638 18.1467 31.3409 18.2822C31.318 18.4177 31.2934 18.553 31.2672 18.6879C31.241 18.8228 31.2131 18.9574 31.1835 19.0917C31.1539 19.2259 31.1226 19.3597 31.0897 19.4932C31.0568 19.6267 31.0222 19.7597 30.986 19.8923C30.9498 20.0249 30.912 20.157 30.8725 20.2887C30.833 20.4204 30.7918 20.5515 30.7491 20.6821C30.7063 20.8128 30.662 20.9429 30.616 21.0724C30.57 21.2019 30.5224 21.3309 30.4732 21.4592C30.4241 21.5876 30.3733 21.7153 30.3209 21.8424C30.2686 21.9695 30.2146 22.0959 30.1592 22.2217C30.1037 22.3475 30.0466 22.4725 29.988 22.5968C29.9294 22.7212 29.8692 22.8448 29.8076 22.9676C29.7459 23.0905 29.6827 23.2125 29.618 23.3338C29.5533 23.4551 29.4871 23.5755 29.4194 23.6952C29.3517 23.8148 29.2825 23.9336 29.2119 24.0515C29.1413 24.1694 29.0692 24.2864 28.9956 24.4026C28.922 24.5187 28.8471 24.6339 28.7706 24.7481C28.7006 24.8552 28.6292 24.9614 28.5565 25.0667C28.4838 25.172 28.4098 25.2764 28.3345 25.3798C28.2592 25.4833 28.1826 25.5858 28.1048 25.6874C28.027 25.7889 27.9479 25.8895 27.8676 25.9891C27.7873 26.0887 27.7058 26.1873 27.623 26.285C27.5402 26.3825 27.4563 26.4791 27.3711 26.5746C27.2859 26.6701 27.1996 26.7645 27.1121 26.8579C27.0247 26.9513 26.936 27.0436 26.8462 27.1348C26.7564 27.2259 26.6656 27.316 26.5736 27.4049C26.4815 27.4938 26.3884 27.5816 26.2943 27.6682C26.2001 27.7548 26.1048 27.8403 26.0085 27.9245C25.9122 28.0088 25.8149 28.0918 25.7165 28.1737C25.6182 28.2555 25.5188 28.3361 25.4184 28.4155C25.3181 28.4949 25.2168 28.5731 25.1145 28.6499C25.0122 28.7268 24.909 28.8024 24.8048 28.8767C24.7007 28.951 24.5956 29.0241 24.4896 29.0958C24.3836 29.1675 24.2768 29.2379 24.1691 29.3069C24.0614 29.376 23.9528 29.4437 23.8434 29.5101C23.734 29.5765 23.6238 29.6415 23.5128 29.7052C23.4018 29.7688 23.29 29.8311 23.1775 29.892C23.065 29.9528 22.9517 30.0123 22.8376 30.0704C22.7236 30.1285 22.6089 30.1851 22.4935 30.2403C22.3781 30.2956 22.262 30.3494 22.1452 30.4017C22.0284 30.4541 21.911 30.505 21.793 30.5544C21.675 30.6039 21.5564 30.6519 21.4372 30.6984C21.318 30.7449 21.1982 30.7899 21.0779 30.8335C20.9576 30.877 20.8367 30.919 20.7154 30.9596C20.594 31.0001 20.4721 31.0392 20.3498 31.0767C20.2275 31.1142 20.1047 31.1502 19.9815 31.1848C19.8583 31.2192 19.7346 31.2522 19.6106 31.2836C19.4866 31.315 19.3622 31.3449 19.2374 31.3733C19.1126 31.4016 18.9875 31.4284 18.862 31.4536C14.8195 32.2666 10.2427 31.2436 6.82989 28.9598C5.27509 27.9193 3.84758 26.5516 2.80118 24.9968C2.56919 24.6462 2.34463 24.2909 2.1275 23.931C1.97058 23.6719 1.82379 23.3904 1.62463 23.1614Z" fill="#BA191A"/>
<path d="M4.15833 7.54852C4.23111 7.44886 4.30512 7.35012 4.38033 7.25229C4.45555 7.15443 4.53198 7.05753 4.60962 6.96159C4.68724 6.86566 4.76603 6.77068 4.84601 6.67667C4.92599 6.58269 5.0071 6.4897 5.08935 6.39771C5.17163 6.30571 5.25503 6.21474 5.33955 6.1248C5.42407 6.03489 5.50968 5.94601 5.59638 5.85818C5.68311 5.77038 5.7709 5.68366 5.85978 5.598C5.94862 5.51238 6.03851 5.42786 6.12947 5.34444C6.22042 5.26099 6.3124 5.1787 6.4054 5.09755C6.49837 5.01641 6.59234 4.93643 6.6873 4.85762C6.78226 4.7788 6.87819 4.70118 6.97511 4.62473C7.07199 4.54828 7.1698 4.47304 7.26855 4.39899C7.36729 4.32497 7.46693 4.25218 7.56747 4.18062C7.66801 4.10903 7.76942 4.03872 7.8717 3.96969C7.97397 3.90062 8.0771 3.83283 8.18108 3.76632C8.28502 3.69981 8.38979 3.63459 8.49538 3.57066C8.60093 3.50677 8.70728 3.44416 8.81441 3.38286C8.92151 3.32158 9.02937 3.26163 9.13798 3.203C9.24656 3.14437 9.35587 3.0871 9.4659 3.03118C9.5759 2.97527 9.6866 2.92072 9.79799 2.86755C9.90935 2.81435 10.0214 2.76255 10.134 2.71215C10.2467 2.66173 10.3599 2.61272 10.4738 2.56513C10.5876 2.51751 10.702 2.4713 10.8171 2.42652C10.932 2.38174 11.0476 2.33839 11.1637 2.29648C11.2798 2.25453 11.3963 2.21404 11.5134 2.17499C11.6305 2.13595 11.748 2.09836 11.866 2.06222C11.984 2.02611 12.1025 1.99145 12.2213 1.95824C12.3402 1.92503 12.4594 1.89329 12.5791 1.86301C12.6987 1.83277 12.8187 1.80399 12.9391 1.77668C13.0594 1.7494 13.1801 1.7236 13.3011 1.69929C13.4221 1.675 13.5434 1.6522 13.6649 1.63088C13.7865 1.60956 13.9083 1.58976 14.0304 1.57147C17.8915 0.993388 21.5289 1.94145 24.6616 4.26743C27.5927 6.44369 29.6982 10.0712 30.2297 13.6726C30.8258 17.7124 29.9638 21.5657 27.5178 24.856C25.3137 27.821 22.0892 29.842 18.4197 30.3788C18.2983 30.3972 18.1767 30.4142 18.0548 30.4297C17.9329 30.4451 17.8109 30.4591 17.6887 30.4716C17.5665 30.484 17.4442 30.495 17.3217 30.5044C17.1992 30.5138 17.0767 30.5218 16.954 30.5282C16.8314 30.5346 16.7086 30.5395 16.5859 30.5429C16.4631 30.5462 16.3403 30.5481 16.2174 30.5485C16.0946 30.5488 15.9718 30.5477 15.849 30.545C15.7262 30.5423 15.6034 30.5381 15.4808 30.5324C15.358 30.5267 15.2354 30.5195 15.1129 30.5108C14.9904 30.5021 14.868 30.4918 14.7458 30.48C14.6235 30.4683 14.5014 30.4551 14.3794 30.4403C14.2575 30.4255 14.1358 30.4093 14.0142 30.3915C13.8927 30.3737 13.7714 30.3545 13.6503 30.3337C13.5293 30.313 13.4085 30.2907 13.2879 30.267C13.1674 30.2432 13.0472 30.218 12.9273 30.1913C12.8074 30.1646 12.6879 30.1364 12.5687 30.1068C12.4495 30.0771 12.3307 30.046 12.2122 30.0134C12.0938 29.9808 11.9758 29.9468 11.8583 29.9113C11.7407 29.8758 11.6235 29.8388 11.5069 29.8004C11.3902 29.7621 11.274 29.7222 11.1583 29.681C11.0426 29.6397 10.9274 29.597 10.8128 29.5529C10.6982 29.5089 10.5841 29.4633 10.4705 29.4164C10.357 29.3695 10.2441 29.3212 10.1318 29.2715C10.0194 29.2218 9.90774 29.1707 9.79667 29.1183C9.68562 29.0658 9.57523 29.012 9.46548 28.9568C9.35573 28.9017 9.24669 28.8451 9.13836 28.7873C9.03 28.7294 8.92237 28.6702 8.81549 28.6097C8.70861 28.5491 8.60249 28.4873 8.49713 28.4242C8.39179 28.361 8.28723 28.2966 8.18344 28.2309C8.07968 28.1652 7.97674 28.0982 7.87463 28.0299C7.77251 27.9617 7.67126 27.8921 7.57088 27.8214C7.47046 27.7506 7.37095 27.6786 7.27233 27.6054C7.19976 27.5517 7.1277 27.4973 7.05614 27.4423C6.98455 27.3872 6.91352 27.3315 6.84303 27.2751C6.77251 27.2187 6.70253 27.1617 6.63309 27.104C6.56367 27.0463 6.4948 26.9879 6.42645 26.9289C6.35811 26.8699 6.29034 26.8103 6.22313 26.75C6.1559 26.6897 6.08926 26.6288 6.02322 26.5673C5.95715 26.5057 5.89166 26.4436 5.82676 26.3808C5.76185 26.3181 5.69755 26.2547 5.63384 26.1907C5.57014 26.1267 5.50705 26.0622 5.44457 25.997C5.38207 25.9318 5.32019 25.8661 5.25894 25.7997C5.1977 25.7334 5.13708 25.6665 5.0771 25.5991C5.01708 25.5316 4.95773 25.4636 4.89904 25.395C4.84032 25.3264 4.78226 25.2573 4.72486 25.1876C4.66743 25.1179 4.61068 25.0477 4.55461 24.9769C4.49853 24.9062 4.44312 24.8349 4.38837 24.7631C4.33363 24.6913 4.27955 24.619 4.22616 24.5462C4.17277 24.4734 4.12007 24.4001 4.06807 24.3263C4.01606 24.2525 3.96477 24.1782 3.91418 24.1034C3.86356 24.0287 3.81366 23.9534 3.76446 23.8777C3.71526 23.802 3.66679 23.7259 3.61904 23.6492C3.57129 23.5726 3.52427 23.4956 3.47797 23.418C3.43164 23.3405 3.38607 23.2626 3.34126 23.1842C3.29641 23.1059 3.25231 23.0271 3.20894 22.9479C3.16558 22.8687 3.12297 22.7891 3.08112 22.7091C3.03927 22.6291 2.99818 22.5488 2.95784 22.468C2.91751 22.3872 2.87793 22.3061 2.83911 22.2246C2.80028 22.143 2.76224 22.0612 2.72496 21.9789C2.68768 21.8967 2.65119 21.8141 2.61549 21.7312C2.57976 21.6483 2.54482 21.565 2.51066 21.4815C2.47651 21.3979 2.44314 21.314 2.41056 21.2298C2.37798 21.1456 2.34621 21.0611 2.31524 20.9763C2.28427 20.8915 2.25409 20.8064 2.2247 20.721C1.93892 20.0265 1.7786 19.2187 1.64908 18.4818C1.62871 18.3635 1.6098 18.2451 1.59236 18.1263C1.57492 18.0077 1.55895 17.8888 1.54444 17.7697C1.52996 17.6506 1.51695 17.5313 1.50541 17.4119C1.49387 17.2925 1.48381 17.173 1.47523 17.0533C1.46662 16.9337 1.45951 16.8139 1.4539 16.6941C1.44828 16.5742 1.44415 16.4543 1.4415 16.3344C1.43885 16.2145 1.4377 16.0945 1.43805 15.9745C1.43836 15.8546 1.44018 15.7346 1.44349 15.6147C1.44677 15.4948 1.45155 15.3749 1.45782 15.2551C1.46407 15.1353 1.47181 15.0156 1.48105 14.896C1.49029 14.7764 1.501 14.6569 1.51317 14.5375C1.52538 14.4182 1.53905 14.299 1.55418 14.18C1.56932 14.061 1.58593 13.9422 1.604 13.8236C1.62207 13.705 1.64162 13.5866 1.66266 13.4685C1.68366 13.3504 1.70613 13.2325 1.73007 13.115C1.754 12.9974 1.77939 12.8802 1.80623 12.7633C1.83307 12.6463 1.86134 12.5297 1.89105 12.4135C1.92079 12.2973 1.95195 12.1815 1.98453 12.066C2.0171 11.9505 2.05112 11.8355 2.08656 11.7209C2.12201 11.6063 2.15888 11.4921 2.19717 11.3784C2.23542 11.2647 2.27508 11.1515 2.31614 11.0387C2.35723 10.926 2.3997 10.8138 2.44354 10.7022C2.4874 10.5905 2.53263 10.4794 2.57921 10.3688C2.62582 10.2583 2.67379 10.1484 2.72311 10.039C2.77244 9.92964 2.82312 9.82092 2.87515 9.71281C2.92716 9.6047 2.9805 9.49725 3.03519 9.39047C3.08988 9.28368 3.14587 9.17759 3.20317 9.07219C3.26048 8.96679 3.31909 8.86212 3.37901 8.75818C3.4389 8.65423 3.50006 8.55104 3.56251 8.44861C3.62498 8.34617 3.6887 8.24455 3.75367 8.14372C3.81864 8.04286 3.88485 7.94283 3.95231 7.84361C4.01977 7.74439 4.08844 7.64603 4.15833 7.54852Z" fill="url(#paint0_linear_2110_1913)"/>
<path d="M4.15833 7.54852C4.21765 7.54227 4.24707 7.52893 4.30133 7.55821L4.28927 7.5874C4.27659 7.61853 4.26552 7.64947 4.25492 7.68135L4.24934 7.66825L4.29248 7.69994L4.3712 7.65685C4.42991 7.69152 4.47457 7.79351 4.51317 7.85383C4.59212 7.97715 4.45441 8.81967 4.3924 8.99243C4.20771 9.50688 4.20814 10.1471 4.11935 10.6879C4.04247 11.1563 3.85812 11.6149 3.78537 12.0817C3.76323 12.2239 3.7945 12.3717 3.7733 12.5127C3.73991 12.7344 3.653 12.9618 3.61218 13.1861C3.57661 13.3819 3.58408 13.59 3.54713 13.7834C3.53654 13.8389 3.49548 13.8944 3.46506 13.9413C3.50598 14.0889 3.52727 14.2032 3.53086 14.3566C3.531 14.362 3.532 14.3673 3.53256 14.3726C3.51889 14.5782 3.49287 14.7825 3.47816 14.9879L3.43388 15.0019C3.39202 15.1022 3.33856 15.2078 3.31505 15.3137C3.30961 15.3384 3.23633 16.3506 3.23903 16.3907C3.24556 16.4873 3.27039 16.5816 3.30072 16.6731C3.29485 16.6847 3.28875 16.6961 3.28321 16.7077C3.21051 16.8613 3.15222 17.2076 3.16651 17.3724C3.17607 17.4826 3.22238 17.6022 3.20871 17.712C3.19754 17.8015 3.16159 17.89 3.14877 17.9825C3.06946 18.5424 2.99468 19.1028 2.92445 19.6638C2.89341 19.9227 2.91607 20.2969 2.85883 20.5278C2.81806 20.6924 2.72784 20.9916 2.56038 21.0661C2.55276 21.0695 2.54458 21.0715 2.53668 21.0742C2.44609 20.9915 2.39585 20.8848 2.3239 20.7878C2.29788 20.7527 2.26273 20.7394 2.2247 20.721C1.93892 20.0265 1.7786 19.2187 1.64908 18.4818C1.62871 18.3635 1.6098 18.2451 1.59236 18.1263C1.57492 18.0077 1.55895 17.8888 1.54444 17.7697C1.52996 17.6506 1.51695 17.5313 1.50541 17.4119C1.49387 17.2925 1.48381 17.173 1.47523 17.0533C1.46662 16.9337 1.45951 16.8139 1.4539 16.6941C1.44828 16.5742 1.44415 16.4543 1.4415 16.3344C1.43885 16.2145 1.4377 16.0945 1.43805 15.9745C1.43836 15.8546 1.44018 15.7346 1.44349 15.6147C1.44677 15.4948 1.45155 15.3749 1.45782 15.2551C1.46407 15.1353 1.47181 15.0156 1.48105 14.896C1.49029 14.7764 1.501 14.6569 1.51317 14.5375C1.52538 14.4182 1.53905 14.299 1.55418 14.18C1.56932 14.061 1.58593 13.9422 1.604 13.8236C1.62207 13.705 1.64162 13.5866 1.66266 13.4685C1.68366 13.3504 1.70613 13.2325 1.73007 13.115C1.754 12.9974 1.77939 12.8802 1.80623 12.7633C1.83307 12.6463 1.86134 12.5297 1.89105 12.4135C1.92079 12.2973 1.95195 12.1815 1.98453 12.066C2.0171 11.9505 2.05112 11.8355 2.08656 11.7209C2.12201 11.6063 2.15888 11.4921 2.19717 11.3784C2.23542 11.2647 2.27508 11.1515 2.31614 11.0387C2.35723 10.926 2.3997 10.8138 2.44354 10.7022C2.4874 10.5905 2.53263 10.4794 2.57921 10.3688C2.62582 10.2583 2.67379 10.1484 2.72311 10.039C2.77244 9.92964 2.82312 9.82092 2.87515 9.71281C2.92716 9.6047 2.9805 9.49725 3.03519 9.39047C3.08988 9.28368 3.14587 9.17759 3.20317 9.07219C3.26048 8.96679 3.31909 8.86212 3.37901 8.75818C3.4389 8.65423 3.50006 8.55104 3.56251 8.44861C3.62498 8.34617 3.6887 8.24455 3.75367 8.14372C3.81864 8.04286 3.88485 7.94283 3.95231 7.84361C4.01977 7.74439 4.08844 7.64603 4.15833 7.54852Z" fill="#6A0504"/>
<path d="M3.53256 14.3726C3.53994 14.341 3.54374 14.3101 3.54837 14.278C4.04868 10.8096 5.69502 7.90627 8.52027 5.80134C10.453 4.36135 12.6368 3.5792 15.0353 3.40989C15.4053 3.38378 15.9102 3.30809 16.2743 3.36145C16.3787 3.36422 16.483 3.36831 16.5872 3.3737C16.6915 3.37906 16.7956 3.38572 16.8997 3.39366C17.0038 3.40161 17.1078 3.41084 17.2116 3.42134C17.3155 3.43184 17.4192 3.44364 17.5228 3.45672C17.6263 3.46981 17.7297 3.48416 17.8329 3.49977C17.9361 3.51541 18.0391 3.53233 18.1419 3.55053C18.2447 3.5687 18.3472 3.58814 18.4496 3.60886C18.5519 3.62955 18.6539 3.65151 18.7557 3.67476C18.8575 3.698 18.9589 3.72249 19.0601 3.74822C19.1612 3.77396 19.2621 3.80095 19.3625 3.82921C19.4631 3.85744 19.5632 3.88691 19.6629 3.91762C19.7627 3.94834 19.8621 3.98027 19.9611 4.01342C20.06 4.0466 20.1586 4.08099 20.2567 4.11659C20.3549 4.1522 20.4525 4.189 20.5497 4.22701C20.647 4.26504 20.7437 4.30426 20.8399 4.34465C20.9362 4.38505 21.0319 4.42664 21.1271 4.4694C21.2224 4.5122 21.317 4.55614 21.4112 4.60124C21.5053 4.64637 21.5989 4.69264 21.6919 4.74004C21.7849 4.78747 21.8772 4.83604 21.969 4.88574C22.0608 4.93547 22.152 4.98631 22.2425 5.03825C22.3331 5.09023 22.4229 5.1433 22.5122 5.19748C22.6014 5.25167 22.6899 5.30695 22.7778 5.36334C22.8656 5.4197 22.9528 5.47714 23.0392 5.53567C23.1256 5.59421 23.2113 5.6538 23.2963 5.71444C23.3813 5.77509 23.4655 5.83678 23.5489 5.8995C23.6324 5.96223 23.715 6.02597 23.7969 6.09071C23.8787 6.15549 23.9598 6.22126 24.04 6.28803C24.1203 6.35482 24.1997 6.42258 24.2782 6.4913C24.3568 6.56005 24.4345 6.62975 24.5113 6.70039C24.5882 6.77104 24.6641 6.84263 24.7392 6.91516C24.8142 6.9877 24.8884 7.06115 24.9617 7.13551C25.0349 7.20988 25.1073 7.28514 25.1787 7.3613C25.5375 7.73828 25.842 8.15046 26.1438 8.57337C27.7231 10.7862 28.6456 13.46 28.5743 16.1923C28.5719 16.2977 28.5681 16.4031 28.5631 16.5084C28.5581 16.6137 28.5517 16.7189 28.5441 16.8241C28.5365 16.9292 28.5276 17.0343 28.5174 17.1392C28.5072 17.2442 28.4957 17.349 28.4829 17.4536C28.4701 17.5583 28.4561 17.6628 28.4407 17.7671C28.4254 17.8714 28.4087 17.9755 28.3908 18.0793C28.3729 18.1833 28.3537 18.2869 28.3332 18.3903C28.3128 18.4938 28.2911 18.597 28.2681 18.6999C28.2451 18.8027 28.2208 18.9053 28.1953 19.0076C28.1698 19.1099 28.143 19.2119 28.115 19.3135C28.087 19.4152 28.0577 19.5164 28.0272 19.6174C27.9967 19.7183 27.9649 19.8188 27.932 19.9189C27.899 20.0191 27.8647 20.1188 27.8293 20.2181C27.7939 20.3174 27.7572 20.4163 27.7194 20.5147C27.6815 20.6131 27.6424 20.711 27.6021 20.8084C27.5619 20.9058 27.5204 21.0028 27.4777 21.0992C27.4351 21.1956 27.3912 21.2915 27.3462 21.3868C27.3012 21.4821 27.255 21.5769 27.2077 21.6711C27.1603 21.7653 27.1118 21.8589 27.0622 21.9519C27.0125 22.045 26.9618 22.1373 26.9099 22.2291C26.8579 22.3209 26.8049 22.412 26.7507 22.5024C26.6966 22.5929 26.6413 22.6827 26.585 22.7718C26.5286 22.8609 26.4711 22.9493 26.4126 23.037C26.3541 23.1246 26.2944 23.2116 26.2338 23.2978C26.1731 23.384 26.1114 23.4695 26.0486 23.5542C25.9858 23.6389 25.922 23.7228 25.8572 23.806C25.7923 23.8891 25.7265 23.9714 25.6596 24.0529C25.5927 24.1344 25.5249 24.2151 25.456 24.295C25.3872 24.3748 25.3173 24.4538 25.2465 24.5319C25.1757 24.6101 25.104 24.6873 25.0313 24.7637C24.9587 24.8401 24.885 24.9155 24.8105 24.9901C24.7359 25.0646 24.6605 25.1383 24.5841 25.2109C24.5276 25.2646 24.4706 25.3177 24.4131 25.3702C24.3556 25.4227 24.2976 25.4747 24.2391 25.5261C24.1806 25.5775 24.1216 25.6284 24.062 25.6787C24.0026 25.729 23.9426 25.7787 23.8821 25.8278C23.8217 25.8769 23.7608 25.9255 23.6994 25.9734C23.638 26.0214 23.5761 26.0688 23.5138 26.1155C23.4515 26.1623 23.3888 26.2085 23.3256 26.254C23.2624 26.2996 23.1988 26.3445 23.1348 26.3888C23.0707 26.4332 23.0062 26.4769 22.9413 26.52C22.8764 26.5631 22.8111 26.6055 22.7454 26.6473C22.6797 26.6892 22.6136 26.7304 22.5471 26.771C22.4806 26.8115 22.4137 26.8514 22.3465 26.8907C22.2792 26.9299 22.2115 26.9686 22.1435 27.0065C22.0755 27.0445 22.0071 27.0818 21.9383 27.1185C21.8696 27.1552 21.8005 27.1911 21.7311 27.2265C21.6617 27.2618 21.5919 27.2964 21.5218 27.3304C21.4517 27.3644 21.3813 27.3977 21.3106 27.4303C21.2399 27.4629 21.1688 27.4949 21.0974 27.5261C21.0261 27.5574 20.9545 27.588 20.8825 27.6178C20.8106 27.6477 20.7384 27.6769 20.6659 27.7054C20.5934 27.7339 20.5206 27.7616 20.4475 27.7887C20.3745 27.8158 20.3012 27.8422 20.2277 27.8679C20.1541 27.8936 20.0803 27.9185 20.0063 27.9428C19.9323 27.967 19.858 27.9905 19.7836 28.0133C19.7091 28.0362 19.6344 28.0583 19.5595 28.0797C19.4846 28.1011 19.4095 28.1217 19.3342 28.1417C19.2588 28.1616 19.1834 28.1808 19.1077 28.1993C19.032 28.2178 18.9562 28.2355 18.8802 28.2526C18.8042 28.2696 18.728 28.2859 18.6516 28.3014C18.5753 28.317 18.4988 28.3318 18.4222 28.3459C18.3456 28.36 18.2689 28.3734 18.192 28.386C18.1151 28.3986 18.0382 28.4104 17.9611 28.4215C17.4288 28.5018 16.8851 28.5788 16.3459 28.5619C16.3243 28.5612 16.3028 28.5602 16.2812 28.5599C15.8921 28.5233 15.5094 28.5246 15.1198 28.5094C14.5942 28.489 14.0546 28.381 13.541 28.2734C13.4602 28.2567 13.3795 28.2392 13.2991 28.2208C13.2186 28.2025 13.1383 28.1834 13.0582 28.1635C12.9781 28.1436 12.8982 28.123 12.8184 28.1015C12.7387 28.0801 12.6592 28.0579 12.58 28.0349C12.5007 28.0119 12.4216 27.9882 12.3428 27.9636C12.264 27.9391 12.1854 27.9138 12.1071 27.8878C12.0288 27.8617 11.9507 27.8349 11.8729 27.8074C11.7951 27.7798 11.7176 27.7515 11.6403 27.7224C11.5631 27.6933 11.4861 27.6635 11.4094 27.6329C11.3328 27.6024 11.2564 27.5711 11.1803 27.539C11.1043 27.5069 11.0285 27.4741 10.9531 27.4406C10.8777 27.4071 10.8026 27.3728 10.7278 27.3379C10.6531 27.3029 10.5786 27.2671 10.5046 27.2307C10.4305 27.1943 10.3568 27.1571 10.2835 27.1193C10.2101 27.0814 10.1372 27.0428 10.0646 27.0035C9.99197 26.9642 9.91977 26.9243 9.84795 26.8835C9.77614 26.8429 9.70473 26.8015 9.63371 26.7594C9.56269 26.7173 9.49209 26.6746 9.42192 26.6311C9.35175 26.5877 9.282 26.5435 9.21268 26.4987C9.14337 26.4539 9.07449 26.4084 9.00605 26.3623C8.93762 26.3161 8.86962 26.2693 8.80207 26.2219C8.73455 26.1744 8.6675 26.1263 8.60093 26.0775C8.53432 26.0287 8.4682 25.9793 8.40257 25.9292C8.33694 25.8792 8.2718 25.8285 8.20715 25.7772C8.14253 25.7258 8.0784 25.6739 8.01476 25.6213C7.95112 25.5688 7.88799 25.5156 7.82539 25.4618C7.76279 25.408 7.70073 25.3536 7.6392 25.2986C7.57764 25.2436 7.51663 25.188 7.45617 25.1318C7.39571 25.0756 7.33581 25.0188 7.27645 24.9614C7.2171 24.904 7.1583 24.8461 7.10005 24.7876C7.04183 24.7291 6.98418 24.6701 6.9271 24.6104C6.87002 24.5508 6.81352 24.4906 6.7576 24.4299C4.62695 22.1284 3.49605 19.1064 3.43815 15.9867C3.43195 15.653 3.46482 15.321 3.47816 14.9879C3.49287 14.7825 3.51889 14.5782 3.53256 14.3726Z" fill="#BA191A"/>
<path d="M8.85086 22.7865C8.96439 23.0702 9.11979 23.3212 9.34052 23.5342C9.6543 23.837 10.0658 24.0231 10.5059 24.012C10.7317 24.0063 11.0212 23.9572 11.2122 23.8338C11.6705 23.5376 12.3527 22.7541 12.7625 22.3406C13.9004 21.1973 15.0282 20.044 16.1458 18.8809C16.2208 19.199 16.2398 19.6485 16.2288 19.9773C15.7134 20.3533 15.271 20.885 14.8236 21.3398L12.3638 23.8341C12.0146 24.1857 11.6802 24.6174 11.255 24.8776C11.0003 25.0334 10.6487 25.0792 10.3562 25.0342C9.82772 24.9529 9.32316 24.5624 9.02007 24.1349C8.79182 23.8129 8.65056 23.3786 8.72805 22.9829C8.74096 22.9168 8.76041 22.8698 8.7982 22.8146L8.85086 22.7865Z" fill="#6A0504"/>
<path d="M4.61273 18.6264C4.27823 17.5825 4.22629 16.4382 4.27232 15.3487C4.27614 15.2535 4.28114 15.1583 4.28732 15.0632C4.2935 14.9681 4.30085 14.8731 4.30936 14.7782C4.31791 14.6833 4.32762 14.5885 4.3385 14.4938C4.34938 14.3991 4.36144 14.3046 4.37469 14.2103C4.38794 14.1159 4.40235 14.0217 4.41793 13.9277C4.43351 13.8337 4.45024 13.7398 4.46812 13.6463C4.48603 13.5527 4.5051 13.4593 4.52531 13.3662C4.54553 13.273 4.56691 13.1802 4.58946 13.0876C4.61198 12.995 4.63565 12.9027 4.66047 12.8107C4.68529 12.7187 4.71124 12.627 4.73833 12.5356C4.76542 12.4443 4.79365 12.3533 4.82301 12.2626C4.85237 12.172 4.88285 12.0817 4.91445 11.9918C4.94605 11.9018 4.97876 11.8123 5.01256 11.7232C5.04637 11.6342 5.0813 11.5455 5.11735 11.4573C5.15336 11.369 5.19046 11.2813 5.22866 11.194C5.26685 11.1067 5.30613 11.0199 5.34649 10.9336C5.38686 10.8472 5.42829 10.7614 5.47077 10.6761C5.51325 10.5908 5.55679 10.506 5.60138 10.4218C5.64597 10.3376 5.69159 10.254 5.73823 10.1709C5.78491 10.0878 5.83261 10.0053 5.88133 9.9234C5.93006 9.84149 5.97978 9.76021 6.03049 9.67953C6.08123 9.59886 6.13297 9.51884 6.1857 9.43946C6.2384 9.36008 6.29209 9.28136 6.34678 9.20331C6.40146 9.12525 6.4571 9.04789 6.51367 8.97122C6.57028 8.89456 6.62782 8.8186 6.68629 8.74335C6.74479 8.66814 6.80421 8.59364 6.86454 8.51988C6.92487 8.44611 6.9861 8.3731 7.04823 8.30085C7.11039 8.2286 7.17343 8.15714 7.23736 8.08646C7.30125 8.01579 7.36603 7.94592 7.43169 7.87685C7.49735 7.80778 7.56386 7.73954 7.63123 7.67211C7.69856 7.60468 7.76673 7.53811 7.83573 7.47238C7.90473 7.40666 7.97454 7.3418 8.04515 7.27782C8.11324 7.21566 8.18209 7.15433 8.25169 7.09384C8.32126 7.03335 8.39157 6.9737 8.46263 6.91488C8.53365 6.8561 8.60538 6.79818 8.67782 6.74113C8.75026 6.68408 8.82337 6.62791 8.89713 6.57263C8.97093 6.51734 9.04539 6.46296 9.12051 6.40947C9.19563 6.35601 9.27139 6.30346 9.34777 6.2518C9.42415 6.20017 9.50115 6.14946 9.57876 6.09966C9.65638 6.0499 9.73457 6.00106 9.81335 5.95316C9.89217 5.90528 9.97154 5.85837 10.0515 5.81242C10.1314 5.76644 10.2119 5.72144 10.2929 5.67741C10.3739 5.63342 10.4555 5.5904 10.5375 5.54836C10.6196 5.50632 10.7022 5.46528 10.7852 5.42522C10.8683 5.3852 10.9518 5.34617 11.0358 5.30814C11.1198 5.27014 11.2043 5.23314 11.2892 5.19716C11.3741 5.16121 11.4594 5.12628 11.5451 5.09238C11.6309 5.05848 11.717 5.02561 11.8036 4.99379C11.8901 4.96197 11.977 4.93121 12.0643 4.9015C12.1516 4.87179 12.2392 4.84314 12.3272 4.81554C12.4152 4.78795 12.5035 4.76143 12.5921 4.73598C12.6808 4.71053 12.7697 4.68616 12.8589 4.66289C12.9481 4.63958 13.0376 4.61736 13.1273 4.59623C13.2171 4.5751 13.3071 4.55506 13.3973 4.53611C13.4876 4.51715 13.578 4.4993 13.6687 4.48256C13.7594 4.46581 13.8502 4.45015 13.9413 4.43558C14.0323 4.42101 14.1235 4.40756 14.2149 4.39523C14.3063 4.38287 14.3978 4.37163 14.4894 4.3615C14.5811 4.35138 14.6728 4.34236 14.7647 4.33444C14.8566 4.32653 14.9485 4.31973 15.0406 4.31405C15.1326 4.30838 15.2247 4.3038 15.3168 4.30034C15.4089 4.2969 15.5011 4.29456 15.5933 4.29333C15.6855 4.29214 15.7777 4.29204 15.8699 4.29305C15.9621 4.29406 16.0543 4.29619 16.1464 4.29944L16.1876 4.30615C16.4194 4.34258 16.6642 4.3387 16.8985 4.36112C17.439 4.41278 18.8297 4.59396 19.2856 4.82676C18.8533 4.77532 18.4196 4.74452 17.9844 4.73437C17.5492 4.72424 17.1145 4.73481 16.6803 4.76606C16.5143 4.77865 16.3278 4.7804 16.168 4.82292C13.4186 5.03774 10.7672 6.39334 8.78743 8.27848C6.95693 10.0215 5.51173 12.4994 4.97609 14.9766C4.71544 16.1821 4.64296 17.3963 4.61273 18.6264Z" fill="#FEFEFE"/>
<path d="M8.63468 11.0793C8.5844 10.5486 8.62498 10.0998 8.97708 9.67485C9.2814 9.30752 9.77608 8.97799 10.2607 8.93811C10.6781 8.90372 11.054 9.09659 11.3582 9.36652C11.6599 9.63417 11.9362 9.93859 12.219 10.2263C12.6605 10.6777 13.1067 11.1244 13.5577 11.5665L15.2772 13.2563C15.5842 13.5569 15.9135 13.8476 16.1987 14.1686C16.7392 13.6793 17.2426 13.1503 17.7558 12.6328L19.7986 10.5794C20.2881 10.0839 20.7667 9.47447 21.3491 9.08651C21.5645 8.94308 21.8263 8.92444 22.076 8.97667C22.6488 9.09645 23.2681 9.58261 23.576 10.0717C23.803 10.4324 23.751 10.8148 23.6672 11.2069C23.7786 11.314 23.7851 11.4094 23.7867 11.5619C23.7896 11.86 23.6907 12.2049 23.5285 12.4553C23.2415 12.8984 22.8292 13.2685 22.4577 13.6398L21.113 14.9781C20.5688 15.519 20.0608 16.0924 19.513 16.6303C19.3552 16.7852 19.2101 16.9253 19.0089 17.023C19.9757 17.9811 20.9152 18.9674 21.88 19.928C22.2881 20.3343 23.2906 21.2096 23.5613 21.6387C23.6709 21.8125 23.7122 22.0662 23.714 22.2694C23.7159 22.4924 23.6665 22.694 23.5766 22.8977C23.2328 23.3933 22.5744 23.9521 21.967 24.0686C21.7848 24.1035 21.6358 24.1014 21.4714 24.0122C20.8516 23.676 19.9786 22.6307 19.4555 22.1049C18.6723 21.3142 17.8838 20.5289 17.0899 19.749C16.8269 19.4879 16.5356 19.0957 16.2373 18.8969C16.1942 18.8682 16.1958 18.8706 16.1458 18.8809C15.0282 20.044 13.9004 21.1973 12.7625 22.3406C12.3527 22.7541 11.6705 23.5376 11.2122 23.8338C11.0212 23.9572 10.7317 24.0063 10.5059 24.012C10.0658 24.0231 9.6543 23.837 9.34052 23.5342C9.11979 23.3212 8.96439 23.0702 8.85086 22.7865C8.8238 22.6813 8.81038 22.5713 8.80479 22.4628C8.78942 22.1638 8.83299 21.8385 8.98758 21.5766C9.24857 21.1345 10.0086 20.461 10.4081 20.0594L12.1769 18.2573C12.5759 17.8511 12.9892 17.4535 13.3698 17.0301C12.417 16.1304 11.5018 15.1756 10.5806 14.2433C10.0229 13.6789 9.41547 13.1361 8.90499 12.53C8.75195 12.3484 8.59116 12.1546 8.53255 11.9198C8.46131 11.6347 8.48326 11.3341 8.63468 11.0793Z" fill="#FEFEFE"/>
<path d="M8.63468 11.0793C8.72664 11.3127 8.83777 11.4876 9.0004 11.6785C9.4438 12.1991 9.98683 12.6493 10.4715 13.1329L13.8855 16.5362C13.7172 16.7042 13.5343 16.8592 13.3698 17.0301C12.417 16.1304 11.5018 15.1756 10.5806 14.2433C10.0229 13.6789 9.41547 13.1361 8.90499 12.53C8.75195 12.3484 8.59116 12.1546 8.53255 11.9198C8.46131 11.6347 8.48326 11.3341 8.63468 11.0793Z" fill="#6A0504"/>
<path d="M23.6672 11.2069C23.7786 11.314 23.7851 11.4094 23.7867 11.5619C23.7896 11.86 23.6907 12.2049 23.5285 12.4553C23.2415 12.8984 22.8292 13.2685 22.4577 13.6398L21.113 14.9781C20.5688 15.519 20.0608 16.0924 19.513 16.6303C19.3552 16.7852 19.2101 16.9253 19.0089 17.023L18.5272 16.5432C18.9754 16.0687 19.4533 15.6227 19.9126 15.1593C20.5518 14.5144 21.1762 13.8542 21.8213 13.2157C22.3324 12.7098 22.9164 12.2308 23.3773 11.6801C23.5009 11.5325 23.5851 11.3801 23.6672 11.2069Z" fill="#BA191A"/>
<path d="M16.2743 3.36145C16.3787 3.36422 16.483 3.36831 16.5872 3.3737C16.6915 3.37906 16.7956 3.38572 16.8997 3.39366C17.0038 3.40161 17.1078 3.41084 17.2116 3.42134C17.3155 3.43184 17.4192 3.44364 17.5228 3.45672C17.6263 3.46981 17.7297 3.48416 17.8329 3.49977C17.9361 3.51541 18.0391 3.53233 18.1419 3.55053C18.2447 3.5687 18.3472 3.58814 18.4496 3.60886C18.5519 3.62955 18.6539 3.65151 18.7557 3.67476C18.8575 3.698 18.9589 3.72249 19.0601 3.74822C19.1612 3.77396 19.2621 3.80095 19.3625 3.82921C19.4631 3.85744 19.5632 3.88691 19.6629 3.91762C19.7627 3.94834 19.8621 3.98027 19.9611 4.01342C20.06 4.0466 20.1586 4.08099 20.2567 4.11659C20.3549 4.1522 20.4525 4.189 20.5497 4.22701C20.647 4.26504 20.7437 4.30426 20.8399 4.34465C20.9362 4.38505 21.0319 4.42664 21.1271 4.4694C21.2224 4.5122 21.317 4.55614 21.4112 4.60124C21.5053 4.64637 21.5989 4.69264 21.6919 4.74004C21.7849 4.78747 21.8772 4.83604 21.969 4.88574C22.0608 4.93547 22.152 4.98631 22.2425 5.03825C22.3331 5.09023 22.4229 5.1433 22.5122 5.19748C22.6014 5.25167 22.6899 5.30695 22.7778 5.36334C22.8656 5.4197 22.9528 5.47714 23.0392 5.53567C23.1256 5.59421 23.2113 5.6538 23.2963 5.71444C23.3813 5.77509 23.4655 5.83678 23.5489 5.8995C23.6324 5.96223 23.715 6.02597 23.7969 6.09071C23.8787 6.15549 23.9598 6.22126 24.04 6.28803C24.1203 6.35482 24.1997 6.42258 24.2782 6.4913C24.3568 6.56005 24.4345 6.62975 24.5113 6.70039C24.5882 6.77104 24.6641 6.84263 24.7392 6.91516C24.8142 6.9877 24.8884 7.06115 24.9617 7.13551C25.0349 7.20988 25.1073 7.28514 25.1787 7.3613C25.5375 7.73828 25.842 8.15046 26.1438 8.57337C27.7231 10.7862 28.6456 13.46 28.5743 16.1923C28.5719 16.2977 28.5681 16.4031 28.5631 16.5084C28.5581 16.6137 28.5517 16.7189 28.5441 16.8241C28.5365 16.9292 28.5276 17.0343 28.5174 17.1392C28.5072 17.2442 28.4957 17.349 28.4829 17.4536C28.4701 17.5583 28.4561 17.6628 28.4407 17.7671C28.4254 17.8714 28.4087 17.9755 28.3908 18.0793C28.3729 18.1833 28.3537 18.2869 28.3332 18.3903C28.3128 18.4938 28.2911 18.597 28.2681 18.6999C28.2451 18.8027 28.2208 18.9053 28.1953 19.0076C28.1698 19.1099 28.143 19.2119 28.115 19.3135C28.087 19.4152 28.0577 19.5164 28.0272 19.6174C27.9967 19.7183 27.9649 19.8188 27.932 19.9189C27.899 20.0191 27.8647 20.1188 27.8293 20.2181C27.7939 20.3174 27.7572 20.4163 27.7194 20.5147C27.6815 20.6131 27.6424 20.711 27.6021 20.8084C27.5619 20.9058 27.5204 21.0028 27.4777 21.0992C27.4351 21.1956 27.3912 21.2915 27.3462 21.3868C27.3012 21.4821 27.255 21.5769 27.2077 21.6711C27.1603 21.7653 27.1118 21.8589 27.0622 21.9519C27.0125 22.045 26.9618 22.1373 26.9099 22.2291C26.8579 22.3209 26.8049 22.412 26.7507 22.5024C26.6966 22.5929 26.6413 22.6827 26.585 22.7718C26.5286 22.8609 26.4711 22.9493 26.4126 23.037C26.3541 23.1246 26.2944 23.2116 26.2338 23.2978C26.1731 23.384 26.1114 23.4695 26.0486 23.5542C25.9858 23.6389 25.922 23.7228 25.8572 23.806C25.7923 23.8891 25.7265 23.9714 25.6596 24.0529C25.5927 24.1344 25.5249 24.2151 25.456 24.295C25.3872 24.3748 25.3173 24.4538 25.2465 24.5319C25.1757 24.6101 25.104 24.6873 25.0313 24.7637C24.9587 24.8401 24.885 24.9155 24.8105 24.9901C24.7359 25.0646 24.6605 25.1383 24.5841 25.2109C24.5276 25.2646 24.4706 25.3177 24.4131 25.3702C24.3556 25.4227 24.2976 25.4747 24.2391 25.5261C24.1806 25.5775 24.1216 25.6284 24.062 25.6787C24.0026 25.729 23.9426 25.7787 23.8821 25.8278C23.8217 25.8769 23.7608 25.9255 23.6994 25.9734C23.638 26.0214 23.5761 26.0688 23.5138 26.1155C23.4515 26.1623 23.3888 26.2085 23.3256 26.254C23.2624 26.2996 23.1988 26.3445 23.1348 26.3888C23.0707 26.4332 23.0062 26.4769 22.9413 26.52C22.8764 26.5631 22.8111 26.6055 22.7454 26.6473C22.6797 26.6892 22.6136 26.7304 22.5471 26.771C22.4806 26.8115 22.4137 26.8514 22.3465 26.8907C22.2792 26.9299 22.2115 26.9686 22.1435 27.0065C22.0755 27.0445 22.0071 27.0818 21.9383 27.1185C21.8696 27.1552 21.8005 27.1911 21.7311 27.2265C21.6617 27.2618 21.5919 27.2964 21.5218 27.3304C21.4517 27.3644 21.3813 27.3977 21.3106 27.4303C21.2399 27.4629 21.1688 27.4949 21.0974 27.5261C21.0261 27.5574 20.9545 27.588 20.8825 27.6178C20.8106 27.6477 20.7384 27.6769 20.6659 27.7054C20.5934 27.7339 20.5206 27.7616 20.4475 27.7887C20.3745 27.8158 20.3012 27.8422 20.2277 27.8679C20.1541 27.8936 20.0803 27.9185 20.0063 27.9428C19.9323 27.967 19.858 27.9905 19.7836 28.0133C19.7091 28.0362 19.6344 28.0583 19.5595 28.0797C19.4846 28.1011 19.4095 28.1217 19.3342 28.1417C19.2588 28.1616 19.1834 28.1808 19.1077 28.1993C19.032 28.2178 18.9562 28.2355 18.8802 28.2526C18.8042 28.2696 18.728 28.2859 18.6516 28.3014C18.5753 28.317 18.4988 28.3318 18.4222 28.3459C18.3456 28.36 18.2689 28.3734 18.192 28.386C18.1151 28.3986 18.0382 28.4104 17.9611 28.4215C17.4288 28.5018 16.8851 28.5788 16.3459 28.5619C16.3243 28.5612 16.3028 28.5602 16.2812 28.5599C16.2584 26.766 16.2502 24.9721 16.2566 23.1782C16.2543 22.1266 16.218 21.0648 16.2649 20.0147C16.9205 20.6261 17.5267 21.2871 18.1488 21.9315C18.72 22.523 19.3104 23.0977 19.8915 23.6796C20.2992 24.0878 20.7206 24.6233 21.205 24.931C21.408 25.06 21.6409 25.0951 21.878 25.0861C22.4029 25.0662 22.9401 24.752 23.2882 24.3705C23.5514 24.0821 23.7581 23.6479 23.7276 23.25C23.7167 23.1075 23.6829 22.9967 23.5766 22.8977C23.6665 22.694 23.7159 22.4924 23.714 22.2694C23.7122 22.0662 23.6709 21.8125 23.5613 21.6387C23.2906 21.2096 22.2881 20.3343 21.88 19.928C20.9152 18.9674 19.9757 17.9811 19.0089 17.023C19.2101 16.9253 19.3552 16.7852 19.513 16.6303C20.0608 16.0924 20.5688 15.519 21.113 14.9781L22.4577 13.6398C22.8292 13.2685 23.2415 12.8984 23.5285 12.4553C23.6907 12.2049 23.7896 11.86 23.7867 11.5619C23.7851 11.4094 23.7786 11.314 23.6672 11.2069C23.751 10.8148 23.803 10.4324 23.576 10.0717C23.2681 9.58261 22.6488 9.09645 22.076 8.97667C21.8263 8.92444 21.5645 8.94308 21.3491 9.08651C20.7667 9.47447 20.2881 10.0839 19.7986 10.5794L17.7558 12.6328C17.2426 13.1503 16.7392 13.6793 16.1987 14.1686C16.2264 13.8039 16.2096 13.4258 16.2116 13.0596L16.226 10.9522C16.2327 9.65471 16.2313 8.35728 16.2217 7.05987C16.2187 6.39007 16.2437 5.71123 16.2149 5.04284C16.2114 4.9629 16.2116 4.89261 16.168 4.82292C16.3278 4.7804 16.5143 4.77865 16.6803 4.76606C17.1145 4.73481 17.5492 4.72424 17.9844 4.73437C18.4196 4.74452 18.8533 4.77532 19.2856 4.82676C18.8297 4.59396 17.439 4.41278 16.8985 4.36112C16.6642 4.3387 16.4194 4.34258 16.1876 4.30615L16.1464 4.29944C16.2852 4.14375 16.1631 3.60758 16.2223 3.38534L16.2743 3.36145Z" fill="#E5393B"/>
<defs>
<linearGradient id="paint0_linear_2110_1913" x1="1.92911" y1="14.2907" x2="32.2444" y2="18.3895" gradientUnits="userSpaceOnUse">
<stop stop-color="#6E0200"/>
<stop offset="1" stop-color="#BE0E0F"/>
</linearGradient>
</defs>
</svg>
