<svg width="28" height="28" viewBox="0 0 28 28" fill="none" xmlns="http://www.w3.org/2000/svg">
<path d="M17.8158 11.4817L17.817 11.4806C18.9471 10.4286 19.5078 8.88191 19.5408 7.35476C19.5738 5.82686 19.0806 4.24408 18.0049 3.10938L18.0035 3.10785C17.1804 2.24573 16.0044 1.70254 14.7832 1.49573C13.5606 1.28869 12.2404 1.40949 11.1061 1.93764C9.0018 2.90314 7.85367 4.80682 7.85367 7.20181C7.85367 8.78149 8.23393 9.92916 9.19033 11.0147C11.292 13.4747 15.4334 13.688 17.8158 11.4817ZM19.7128 6.80653L19.7128 6.80653L19.7131 6.81207C19.7539 7.62155 19.759 8.03662 19.7089 8.37C19.662 8.68174 19.563 8.94621 19.3266 9.44432L19.3265 9.4443L19.3232 9.45155C18.4794 11.2923 17.27 12.4095 15.4819 13.0127L15.4819 13.0126L15.4728 13.0159L15.3461 13.0609C14.4951 13.3634 14.4407 14.5463 15.2604 14.9256L15.2604 14.9257L15.2645 14.9275C16.3459 15.418 17.6485 15.5083 18.853 15.2916C20.0561 15.0752 21.2325 14.5395 22.0374 13.6952L22.0401 13.6923C23.1455 12.5171 23.6352 10.9065 23.5689 9.35351C23.5026 7.80088 22.8779 6.24646 21.6763 5.19115L21.6764 5.19105L21.667 5.18319C21.4581 5.00703 21.2449 4.83765 21.0689 4.70948C20.982 4.64626 20.8956 4.58669 20.8187 4.54036C20.7811 4.51768 20.735 4.49158 20.6857 4.46921L20.6832 4.46806C20.6542 4.45483 20.5386 4.40203 20.393 4.40203C20.1674 4.40203 20.0133 4.51925 19.9359 4.60241C19.8632 4.68046 19.8251 4.76053 19.8068 4.80335C19.7691 4.89211 19.7509 4.98195 19.7408 5.0412C19.7186 5.17069 19.7068 5.33246 19.7002 5.50104C19.6867 5.84614 19.6923 6.30888 19.7128 6.80653ZM6.94852 25.1444L6.9438 25.139L6.93896 25.1338C6.44559 24.5975 6.23177 24.2844 6.10404 23.7283C5.96103 23.1057 5.92768 22.1802 5.92768 20.4005C5.92768 18.6211 5.961 17.6951 6.10415 17.0697C6.23229 16.5098 6.44742 16.191 6.94137 15.6446C7.44598 15.0912 7.05357 14.201 6.30389 14.201H5.14617H5.13277C4.70547 14.201 4.36505 14.201 4.09337 14.2122C3.82011 14.2234 3.57772 14.2467 3.35649 14.3074C2.88645 14.4362 2.6066 14.714 2.2947 15.0237C2.28425 15.0341 2.27376 15.0445 2.26323 15.0549C1.71077 15.6027 1.4 16.3485 1.4 17.1266V23.6744C1.4 24.4525 1.71077 25.1983 2.26323 25.7461C2.27376 25.7565 2.28425 25.7669 2.2947 25.7773C2.60659 26.0869 2.88645 26.3648 3.35649 26.4936C3.57772 26.5543 3.82011 26.5776 4.09337 26.5888C4.36505 26.6 4.70547 26.6 5.13277 26.6H5.14617H6.289C7.0431 26.6 7.44572 25.7114 6.94852 25.1444ZM19.4588 17.0791L19.4577 17.0798C17.515 18.3607 16.547 18.9874 15.8604 19.3208C15.2298 19.6269 14.8641 19.6746 14.0716 19.7425C13.3341 19.8009 12.8745 19.7616 12.6226 19.6783C12.5351 19.6494 12.4962 19.6227 12.4824 19.6114C12.4823 19.6094 12.4822 19.607 12.4822 19.604C12.5006 19.592 12.5368 19.5723 12.6016 19.5497C12.8624 19.4587 13.3464 19.4006 14.1813 19.4006C14.6587 19.4006 15.075 19.3791 15.4292 19.3195C15.7821 19.2601 16.1111 19.157 16.3866 18.9677C16.9939 18.5504 17.1208 17.8824 17.1208 17.2008C17.1208 16.5633 16.9534 15.9849 16.5399 15.5749C16.4133 15.4493 16.2593 15.3191 16.0249 15.223C15.8093 15.1346 15.5606 15.0894 15.2614 15.0611C14.671 15.0052 13.6916 15.001 11.9629 15.001H9.17731C8.40048 15.001 7.6551 15.3079 7.10348 15.8548C6.55101 16.4027 6.24025 17.1485 6.24025 17.9265V22.8745C6.24025 23.6525 6.55101 24.3983 7.10348 24.9461C7.6551 25.4931 8.40048 25.8 9.17731 25.8H13.3343C15.5855 25.8 16.8985 25.7903 17.706 25.7388C18.5087 25.6876 18.9258 25.5919 19.2979 25.3366C19.8646 24.9571 21.5934 23.515 23.1595 22.1648C23.9532 21.4805 24.7197 20.8072 25.2968 20.2847C25.5848 20.024 25.8293 19.7976 26.0074 19.6248C26.0958 19.539 26.1732 19.4614 26.2329 19.3967C26.2624 19.3649 26.2933 19.3301 26.3209 19.2953L26.3223 19.2935C26.3393 19.2722 26.3967 19.2001 26.435 19.1051C26.5857 18.7315 26.6151 18.2048 26.5938 17.7666C26.5727 17.3308 26.4931 16.8134 26.3099 16.4636C26.0654 15.9915 25.7335 15.6108 25.2807 15.3557C24.8327 15.1033 24.3146 15.001 23.7408 15.001C23.5026 15.001 23.2683 15.0131 23.0094 15.0723C22.7516 15.1312 22.4951 15.2306 22.1982 15.3799C21.623 15.669 20.8178 16.1873 19.4588 17.0791ZM20.9266 5.22822C20.9266 5.22825 20.9264 5.2292 20.9259 5.23096C20.9263 5.22907 20.9266 5.22819 20.9266 5.22822Z" fill="#E6E3D4" stroke="black" stroke-width="1.2"/>
</svg>
