<svg viewBox="0 0 26 26" fill="none" xmlns="http://www.w3.org/2000/svg">
<path d="M9.72114 13.0776L9.72115 13.0776C9.73029 13.0775 9.73681 13.0778 9.7405 13.0781L9.74052 13.0781C9.74215 13.0782 9.74492 13.0784 9.74865 13.0787C9.77264 13.0807 9.8363 13.0859 9.89239 13.0859H9.89245H9.89251H9.89258H9.89264H9.8927H9.89277H9.89283H9.89289H9.89296H9.89302H9.89308H9.89314H9.8932H9.89326H9.89332H9.89338H9.89344H9.8935H9.89356H9.89362H9.89368H9.89374H9.8938H9.89386H9.89392H9.89398H9.89403H9.89409H9.89415H9.89421H9.89426H9.89432H9.89438H9.89443H9.89449H9.89455H9.8946H9.89466H9.89471H9.89477H9.89482H9.89488H9.89493H9.89499H9.89504H9.8951H9.89515H9.8952H9.89526H9.89531H9.89536H9.89541H9.89547H9.89552H9.89557H9.89562H9.89568H9.89573H9.89578H9.89583H9.89588H9.89593H9.89598H9.89603H9.89608H9.89613H9.89618H9.89623H9.89628H9.89633H9.89638H9.89643H9.89648H9.89652H9.89657H9.89662H9.89667H9.89672H9.89676H9.89681H9.89686H9.89691H9.89695H9.897H9.89705H9.89709H9.89714H9.89719H9.89723H9.89728H9.89732H9.89737H9.89741H9.89746H9.8975H9.89755H9.89759H9.89764H9.89768H9.89773H9.89777H9.89781H9.89786H9.8979H9.89794H9.89799H9.89803H9.89807H9.89812H9.89816H9.8982H9.89824H9.89829H9.89833H9.89837H9.89841H9.89845H9.8985H9.89854H9.89858H9.89862H9.89866H9.8987H9.89874H9.89878H9.89882H9.89886H9.8989H9.89894H9.89898H9.89902H9.89906H9.8991H9.89914H9.89918H9.89922H9.89926H9.8993H9.89934H9.89938H9.89942H9.89946H9.89949H9.89953H9.89957H9.89961H9.89965H9.89968H9.89972H9.89976H9.8998H9.89984H9.89987H9.89991H9.89995H9.89998H9.90002H9.90006H9.9001H9.90013H9.90017H9.90021H9.90024H9.90028H9.90031H9.90035H9.90039H9.90042H9.90046H9.90049H9.90053H9.90057H9.9006H9.90064H9.90067H9.90071H9.90074H9.90078H9.90081H9.90085H9.90088H9.90092H9.90095H9.90099H9.90102H9.90106H9.90109H9.90113H9.90116H9.90119H9.90123H9.90126H9.9013H9.90133H9.90137H9.9014H9.90143H9.90147H9.9015H9.90153H9.90157H9.9016H9.90164H9.90167H9.9017H9.90174H9.90177H9.9018H9.90184H9.90187H9.9019H9.90194H9.90197H9.902H9.90203H9.90207H9.9021H9.90213H9.90217H9.9022H9.90223H9.90226H9.9023H9.90233H9.90236H9.9024H9.90243H9.90246H9.90249H9.90253H9.90256H9.90259H9.90262H9.90266H9.90269H9.90272H9.90275H9.90278H9.90282H9.90285H9.90288H9.90291H9.90295H9.90298H9.90301H9.90304H9.90307H9.90311H9.90314H9.90317H9.9032H9.90324H9.90327H9.9033H9.90333H9.90336H9.9034H9.90343H9.90346H9.90349H9.90353H9.90356H9.90359H9.90362H9.90365H9.90369H9.90372H9.90375H9.90378H9.90382H9.90385H9.90388H9.90391H9.90394H9.90398H9.90401H9.90404H9.90407H9.90411H9.90414H9.90417H9.9042H9.90424H9.90427H9.9043H9.90433H9.90437H9.9044H9.90443H9.90446H9.9045H9.90453H9.90456H9.9046H9.90463H9.90466H9.90469H9.90473H9.90476H9.90479H9.90483H9.90486H9.90489H9.90493H9.90496H9.90499H9.90503H9.90506H9.90509H9.90513H9.90516H9.90519H9.90523H9.90526H9.9053H9.90533H9.90536H9.9054H9.90543H9.90547H9.9055H9.90553H9.90557H9.9056H9.90564H9.90567H9.90571H9.90574H9.90578H9.90581H9.90585H9.90588H9.90592H9.90595H9.90599H9.90602H9.90606H9.90609H9.90613H9.90616H9.9062H9.90623H9.90627H9.90631H9.90634H9.90638H9.90641H9.90645H9.90649H9.90652H9.90656H9.9066H9.90663H9.90667H9.90671H9.90674H9.90678H9.90682H9.90686H9.90689H9.90693H9.90697H9.90701H9.90704H9.90708H9.90712H9.90716H9.9072H9.90723H9.90727H9.90731H9.90735H9.90739H9.90743H9.90747H9.90751H9.90755H9.90759H9.90762H9.90766H9.9077H9.90774H9.90778H9.90782H9.90786H9.90791H9.90795H9.90799H9.90803H9.90807H9.90811H9.90815H9.90819H9.90823H9.90827H9.90832H9.90836H9.9084H9.90844H9.90848H9.90853H9.90857H9.90861H9.90865H9.9087H9.90874H9.90878H9.90883H9.90887H9.90892H9.90896H9.909H9.90905H9.90909H9.90914H9.90918H9.90923H9.90927H9.90932H9.90936H9.90941H9.90945H9.9095H9.90954H9.90959H9.90964H9.90968H9.90973H9.90978H9.90982H9.90987H9.90992H9.90996H9.91001H9.91006H9.91011H9.91016H9.9102H9.91025H9.9103H9.91035H9.9104H9.91045H9.9105H9.91055H9.9106H9.91065H9.9107H9.91075H9.9108H9.91085H9.9109H9.91095H9.911H9.91105H9.91111H9.91116H9.91121H9.91126H9.91131H9.91137H9.91142H9.91147H9.91153H9.91158H9.91163H9.91169H9.91174H9.9118H9.91185H9.91191H9.91196H9.91201H9.91207H9.91213H9.91218H9.91224H9.91229H9.91235H9.91241H9.91246H9.91252H9.91258H9.91264H9.91269H9.91275H9.91281H9.91287H9.91293H9.91299H9.91305H9.91311H9.91316H9.91322H9.91328H9.91334H9.91341H9.91347H9.91353H9.91359H9.91365H9.91371H9.91377H9.91384H9.9139H9.91396H9.91402H9.91409H9.91415H9.91421H9.91428H9.91434H9.92491L9.93547 13.0855C13.0706 12.9751 15.5299 10.4207 15.5422 7.2742V7.27187C15.5422 4.05965 12.9364 1.44687 9.72772 1.44687C6.51903 1.44687 3.91328 4.05965 3.91328 7.27187C3.91328 10.3814 6.31114 12.905 9.44358 13.0796C9.52675 13.0842 9.64539 13.0802 9.69733 13.0784C9.70906 13.078 9.71739 13.0777 9.72114 13.0776ZM3.83098 14.9119L3.83098 14.9119L3.82843 14.9136C2.31292 15.93 1.4 17.3634 1.4 18.9649C1.4 20.5669 2.31333 21.9891 3.81726 22.9941C5.47307 24.1079 7.61597 24.6469 9.72835 24.6469C11.841 24.6469 13.9841 24.1078 15.64 22.9937L15.6411 22.993C17.1437 21.9773 18.0567 20.5556 18.0567 18.9429L18.0567 18.9381C18.0437 17.3422 17.1463 15.9204 15.6383 14.913C13.988 13.8105 11.8509 13.2774 9.74207 13.2774C7.63308 13.2774 5.49141 13.8106 3.83098 14.9119ZM22.393 7.87148L22.3928 7.86947C22.1779 5.36151 19.9662 3.51019 17.4837 3.72595L17.4824 3.72606C16.8289 3.78427 16.4076 4.20845 16.2167 4.70289C16.0352 5.17289 16.047 5.72095 16.1977 6.19668C16.2945 6.50243 16.3599 6.82322 16.3888 7.15639C16.4385 7.78139 16.3619 8.38217 16.1814 8.93419C15.9474 9.64973 15.8209 10.5209 15.978 11.2603C16.0578 11.6361 16.2195 12.0162 16.518 12.3111C16.8268 12.6162 17.2359 12.7844 17.7154 12.8021C17.7876 12.8048 17.8602 12.8059 17.9332 12.8053C18.0256 12.8046 18.1138 12.795 18.1708 12.7887L18.1809 12.7876C18.2479 12.7804 18.279 12.7777 18.3041 12.7777H18.337H18.3371H18.3371H18.3372H18.3373H18.3373H18.3374H18.3375H18.3375H18.3376H18.3377H18.3377H18.3378H18.3378H18.3379H18.338H18.338H18.3381H18.3381H18.3382H18.3383H18.3383H18.3384H18.3384H18.3385H18.3386H18.3386H18.3387H18.3387H18.3388H18.3388H18.3389H18.339H18.339H18.3391H18.3391H18.3392H18.3392H18.3393H18.3393H18.3394H18.3395H18.3395H18.3396H18.3396H18.3397H18.3397H18.3398H18.3398H18.3399H18.3399H18.34H18.34H18.3401H18.3402H18.3402H18.3403H18.3403H18.3404H18.3404H18.3405H18.3405H18.3406H18.3406H18.3407H18.3407H18.3408H18.3408H18.3409H18.3409H18.341H18.341H18.3411H18.3411H18.3412H18.3412H18.3413H18.3413H18.3413H18.3414H18.3414H18.3415H18.3415H18.3416H18.3416H18.3417H18.3417H18.3418H18.3418H18.3419H18.3419H18.342H18.342H18.342H18.3421H18.3421H18.3422H18.3422H18.3423H18.3423H18.3424H18.3424H18.3424H18.3425H18.3425H18.3426H18.3426H18.3427H18.3427H18.3427H18.3428H18.3428H18.3429H18.3429H18.343H18.343H18.343H18.3431H18.3431H18.3432H18.3432H18.3433H18.3433H18.3433H18.3434H18.3434H18.3435H18.3435H18.3435H18.3436H18.3436H18.3437H18.3437H18.3437H18.3438H18.3438H18.3439H18.3439H18.3439H18.344H18.344H18.344H18.3441H18.3441H18.3442H18.3442H18.3442H18.3443H18.3443H18.3444H18.3444H18.3444H18.3445H18.3445H18.3445H18.3446H18.3446H18.3447H18.3447H18.3447H18.3448H18.3448H18.3448H18.3449H18.3449H18.3449H18.345H18.345H18.3451H18.3451H18.3451H18.3452H18.3452H18.3452H18.3453H18.3453H18.3453H18.3454H18.3454H18.3454H18.3455H18.3455H18.3456H18.3456H18.3456H18.3457H18.3457H18.3457H18.3458H18.3458H18.3458H18.3459H18.3459H18.3459H18.346H18.346H18.346H18.3461H18.3461H18.3461H18.3462H18.3462H18.3462H18.3463H18.3463H18.3463H18.3464H18.3464H18.3464H18.3465H18.3465H18.3465H18.3466H18.3466H18.3466H18.3467H18.3467H18.3467H18.3468H18.3468H18.3468H18.3469H18.3469H18.3469H18.347H18.347H18.347H18.3471H18.3471H18.3471H18.3472H18.3472H18.3472H18.3473H18.3473H18.3473H18.3474H18.3474H18.3474H18.3474H18.3475H18.3475H18.3475H18.3476H18.3476H18.3476H18.3477H18.3477H18.3477H18.3478H18.3478H18.3478H18.3479H18.3479H18.3479H18.348H18.348H18.348H18.3481H18.3481H18.3481H18.3482H18.3482H18.3482H18.3483H18.3483H18.3483H18.3484H18.3484H18.3484H18.3484H18.3485H18.3485H18.3485H18.3486H18.3486H18.3486H18.3487H18.3487H18.3487H18.3488H18.3488H18.3488H18.3489H18.3489H18.3489H18.349H18.349H18.349H18.3491H18.3491H18.3491H18.3492H18.3492H18.3492H18.3493H18.3493H18.3493H18.3494H18.3494H18.3494H18.3495H18.3495H18.3495H18.3496H18.3496H18.3496H18.3497H18.3497H18.3497H18.3498H18.3498H18.3498H18.3499H18.3499H18.3499H18.35H18.35H18.35H18.3501H18.3501H18.3501H18.3502H18.3502H18.3502H18.3503H18.3503H18.3503H18.3504H18.3504H18.3504H18.3505H18.3505H18.3505H18.3506H18.3506H18.3507H18.3507H18.3507H18.3508H18.3508H18.3508H18.3509H18.3509H18.3509H18.351H18.351H18.351H18.3511H18.3511H18.3512H18.3512H18.3512H18.3513H18.3513H18.3513H18.3514H18.3514H18.3514H18.3515H18.3515H18.3516H18.3516H18.3516H18.3517H18.3517H18.3518H18.3518H18.3518H18.3519H18.3519H18.3519H18.352H18.352H18.3521H18.3521H18.3521H18.3522H18.3522H18.3523H18.3523H18.3523H18.3524H18.3524H18.3525H18.3525H18.3525H18.3526H18.3526H18.3527H18.3527H18.3527H18.3528H18.3528H18.3529H18.3529H18.3529H18.353H18.353H18.3531H18.3531H18.3532H18.3532H18.3532H18.3533H18.3533H18.3534H18.3534H18.3535H18.3535H18.3535H18.3536H18.3536H18.3537H18.3537H18.3538H18.3538H18.3539H18.3539H18.3539H18.354H18.354H18.3541H18.3541H18.3542H18.3542H18.3543H18.3543H18.3544H18.3544H18.3545H18.3545H18.3545H18.3546H18.3546H18.3547H18.3547H18.3548H18.3548H18.3549H18.3549H18.355H18.355H18.3551H18.3551H18.3552H18.3552H18.3553H18.3553H18.3554H18.3554H18.3555H18.3555H18.3556H18.3556H18.3557H18.3557H18.3558H18.3558H18.3559H18.3559H18.356H18.3561H18.3561H18.3562H18.3562H18.3563H18.3563H18.3564H18.3564H18.3565H18.3565H18.3566H18.3566H18.3567H18.3568H18.3568H18.3569H18.3569H18.357H18.357H18.3571H18.3572H18.3572H18.3573H18.3573H18.3574H18.3574H18.3575H18.3576H18.3576H18.3577H18.3577H18.3578H18.3579H18.3579H18.358H18.358H18.3581H18.3582H18.3582H18.3583H18.3583H18.3584H18.3585H18.3585H18.3586H18.3587H18.3587H18.3588H18.3588H18.3589H18.359H18.395L18.4309 12.7734C20.8529 12.4811 22.5947 10.3217 22.393 7.87148ZM21.3241 21.702C21.6869 21.5747 22.0365 21.4208 22.3659 21.2393C23.6356 20.5417 24.4747 19.4624 24.5841 18.1483C24.7051 16.8415 24.0562 15.6389 22.9366 14.7362C21.6362 13.6846 19.86 13.1121 18.1011 13.0122C17.7368 12.9915 17.3995 13.0939 17.138 13.3176C16.8827 13.5359 16.7438 13.8315 16.6947 14.1248C16.5985 14.6997 16.8276 15.3515 17.3541 15.7702C18.5316 16.7208 19.0535 17.8488 18.9646 18.9684C18.9049 19.6215 19.072 20.3698 19.4229 20.9269C19.6011 21.2098 19.8494 21.4788 20.1788 21.641C20.5244 21.8112 20.9208 21.8435 21.3241 21.702Z" fill="#E6E3D4" stroke="black" stroke-width="1.2"/>
</svg>
