<svg viewBox="0 0 32 24" fill="none" xmlns="http://www.w3.org/2000/svg">
<path d="M8.35821 2.12684C7.32937 2.25589 7.06669 2.38494 6.43187 3.11623C4.94334 4.79389 3.12646 9.24614 2.31653 13.0746C1.81305 15.5911 1.9225 19.1185 2.55732 20.323C3.4767 22.0222 5.46871 22.4953 7.30748 21.4414C8.35821 20.8177 9.95619 19.183 10.9194 17.699L11.5104 16.7741H20.4853L21.0764 17.699C22.0395 19.183 23.6375 20.8177 24.6883 21.4414C26.527 22.4953 28.519 22.0222 29.4384 20.323C30.0732 19.1615 30.1827 15.8277 29.7011 13.2467C28.9349 9.33217 26.9867 4.60031 25.4544 3.0517C24.7101 2.2774 24.535 2.19136 23.1122 2.08382C20.9232 1.89024 20.0257 2.08382 19.15 2.92265L18.4277 3.65394H13.5024L12.9551 2.98718C12.1233 2.0408 11.0069 1.82572 8.35821 2.12684ZM17.3113 6.01987C17.0048 6.25646 16.4357 6.45004 15.9979 6.45004C15.5601 6.45004 14.9909 6.25646 14.6845 6.01987L14.1372 5.5897H17.8585L17.3113 6.01987ZM10.0437 8.21373C10.197 8.36429 10.3064 8.79446 10.3064 9.18161C10.3064 9.84837 10.3502 9.89139 11.0507 9.89139C12.583 9.89139 12.6487 11.2249 11.0945 11.354C10.3502 11.4185 10.3064 11.4615 10.3064 12.1283C10.3064 13.6339 8.94924 13.6984 8.8179 12.1928C8.75223 11.483 8.68656 11.4185 7.96418 11.354C6.43187 11.2249 6.49754 9.89139 8.02985 9.89139C8.73034 9.89139 8.77412 9.84837 8.77412 9.18161C8.77412 8.47183 9.10247 7.95563 9.54028 7.95563C9.67162 7.95563 9.89052 8.06317 10.0437 8.21373ZM22.9589 8.21373C23.3311 8.57938 23.2873 9.1386 22.8714 9.48273C22.1928 10.042 21.3391 8.94502 21.9082 8.27826C22.2366 7.8911 22.6087 7.8696 22.9589 8.21373ZM21.2734 10.2355C21.6455 10.6872 21.2734 11.2894 20.5948 11.2894C19.9162 11.2894 19.5441 10.6872 19.9162 10.2355C20.0913 10.042 20.3759 9.89139 20.5948 9.89139C20.8137 9.89139 21.0983 10.042 21.2734 10.2355ZM24.9947 10.2355C25.3669 10.6872 24.9947 11.2894 24.3161 11.2894C23.6375 11.2894 23.2654 10.6872 23.6375 10.2355C23.8127 10.042 24.0972 9.89139 24.3161 9.89139C24.535 9.89139 24.8196 10.042 24.9947 10.2355ZM22.9589 11.8702C23.3311 12.2358 23.2873 12.795 22.8714 13.1392C22.1928 13.6984 21.3391 12.6015 21.9082 11.9347C22.2366 11.5475 22.6087 11.526 22.9589 11.8702Z" fill="#E5E3D4"/>
<path d="M10.1965 8.21381C10.3497 8.36437 10.4592 8.79454 10.4592 9.18169C10.4592 9.84845 10.503 9.89147 11.2034 9.89147C12.7357 9.89147 12.8014 11.225 11.2472 11.354C10.503 11.4186 10.4592 11.4616 10.4592 12.1283C10.4592 13.6339 9.10198 13.6985 8.97064 12.1929C8.90497 11.4831 8.8393 11.4186 8.11693 11.354C6.58461 11.225 6.65029 9.89147 8.1826 9.89147C8.88308 9.89147 8.92686 9.84845 8.92686 9.18169C8.92686 8.47191 9.25521 7.95571 9.69302 7.95571C9.82436 7.95571 10.0433 8.06325 10.1965 8.21381ZM23.1117 8.21381C23.4838 8.57945 23.44 9.13867 23.0241 9.48281C22.3455 10.042 21.4918 8.9451 22.0609 8.27833C22.3893 7.89118 22.7614 7.86967 23.1117 8.21381ZM21.4261 10.2356C21.7983 10.6873 21.4261 11.2895 20.7475 11.2895C20.0689 11.2895 19.6968 10.6873 20.0689 10.2356C20.2441 10.042 20.5286 9.89147 20.7475 9.89147C20.9664 9.89147 21.251 10.042 21.4261 10.2356ZM25.1475 10.2356C25.5196 10.6873 25.1475 11.2895 24.4689 11.2895C23.7903 11.2895 23.4181 10.6873 23.7903 10.2356C23.9654 10.042 24.25 9.89147 24.4689 9.89147C24.6878 9.89147 24.9723 10.042 25.1475 10.2356ZM23.1117 11.8702C23.4838 12.2359 23.44 12.7951 23.0241 13.1392C22.3455 13.6985 21.4918 12.6015 22.0609 11.9348C22.3893 11.5476 22.7614 11.5261 23.1117 11.8702Z" fill="#E5E3D4"/>
<path d="M10.1965 8.21381C10.3497 8.36437 10.4592 8.79454 10.4592 9.18169C10.4592 9.84845 10.503 9.89147 11.2034 9.89147C12.7357 9.89147 12.8014 11.225 11.2472 11.354C10.503 11.4186 10.4592 11.4616 10.4592 12.1283C10.4592 13.6339 9.10198 13.6985 8.97064 12.1929C8.90497 11.4831 8.8393 11.4186 8.11693 11.354C6.58461 11.225 6.65029 9.89147 8.1826 9.89147C8.88308 9.89147 8.92686 9.84845 8.92686 9.18169C8.92686 8.47191 9.25521 7.95571 9.69302 7.95571C9.82436 7.95571 10.0433 8.06325 10.1965 8.21381ZM23.1117 8.21381C23.4838 8.57945 23.44 9.13867 23.0241 9.48281C22.3455 10.042 21.4918 8.9451 22.0609 8.27833C22.3893 7.89118 22.7614 7.86967 23.1117 8.21381ZM21.4261 10.2356C21.7983 10.6873 21.4261 11.2895 20.7475 11.2895C20.0689 11.2895 19.6968 10.6873 20.0689 10.2356C20.2441 10.042 20.5286 9.89147 20.7475 9.89147C20.9664 9.89147 21.251 10.042 21.4261 10.2356ZM25.1475 10.2356C25.5196 10.6873 25.1475 11.2895 24.4689 11.2895C23.7903 11.2895 23.4181 10.6873 23.7903 10.2356C23.9654 10.042 24.25 9.89147 24.4689 9.89147C24.6878 9.89147 24.9723 10.042 25.1475 10.2356ZM23.1117 11.8702C23.4838 12.2359 23.44 12.7951 23.0241 13.1392C22.3455 13.6985 21.4918 12.6015 22.0609 11.9348C22.3893 11.5476 22.7614 11.5261 23.1117 11.8702Z" fill="black"/>
<path d="M8.29043 1.53068L8.29043 1.53064L8.28353 1.5315C7.7677 1.5962 7.35053 1.66916 6.97429 1.86139C6.59202 2.05671 6.30478 2.34753 5.98088 2.72049C5.1678 3.63802 4.31152 5.24676 3.5649 7.06047C2.81074 8.89249 2.14267 10.9975 1.72952 12.9505L1.72948 12.9505L1.72819 12.9569C1.46581 14.2683 1.3654 15.8263 1.41038 17.2103C1.43292 17.9038 1.49228 18.5642 1.58956 19.1367C1.68495 19.698 1.82371 20.2179 2.02653 20.6027L2.02649 20.6028L2.02961 20.6085C3.1336 22.6489 5.52065 23.1571 7.60584 21.962L7.60588 21.9621L7.61376 21.9574C8.20497 21.6064 8.90982 20.9991 9.57717 20.3103C10.25 19.6158 10.9161 18.8061 11.4227 18.0256L11.4249 18.0221L11.839 17.3741H20.1567L20.5708 18.0221L20.5708 18.0221L20.5731 18.0256C21.0796 18.8061 21.7457 19.6158 22.4186 20.3103C23.0859 20.9991 23.7908 21.6064 24.382 21.9574L24.3819 21.9574L24.3899 21.962C26.4747 23.1569 28.8613 22.6491 29.9655 20.6096C30.1699 20.2353 30.3095 19.7351 30.4057 19.1956C30.5038 18.645 30.564 18.0097 30.588 17.3386C30.6359 15.9982 30.5407 14.4751 30.2909 13.1367L30.2909 13.1367L30.2899 13.1315C29.8982 11.1302 29.207 8.9302 28.4192 7.03199C27.6421 5.15938 26.737 3.49671 25.8841 2.63288C25.5188 2.25298 25.2119 1.9495 24.7695 1.76427C24.3503 1.58879 23.8512 1.53802 23.1612 1.48581C22.0568 1.38831 21.2121 1.38084 20.5139 1.52918C19.7838 1.68429 19.2428 2.00285 18.735 2.48938L18.729 2.49511L18.7232 2.501L18.177 3.05394H13.7862L13.4189 2.60652L13.4125 2.59868L13.4058 2.59106C12.8993 2.01486 12.2916 1.65816 11.449 1.49955C10.642 1.34764 9.6259 1.37885 8.29043 1.53068Z" stroke="black" stroke-width="1.2"/>
</svg>
