<svg width="28" height="28" viewBox="0 0 28 28" fill="none" xmlns="http://www.w3.org/2000/svg">
<path d="M15.7063 18.8721L15.3239 19.3345C15.4233 19.4166 15.433 19.4336 15.439 19.4441L15.4394 19.4449C15.4491 19.4617 15.4805 19.5253 15.5111 19.7334C15.5748 20.1676 15.6027 20.9603 15.6503 22.6054L15.6703 23.3209C15.7205 25.1101 17.1649 26.5455 18.9541 26.5848C20.463 26.6216 21.4747 26.6076 22.1844 26.3774C22.5678 26.253 22.876 26.0637 23.1349 25.791C23.3826 25.53 23.5635 25.2148 23.7271 24.8772C24.1397 24.0283 24.1625 23.4062 24.1625 20.0544V16.8633C24.7946 16.8572 25.2903 16.5465 25.787 16.0493C26.0693 15.7667 26.312 15.5022 26.4509 15.1472C26.5862 14.8015 26.6 14.4275 26.6 13.9925C26.6 13.1843 26.2784 12.4093 25.7062 11.8385L20.9314 7.07556L20.93 7.07411L16.1841 2.30745C15.6057 1.72656 14.8197 1.4 14 1.4C13.1803 1.4 12.3943 1.72656 11.8159 2.30745L7.07001 7.07411L7.06856 7.07556L2.29377 11.8385C1.72157 12.4093 1.4 13.1843 1.4 13.9925C1.4 14.4275 1.41377 14.8015 1.54908 15.1472C1.68804 15.5022 1.93067 15.7667 2.21304 16.0493C2.70971 16.5465 3.20539 16.8572 3.8375 16.8633V20.0544C3.8375 23.4055 3.86026 24.0281 4.27261 24.8767L4.8125 24.6149L4.27286 24.8772C4.43654 25.2148 4.61735 25.53 4.86513 25.791C5.124 26.0637 5.43217 26.253 5.81563 26.3774C6.52526 26.6076 7.53671 26.6216 9.04531 26.5848M15.7063 18.8721L15.3261 19.3363C15.2838 19.3016 15.1459 19.2312 14.8753 19.1741C14.623 19.121 14.3162 19.092 14 19.092C13.6838 19.092 13.377 19.121 13.1247 19.1741C12.8556 19.2308 12.7177 19.3009 12.6746 19.3357C12.5766 19.4168 12.567 19.4337 12.561 19.4441L12.5606 19.4449C12.5509 19.4617 12.5195 19.5253 12.4889 19.7334C12.4252 20.1676 12.3973 20.9603 12.3498 22.6054L12.3297 23.3209C12.2795 25.1103 10.8348 26.5458 9.04531 26.5848M15.7063 18.8721C15.0875 18.3653 12.9125 18.3653 12.2938 18.8721L18.9688 25.985C17.4985 25.9534 16.3114 24.7742 16.2701 23.3041L16.25 22.588C16.1563 19.3412 16.1375 19.2286 15.7063 18.8721ZM9.04531 26.5848C9.04492 26.5848 9.04452 26.5848 9.04412 26.5848L9.03125 25.985L9.04589 26.5848C9.0457 26.5848 9.04551 26.5848 9.04531 26.5848Z" fill="white" stroke="black" stroke-width="1.2"/>
</svg>
