<svg width="28" height="29" viewBox="0 0 28 29" fill="none" xmlns="http://www.w3.org/2000/svg">
<g filter="url(#filter0_d_2007_1800)">
<path d="M5.29046 2.13992L5.29199 2.13852L5.92579 1.55995L6.09763 1.40308H6.33031H14.0889H21.8475H22.0802L22.252 1.55995L22.8858 2.13851L22.8882 2.14071C23.0485 2.28865 23.2107 2.52716 23.3567 2.76408C23.514 3.0194 23.6906 3.33758 23.8764 3.69344C24.2487 4.40627 24.6708 5.29558 25.0677 6.1901C25.4646 7.0846 25.8401 7.99285 26.1175 8.74409C26.256 9.11908 26.3727 9.46177 26.4556 9.74759C26.532 10.0113 26.6 10.2918 26.6 10.5102C26.6 11.075 26.3588 11.6661 26.0431 12.1486C25.7244 12.6356 25.2765 13.0941 24.7677 13.3574L24.7678 13.3575L24.7561 13.3633C24.1526 13.6591 23.3373 13.7635 22.589 13.7376C21.8424 13.7117 21.0392 13.552 20.4687 13.2109L20.4687 13.2109L20.4658 13.2092L20.0191 12.9387L19.4277 13.264C19.4275 13.2641 19.4272 13.2642 19.427 13.2643C18.0412 14.0298 16.0307 14.026 14.6082 13.243L14.6082 13.243L14.6043 13.2408L13.9796 12.8908L13.355 13.2408L13.355 13.2408L13.351 13.243C11.9285 14.026 9.91792 14.0298 8.53211 13.2642C8.53194 13.2641 8.53176 13.264 8.53159 13.264L7.94017 12.9387L7.49514 13.2082C7.49484 13.2083 7.49455 13.2085 7.49425 13.2087C6.87788 13.5844 6.03785 13.7508 5.25568 13.7566C4.47735 13.7625 3.6366 13.6101 3.02345 13.2295C1.9714 12.598 1.23055 11.3309 1.43295 10.1546C1.49613 9.76223 1.7354 9.10505 2.02818 8.39247C2.33236 7.65215 2.72455 6.78163 3.13106 5.93313C3.53748 5.08483 3.96166 4.25135 4.33068 3.5858C4.51491 3.25353 4.68858 2.95733 4.84172 2.71979C4.98398 2.49911 5.14014 2.27809 5.29046 2.13992Z" fill="white" stroke="black" stroke-width="1.2"/>
<path d="M4.90635 14.0011L4.90635 14.0011L4.91098 14.0015C5.76914 14.0616 6.34263 13.9774 6.75069 13.8135C7.00949 13.6951 7.29429 13.6144 7.54712 13.5679C7.78867 13.5235 8.06974 13.4975 8.29636 13.5379L8.32144 13.5423L8.34605 13.5489C8.50511 13.5915 8.85049 13.6888 9.23891 13.7983C9.44851 13.8573 9.67063 13.9199 9.88277 13.9794L9.88422 13.9798C10.8636 14.2568 11.6676 14.1995 12.954 13.7203C13.3166 13.5698 13.6424 13.4547 14.0191 13.4673C14.3756 13.4792 14.7261 13.6061 15.1342 13.76L15.1414 13.7628L15.1486 13.7657C15.6369 13.9644 16.3268 14.0807 17.0384 14.0857C17.7531 14.0907 18.4162 13.983 18.8591 13.7919L18.8671 13.7885L18.8752 13.7853C19.2605 13.6321 19.5967 13.5018 19.9683 13.5018C20.3316 13.5018 20.6804 13.6269 21.0939 13.7789C21.6538 13.9799 22.2877 14.0612 23.1189 14.0015L23.1227 14.0013L23.7949 13.9573C24.487 13.9121 25.0732 14.4612 25.0732 15.1548V19.5286V23.5022C25.0732 24.329 24.7405 25.121 24.1502 25.6999C23.5617 26.2768 22.7705 26.6 21.9464 26.6H20.2333H17.4795H16.8795V26V23.1071C16.8795 22.0198 16.8572 21.2081 16.7803 20.593C16.7028 19.9721 16.5772 19.6261 16.4259 19.4179C16.2926 19.2345 16.0973 19.1006 15.719 19.0113C15.3182 18.9167 14.7687 18.8857 13.9827 18.8857C13.1966 18.8857 12.6471 18.9167 12.2464 19.0113C11.8681 19.1006 11.6728 19.2345 11.5395 19.4179C11.3881 19.6261 11.2626 19.9721 11.185 20.593C11.1082 21.2081 11.0859 22.0198 11.0859 23.1071V26V26.6H10.4859H7.7321H6.01901C5.1949 26.6 4.40365 26.2768 3.8152 25.6999C3.22484 25.121 2.89219 24.329 2.89219 23.5022V19.5286V15.1528C2.89219 14.4607 3.47602 13.9121 4.16675 13.9551L4.90635 14.0011ZM6.16699 17.3182L6.15243 17.3272L6.13398 17.337C6.09963 17.3553 6.08618 17.3733 6.08031 17.3834C6.07356 17.3951 6.06957 17.4093 6.06994 17.426C6.07053 17.4527 6.08285 17.4946 6.13604 17.5298C6.14244 17.532 6.15028 17.5345 6.15967 17.5374C6.18698 17.5457 6.2227 17.5552 6.26701 17.5654C6.35588 17.5859 6.4678 17.6065 6.59575 17.6248C6.85262 17.6614 7.15192 17.6857 7.42613 17.6857C8.05829 17.6857 8.45002 17.6157 8.66292 17.5235C8.75547 17.4834 8.78621 17.451 8.79213 17.4439C8.78805 17.4338 8.78037 17.4181 8.76761 17.3989C8.75302 17.3769 8.73521 17.3555 8.71636 17.3371C8.70596 17.327 8.69665 17.3192 8.68901 17.3134C8.68323 17.3112 8.67611 17.3086 8.66754 17.3057C8.64287 17.2975 8.61018 17.2881 8.56873 17.2783C8.48519 17.2586 8.37913 17.2403 8.25355 17.2249C8.00237 17.1941 7.69964 17.1782 7.39307 17.1795C7.08609 17.1807 6.78932 17.1991 6.5493 17.2324C6.42917 17.249 6.33174 17.2683 6.25869 17.288C6.19262 17.3058 6.16699 17.3186 6.16684 17.3183C6.16683 17.3183 6.16688 17.3182 6.16699 17.3182Z" fill="white" stroke="black" stroke-width="1.2"/>
<path d="M12.2344 26.6H11.6344V26V23V20V19.4H12.2344H13.9828H15.7312H16.3312V20V23V26V26.6H15.7312H13.9828H12.2344Z" fill="white" stroke="black" stroke-width="1.2"/>
</g>
<defs>
<filter id="filter0_d_2007_1800" x="0.796875" y="0.804688" width="26.4062" height="27.5984" filterUnits="userSpaceOnUse" color-interpolation-filters="sRGB">
<feFlood flood-opacity="0" result="BackgroundImageFix"/>
<feColorMatrix in="SourceAlpha" type="matrix" values="0 0 0 0 0 0 0 0 0 0 0 0 0 0 0 0 0 0 127 0" result="hardAlpha"/>
<feOffset dy="1.2"/>
<feComposite in2="hardAlpha" operator="out"/>
<feColorMatrix type="matrix" values="0 0 0 0 0 0 0 0 0 0 0 0 0 0 0 0 0 0 1 0"/>
<feBlend mode="normal" in2="BackgroundImageFix" result="effect1_dropShadow_2007_1800"/>
<feBlend mode="normal" in="SourceGraphic" in2="effect1_dropShadow_2007_1800" result="shape"/>
</filter>
</defs>
</svg>
