<svg viewBox="0 0 28 29" fill="none" xmlns="http://www.w3.org/2000/svg">
<g filter="url(#filter0_d_2007_1786)">
<path d="M14 6.725C13.8366 6.725 13.7211 6.65941 13.6815 6.63542C13.6308 6.6047 13.5943 6.57267 13.5745 6.55432C13.534 6.51678 13.5029 6.47894 13.4848 6.45608C13.4456 6.4066 13.4059 6.34814 13.37 6.2927C13.2957 6.17793 13.2031 6.02226 13.1017 5.84517C12.8973 5.48835 12.64 5.01449 12.3885 4.53632C12.1369 4.05795 11.8881 3.56934 11.7011 3.1825C11.608 2.98992 11.5276 2.81701 11.4693 2.68097C11.4404 2.61374 11.4138 2.54793 11.3932 2.48951C11.383 2.46058 11.3717 2.42602 11.3623 2.38959C11.3557 2.36413 11.3375 2.29281 11.3375 2.20625C11.3375 1.89368 11.5482 1.72052 11.6343 1.66242C11.7308 1.59727 11.8314 1.56267 11.8976 1.54316C12.0383 1.50166 12.212 1.47563 12.3946 1.45701C12.7698 1.41871 13.3097 1.4 14 1.4C14.577 1.4 15.1021 1.40943 15.4865 1.42636C15.6768 1.43474 15.8429 1.44537 15.9666 1.45896C16.0248 1.46536 16.0942 1.47451 16.1576 1.48939C16.1845 1.49568 16.2453 1.5107 16.3116 1.54253C16.3432 1.55771 16.4103 1.5926 16.4777 1.65792C16.5461 1.72429 16.6625 1.87142 16.6625 2.09375C16.6625 2.1895 16.6389 2.26923 16.6334 2.28791C16.6332 2.28869 16.633 2.28936 16.6328 2.28993C16.6232 2.32301 16.6119 2.35474 16.6021 2.38089C16.582 2.43426 16.5558 2.49658 16.5271 2.56198C16.469 2.69446 16.3882 2.86723 16.2941 3.06284C16.1052 3.4555 15.8538 3.95826 15.6005 4.45309C15.3472 4.94785 15.0898 5.43903 14.8888 5.80835C14.7888 5.99201 14.6999 6.15093 14.6311 6.26646C14.5976 6.32259 14.5632 6.37825 14.5315 6.42387C14.5172 6.4446 14.4929 6.47855 14.4625 6.51275C14.4485 6.52849 14.4183 6.56132 14.3751 6.59503C14.3747 6.59539 14.3741 6.59586 14.3733 6.59645C14.3517 6.61365 14.2118 6.725 14 6.725Z" fill="white" stroke="black" stroke-width="1.2"/>
<path d="M9.04252 2.27187L9.04296 2.27168L10.8125 5.54375L11.0199 6.10675C11.0196 6.10688 11.0192 6.10702 11.0189 6.10715C8.70603 6.95968 6.66474 9.13764 5.93061 11.5673L5.93014 11.5688C5.76706 12.1034 5.68047 12.4744 5.63912 12.8817C5.59702 13.2963 5.59956 13.77 5.63676 14.5138L5.63687 14.5162C5.67438 15.3321 5.71533 15.7759 5.8123 16.1699C5.90828 16.5598 6.06565 16.9273 6.38346 17.5816L6.38346 17.5816L6.38501 17.5848C9.48621 24.0676 18.5138 24.0676 21.615 17.5848L21.6165 17.5816C21.9344 16.9273 22.0917 16.5598 22.1877 16.1699C22.2847 15.7759 22.3256 15.3321 22.3631 14.5162L22.3633 14.5138C22.4004 13.77 22.403 13.2963 22.3609 12.8817C22.3195 12.4744 22.2329 12.1034 22.0699 11.5688L22.0694 11.5673C21.3353 9.13764 19.294 6.95967 16.9811 6.10714C16.6594 5.99009 16.3568 5.86467 16.1271 5.75117C16.0149 5.69572 15.9022 5.63438 15.8097 5.57036C15.7654 5.53969 15.7042 5.49375 15.6475 5.43317L15.6468 5.43249C15.6137 5.39711 15.4625 5.23568 15.4625 4.98125C15.4625 4.87327 15.4921 4.77731 15.5005 4.75012L15.5014 4.74709C15.5155 4.70089 15.5332 4.65183 15.5512 4.60497C15.5876 4.51 15.6372 4.39263 15.6936 4.26417C15.8072 4.00563 15.96 3.67617 16.12 3.33755L16.1199 3.33751L16.1245 3.32822C16.1341 3.30867 16.1437 3.28916 16.1533 3.26971C16.3101 2.95157 16.4596 2.64836 16.6202 2.42552C16.8104 2.16165 17.0795 1.91993 17.4918 1.87265C17.8387 1.83289 18.195 1.94729 18.5304 2.08313C18.8717 2.22136 19.3017 2.43104 19.8357 2.69144L19.888 2.71694L19.8894 2.71765C20.9936 3.25971 21.7773 3.84756 22.8618 4.93198L22.8634 4.93363C25.396 7.48586 26.6 10.4513 26.6 14.0938C26.6 17.7747 25.5078 20.422 22.9743 22.9555L22.9726 22.9571C21.6913 24.2287 20.3844 25.1466 18.9154 25.7427C17.4472 26.3385 15.8484 26.6 14 26.6C12.1516 26.6 10.5528 26.3385 9.08456 25.7427C7.61558 25.1466 6.30865 24.2287 5.02735 22.9571L5.02735 22.9571L5.02574 22.9555C2.49224 20.422 1.4 17.7747 1.4 14.0938C1.4 11.7321 1.74028 10.3121 2.75314 8.20846L2.75472 8.20522C4.05645 5.54259 6.32213 3.41522 9.04252 2.27187Z" fill="white" stroke="black" stroke-width="1.2"/>
<path d="M10.9254 6.11271L10.9254 6.1126L10.9366 6.10832C11.2563 5.98609 11.5372 5.88554 11.78 5.82422C12.0194 5.76377 12.2811 5.72513 12.5432 5.77846C13.1253 5.89695 13.3978 6.39849 13.5972 6.78854C13.9916 7.55456 14.0383 8.18641 14.0383 9.96875C14.0383 10.7717 14.0248 11.3426 13.9831 11.7178C13.9631 11.8976 13.9317 12.0866 13.8659 12.245C13.8061 12.389 13.6172 12.725 13.1946 12.725C13.0357 12.725 12.9138 12.6613 12.8889 12.6483C12.8878 12.6478 12.887 12.6473 12.8863 12.647C12.84 12.6232 12.7984 12.5963 12.767 12.5749C12.7021 12.5306 12.6297 12.4742 12.5566 12.4145C12.4079 12.2928 12.2173 12.1251 12.0044 11.9309C11.5765 11.5409 11.0345 11.0231 10.5073 10.5042C9.98032 9.98544 9.46232 9.45987 9.08324 9.05416C8.89523 8.85295 8.73355 8.67288 8.62098 8.53472C8.5674 8.46897 8.51005 8.39471 8.46647 8.32399C8.44806 8.2941 8.40903 8.22863 8.38285 8.14517C8.37029 8.10511 8.34644 8.01766 8.35491 7.90636C8.36434 7.78242 8.41905 7.60134 8.58964 7.46943C9.23173 6.96817 10.1788 6.41541 10.9254 6.11271Z" fill="white" stroke="black" stroke-width="1.2"/>
<path d="M17.5208 10.484C16.9515 11.0627 16.4038 11.5868 15.9783 11.969C15.7665 12.1593 15.5788 12.3199 15.4309 12.4358C15.3582 12.4928 15.2853 12.5468 15.2184 12.5894C15.1856 12.6102 15.1428 12.6358 15.0947 12.6582C15.0942 12.6585 15.0937 12.6587 15.0932 12.6589C15.0635 12.6728 14.9516 12.725 14.8062 12.725C14.3837 12.725 14.1948 12.389 14.135 12.245C14.0692 12.0866 14.0377 11.8976 14.0177 11.7178C13.976 11.3426 13.9625 10.7717 13.9625 9.96875C13.9625 8.16946 14.0091 7.55322 14.4226 6.76936C14.5097 6.59523 14.5925 6.43495 14.6754 6.30398C14.7582 6.17315 14.8708 6.02225 15.0365 5.90976C15.3986 5.66409 15.7997 5.74738 16.0366 5.79658C16.041 5.79749 16.0453 5.7984 16.0496 5.79929C16.4659 5.88104 17.0983 6.13408 17.6601 6.39732C18.2256 6.66233 18.8238 6.98669 19.1541 7.24865L18.7813 7.71869L19.153 7.24782C19.1562 7.25031 19.16 7.25322 19.1642 7.25654C19.2406 7.31557 19.4858 7.50527 19.5373 7.8302C19.5912 8.17024 19.408 8.44804 19.2943 8.60413C19.0473 8.94304 18.5152 9.4802 17.6096 10.3944C17.5803 10.4238 17.5508 10.4537 17.5208 10.484Z" fill="white" stroke="black" stroke-width="1.2"/>
<path d="M11.809 12.736C11.8089 12.7359 11.8073 12.7364 11.8045 12.7375C11.8076 12.7365 11.809 12.736 11.809 12.736ZM5.65055 12.6163L5.65055 12.6163L5.65103 12.6138C5.85005 11.559 6.41921 10.0512 6.98387 9.23483C7.11098 9.04911 7.23825 8.87539 7.34614 8.74323C7.39879 8.67874 7.45642 8.61226 7.51317 8.55703C7.54038 8.53055 7.58106 8.49315 7.63094 8.45832C7.65606 8.44078 7.6952 8.41562 7.74555 8.39309C7.79064 8.37291 7.88245 8.3375 8.00312 8.3375C8.11495 8.3375 8.19991 8.36838 8.233 8.38125C8.27477 8.3975 8.30839 8.41542 8.33008 8.42778C8.37366 8.4526 8.41246 8.48003 8.44105 8.50125C8.5004 8.54531 8.56723 8.60129 8.63492 8.66058C8.77281 8.78136 8.95101 8.9483 9.15153 9.142C9.55439 9.53115 10.0686 10.049 10.574 10.5709C11.0794 11.0928 11.5806 11.6235 11.9571 12.0387C12.1445 12.2453 12.3058 12.4286 12.4223 12.57C12.4796 12.6395 12.5333 12.7075 12.5753 12.7674C12.5956 12.7963 12.6214 12.8349 12.6446 12.8778C12.6561 12.8991 12.6727 12.9319 12.6877 12.9722C12.6995 13.0039 12.7281 13.0861 12.7281 13.1937C12.7281 13.4402 12.599 13.6199 12.4717 13.7235C12.3611 13.8135 12.2401 13.8589 12.158 13.8843C11.9888 13.9365 11.7729 13.9647 11.5343 13.984C11.0424 14.0237 10.269 14.0375 9.12812 14.0375H6.10938H5.38875L5.5193 13.3288L5.65055 12.6163Z" fill="white" stroke="black" stroke-width="1.2"/>
<path d="M16.1778 12.7377C16.1778 12.7377 16.1793 12.7383 16.1827 12.7393C16.1796 12.7381 16.1779 12.7376 16.1778 12.7377ZM16.0153 12.054C16.3875 11.6362 16.8966 11.0987 17.4552 10.54C18.0117 9.97412 18.5314 9.46381 18.9208 9.09339C19.1152 8.90851 19.2802 8.75553 19.4024 8.64701C19.4626 8.59361 19.5183 8.5457 19.5646 8.50885C19.5865 8.49142 19.6159 8.46874 19.6477 8.4477C19.6627 8.43776 19.6901 8.4202 19.7249 8.4029C19.7252 8.40274 19.7257 8.4025 19.7263 8.40217C19.7418 8.39422 19.852 8.3375 20 8.3375C20.1755 8.3375 20.3124 8.40314 20.3935 8.45242C20.479 8.50434 20.5495 8.5668 20.6042 8.62173C20.7135 8.7316 20.8159 8.86935 20.9081 9.00908C21.0954 9.29308 21.2948 9.66931 21.4818 10.0725C21.8531 10.873 22.2179 11.8715 22.3527 12.6172C22.3528 12.6176 22.3529 12.618 22.353 12.6184L22.4838 13.3288L22.6144 14.0375H21.8937H18.875C17.7517 14.0375 16.9805 14.0237 16.4864 13.9866C16.2457 13.9686 16.033 13.9427 15.8682 13.8974C15.7899 13.8758 15.6732 13.8372 15.5642 13.7598C15.4452 13.6753 15.275 13.4953 15.275 13.2125C15.275 13.0686 15.3261 12.9579 15.3399 12.9279C15.3401 12.9275 15.3402 12.9271 15.3404 12.9267C15.3626 12.8786 15.3879 12.8358 15.4085 12.8032C15.4505 12.7367 15.5036 12.6644 15.5594 12.5927C15.6728 12.4468 15.8299 12.2621 16.0153 12.054Z" fill="white" stroke="black" stroke-width="1.2"/>
<path d="M12.5198 13.1308L12.5197 13.1308L12.5245 13.1187C12.6615 12.7737 12.9457 12.5761 13.2424 12.4823C13.5231 12.3936 13.8434 12.3854 14.1659 12.4163L14.1659 12.4163L14.1687 12.4166C14.3691 12.4368 14.5713 12.4608 14.7458 12.5078C14.9283 12.557 15.1414 12.6465 15.3105 12.8405C15.4767 13.0312 15.539 13.253 15.5677 13.4387C15.5957 13.6206 15.6 13.8306 15.6 14.0476C15.6 14.2659 15.5976 14.4803 15.5715 14.6611C15.5451 14.8433 15.483 15.0862 15.2874 15.2833C15.0911 15.481 14.8482 15.5443 14.6654 15.5711C14.4849 15.5976 14.2712 15.6 14.0546 15.6C13.8498 15.6 13.6578 15.5932 13.4869 15.569C13.3176 15.5449 13.13 15.4987 12.9575 15.3944C12.5591 15.1537 12.4659 14.7527 12.4329 14.4505C12.4004 14.2297 12.3937 13.9893 12.4053 13.7737C12.4167 13.5649 12.4479 13.3239 12.5198 13.1308Z" fill="white" stroke="black" stroke-width="1.2"/>
<path d="M11.8253 15.2623C11.8253 15.2623 11.8238 15.2617 11.8204 15.2607C11.8235 15.2619 11.8252 15.2624 11.8253 15.2623ZM5.51983 14.674L5.38522 13.9625H6.10938H9.12812C10.2514 13.9625 11.0226 13.9763 11.5167 14.0134C11.7574 14.0314 11.9702 14.0573 12.1349 14.1026C12.2132 14.1242 12.3299 14.1628 12.439 14.2402C12.5579 14.3247 12.7281 14.5047 12.7281 14.7875C12.7281 14.9428 12.6675 15.0621 12.6543 15.088C12.6538 15.089 12.6534 15.0898 12.653 15.0905C12.6298 15.1369 12.6035 15.1784 12.5825 15.2097C12.5393 15.2742 12.4844 15.3458 12.4264 15.4177C12.3086 15.5639 12.146 15.7509 11.9579 15.9598C11.5798 16.3797 11.0766 16.9124 10.5683 17.4348C10.0601 17.9572 9.54148 18.4747 9.13219 18.8637C8.92855 19.0573 8.74595 19.2247 8.60264 19.3463C8.53227 19.406 8.46164 19.463 8.39757 19.508C8.36644 19.5299 8.32471 19.5576 8.2776 19.5823C8.2769 19.5827 8.27605 19.5831 8.27507 19.5837C8.24885 19.5976 8.12648 19.6625 7.96562 19.6625C7.78634 19.6625 7.64817 19.5934 7.56897 19.5438C7.48488 19.4911 7.41606 19.4283 7.36335 19.3738C7.25777 19.2646 7.15894 19.1282 7.07012 18.99C6.88944 18.709 6.69649 18.3361 6.51444 17.9344C6.15218 17.135 5.79444 16.1352 5.65095 15.3671C5.65091 15.3668 5.65086 15.3666 5.65081 15.3663L5.51983 14.674Z" fill="white" stroke="black" stroke-width="1.2"/>
<path d="M21.8937 13.9625H22.6179L22.4833 14.674L22.352 15.3678C22.2086 16.1258 21.851 17.1254 21.489 17.9267C21.3071 18.3293 21.1143 18.7038 20.9339 18.986C20.8452 19.1248 20.7466 19.2619 20.6412 19.3715C20.5887 19.4262 20.5199 19.4895 20.4358 19.5425C20.3568 19.5924 20.218 19.6625 20.0375 19.6625C19.9338 19.6625 19.8541 19.6362 19.819 19.6234C19.7771 19.6081 19.743 19.591 19.7203 19.5787C19.675 19.5542 19.6347 19.5269 19.6048 19.5055C19.5429 19.4613 19.474 19.4052 19.4047 19.3461C19.2635 19.2257 19.0824 19.0596 18.8794 18.8672C18.4715 18.4804 17.9526 17.9656 17.4433 17.4456C16.9339 16.9257 16.4291 16.3955 16.0495 15.9774C15.8607 15.7694 15.6974 15.5832 15.579 15.4375C15.5208 15.3659 15.4656 15.2944 15.4221 15.2301C15.4009 15.1987 15.3744 15.1572 15.3509 15.1107C15.3506 15.11 15.3501 15.1092 15.3496 15.1082C15.3364 15.0823 15.275 14.9625 15.275 14.8062C15.275 14.5598 15.4041 14.3801 15.5315 14.2765C15.642 14.1865 15.7631 14.1411 15.8452 14.1157C16.0143 14.0635 16.2302 14.0353 16.4689 14.016C16.9607 13.9763 17.7342 13.9625 18.875 13.9625H21.8937ZM16.1942 15.264C16.1942 15.2641 16.1958 15.2636 16.1986 15.2625C16.1955 15.2635 16.1941 15.264 16.1942 15.264Z" fill="white" stroke="black" stroke-width="1.2"/>
<path d="M10.4773 17.5337C11.045 16.9566 11.5915 16.429 12.016 16.0429C12.2274 15.8506 12.4148 15.6877 12.5623 15.5701C12.6348 15.5124 12.7076 15.4575 12.7744 15.4142C12.8071 15.393 12.85 15.3668 12.8983 15.3439L12.8999 15.3431C12.9295 15.329 13.043 15.275 13.1908 15.275C13.4373 15.275 13.6169 15.4041 13.7206 15.5315C13.8105 15.642 13.856 15.7631 13.8813 15.8452C13.9335 16.0143 13.9618 16.2302 13.981 16.4689C14.0208 16.9607 14.0345 17.7342 14.0345 18.875C14.0345 20.0075 14.0207 20.7789 13.9836 21.2709C13.9656 21.5103 13.9396 21.7222 13.8938 21.8865C13.872 21.9648 13.8327 22.0818 13.7536 22.1911C13.6661 22.312 13.4862 22.475 13.2095 22.475V22.4751L13.1968 22.4749C12.6403 22.463 11.7799 22.2053 11.0004 21.8991C10.2101 21.5887 9.37338 21.1772 8.85572 20.78C8.85364 20.7785 8.85136 20.7768 8.8489 20.7751C8.7719 20.7195 8.51789 20.5361 8.45911 20.2085C8.39781 19.8668 8.57931 19.5843 8.69266 19.4259C8.94731 19.0699 9.50695 18.5041 10.4773 17.5337ZM12.733 16.1942C12.733 16.1943 12.7335 16.1958 12.7346 16.1987C12.7336 16.1955 12.733 16.1941 12.733 16.1942Z" fill="white" stroke="black" stroke-width="1.2"/>
<path d="M14.8193 22.4749L14.8193 22.475H14.8062C14.5539 22.475 14.3738 22.3398 14.2729 22.2133C14.1846 22.1027 14.14 21.982 14.115 21.8999C14.0635 21.7304 14.0353 21.5137 14.016 21.2739C13.9763 20.7799 13.9625 20.0067 13.9625 18.875C13.9625 17.7342 13.9763 16.9607 14.016 16.4689C14.0353 16.2302 14.0635 16.0143 14.1157 15.8452C14.1411 15.7631 14.1865 15.642 14.2765 15.5315C14.3801 15.4041 14.5598 15.275 14.8062 15.275C14.9541 15.275 15.0675 15.329 15.0972 15.3431L15.0987 15.3439C15.147 15.3668 15.19 15.393 15.2226 15.4142C15.2894 15.4575 15.3623 15.5124 15.4348 15.5701C15.5823 15.6877 15.7697 15.8506 15.9811 16.0429C16.4055 16.429 16.952 16.9566 17.5197 17.5337C18.4901 18.5041 19.0497 19.0699 19.3044 19.4259C19.4177 19.5843 19.5992 19.8668 19.5379 20.2085C19.4792 20.5361 19.2251 20.7195 19.1481 20.7751C19.1457 20.7768 19.1434 20.7785 19.1413 20.78C18.6238 21.1771 17.7871 21.5886 16.9996 21.8989C16.2235 22.2046 15.3671 22.4629 14.8193 22.4749ZM15.264 16.1942C15.264 16.1941 15.2635 16.1955 15.2625 16.1986C15.2636 16.1958 15.2641 16.1942 15.264 16.1942Z" fill="white" stroke="black" stroke-width="1.2"/>
</g>
<defs>
<filter id="filter0_d_2007_1786" x="0.796875" y="0.796875" width="26.4062" height="27.6063" filterUnits="userSpaceOnUse" color-interpolation-filters="sRGB">
<feFlood flood-opacity="0" result="BackgroundImageFix"/>
<feColorMatrix in="SourceAlpha" type="matrix" values="0 0 0 0 0 0 0 0 0 0 0 0 0 0 0 0 0 0 127 0" result="hardAlpha"/>
<feOffset dy="1.2"/>
<feComposite in2="hardAlpha" operator="out"/>
<feColorMatrix type="matrix" values="0 0 0 0 0 0 0 0 0 0 0 0 0 0 0 0 0 0 1 0"/>
<feBlend mode="normal" in2="BackgroundImageFix" result="effect1_dropShadow_2007_1786"/>
<feBlend mode="normal" in="SourceGraphic" in2="effect1_dropShadow_2007_1786" result="shape"/>
</filter>
</defs>
</svg>
