<svg width="17" height="17" viewBox="0 0 17 17" fill="none" xmlns="http://www.w3.org/2000/svg">
<g filter="url(#filter0_d_2095_3024)">
<mask id="path-1-outside-1_2095_3024" maskUnits="userSpaceOnUse" x="-0.0546875" y="1.20312" width="17" height="15" fill="black">
<rect fill="white" x="-0.0546875" y="1.20312" width="17" height="15"/>
<path fill-rule="evenodd" clip-rule="evenodd" d="M8.31328 2.22012C8.16802 2.24446 7.97372 2.34856 7.85848 2.46382C7.77025 2.55204 7.71586 2.64896 7.44906 3.19342C7.27984 3.53876 7.14141 3.82406 7.14141 3.82742C7.14141 3.8308 7.03902 4.04402 6.91387 4.30126C6.78872 4.5585 6.58733 4.9729 6.46631 5.22214C6.34526 5.47138 6.22283 5.706 6.19419 5.74354C6.10541 5.85996 6.00539 5.8884 5.33141 5.98898C3.60883 6.24604 2.62155 6.40168 2.53141 6.4304C1.99357 6.60172 1.77129 7.2698 2.09787 7.73338C2.33143 8.06494 2.85773 8.63414 3.17395 8.89716C3.51339 9.17948 3.68965 9.2572 4.10793 9.30898C4.74129 9.3874 5.71941 9.32256 6.87141 9.1258C7.10241 9.08634 7.3364 9.04702 7.39141 9.0384C7.56004 9.01198 8.15248 8.886 8.5214 8.79812C8.90089 8.70772 9.08826 8.68154 9.10953 8.71594C9.1398 8.76494 9.06102 8.82306 8.8318 8.92082C8.44732 9.0848 8.30134 9.15288 7.7714 9.4154C6.38365 10.1029 5.39509 10.7979 4.86129 11.4615C4.68277 11.6835 4.61995 11.7841 4.55263 11.9559C4.44527 12.2298 4.29065 12.9538 4.20021 13.6062C4.16327 13.8726 4.15971 13.9445 4.17807 14.0552C4.24109 14.4355 4.52867 14.719 4.91447 14.7812C5.16357 14.8213 5.25205 14.7897 5.97933 14.4008C6.32697 14.2149 6.67441 14.0293 6.75141 13.9884C7.03527 13.8374 7.4986 13.5892 7.7514 13.4527C7.8944 13.3755 8.11484 13.2587 8.24128 13.1933C8.5727 13.0219 8.5021 13.0051 9.38078 13.4633C10.6562 14.1283 11.7882 14.7006 11.8614 14.7174C12.3516 14.8298 12.8256 14.517 12.9221 14.0175C12.9461 13.8933 12.9398 13.8301 12.8602 13.389C12.8284 13.213 12.7578 12.817 12.7031 12.509C12.6485 12.201 12.5448 11.6197 12.4726 11.2173C12.3319 10.4326 12.3199 10.3045 12.3782 10.209C12.3983 10.176 12.9728 9.59706 13.6547 8.92248C14.9699 7.62144 14.9659 7.62598 15.0333 7.37278C15.1325 7.00008 14.9306 6.55352 14.5934 6.3999C14.4304 6.32564 14.4061 6.32022 13.9656 6.25986C13.7268 6.22714 13.3334 6.17294 13.0914 6.1394C12.8494 6.10588 12.3274 6.03406 11.9314 5.97982C11.5354 5.92556 11.1709 5.87498 11.1214 5.86744C11.0083 5.85018 10.8419 5.7738 10.7878 5.71434C10.7651 5.68938 10.3969 4.97198 9.96964 4.1201C9.25536 2.69598 9.18426 2.5627 9.0869 2.46534C8.9607 2.33916 8.82433 2.266 8.64403 2.22778C8.49791 2.19682 8.45794 2.19588 8.31328 2.22012Z"/>
</mask>
<path fill-rule="evenodd" clip-rule="evenodd" d="M8.31328 2.22012C8.16802 2.24446 7.97372 2.34856 7.85848 2.46382C7.77025 2.55204 7.71586 2.64896 7.44906 3.19342C7.27984 3.53876 7.14141 3.82406 7.14141 3.82742C7.14141 3.8308 7.03902 4.04402 6.91387 4.30126C6.78872 4.5585 6.58733 4.9729 6.46631 5.22214C6.34526 5.47138 6.22283 5.706 6.19419 5.74354C6.10541 5.85996 6.00539 5.8884 5.33141 5.98898C3.60883 6.24604 2.62155 6.40168 2.53141 6.4304C1.99357 6.60172 1.77129 7.2698 2.09787 7.73338C2.33143 8.06494 2.85773 8.63414 3.17395 8.89716C3.51339 9.17948 3.68965 9.2572 4.10793 9.30898C4.74129 9.3874 5.71941 9.32256 6.87141 9.1258C7.10241 9.08634 7.3364 9.04702 7.39141 9.0384C7.56004 9.01198 8.15248 8.886 8.5214 8.79812C8.90089 8.70772 9.08826 8.68154 9.10953 8.71594C9.1398 8.76494 9.06102 8.82306 8.8318 8.92082C8.44732 9.0848 8.30134 9.15288 7.7714 9.4154C6.38365 10.1029 5.39509 10.7979 4.86129 11.4615C4.68277 11.6835 4.61995 11.7841 4.55263 11.9559C4.44527 12.2298 4.29065 12.9538 4.20021 13.6062C4.16327 13.8726 4.15971 13.9445 4.17807 14.0552C4.24109 14.4355 4.52867 14.719 4.91447 14.7812C5.16357 14.8213 5.25205 14.7897 5.97933 14.4008C6.32697 14.2149 6.67441 14.0293 6.75141 13.9884C7.03527 13.8374 7.4986 13.5892 7.7514 13.4527C7.8944 13.3755 8.11484 13.2587 8.24128 13.1933C8.5727 13.0219 8.5021 13.0051 9.38078 13.4633C10.6562 14.1283 11.7882 14.7006 11.8614 14.7174C12.3516 14.8298 12.8256 14.517 12.9221 14.0175C12.9461 13.8933 12.9398 13.8301 12.8602 13.389C12.8284 13.213 12.7578 12.817 12.7031 12.509C12.6485 12.201 12.5448 11.6197 12.4726 11.2173C12.3319 10.4326 12.3199 10.3045 12.3782 10.209C12.3983 10.176 12.9728 9.59706 13.6547 8.92248C14.9699 7.62144 14.9659 7.62598 15.0333 7.37278C15.1325 7.00008 14.9306 6.55352 14.5934 6.3999C14.4304 6.32564 14.4061 6.32022 13.9656 6.25986C13.7268 6.22714 13.3334 6.17294 13.0914 6.1394C12.8494 6.10588 12.3274 6.03406 11.9314 5.97982C11.5354 5.92556 11.1709 5.87498 11.1214 5.86744C11.0083 5.85018 10.8419 5.7738 10.7878 5.71434C10.7651 5.68938 10.3969 4.97198 9.96964 4.1201C9.25536 2.69598 9.18426 2.5627 9.0869 2.46534C8.9607 2.33916 8.82433 2.266 8.64403 2.22778C8.49791 2.19682 8.45794 2.19588 8.31328 2.22012Z" fill="white"/>
<path d="M8.31328 2.22012L8.47854 3.20637L8.47855 3.20637L8.31328 2.22012ZM7.85848 2.46382L8.56551 3.17101L8.56565 3.17087L7.85848 2.46382ZM7.44906 3.19342L6.55108 2.75339L6.55108 2.7534L7.44906 3.19342ZM6.91387 4.30126L6.01465 3.86375L6.01462 3.86381L6.91387 4.30126ZM6.46631 5.22214L7.36584 5.65899L7.36587 5.65893L6.46631 5.22214ZM6.19419 5.74354L5.39914 5.13699L5.39901 5.13716L6.19419 5.74354ZM5.33141 5.98898L5.479 6.97803L5.479 6.97803L5.33141 5.98898ZM2.53141 6.4304L2.83491 7.38323L2.83498 7.38321L2.53141 6.4304ZM2.09787 7.73338L2.91539 7.15749L2.91538 7.15747L2.09787 7.73338ZM3.17395 8.89716L2.53447 9.66598L2.53449 9.66599L3.17395 8.89716ZM4.10793 9.30898L4.2308 8.31656L4.23078 8.31656L4.10793 9.30898ZM6.87141 9.1258L7.03977 10.1115L7.03979 10.1115L6.87141 9.1258ZM7.39141 9.0384L7.23663 8.05045L7.23657 8.05046L7.39141 9.0384ZM8.5214 8.79812L8.75313 9.7709L8.75314 9.7709L8.5214 8.79812ZM9.10953 8.71594L9.9602 8.19026L9.96018 8.19022L9.10953 8.71594ZM8.8318 8.92082L8.4395 8.00098L8.4395 8.00099L8.8318 8.92082ZM7.7714 9.4154L8.2153 10.3115L8.2153 10.3115L7.7714 9.4154ZM4.86129 11.4615L4.08208 10.8348L4.08205 10.8348L4.86129 11.4615ZM4.55263 11.9559L3.62158 11.5909L3.62157 11.591L4.55263 11.9559ZM4.20021 13.6062L5.19073 13.7435L5.19073 13.7435L4.20021 13.6062ZM4.17807 14.0552L5.16461 13.8918L5.16461 13.8917L4.17807 14.0552ZM4.91447 14.7812L5.07348 13.7939L5.07343 13.7939L4.91447 14.7812ZM5.97933 14.4008L6.45084 15.2827L6.45085 15.2827L5.97933 14.4008ZM6.75141 13.9884L7.22086 14.8713L7.221 14.8713L6.75141 13.9884ZM7.7514 13.4527L8.22652 14.3326L8.22655 14.3326L7.7514 13.4527ZM8.24128 13.1933L8.70071 14.0816L8.70083 14.0815L8.24128 13.1933ZM9.38078 13.4633L8.91844 14.35L8.91845 14.35L9.38078 13.4633ZM11.8614 14.7174L12.0849 13.7427L12.0847 13.7426L11.8614 14.7174ZM12.9221 14.0175L11.9402 13.8279L11.9402 13.8279L12.9221 14.0175ZM12.8602 13.389L11.8761 13.5666L11.8761 13.5666L12.8602 13.389ZM12.4726 11.2173L13.4569 11.0408L13.4569 11.0408L12.4726 11.2173ZM12.3782 10.209L11.5248 9.68766L11.5247 9.68785L12.3782 10.209ZM13.6547 8.92248L14.358 9.63341L14.358 9.63341L13.6547 8.92248ZM15.0333 7.37278L14.067 7.11547L14.0669 7.11555L15.0333 7.37278ZM14.5934 6.3999L14.1788 7.30991L14.1788 7.30991L14.5934 6.3999ZM13.9656 6.25986L14.1014 5.26912L14.1013 5.26912L13.9656 6.25986ZM13.0914 6.1394L13.2287 5.14887L13.2286 5.14886L13.0914 6.1394ZM11.9314 5.97982L11.7957 6.97056L11.7957 6.97057L11.9314 5.97982ZM11.1214 5.86744L10.9705 6.85599L10.9708 6.85604L11.1214 5.86744ZM10.7878 5.71434L10.048 6.38716L10.0481 6.38732L10.7878 5.71434ZM9.96964 4.1201L9.07578 4.56843L9.07578 4.56844L9.96964 4.1201ZM9.0869 2.46534L9.79401 1.75823L9.79396 1.75818L9.0869 2.46534ZM8.64403 2.22778L8.8514 1.24952L8.8513 1.2495L8.64403 2.22778ZM8.14803 1.23387C7.77575 1.29625 7.39736 1.51069 7.15132 1.75678L8.56565 3.17087C8.55722 3.1793 8.55087 3.18485 8.54725 3.18788C8.54355 3.19098 8.54142 3.19252 8.54103 3.1928C8.54075 3.193 8.54314 3.19134 8.54692 3.18932C8.55088 3.1872 8.55072 3.18769 8.54454 3.18998C8.53998 3.19167 8.51754 3.19984 8.47854 3.20637L8.14803 1.23387ZM7.15146 1.75663C6.91531 1.99273 6.78026 2.2857 6.55108 2.75339L8.34705 3.63346C8.48384 3.35429 8.55122 3.22103 8.59281 3.1469C8.61129 3.11397 8.61401 3.11217 8.60536 3.12413C8.59233 3.14217 8.57668 3.15984 8.56551 3.17101L7.15146 1.75663ZM6.55108 2.7534C6.46608 2.92686 6.38858 3.08572 6.33211 3.20209C6.30398 3.26006 6.28052 3.30861 6.26381 3.3435C6.25565 3.36054 6.248 3.37659 6.24192 3.3896C6.23922 3.39538 6.23478 3.40489 6.23021 3.41512C6.22842 3.41912 6.22315 3.43091 6.21709 3.44564C6.2146 3.45169 6.20729 3.46951 6.19909 3.49261C6.19531 3.50327 6.18681 3.52766 6.17802 3.55927C6.17361 3.57512 6.16643 3.60235 6.15976 3.63668C6.15465 3.66301 6.14141 3.73464 6.14141 3.82742H8.14141C8.14081 3.86192 8.13692 3.92206 8.13415 3.94766C8.13156 3.96738 8.12594 4.00258 8.12306 4.01806C8.1164 4.05234 8.10924 4.07952 8.10484 4.09531C8.09608 4.1268 8.08764 4.15103 8.08392 4.16151C8.07586 4.18423 8.06875 4.20153 8.06653 4.20693C8.061 4.22037 8.05653 4.23032 8.0558 4.23196C8.05333 4.23747 8.05204 4.24018 8.05345 4.23716C8.0556 4.23257 8.06009 4.22308 8.06755 4.2075C8.08208 4.17717 8.10381 4.13218 8.13145 4.07524C8.1865 3.96178 8.26283 3.80532 8.34705 3.63344L6.55108 2.7534ZM6.14141 3.82742C6.14175 3.80107 6.14413 3.7537 6.1459 3.7327C6.14768 3.71559 6.15169 3.68436 6.15383 3.67026C6.15901 3.63773 6.16487 3.61139 6.16897 3.59428C6.17701 3.56075 6.18513 3.5347 6.18927 3.52183C6.19784 3.49513 6.20568 3.47475 6.20851 3.46743C6.21512 3.45034 6.22066 3.43751 6.22193 3.43457C6.22406 3.42963 6.22565 3.42608 6.22624 3.42476C6.22661 3.42392 6.2269 3.4233 6.22706 3.42294C6.22723 3.42256 6.22733 3.42235 6.22734 3.42232C6.22736 3.42228 6.22718 3.42268 6.22675 3.42361C6.22633 3.42451 6.22576 3.42574 6.22502 3.42733C6.22352 3.43054 6.22156 3.43472 6.21909 3.43995C6.20897 3.46139 6.1934 3.49402 6.17311 3.53627C6.13282 3.62019 6.07671 3.7362 6.01465 3.86375L7.81308 4.73877C7.87618 4.60908 7.93384 4.48986 7.97603 4.40201C7.99698 4.35838 8.01483 4.321 8.02782 4.29347C8.03406 4.28024 8.04059 4.2663 8.04618 4.25408C8.04857 4.24887 8.05334 4.23838 8.05852 4.22638C8.06057 4.22162 8.0667 4.20738 8.0737 4.18927C8.07674 4.18144 8.08472 4.16064 8.09339 4.13363C8.09758 4.12061 8.10573 4.09443 8.1138 4.06079C8.11743 4.04565 8.14141 3.95076 8.14141 3.82742H6.14141ZM6.01462 3.86381C5.88937 4.12127 5.68787 4.53589 5.56674 4.78535L7.36587 5.65893C7.48678 5.40991 7.68808 4.99573 7.81311 4.73872L6.01462 3.86381ZM5.56677 4.78529C5.50981 4.90258 5.45329 5.01482 5.40907 5.09956C5.3867 5.1424 5.36968 5.17401 5.35858 5.1939C5.35288 5.20411 5.35117 5.20686 5.35267 5.20438C5.35346 5.20307 5.3569 5.19737 5.36245 5.18884C5.36665 5.18239 5.37968 5.1625 5.39914 5.13699L6.98923 6.35009C7.04785 6.27326 7.09571 6.18523 7.10495 6.16867C7.12864 6.12622 7.15517 6.07655 7.18213 6.0249C7.23654 5.92063 7.30176 5.79094 7.36584 5.65899L5.56677 4.78529ZM5.39901 5.13716C5.40937 5.12358 5.43142 5.09609 5.46465 5.06401C5.49929 5.03056 5.53817 4.99971 5.5799 4.97315C5.65933 4.92262 5.71814 4.90766 5.70864 4.91036C5.69799 4.91339 5.65921 4.92303 5.56424 4.93979C5.47276 4.95594 5.35139 4.97492 5.18381 4.99993L5.479 6.97803C5.79371 6.93106 6.05971 6.88984 6.25585 6.83404C6.3667 6.80251 6.50929 6.75233 6.6535 6.66057C6.81181 6.55985 6.91759 6.44403 6.98936 6.34993L5.39901 5.13716ZM5.18381 4.99993C4.32154 5.12861 3.64094 5.23225 3.16351 5.30752C2.92527 5.34508 2.73447 5.37606 2.59579 5.39983C2.50505 5.41538 2.33476 5.44352 2.22783 5.47759L2.83498 7.38321C2.77312 7.40292 2.76005 7.40084 2.9336 7.37109C3.05922 7.34957 3.2398 7.32019 3.47497 7.28312C3.94436 7.20912 4.61869 7.10641 5.479 6.97803L5.18381 4.99993ZM2.2279 5.47757C1.0395 5.85612 0.568739 7.29916 1.28036 8.3093L2.91538 7.15747C2.95103 7.20808 2.94839 7.26077 2.93933 7.288C2.93023 7.31535 2.89911 7.36278 2.83491 7.38323L2.2279 5.47757ZM1.28034 8.30927C1.56523 8.7137 2.15164 9.34755 2.53447 9.66598L3.81342 8.12835C3.56381 7.92073 3.09762 7.41619 2.91539 7.15749L1.28034 8.30927ZM2.53449 9.66599C2.72931 9.82802 2.94243 9.98746 3.20792 10.1045C3.47684 10.2231 3.73667 10.2707 3.98507 10.3014L4.23078 8.31656C4.0609 8.29553 4.02346 8.27833 4.01482 8.27452C4.00275 8.2692 3.95803 8.24862 3.8134 8.12833L2.53449 9.66599ZM3.98505 10.3014C4.76458 10.3979 5.85733 10.3135 7.03977 10.1115L6.70304 8.14008C5.58148 8.33164 4.71799 8.37688 4.2308 8.31656L3.98505 10.3014ZM7.03979 10.1115C7.27345 10.0716 7.49959 10.0337 7.54624 10.0263L7.23657 8.05046C7.17322 8.06039 6.93136 8.10107 6.70302 8.14008L7.03979 10.1115ZM7.54618 10.0264C7.75657 9.99339 8.38177 9.85936 8.75313 9.7709L8.28968 7.82534C7.9232 7.91264 7.36352 8.03057 7.23663 8.05045L7.54618 10.0264ZM8.75314 9.7709C8.93655 9.72721 9.04033 9.7073 9.08818 9.70061C9.11821 9.69641 9.08702 9.70314 9.0254 9.70089C8.99717 9.69985 8.91161 9.69569 8.80304 9.66271C8.71397 9.63565 8.44308 9.53973 8.25887 9.24166L9.96018 8.19022C9.77066 7.88356 9.48926 7.78092 9.38439 7.74906C9.26002 7.71128 9.15337 7.70423 9.09865 7.70223C8.98406 7.69803 8.87832 7.7105 8.81141 7.71985C8.66539 7.74026 8.48574 7.77863 8.28967 7.82534L8.75314 9.7709ZM8.25885 9.24163C8.18614 9.12397 8.12527 8.9671 8.11673 8.78051C8.10825 8.59507 8.15403 8.43703 8.21096 8.31935C8.31029 8.11405 8.45236 8.01158 8.47432 7.99538C8.53324 7.95191 8.55385 7.95222 8.4395 8.00098L9.22411 9.84066C9.33898 9.79167 9.51359 9.71403 9.66164 9.60481C9.72815 9.55574 9.89857 9.42343 10.0113 9.1904C10.1631 8.87662 10.1521 8.50074 9.9602 8.19026L8.25885 9.24163ZM8.4395 8.00099C8.03214 8.17473 7.8681 8.25153 7.32751 8.51932L8.2153 10.3115C8.73459 10.0542 8.86251 9.99488 9.22411 9.84065L8.4395 8.00099ZM7.32751 8.51932C5.89916 9.22689 4.75348 10.0001 4.08208 10.8348L5.64049 12.0883C6.03669 11.5958 6.86812 10.9788 8.2153 10.3115L7.32751 8.51932ZM4.08205 10.8348C3.87057 11.0978 3.74032 11.288 3.62158 11.5909L5.48367 12.3208C5.50026 12.2784 5.50667 12.2681 5.51347 12.2572C5.52754 12.2346 5.55767 12.1913 5.64052 12.0883L4.08205 10.8348ZM3.62157 11.591C3.46758 11.9839 3.30099 12.8102 3.20968 13.4688L5.19073 13.7435C5.2803 13.0974 5.42295 12.4757 5.48368 12.3207L3.62157 11.591ZM3.20968 13.4688C3.17284 13.7345 3.14572 13.9424 3.19152 14.2187L5.16461 13.8917C5.16388 13.8874 5.16559 13.8968 5.1666 13.9128C5.16762 13.9291 5.16714 13.9393 5.16718 13.9383C5.16735 13.9349 5.16825 13.9206 5.17213 13.8865C5.17601 13.8526 5.18186 13.8075 5.19073 13.7435L3.20968 13.4688ZM3.19152 14.2187C3.32608 15.0308 3.95344 15.6393 4.7555 15.7684L5.07343 13.7939C5.08051 13.795 5.10348 13.8019 5.12725 13.8254C5.15127 13.849 5.16197 13.8758 5.16461 13.8918L3.19152 14.2187ZM4.75545 15.7684C4.84391 15.7827 4.98137 15.8016 5.14569 15.7914C5.31567 15.7809 5.46659 15.7426 5.60397 15.6936C5.8341 15.6114 6.11311 15.4632 6.45084 15.2827L5.50781 13.5189C5.3257 13.6163 5.19534 13.685 5.09525 13.7348C4.99238 13.7861 4.94712 13.8044 4.93119 13.8101C4.9244 13.8126 4.96103 13.799 5.02164 13.7953C5.07658 13.7918 5.10957 13.7997 5.07348 13.7939L4.75545 15.7684ZM6.45085 15.2827C6.799 15.0965 7.14516 14.9116 7.22086 14.8713L6.28195 13.1054C6.20365 13.1471 5.85493 13.3333 5.50781 13.5189L6.45085 15.2827ZM7.221 14.8713C7.50651 14.7194 7.9717 14.4702 8.22652 14.3326L7.27629 12.5728C7.02551 12.7082 6.56402 12.9554 6.28182 13.1055L7.221 14.8713ZM8.22655 14.3326C8.36515 14.2577 8.5803 14.1438 8.70071 14.0816L7.78186 12.3051C7.64939 12.3736 7.42366 12.4932 7.27626 12.5728L8.22655 14.3326ZM8.70083 14.0815C8.72558 14.0687 8.74858 14.0565 8.76509 14.0478C8.78339 14.0382 8.79366 14.0328 8.80159 14.0288C8.82025 14.0194 8.79994 14.0309 8.76158 14.0441C8.71527 14.0601 8.64671 14.0775 8.56299 14.0815C8.48086 14.0854 8.41542 14.0748 8.37528 14.0653C8.33975 14.0569 8.32452 14.0493 8.34047 14.0559C8.3557 14.0622 8.38482 14.0752 8.43662 14.1007C8.5452 14.1542 8.688 14.2298 8.91844 14.35L9.84313 12.5766C9.63422 12.4677 9.45635 12.3736 9.32068 12.3067C9.19716 12.2458 9.02385 12.1636 8.83635 12.1191C8.58854 12.0604 8.34571 12.072 8.10959 12.1534C7.96465 12.2034 7.79726 12.2972 7.78174 12.3052L8.70083 14.0815ZM8.91845 14.35C9.55895 14.684 10.1646 14.9953 10.6207 15.2259C10.8483 15.3409 11.0416 15.4373 11.1844 15.5069C11.2552 15.5414 11.3184 15.5716 11.3692 15.5949C11.394 15.6063 11.4222 15.6189 11.4499 15.6305C11.4636 15.6362 11.4832 15.6442 11.5057 15.6525C11.5191 15.6574 11.5712 15.6768 11.6381 15.6921L12.0847 13.7426C12.147 13.7569 12.1925 13.7741 12.1973 13.7759C12.2111 13.781 12.22 13.7847 12.221 13.7851C12.2235 13.7862 12.2186 13.7842 12.203 13.777C12.1729 13.7632 12.1257 13.7407 12.0601 13.7088C11.9303 13.6456 11.7471 13.5542 11.5231 13.441C11.076 13.215 10.478 12.9076 9.84312 12.5766L8.91845 14.35ZM11.6379 15.6921C12.6907 15.9335 13.7023 15.251 13.9039 14.2072L11.9402 13.8279C11.9436 13.8104 11.9583 13.7822 11.9886 13.7622C12.0194 13.742 12.0572 13.7363 12.0849 13.7427L11.6379 15.6921ZM13.9039 14.2072C13.9706 13.8618 13.9138 13.5964 13.8443 13.2113L11.8761 13.5666C11.896 13.6766 11.91 13.756 11.9199 13.8169C11.9301 13.8791 11.9336 13.9081 11.9348 13.9201C11.9356 13.9284 11.9334 13.9101 11.935 13.8779C11.9367 13.8444 11.9414 13.8217 11.9402 13.8279L13.9039 14.2072ZM13.8443 13.2114C13.8128 13.0368 13.7423 12.642 13.6878 12.3344L11.7185 12.6836C11.7732 12.992 11.8441 13.3891 11.8761 13.5666L13.8443 13.2114ZM13.6878 12.3344C13.633 12.0256 13.5292 11.4437 13.4569 11.0408L11.4883 11.3938C11.5604 11.7958 11.664 12.3764 11.7185 12.6836L13.6878 12.3344ZM13.4569 11.0408C13.4219 10.8454 13.396 10.6974 13.3775 10.5827C13.3585 10.4652 13.3499 10.3987 13.3464 10.3614C13.3424 10.3181 13.3494 10.3541 13.3403 10.4247C13.335 10.466 13.3242 10.5191 13.3033 10.5788C13.2819 10.6397 13.2558 10.6906 13.2317 10.7301L11.5247 9.68785C11.3217 10.0204 11.3365 10.3496 11.3551 10.5479C11.3732 10.7411 11.4205 11.0159 11.4883 11.3938L13.4569 11.0408ZM13.2315 10.7303C13.1939 10.7919 13.1573 10.8355 13.1567 10.8362C13.1472 10.8479 13.1401 10.8559 13.1385 10.8578C13.1347 10.8621 13.1348 10.8618 13.1416 10.8545C13.1543 10.841 13.176 10.8182 13.2082 10.785C13.2716 10.7196 13.3635 10.6262 13.4781 10.5107C13.7068 10.2802 14.0186 9.96913 14.358 9.63341L12.9514 8.21155C12.6089 8.55041 12.2925 8.86605 12.0584 9.10198C11.9417 9.21961 11.8436 9.31928 11.7723 9.3928C11.7371 9.42907 11.7054 9.46221 11.6801 9.48927C11.6679 9.50227 11.6529 9.51851 11.6382 9.53522C11.6311 9.54329 11.6196 9.55649 11.6066 9.5724C11.6027 9.57726 11.5637 9.62397 11.5248 9.68766L13.2315 10.7303ZM14.358 9.63341C14.9991 8.99918 15.3598 8.64334 15.5591 8.41934C15.663 8.30247 15.7713 8.16931 15.8565 8.00992C15.9481 7.83839 15.9854 7.68364 15.9996 7.63002L14.0669 7.11555C14.0475 7.18852 14.06 7.12815 14.0923 7.06764C14.1182 7.01927 14.1326 7.01377 14.0648 7.09004C13.9204 7.25233 13.6255 7.54474 12.9514 8.21155L14.358 9.63341ZM15.9996 7.63009C16.1168 7.19007 16.0494 6.74861 15.8882 6.39221C15.7278 6.03751 15.4368 5.68523 15.008 5.48989L14.1788 7.30991C14.1311 7.28816 14.1023 7.26269 14.088 7.24733C14.0737 7.23213 14.0681 7.22112 14.0658 7.21616C14.0635 7.21107 14.0608 7.20336 14.0594 7.19048C14.058 7.17741 14.0574 7.15143 14.067 7.11547L15.9996 7.63009ZM15.008 5.48989C14.9077 5.44417 14.7856 5.38976 14.6013 5.34866C14.469 5.31914 14.3022 5.29663 14.1014 5.26912L13.8299 7.2506C13.9414 7.26589 14.0181 7.27654 14.0763 7.28539C14.1354 7.29438 14.1584 7.29902 14.1659 7.30068C14.1664 7.30081 14.1548 7.29797 14.1409 7.29281C14.1352 7.29071 14.1375 7.2911 14.1788 7.30991L15.008 5.48989ZM14.1013 5.26912C13.863 5.23646 13.4702 5.18234 13.2287 5.14887L12.9541 7.12993C13.1967 7.16355 13.5905 7.21782 13.8299 7.25061L14.1013 5.26912ZM13.2286 5.14886C12.9859 5.11524 12.4634 5.04335 12.0671 4.98907L11.7957 6.97057C12.1914 7.02477 12.7129 7.09652 12.9542 7.12994L13.2286 5.14886ZM12.0672 4.98908C11.8696 4.96201 11.6801 4.93588 11.5339 4.9156C11.4608 4.90545 11.3988 4.89682 11.3523 4.89028C11.329 4.88701 11.31 4.88432 11.2956 4.88226C11.2883 4.88122 11.2826 4.8804 11.2782 4.87976C11.2735 4.87907 11.2718 4.87881 11.272 4.87884L10.9708 6.85604C11.0299 6.86504 11.4053 6.91708 11.7957 6.97056L12.0672 4.98908ZM11.2723 4.87889C11.3116 4.88489 11.3344 4.89231 11.3383 4.89359C11.3446 4.89563 11.3475 4.89691 11.3496 4.89785C11.3506 4.89834 11.3617 4.90332 11.3812 4.91568C11.3914 4.92211 11.4087 4.93361 11.4306 4.95078C11.4509 4.96675 11.4867 4.99663 11.5274 5.04136L10.0481 6.38732C10.2174 6.57332 10.428 6.67549 10.5154 6.71558C10.6314 6.76881 10.7934 6.82895 10.9705 6.85599L11.2723 4.87889ZM11.5276 5.04152C11.5646 5.08218 11.5897 5.11676 11.5982 5.12868C11.6098 5.14474 11.6184 5.15775 11.623 5.1649C11.6323 5.17917 11.6385 5.18958 11.6399 5.19204C11.6434 5.19787 11.6436 5.19853 11.639 5.19011C11.6305 5.17471 11.616 5.14784 11.5948 5.10767C11.5531 5.02862 11.4936 4.91394 11.4201 4.77074C11.2736 4.48521 11.0762 4.09574 10.8635 3.67176L9.07578 4.56844C9.29041 4.99634 9.4907 5.39151 9.64075 5.68389C9.71555 5.82965 9.77908 5.95224 9.82612 6.04134C9.84929 6.08525 9.87065 6.12517 9.8883 6.15712C9.89672 6.17236 9.90761 6.19182 9.91916 6.21133C9.92467 6.22062 9.93425 6.23658 9.94627 6.25508C9.94741 6.25683 9.98706 6.32017 10.048 6.38716L11.5276 5.04152ZM10.8635 3.67177C10.5092 2.96532 10.3059 2.56195 10.1792 2.32451C10.0601 2.10116 9.95855 1.92277 9.79401 1.75823L8.3798 3.17245C8.31262 3.10527 8.29531 3.04221 8.41462 3.26586C8.52642 3.47543 8.71582 3.85076 9.07578 4.56843L10.8635 3.67177ZM9.79396 1.75818C9.52629 1.49056 9.21446 1.32648 8.8514 1.24952L8.43665 3.20604C8.44334 3.20746 8.44305 3.20781 8.43772 3.20592C8.43211 3.20393 8.4234 3.20035 8.41306 3.1948C8.40266 3.18923 8.39375 3.18334 8.38695 3.1782C8.38036 3.17322 8.37797 3.17062 8.37985 3.1725L9.79396 1.75818ZM8.8513 1.2495C8.77366 1.23305 8.64826 1.20693 8.5013 1.20352C8.35302 1.20008 8.22651 1.22072 8.14802 1.23387L8.47855 3.20637C8.49282 3.20398 8.50206 3.20253 8.50822 3.20163C8.51427 3.20074 8.5151 3.20071 8.5124 3.201C8.50942 3.20132 8.50215 3.20203 8.49172 3.20254C8.48099 3.20306 8.46854 3.2033 8.45491 3.20298C8.44131 3.20267 8.42909 3.20186 8.41882 3.20089C8.40886 3.19994 8.40214 3.19897 8.3998 3.19861C8.39771 3.19829 8.39913 3.19846 8.40571 3.19972C8.41238 3.201 8.4221 3.20296 8.43675 3.20606L8.8513 1.2495Z" fill="black" mask="url(#path-1-outside-1_2095_3024)"/>
</g>
<defs>
<filter id="filter0_d_2095_3024" x="0.945312" y="1.20312" width="15.1133" height="15.5938" filterUnits="userSpaceOnUse" color-interpolation-filters="sRGB">
<feFlood flood-opacity="0" result="BackgroundImageFix"/>
<feColorMatrix in="SourceAlpha" type="matrix" values="0 0 0 0 0 0 0 0 0 0 0 0 0 0 0 0 0 0 127 0" result="hardAlpha"/>
<feOffset dy="1"/>
<feComposite in2="hardAlpha" operator="out"/>
<feColorMatrix type="matrix" values="0 0 0 0 0 0 0 0 0 0 0 0 0 0 0 0 0 0 1 0"/>
<feBlend mode="normal" in2="BackgroundImageFix" result="effect1_dropShadow_2095_3024"/>
<feBlend mode="normal" in="SourceGraphic" in2="effect1_dropShadow_2095_3024" result="shape"/>
</filter>
</defs>
</svg>
