<svg width="36" height="29" viewBox="0 0 36 29" fill="none" xmlns="http://www.w3.org/2000/svg">
<g filter="url(#filter0_d_2007_1808)">
<path d="M8.13876 2.20559L8.14635 2.19322L8.15454 2.18124C8.33883 1.91141 8.56535 1.63927 8.95088 1.49882C9.29328 1.37409 9.68779 1.38343 10.1226 1.42064C10.1301 1.42118 10.1376 1.42173 10.1451 1.42227C10.6206 1.45701 11.0961 1.49175 11.5174 1.88252C11.7071 2.0585 11.8646 2.28523 12.0203 2.54466C12.1771 2.80584 12.3562 3.14234 12.5779 3.56187C12.8428 4.04219 13.0888 4.50969 13.2725 4.87135C13.3645 5.05251 13.442 5.20942 13.499 5.32936C13.5109 5.35433 13.5221 5.37827 13.5326 5.40094C13.5501 5.40697 13.5702 5.4135 13.593 5.42043C13.7589 5.47079 13.9992 5.52125 14.2746 5.55572L14.2777 5.55614C14.5769 5.59524 14.8523 5.64109 15.0566 5.68137C15.1574 5.70123 15.2486 5.72123 15.3195 5.7399C15.3523 5.74852 15.3962 5.76083 15.4388 5.7768C15.4565 5.78343 15.5001 5.80015 15.5486 5.82865C15.5709 5.84178 15.6222 5.87334 15.6752 5.92693C15.7158 5.96795 15.85 6.11397 15.85 6.35144C15.85 6.46271 15.8253 6.56602 15.8074 6.63164C15.7868 6.70741 15.7593 6.78772 15.7293 6.86755C15.669 7.02771 15.5863 7.21682 15.4917 7.41861C15.3016 7.82387 15.0481 8.31203 14.7875 8.78312C14.5272 9.25388 14.2542 9.7177 14.0237 10.073C13.9094 10.2492 13.7989 10.4092 13.7012 10.5327C13.6532 10.5933 13.5987 10.6574 13.5411 10.7131C13.5123 10.7409 13.4739 10.7752 13.4277 10.8077C13.3898 10.8343 13.3163 10.8816 13.2152 10.9103C13.0416 10.9613 12.6714 11.029 12.2537 11.0977C11.8099 11.1708 11.2607 11.2529 10.7062 11.3287C9.6105 11.4784 8.96628 11.6319 8.51871 11.8561C8.1065 12.0626 7.82612 12.3472 7.5157 12.8691L7.51578 12.8692L7.51019 12.8782C7.17524 13.4194 7.08325 13.8515 7.14599 14.2546C7.21138 14.6748 7.45914 15.158 7.99385 15.765C8.50788 16.3177 8.3597 17.2096 7.69128 17.5654L7.40939 17.0357L7.69128 17.5654L7.53188 17.6502L7.52534 17.6537L7.51871 17.657C6.91855 17.9576 6.29819 18.1006 5.70709 18.0112C5.10286 17.9197 4.59048 17.5938 4.21622 17.0748C4.1027 16.923 3.98473 16.7573 3.8982 16.5659C3.80452 16.3587 3.75818 16.1469 3.74746 15.9042C3.72832 15.4708 3.82606 14.8736 3.98334 13.9404L3.98334 13.9404L3.98374 13.9381C4.16922 12.863 3.80906 11.7546 3.029 10.9864L3.02898 10.9864L3.02536 10.9828C2.41227 10.3686 1.99527 9.93014 1.74533 9.52422C1.46221 9.0644 1.4 8.66209 1.4 8.17968C1.4 7.49476 1.57839 6.88437 2.15079 6.45187C2.65749 6.06903 3.39484 5.89462 4.299 5.78131C4.93057 5.69906 5.37599 5.64057 5.71443 5.57526C6.05374 5.50978 6.23019 5.44679 6.34305 5.38143C6.54994 5.26161 6.65466 5.08723 7.06058 4.26046C7.43731 3.48063 7.92242 2.55775 8.13876 2.20559Z" fill="white" stroke="black" stroke-width="1.2"/>
<path d="M31.0861 5.68251C32.2861 5.85427 33.1679 6.03334 33.7378 6.39114C34.0514 6.58802 34.2839 6.84458 34.4268 7.1765C34.5628 7.49217 34.6 7.83557 34.6 8.17968C34.6 8.66209 34.5378 9.06439 34.2547 9.52422C34.0047 9.93013 33.5877 10.3686 32.9746 10.9828L32.9747 10.9828L32.971 10.9864C32.1909 11.7546 31.8308 12.863 32.0163 13.9381L32.0167 13.9404C32.1739 14.8736 32.2717 15.4708 32.2525 15.9042C32.2418 16.1469 32.1955 16.3587 32.1018 16.5659C32.0153 16.7573 31.8973 16.923 31.7838 17.0748C31.4095 17.5938 30.8971 17.9197 30.2929 18.0112C29.7018 18.1006 29.0814 17.9576 28.4813 17.657L28.4813 17.657L28.4744 17.6535C27.7359 17.2716 27.54 16.3046 28.0717 15.6654L28.1387 15.5848C28.9001 14.6696 28.9947 13.7177 28.5837 13.0183C28.2336 12.4304 27.9205 12.1032 27.4498 11.8638C26.9433 11.6061 26.2121 11.4279 24.9667 11.2533L24.9667 11.2534L24.955 11.2515C24.3272 11.1509 23.7344 11.0498 23.2903 10.9672C23.0691 10.9261 22.8797 10.8885 22.7396 10.8573C22.6707 10.8419 22.6054 10.8262 22.5513 10.8107C22.5253 10.8033 22.4912 10.7929 22.4563 10.7795C22.4391 10.7729 22.4124 10.762 22.3821 10.7464C22.3619 10.7359 22.2933 10.7002 22.2254 10.6322L22.2091 10.6159L22.1941 10.5984C22.1464 10.5426 22.1061 10.4746 22.089 10.4457L22.0878 10.4436C22.0617 10.3997 22.0316 10.346 21.999 10.2865C21.9335 10.1668 21.8503 10.0091 21.7569 9.82842C21.5695 9.46615 21.335 9.00015 21.1058 8.53622C20.8767 8.07245 20.6513 7.6075 20.4825 7.24751C20.3984 7.06819 20.3265 6.91088 20.2748 6.79136C20.2493 6.73241 20.226 6.67643 20.2081 6.62889C20.1994 6.60573 20.1891 6.57703 20.1802 6.54704C20.1801 6.54672 20.1799 6.54623 20.1797 6.54557C20.1755 6.53208 20.15 6.44971 20.15 6.35144C20.15 5.97095 20.4545 5.80141 20.511 5.77117C20.6122 5.71705 20.7169 5.68948 20.7909 5.67376C20.9493 5.6401 21.1382 5.62621 21.325 5.62621C21.886 5.62621 22.1237 5.55223 22.2997 5.42041C22.5056 5.26617 22.7219 4.96406 23.0594 4.26299L23.0597 4.26223C23.4366 3.48203 23.9223 2.55802 24.1388 2.20559L24.1464 2.19322L31 6.2763M31.0861 5.68251C31.0857 5.68246 31.0854 5.68241 31.085 5.68236L31 6.2763M31.0861 5.68251C31.0864 5.68255 31.0867 5.6826 31.087 5.68265L31 6.2763M31.0861 5.68251C30.8524 5.64824 30.627 5.60995 30.4188 5.57027C29.8092 5.4541 29.3606 5.02972 28.9984 4.34197C28.8694 4.0972 28.7267 3.83168 28.578 3.56191M31 6.2763C30.7575 6.24075 30.5233 6.20098 30.3065 6.15967C29.4476 5.99598 28.875 5.39521 28.4675 4.62159C28.3395 4.37851 28.1977 4.11473 28.05 3.847M28.578 3.56191C28.5788 3.56349 28.5796 3.56507 28.5805 3.56665L28.05 3.847M28.578 3.56191C28.5771 3.56033 28.5762 3.55875 28.5754 3.55718L28.05 3.847M28.578 3.56191L28.05 3.847M26.1226 1.42064C26.1239 1.42074 26.1251 1.42085 26.1263 1.42095L26.075 2.01875L26.1189 1.42036C26.1201 1.42045 26.1214 1.42055 26.1226 1.42064Z" fill="white" stroke="black" stroke-width="1.2"/>
<path d="M20.5 6.00299C21 7.00299 22.5 10.0397 22.65 10.215C22.7 10.2651 23.8 10.4655 25.05 10.6658C27.55 11.0164 28.325 11.4171 29.1 12.7195C29.675 13.6962 29.475 14.9234 28.6 15.9752L27.975 16.7266" stroke="black" stroke-width="0.6"/>
<path d="M15.5 5.99875C14.9997 6.99842 13.4989 10.0341 13.3489 10.2094C13.2988 10.2594 12.1982 10.4597 10.9476 10.66C8.44625 11.0105 7.67084 11.4111 6.89543 12.713C6.32012 13.6894 6.52023 14.9162 7.3957 15.9677L8.02103 16.7188" stroke="black" stroke-width="0.6"/>
<path d="M14.4617 8.4501L14.4616 8.45006L14.466 8.44141C14.7855 7.80124 15.1316 7.17794 15.436 6.6849C15.5878 6.43892 15.7332 6.21905 15.8626 6.04326C15.9769 5.888 16.1221 5.70576 16.2745 5.59475C16.5018 5.42912 16.8057 5.31809 17.0834 5.24767C17.3732 5.17418 17.6979 5.12907 18.0028 5.12907C18.3582 5.12907 18.7029 5.1591 19.0345 5.27002C19.376 5.38422 19.6708 5.57293 19.9446 5.84523C20.4587 6.3565 20.9243 7.19615 21.5407 8.44354L21.5407 8.44352L21.5439 8.4501C21.8361 9.06001 22.144 9.62146 22.4012 10.0302C22.5309 10.2362 22.6402 10.3915 22.7224 10.492C22.7377 10.5107 22.7507 10.5259 22.7615 10.5379C22.7957 10.5457 22.8498 10.5573 22.9287 10.5723C23.0743 10.5999 23.2671 10.6324 23.4951 10.6679C23.9503 10.7388 24.5317 10.8194 25.1273 10.8939L25.1274 10.8939L25.1326 10.8946C26.3556 11.0588 27.2761 11.2759 27.9303 11.6371C28.6356 12.0265 29.0183 12.5762 29.1657 13.2977L29.1658 13.2977L29.1677 13.3082C29.2931 13.9831 29.2144 14.5838 28.825 15.2721C28.4626 15.9128 27.8282 16.6333 26.8804 17.5953C26.8803 17.5953 26.8803 17.5954 26.8802 17.5955L25.3181 19.1824L25.6695 21.3828C25.6697 21.3836 25.6698 21.3844 25.67 21.3852C25.7067 21.6046 25.7413 21.8084 25.7734 21.9978C25.8545 22.4763 25.9199 22.8625 25.9665 23.1742C26.0306 23.6026 26.0682 23.9448 26.0518 24.2306C26.0334 24.551 25.9478 24.8011 25.7902 25.041C25.6911 25.1919 25.552 25.3505 25.4179 25.5035C25.3812 25.5453 25.3449 25.5866 25.3099 25.6273C25.0475 25.9395 24.7535 26.2066 24.3931 26.382C24.0238 26.5617 23.6264 26.6249 23.1911 26.5914C22.367 26.5279 21.3489 26.1081 19.9841 25.4245L18.0028 24.4321L16.0215 25.4245C14.6567 26.1081 13.6386 26.5279 12.8145 26.5914C12.3792 26.6249 11.9818 26.5617 11.6125 26.382C11.2521 26.2066 10.9581 25.9394 10.6956 25.6273C10.6606 25.5866 10.6244 25.5452 10.5877 25.5035C10.4536 25.3505 10.3145 25.1919 10.2154 25.041C10.0578 24.8011 9.9722 24.551 9.95379 24.2306C9.93737 23.9448 9.97504 23.6026 10.0391 23.1742C10.0857 22.8625 10.1511 22.4762 10.2322 21.9977C10.2643 21.8083 10.2989 21.6045 10.3357 21.3851L10.6875 19.1824L9.1254 17.5955C9.12533 17.5954 9.12527 17.5953 9.12521 17.5953C8.17741 16.6333 7.54297 15.9128 7.18056 15.2721C6.79119 14.5838 6.71255 13.9831 6.83789 13.3082L6.83779 13.3081L6.83993 13.2977C6.98725 12.5762 7.37 12.0265 8.0753 11.6371C8.72948 11.2759 9.65001 11.0588 10.873 10.8946L10.873 10.8946L10.8782 10.8939C11.4739 10.8194 12.0553 10.7388 12.5105 10.6679C12.7385 10.6324 12.9313 10.5999 13.0769 10.5723C13.1558 10.5573 13.2099 10.5457 13.2441 10.5379C13.2549 10.5259 13.2679 10.5107 13.2832 10.492C13.3654 10.3915 13.4747 10.2362 13.6044 10.0302C13.8616 9.62146 14.1695 9.06001 14.4617 8.4501ZM22.7976 10.5754C22.8068 10.5836 22.8058 10.5812 22.7953 10.5734C22.7962 10.5741 22.7969 10.5748 22.7976 10.5754ZM13.208 10.5754C13.2087 10.5748 13.2094 10.5741 13.2103 10.5734C13.1998 10.5812 13.1988 10.5836 13.208 10.5754Z" fill="white" stroke="black" stroke-width="1.2"/>
</g>
<defs>
<filter id="filter0_d_2007_1808" x="0.796875" y="0.796875" width="34.4062" height="27.6063" filterUnits="userSpaceOnUse" color-interpolation-filters="sRGB">
<feFlood flood-opacity="0" result="BackgroundImageFix"/>
<feColorMatrix in="SourceAlpha" type="matrix" values="0 0 0 0 0 0 0 0 0 0 0 0 0 0 0 0 0 0 127 0" result="hardAlpha"/>
<feOffset dy="1.2"/>
<feComposite in2="hardAlpha" operator="out"/>
<feColorMatrix type="matrix" values="0 0 0 0 0 0 0 0 0 0 0 0 0 0 0 0 0 0 1 0"/>
<feBlend mode="normal" in2="BackgroundImageFix" result="effect1_dropShadow_2007_1808"/>
<feBlend mode="normal" in="SourceGraphic" in2="effect1_dropShadow_2007_1808" result="shape"/>
</filter>
</defs>
</svg>
