<svg width="32" height="32" viewBox="0 0 32 32" fill="none" xmlns="http://www.w3.org/2000/svg">
<g filter="url(#filter0_d_2132_391)">
<path fill-rule="evenodd" clip-rule="evenodd" d="M12.2054 5.27378C13.4112 4.93273 14.6843 4.75 16.0013 4.75C17.3183 4.75 18.5914 4.93273 19.7972 5.27378C20.1958 5.38651 20.6103 5.15478 20.723 4.75621C20.8357 4.35763 20.604 3.94313 20.2054 3.8304C18.8681 3.45216 17.4577 3.25 16.0013 3.25C14.5449 3.25 13.1345 3.45216 11.7972 3.8304C11.3986 3.94313 11.1669 4.35763 11.2796 4.75621C11.3923 5.15478 11.8068 5.38651 12.2054 5.27378ZM27.3346 18C27.3346 24.2592 22.2605 29.3333 16.0013 29.3333C9.74207 29.3333 4.66797 24.2592 4.66797 18C4.66797 11.7408 9.74207 6.66667 16.0013 6.66667C22.2605 6.66667 27.3346 11.7408 27.3346 18ZM17.0013 12C17.0013 11.4477 16.5536 11 16.0013 11C15.449 11 15.0013 11.4477 15.0013 12V16.9342C14.4035 17.28 14.0013 17.9264 14.0013 18.6667C14.0013 19.7712 14.8967 20.6667 16.0013 20.6667C17.1059 20.6667 18.0013 19.7712 18.0013 18.6667C18.0013 17.9264 17.5991 17.28 17.0013 16.9342V12Z" fill="white"/>
<path d="M12.2054 5.27378L12.2735 5.51434L12.2054 5.27378ZM19.7972 5.27378L19.7291 5.51434V5.51434L19.7972 5.27378ZM20.2054 3.8304L20.1374 4.07096L20.2054 3.8304ZM11.7972 3.8304L11.8652 4.07096V4.07096L11.7972 3.8304ZM11.2796 4.75621L11.0391 4.82425V4.82425L11.2796 4.75621ZM15.0013 16.9342L15.1265 17.1506L15.2513 17.0784V16.9342H15.0013ZM17.0013 16.9342H16.7513V17.0784L16.8761 17.1506L17.0013 16.9342ZM16.0013 4.5C14.6611 4.5 13.3651 4.68597 12.1374 5.03321L12.2735 5.51434C13.4573 5.1795 14.7075 5 16.0013 5V4.5ZM19.8652 5.03321C18.6375 4.68597 17.3415 4.5 16.0013 4.5V5C17.2951 5 18.5453 5.1795 19.7291 5.51434L19.8652 5.03321ZM20.4824 4.68817C20.4073 4.95388 20.1309 5.10837 19.8652 5.03321L19.7291 5.51434C20.2606 5.66465 20.8132 5.35568 20.9636 4.82425L20.4824 4.68817ZM20.1374 4.07096C20.4031 4.14612 20.5576 4.42245 20.4824 4.68817L20.9636 4.82425C21.1139 4.29281 20.8049 3.74014 20.2735 3.58983L20.1374 4.07096ZM16.0013 3.5C17.4345 3.5 18.822 3.69892 20.1374 4.07096L20.2735 3.58983C18.9142 3.20539 17.4809 3 16.0013 3V3.5ZM11.8652 4.07096C13.1806 3.69892 14.5681 3.5 16.0013 3.5V3C14.5217 3 13.0884 3.20539 11.7291 3.58983L11.8652 4.07096ZM11.5202 4.68817C11.445 4.42245 11.5995 4.14612 11.8652 4.07096L11.7291 3.58983C11.1977 3.74014 10.8887 4.29281 11.0391 4.82425L11.5202 4.68817ZM12.1374 5.03321C11.8717 5.10837 11.5953 4.95389 11.5202 4.68817L11.0391 4.82425C11.1894 5.35568 11.742 5.66465 12.2735 5.51434L12.1374 5.03321ZM16.0013 29.5833C22.3986 29.5833 27.5846 24.3973 27.5846 18H27.0846C27.0846 24.1212 22.1225 29.0833 16.0013 29.0833V29.5833ZM4.41797 18C4.41797 24.3973 9.604 29.5833 16.0013 29.5833V29.0833C9.88015 29.0833 4.91797 24.1212 4.91797 18H4.41797ZM16.0013 6.41667C9.604 6.41667 4.41797 11.6027 4.41797 18H4.91797C4.91797 11.8788 9.88015 6.91667 16.0013 6.91667V6.41667ZM27.5846 18C27.5846 11.6027 22.3986 6.41667 16.0013 6.41667V6.91667C22.1225 6.91667 27.0846 11.8788 27.0846 18H27.5846ZM16.0013 11.25C16.4155 11.25 16.7513 11.5858 16.7513 12H17.2513C17.2513 11.3096 16.6917 10.75 16.0013 10.75V11.25ZM15.2513 12C15.2513 11.5858 15.5871 11.25 16.0013 11.25V10.75C15.3109 10.75 14.7513 11.3096 14.7513 12H15.2513ZM15.2513 16.9342V12H14.7513V16.9342H15.2513ZM14.2513 18.6667C14.2513 18.0192 14.6028 17.4536 15.1265 17.1506L14.8761 16.7178C14.2042 17.1065 13.7513 17.8335 13.7513 18.6667H14.2513ZM16.0013 20.4167C15.0348 20.4167 14.2513 19.6332 14.2513 18.6667H13.7513C13.7513 19.9093 14.7587 20.9167 16.0013 20.9167V20.4167ZM17.7513 18.6667C17.7513 19.6332 16.9678 20.4167 16.0013 20.4167V20.9167C17.2439 20.9167 18.2513 19.9093 18.2513 18.6667H17.7513ZM16.8761 17.1506C17.3998 17.4536 17.7513 18.0192 17.7513 18.6667H18.2513C18.2513 17.8335 17.7984 17.1065 17.1265 16.7178L16.8761 17.1506ZM16.7513 12V16.9342H17.2513V12H16.7513Z" fill="black"/>
</g>
<defs>
<filter id="filter0_d_2132_391" x="0" y="0" width="32" height="34" filterUnits="userSpaceOnUse" color-interpolation-filters="sRGB">
<feFlood flood-opacity="0" result="BackgroundImageFix"/>
<feColorMatrix in="SourceAlpha" type="matrix" values="0 0 0 0 0 0 0 0 0 0 0 0 0 0 0 0 0 0 127 0" result="hardAlpha"/>
<feOffset dy="2"/>
<feColorMatrix type="matrix" values="0 0 0 0 0 0 0 0 0 0 0 0 0 0 0 0 0 0 1 0"/>
<feBlend mode="normal" in2="BackgroundImageFix" result="effect1_dropShadow_2132_391"/>
<feBlend mode="normal" in="SourceGraphic" in2="effect1_dropShadow_2132_391" result="shape"/>
</filter>
</defs>
</svg>
