<svg width="24" height="24" viewBox="0 0 24 24" fill="none" xmlns="http://www.w3.org/2000/svg">
<path d="M8.27564 19.9795C8.1565 19.8881 7.96422 19.829 7.82596 19.7571C7.57776 19.6254 7.33551 19.4836 7.09921 19.3316C5.75266 18.4693 4.69863 17.2547 3.97797 15.8316C3.94557 15.7668 3.91396 15.7016 3.88314 15.6361C3.85233 15.5705 3.82232 15.5046 3.79312 15.4383C3.76392 15.372 3.73553 15.3053 3.70795 15.2384C3.68035 15.1714 3.65359 15.104 3.62765 15.0364C3.60171 14.9687 3.5766 14.9008 3.55232 14.8326C3.52803 14.7643 3.50457 14.6957 3.48196 14.6269C3.45934 14.5581 3.43757 14.489 3.41664 14.4197C3.39571 14.3503 3.37562 14.2807 3.35639 14.2108C3.33714 14.141 3.31875 14.0709 3.30121 14.0006C3.28368 13.9303 3.26701 13.8598 3.2512 13.7891C3.23539 13.7184 3.22044 13.6476 3.20636 13.5765C3.19227 13.5054 3.17905 13.4342 3.16671 13.3628C3.15436 13.2914 3.14289 13.2199 3.13228 13.1482C3.12167 13.0766 3.11193 13.0048 3.10307 12.9329C3.09421 12.861 3.08623 12.789 3.07912 12.7169C3.07201 12.6448 3.06578 12.5726 3.06044 12.5004C3.0551 12.4281 3.05064 12.3558 3.04706 12.2835C3.04346 12.2111 3.04076 12.1387 3.03895 12.0663C3.03712 11.9939 3.03618 11.9214 3.03614 11.849C3.03607 11.7765 3.03689 11.7041 3.0386 11.6317C3.04032 11.5592 3.04291 11.4868 3.04638 11.4145C3.04985 11.3421 3.0542 11.2698 3.05943 11.1976C3.06467 11.1253 3.07078 11.0531 3.07778 10.981C3.08477 10.9089 3.09264 10.8369 3.10139 10.765C3.11014 10.6931 3.11976 10.6212 3.13026 10.5496C3.14076 10.4779 3.15213 10.4064 3.16436 10.3349C3.1766 10.2635 3.18971 10.1923 3.20369 10.1212C3.21766 10.0501 3.2325 9.97921 3.2482 9.90847C3.2639 9.83776 3.28046 9.76723 3.29789 9.6969C3.31531 9.62659 3.33358 9.5565 3.35271 9.48662C3.37185 9.41675 3.39182 9.34712 3.41264 9.27772C3.43346 9.20833 3.45514 9.13921 3.47765 9.07035C3.50048 9.00052 3.52415 8.93098 3.54867 8.86173C3.5732 8.79247 3.59857 8.72352 3.62477 8.6549C3.65099 8.58627 3.67803 8.51797 3.70591 8.44998C3.73378 8.38201 3.76249 8.3144 3.79202 8.24713C3.82157 8.17987 3.85193 8.11297 3.8831 8.04644C3.91425 7.97992 3.94623 7.91379 3.97903 7.84804C4.01181 7.78229 4.04539 7.71695 4.07978 7.65203C4.11418 7.58711 4.14935 7.52261 4.1853 7.45855C4.22127 7.39449 4.25801 7.33088 4.29553 7.26772C4.33304 7.20455 4.37133 7.14186 4.41039 7.07964C4.44944 7.0174 4.48925 6.95566 4.52981 6.89441C4.57037 6.83316 4.61168 6.77241 4.65372 6.71216C4.69577 6.65193 4.73854 6.59221 4.78204 6.53301C4.82556 6.4738 4.86978 6.41515 4.91472 6.35704C4.95968 6.29893 5.00532 6.24137 5.05167 6.18437C5.09803 6.12737 5.14507 6.07094 5.19278 6.01508C5.24052 5.95924 5.28893 5.90398 5.338 5.84931C5.3871 5.79465 5.43685 5.7406 5.48725 5.68715C5.53764 5.63369 5.58869 5.58087 5.64039 5.52869C5.69208 5.47648 5.74441 5.42492 5.79738 5.374C5.85033 5.32308 5.9039 5.27281 5.95809 5.2232C6.01228 5.17359 6.06706 5.12465 6.12243 5.07639C6.17782 5.02811 6.23379 4.98052 6.29034 4.93363C6.34689 4.88672 6.404 4.84052 6.46167 4.79502C6.51935 4.74951 6.57758 4.70471 6.63635 4.66063C6.69511 4.61655 6.75442 4.5732 6.81426 4.53058C6.87409 4.48795 6.93443 4.44606 6.99529 4.4049C7.05615 4.36375 7.1175 4.32334 7.17935 4.28369C7.24119 4.24403 7.30351 4.20514 7.36631 4.16701C7.42911 4.12887 7.49235 4.09151 7.55606 4.05494C7.61978 4.01836 7.68392 3.98256 7.7485 3.94754C7.8131 3.91253 7.8781 3.87831 7.94353 3.84489C8.00054 3.81583 8.05786 3.78738 8.11549 3.75955C8.17311 3.73174 8.23103 3.70454 8.28923 3.67794C8.34745 3.65137 8.40594 3.62542 8.46471 3.60011C8.52347 3.57478 8.5825 3.55009 8.6418 3.52604C8.70111 3.50198 8.76067 3.47857 8.82046 3.4558C8.88026 3.43302 8.9403 3.4109 9.00058 3.38943C9.06086 3.36794 9.12136 3.34711 9.18208 3.32692C9.24282 3.30675 9.30375 3.28722 9.36489 3.26835C9.42605 3.24949 9.48739 3.23128 9.54893 3.21372C9.61047 3.19617 9.67219 3.17929 9.73408 3.16307C9.79599 3.14683 9.85806 3.13128 9.92029 3.1164C9.98253 3.10151 10.0449 3.08729 10.1075 3.07375C10.17 3.0602 10.2327 3.04733 10.2955 3.03512C10.3583 3.02292 10.4213 3.0114 10.4843 3.00055C10.5474 2.98971 10.6106 2.97954 10.6739 2.97006C10.7371 2.96058 10.8005 2.95177 10.864 2.94365C10.9275 2.93552 10.991 2.92808 11.0546 2.92131C11.1183 2.91456 11.182 2.90849 11.2458 2.9031C11.3095 2.89771 11.3733 2.89301 11.4372 2.88899C11.5011 2.88497 11.565 2.88165 11.6289 2.87901C11.6928 2.87637 11.7568 2.87441 11.8208 2.87315C11.8848 2.87188 11.9487 2.8713 12.0127 2.87141C12.0767 2.87152 12.1407 2.87232 12.2047 2.8738C12.2687 2.87529 12.3326 2.87746 12.3965 2.88032C12.4605 2.88318 12.5243 2.88672 12.5882 2.89096C12.6521 2.89519 12.7158 2.90012 12.7796 2.90572C12.8433 2.91133 12.907 2.91763 12.9706 2.92462C13.0342 2.93158 13.0978 2.93924 13.1612 2.94758C13.2247 2.95593 13.288 2.96495 13.3513 2.97465C13.4145 2.98436 13.4777 2.99474 13.5407 3.0058C13.6037 3.01686 13.6666 3.02861 13.7294 3.04103C13.7922 3.05344 13.8548 3.06652 13.9173 3.08029C14.252 3.15381 14.5811 3.25431 14.9062 3.36163C17.1125 4.08988 18.9325 5.74984 19.9704 7.81265C20.0038 7.87871 20.0364 7.94518 20.0681 8.01205C20.0998 8.07893 20.1307 8.14618 20.1608 8.2138C20.1909 8.28143 20.2202 8.34941 20.2486 8.41776C20.277 8.4861 20.3046 8.55478 20.3313 8.6238C20.358 8.69281 20.3839 8.76215 20.4089 8.8318C20.434 8.90146 20.4582 8.97141 20.4815 9.04166C20.5048 9.11191 20.5272 9.18244 20.5488 9.25323C20.5704 9.32404 20.5911 9.3951 20.611 9.4664C20.6308 9.53771 20.6498 9.60926 20.6678 9.68104C20.6859 9.7528 20.7031 9.82479 20.7194 9.89699C20.7358 9.96918 20.7512 10.0416 20.7657 10.1141C20.7803 10.1867 20.7939 10.2595 20.8067 10.3324C20.8194 10.4053 20.8313 10.4783 20.8423 10.5515C20.8532 10.6247 20.8633 10.6981 20.8725 10.7715C20.8816 10.8449 20.8899 10.9185 20.8973 10.9922C20.9046 11.0658 20.9111 11.1395 20.9166 11.2133C20.9222 11.2871 20.9268 11.361 20.9305 11.4349C20.9343 11.5089 20.9371 11.5828 20.9391 11.6568C20.941 11.7308 20.942 11.8048 20.9421 11.8788C20.9422 11.9528 20.9414 12.0268 20.9397 12.1008C20.938 12.1748 20.9354 12.2488 20.9319 12.3227C20.9283 12.3967 20.9239 12.4705 20.9186 12.5444C20.9132 12.6182 20.907 12.6919 20.8998 12.7656C20.8927 12.8393 20.8846 12.9129 20.8757 12.9863C20.8668 13.0598 20.8569 13.1332 20.8462 13.2064C20.8354 13.2796 20.8237 13.3527 20.8112 13.4256C20.7987 13.4986 20.7852 13.5714 20.7709 13.644C20.7565 13.7166 20.7413 13.789 20.7252 13.8613C20.7091 13.9335 20.6921 14.0056 20.6743 14.0774C20.6564 14.1492 20.6376 14.2208 20.618 14.2922C20.5984 14.3635 20.5779 14.4347 20.5565 14.5055C20.5351 14.5764 20.5128 14.647 20.4897 14.7173C19.6854 17.1459 17.9306 18.8371 15.6789 19.9657C15.1861 20.1689 14.7077 20.3553 14.1904 20.491C14.1316 20.5061 14.0726 20.5207 14.0135 20.5347C13.9544 20.5486 13.8952 20.562 13.8358 20.5748C13.7765 20.5875 13.717 20.5997 13.6574 20.6113C13.5977 20.6228 13.538 20.6337 13.4782 20.6441C13.4183 20.6544 13.3584 20.6642 13.2984 20.6733C13.2383 20.6824 13.1782 20.6909 13.118 20.6988C13.0578 20.7067 12.9975 20.714 12.9371 20.7207C12.8768 20.7274 12.8163 20.7335 12.7559 20.7389C12.6954 20.7444 12.6349 20.7492 12.5743 20.7534C12.5137 20.7576 12.4531 20.7612 12.3924 20.7642C12.3318 20.7672 12.2711 20.7696 12.2104 20.7713C12.1497 20.7731 12.089 20.7742 12.0283 20.7748C11.9675 20.7753 11.9068 20.7752 11.8461 20.7745C11.7854 20.7738 11.7247 20.7724 11.6639 20.7705C11.6032 20.7685 11.5426 20.766 11.4819 20.7628C11.4213 20.7596 11.3607 20.7558 11.3001 20.7514C11.2396 20.747 11.1791 20.742 11.1186 20.7363C11.0581 20.7307 10.9977 20.7244 10.9374 20.7176C10.877 20.7107 10.8168 20.7032 10.7566 20.6951C10.6964 20.687 10.6363 20.6783 10.5763 20.669C10.5163 20.6597 10.4564 20.6498 10.3966 20.6392C10.3368 20.6287 10.2771 20.6176 10.2175 20.6058C10.1579 20.5941 10.0984 20.5817 10.0391 20.5688C9.97979 20.5558 9.9206 20.5423 9.86156 20.5281C9.8025 20.514 9.74359 20.4992 9.68484 20.4839C9.62609 20.4685 9.5675 20.4526 9.50906 20.436C9.45064 20.4195 9.39238 20.4023 9.33428 20.3846C9.27621 20.3669 9.21832 20.3486 9.16061 20.3297C9.10289 20.3107 9.04538 20.2913 8.98807 20.2712C8.93075 20.2511 8.87365 20.2305 8.81676 20.2092C8.75987 20.188 8.7032 20.1662 8.64675 20.1438C8.59029 20.1214 8.53407 20.0985 8.47809 20.0749C8.40942 20.0462 8.33969 20.0176 8.27564 19.9795Z" fill="#5C4635"/>
<path d="M19.7909 12.6446C19.9248 12.6005 20.3348 12.2178 20.4774 12.1046C20.4496 12.5399 20.4137 12.9708 20.3351 13.4005C19.9864 15.3071 19.0037 16.9846 17.5517 18.2627C17.4993 18.3086 17.4463 18.3539 17.3927 18.3985C17.3392 18.4431 17.2851 18.4871 17.2305 18.5304C17.1758 18.5737 17.1207 18.6163 17.065 18.6582C17.0093 18.7001 16.9531 18.7414 16.8964 18.7819C16.8397 18.8224 16.7825 18.8623 16.7248 18.9014C16.6671 18.9405 16.609 18.9789 16.5503 19.0166C16.4917 19.0543 16.4326 19.0913 16.3731 19.1275C16.3135 19.1637 16.2535 19.1992 16.1931 19.234C16.1327 19.2687 16.0718 19.3027 16.0106 19.336C15.9493 19.3692 15.8876 19.4017 15.8256 19.4335C15.7635 19.4652 15.7011 19.4961 15.6382 19.5263C15.5754 19.5565 15.5122 19.5859 15.4487 19.6145C15.3851 19.6432 15.3212 19.671 15.257 19.698C15.1927 19.7251 15.1281 19.7513 15.0632 19.7768C14.9984 19.8023 14.9332 19.8269 14.8677 19.8508C14.8022 19.8746 14.7364 19.8976 14.6703 19.9199C14.6042 19.9421 14.5379 19.9635 14.4713 19.9841C14.4047 20.0046 14.3379 20.0244 14.2708 20.0433C14.2037 20.0622 14.1364 20.0804 14.0688 20.0976C14.0013 20.1149 13.9336 20.1313 13.8656 20.1469C13.7977 20.1625 13.7296 20.1773 13.6613 20.1912C13.593 20.2051 13.5245 20.2182 13.4559 20.2304C13.3873 20.2426 13.3185 20.254 13.2496 20.2646C13.1807 20.2751 13.1117 20.2847 13.0425 20.2936C12.9734 20.3024 12.9041 20.3104 12.8348 20.3175C12.7654 20.3246 12.696 20.3309 12.6265 20.3362C12.557 20.3417 12.4875 20.3462 12.4179 20.3499C12.3483 20.3536 12.2786 20.3564 12.209 20.3583C12.1393 20.3603 12.0696 20.3614 11.9999 20.3617C11.9302 20.3619 11.8605 20.3613 11.7908 20.3598C11.7211 20.3583 11.6514 20.356 11.5818 20.3528C11.5122 20.3496 11.4426 20.3456 11.3731 20.3406C9.86472 20.2455 8.32883 19.6808 7.0974 18.8102C6.79044 18.5932 6.51048 18.354 6.23413 18.0996C6.5466 18.0499 6.71483 17.9829 7.00471 17.8926C7.21923 18.0324 7.42152 18.1909 7.63766 18.328C8.49142 18.8694 9.42843 19.2741 10.4283 19.4476C12.0739 19.7332 13.6197 19.6082 15.1543 18.9261C15.5882 18.7333 16.0084 18.5102 16.3967 18.2357C16.4441 18.2028 16.4913 18.1693 16.538 18.1354C16.5848 18.1015 16.6312 18.0671 16.6772 18.0322C16.7232 17.9973 16.7689 17.9619 16.8141 17.926C16.8594 17.8901 16.9043 17.8537 16.9487 17.8168C16.9932 17.78 17.0373 17.7426 17.081 17.7048C17.1247 17.667 17.1679 17.6287 17.2108 17.59C17.2536 17.5512 17.2961 17.5121 17.3381 17.4724C17.3801 17.4327 17.4217 17.3926 17.4628 17.3521C17.504 17.3115 17.5447 17.2706 17.585 17.2291C17.6252 17.1877 17.665 17.1459 17.7044 17.1036C17.7438 17.0613 17.7827 17.0186 17.8212 16.9755C17.8596 16.9324 17.8976 16.8889 17.9351 16.845C17.9726 16.801 18.0097 16.7567 18.0462 16.712C18.0828 16.6672 18.1189 16.6221 18.1545 16.5766C18.1901 16.5311 18.2252 16.4853 18.2598 16.439C18.2944 16.3927 18.3285 16.3461 18.3621 16.2991C18.3957 16.2521 18.4288 16.2048 18.4614 16.1571C18.494 16.1094 18.526 16.0614 18.5576 16.013C18.5892 15.9646 18.6202 15.9158 18.6507 15.8668C18.6812 15.8177 18.7112 15.7684 18.7406 15.7187C18.7701 15.669 18.799 15.6189 18.8274 15.5686C18.8557 15.5183 18.8836 15.4677 18.9108 15.4168C18.9381 15.3658 18.9649 15.3146 18.991 15.2631C19.0172 15.2116 19.0429 15.1599 19.0679 15.1078C19.093 15.0558 19.1175 15.0035 19.1414 14.9509C19.1654 14.8983 19.1888 14.8455 19.2116 14.7924C19.2344 14.7394 19.2566 14.686 19.2783 14.6325C19.3 14.5789 19.3211 14.5251 19.3416 14.4711C19.3621 14.4171 19.382 14.3629 19.4013 14.3085C19.4207 14.254 19.4394 14.1994 19.4576 14.1446C19.4758 14.0897 19.4933 14.0347 19.5103 13.9795C19.5273 13.9243 19.5437 13.8689 19.5595 13.8133C19.6676 13.425 19.723 13.0409 19.7909 12.6446Z" fill="#B46930"/>
<path d="M18.1072 5.91425C18.5013 6.29332 18.8271 6.72162 19.1218 7.18097C19.1482 7.22144 19.1743 7.26213 19.2 7.30303C19.2257 7.34396 19.2511 7.38509 19.2761 7.42643C19.3011 7.46779 19.3257 7.50935 19.35 7.55112C19.3743 7.5929 19.3982 7.63489 19.4218 7.67707C19.4453 7.71926 19.4685 7.76165 19.4913 7.80425C19.5142 7.84684 19.5366 7.88962 19.5587 7.93259C19.5808 7.97557 19.6025 8.01874 19.6239 8.06208C19.6452 8.10543 19.6662 8.14896 19.6868 8.19268C19.7074 8.23639 19.7276 8.28028 19.7474 8.32435C19.7673 8.36841 19.7867 8.41264 19.8058 8.45703C19.8249 8.50143 19.8436 8.546 19.8619 8.59071C19.8802 8.63543 19.8981 8.68031 19.9156 8.72534C19.9331 8.77035 19.9503 8.81553 19.967 8.86086C19.9838 8.90618 20.0001 8.95165 20.0161 8.99726C20.0321 9.04287 20.0477 9.08861 20.0628 9.13449C20.078 9.18036 20.0928 9.22636 20.1072 9.27249C20.1216 9.31861 20.1355 9.36486 20.1491 9.41124C20.1627 9.45761 20.1759 9.5041 20.1887 9.55069C20.2015 9.5973 20.2138 9.64401 20.2258 9.69082C20.2378 9.73764 20.2494 9.78455 20.2605 9.83157C20.2717 9.87857 20.2825 9.92567 20.2928 9.97287C20.3032 10.0201 20.3131 10.0674 20.3227 10.1147C20.3322 10.1621 20.3414 10.2095 20.3501 10.2571C20.3588 10.3046 20.3671 10.3522 20.375 10.3999C20.3829 10.4476 20.3904 10.4953 20.3975 10.5431C20.4045 10.5909 20.4112 10.6387 20.4175 10.6867C20.4237 10.7346 20.4296 10.7825 20.435 10.8305C20.4404 10.8786 20.4454 10.9266 20.45 10.9747C20.4546 11.0228 20.4588 11.071 20.4625 11.1191C20.4663 11.1673 20.4697 11.2155 20.4726 11.2637C20.4755 11.312 20.478 11.3602 20.4802 11.4085C20.4822 11.4568 20.4839 11.5051 20.4852 11.5534C20.4879 11.6835 20.5089 11.9933 20.4775 12.1046C20.3349 12.2178 19.9249 12.6006 19.791 12.6446C19.7231 13.0409 19.6677 13.4251 19.5596 13.8133C19.5438 13.8689 19.5274 13.9243 19.5104 13.9795C19.4934 14.0347 19.4759 14.0898 19.4577 14.1446C19.4395 14.1994 19.4208 14.2541 19.4014 14.3085C19.3821 14.3629 19.3622 14.4172 19.3417 14.4712C19.3212 14.5252 19.3001 14.579 19.2784 14.6325C19.2567 14.6861 19.2345 14.7394 19.2117 14.7924C19.1889 14.8455 19.1655 14.8983 19.1415 14.9509C19.1176 15.0035 19.0931 15.0558 19.068 15.1079C19.043 15.1599 19.0173 15.2117 18.9911 15.2632C18.965 15.3147 18.9382 15.3659 18.9109 15.4168C18.8837 15.4677 18.8558 15.5183 18.8275 15.5686C18.7991 15.619 18.7702 15.669 18.7407 15.7187C18.7113 15.7684 18.6813 15.8178 18.6508 15.8668C18.6203 15.9159 18.5893 15.9646 18.5577 16.013C18.5261 16.0614 18.4941 16.1094 18.4615 16.1571C18.4289 16.2048 18.3958 16.2522 18.3622 16.2992C18.3286 16.3462 18.2945 16.3928 18.2599 16.439C18.2253 16.4853 18.1902 16.5312 18.1546 16.5767C18.119 16.6222 18.0829 16.6673 18.0463 16.712C18.0098 16.7567 17.9727 16.8011 17.9352 16.845C17.8977 16.8889 17.8597 16.9324 17.8213 16.9756C17.7828 17.0187 17.7439 17.0614 17.7045 17.1036C17.6651 17.1459 17.6253 17.1878 17.5851 17.2292C17.5448 17.2706 17.5041 17.3116 17.4629 17.3521C17.4218 17.3927 17.3802 17.4328 17.3382 17.4724C17.2962 17.5121 17.2537 17.5513 17.2109 17.59C17.168 17.6287 17.1248 17.667 17.0811 17.7048C17.0374 17.7426 16.9933 17.78 16.9488 17.8168C16.9044 17.8537 16.8595 17.8901 16.8142 17.926C16.769 17.9619 16.7233 17.9973 16.6773 18.0322C16.6313 18.0671 16.5849 18.1015 16.5381 18.1354C16.4914 18.1694 16.4442 18.2028 16.3968 18.2357C16.0085 18.5102 15.5883 18.7333 15.1544 18.9262C13.6198 19.6082 12.074 19.7332 10.4284 19.4476C9.42853 19.2741 8.49152 18.8694 7.63776 18.328C7.42162 18.1909 7.21933 18.0324 7.00481 17.8927C6.71493 17.9829 6.5467 18.0499 6.23423 18.0996C5.77117 17.7237 5.07541 16.8824 4.77759 16.3601C4.8798 16.2765 5.08863 15.9676 5.18561 15.8473C5.38052 15.5836 5.62303 15.3206 5.85328 15.0874C6.19713 15.6717 6.57337 16.2249 7.05806 16.7031C7.09934 16.7433 7.14111 16.783 7.18338 16.8222C7.22563 16.8613 7.26836 16.9 7.31158 16.9381C7.35478 16.9762 7.39845 17.0138 7.44257 17.0509C7.4867 17.0879 7.53127 17.1244 7.57628 17.1604C7.6213 17.1964 7.66675 17.2318 7.71264 17.2666C7.75853 17.3015 7.80485 17.3358 7.85158 17.3695C7.8983 17.4032 7.94543 17.4363 7.99298 17.4689C8.04051 17.5015 8.08844 17.5334 8.13677 17.5648C8.1851 17.5962 8.23379 17.627 8.28285 17.6572C8.33193 17.6874 8.38138 17.717 8.43119 17.746C8.48099 17.775 8.53114 17.8033 8.58163 17.8311C8.63212 17.8589 8.68295 17.886 8.73412 17.9125C8.78528 17.939 8.83675 17.9649 8.88855 17.9902C8.94035 18.0154 8.99244 18.04 9.04483 18.064C9.09724 18.088 9.14992 18.1113 9.20289 18.134C9.25586 18.1567 9.3091 18.1787 9.3626 18.2001C9.41611 18.2215 9.46988 18.2422 9.52389 18.2623C9.57791 18.2823 9.63216 18.3017 9.68664 18.3205C9.74114 18.3392 9.79586 18.3573 9.8508 18.3747C9.90572 18.3921 9.96085 18.4088 10.0162 18.4248C10.0715 18.4409 10.1271 18.4562 10.1828 18.4709C10.2385 18.4856 10.2944 18.4996 10.3505 18.5129C10.4065 18.5262 10.4628 18.5389 10.5191 18.5508C10.5755 18.5627 10.632 18.574 10.6887 18.5845C10.7453 18.5951 10.8021 18.605 10.859 18.6141C10.9159 18.6233 10.9728 18.6318 11.0299 18.6395C11.087 18.6473 11.1442 18.6544 11.2015 18.6607C11.2588 18.6671 11.3161 18.6728 11.3735 18.6777C11.4309 18.6827 11.4884 18.687 11.5459 18.6905C11.6034 18.6941 11.661 18.6969 11.7185 18.6991C11.7761 18.7012 11.8337 18.7027 11.8913 18.7034C11.9489 18.7041 12.0066 18.7042 12.0642 18.7035C13.7898 18.6907 15.5551 17.9847 16.7689 16.7486C18.0549 15.4389 18.8159 13.8586 18.9112 12.0147C18.9214 11.8173 18.9166 11.6159 18.9143 11.4181C18.8973 9.97233 18.2175 8.44505 17.2595 7.37878C17.076 7.1745 16.8815 6.97177 16.6762 6.78961C16.5655 6.69143 16.4391 6.60699 16.3342 6.50339C16.3318 6.50107 16.3295 6.49873 16.3272 6.49641C16.4109 6.48436 16.5094 6.43449 16.5899 6.40453C16.8378 6.31236 17.1181 6.1898 17.3764 6.14112L17.4337 6.13725L17.4119 6.09471C17.5178 5.98669 17.9411 5.99407 18.1072 5.91425Z" fill="#EBC348"/>
<path d="M5.18561 15.8472C5.3294 16.0426 5.46215 16.2452 5.60885 16.4387C5.76292 16.6438 5.92624 16.8413 6.09881 17.0311C6.27137 17.221 6.45242 17.4023 6.64195 17.5752C6.75799 17.6829 6.87056 17.8079 7.00481 17.8926C6.71493 17.9829 6.5467 18.0499 6.23423 18.0996C5.77117 17.7236 5.07541 16.8823 4.77759 16.36C4.8798 16.2764 5.08863 15.9676 5.18561 15.8472Z" fill="#D38A40"/>
<path d="M18.1071 5.91425C18.5013 6.29332 18.8271 6.72162 19.1218 7.18097C19.1482 7.22144 19.1743 7.26213 19.2 7.30303C19.2257 7.34396 19.2511 7.38509 19.2761 7.42643C19.3011 7.46779 19.3257 7.50935 19.35 7.55112C19.3743 7.5929 19.3982 7.63489 19.4217 7.67707C19.4453 7.71926 19.4685 7.76165 19.4913 7.80425C19.5142 7.84684 19.5366 7.88962 19.5587 7.93259C19.5808 7.97557 19.6025 8.01874 19.6239 8.06208C19.6452 8.10543 19.6662 8.14896 19.6868 8.19268C19.7074 8.23639 19.7276 8.28028 19.7474 8.32435C19.7673 8.36841 19.7867 8.41264 19.8058 8.45703C19.8248 8.50143 19.8435 8.546 19.8619 8.59071C19.8802 8.63543 19.8981 8.68031 19.9156 8.72534C19.9331 8.77035 19.9503 8.81553 19.967 8.86086C19.9838 8.90618 20.0001 8.95165 20.0161 8.99726C20.0321 9.04287 20.0476 9.08861 20.0628 9.13449C20.078 9.18036 20.0928 9.22636 20.1072 9.27249C20.1215 9.31861 20.1355 9.36486 20.1491 9.41124C20.1627 9.45761 20.1759 9.5041 20.1887 9.55069C20.2015 9.5973 20.2138 9.64401 20.2258 9.69082C20.2378 9.73764 20.2494 9.78455 20.2605 9.83157C20.2717 9.87857 20.2825 9.92567 20.2928 9.97287C20.3032 10.0201 20.3131 10.0674 20.3227 10.1147C20.3322 10.1621 20.3413 10.2095 20.3501 10.2571C20.3588 10.3046 20.3671 10.3522 20.375 10.3999C20.3829 10.4476 20.3904 10.4953 20.3975 10.5431C20.4045 10.5909 20.4112 10.6387 20.4175 10.6867C20.4237 10.7346 20.4296 10.7825 20.435 10.8305C20.4404 10.8786 20.4454 10.9266 20.45 10.9747C20.4546 11.0228 20.4588 11.071 20.4625 11.1191C20.4663 11.1673 20.4696 11.2155 20.4726 11.2637C20.4755 11.312 20.478 11.3602 20.4801 11.4085C20.4822 11.4568 20.4839 11.5051 20.4852 11.5534C20.4879 11.6835 20.5089 11.9933 20.4774 12.1046C20.3348 12.2178 19.9249 12.6006 19.791 12.6446C19.8454 12.0735 19.8683 11.5232 19.811 10.9506C19.8063 10.9032 19.8011 10.856 19.7954 10.8087C19.7898 10.7615 19.7837 10.7143 19.7772 10.6672C19.7706 10.62 19.7637 10.573 19.7562 10.526C19.7488 10.479 19.741 10.4321 19.7327 10.3852C19.7244 10.3384 19.7157 10.2916 19.7065 10.2449C19.6973 10.1982 19.6877 10.1517 19.6776 10.1052C19.6676 10.0587 19.6571 10.0122 19.6462 9.96593C19.6353 9.91964 19.6239 9.87344 19.6121 9.82735C19.6003 9.78125 19.5881 9.73528 19.5754 9.68942C19.5628 9.64356 19.5497 9.59782 19.5362 9.55219C19.5227 9.50658 19.5087 9.4611 19.4943 9.41574C19.48 9.37039 19.4652 9.32518 19.4499 9.28011C19.4347 9.23503 19.4191 9.1901 19.403 9.14532C19.3869 9.10053 19.3705 9.05591 19.3535 9.01144C19.3366 8.96697 19.3193 8.92267 19.3016 8.87853C19.2838 8.83437 19.2657 8.79039 19.2471 8.7466C19.2286 8.70279 19.2096 8.65916 19.1902 8.61572C19.1708 8.57227 19.151 8.529 19.1308 8.48593C19.1106 8.44285 19.09 8.39996 19.069 8.35728C19.048 8.31459 19.0266 8.2721 19.0048 8.22982C18.983 8.18754 18.9608 8.14546 18.9382 8.10359C18.9156 8.06173 18.8926 8.02008 18.8692 7.97864C18.8459 7.93721 18.8221 7.896 18.7979 7.85501C18.7738 7.81403 18.7492 7.77327 18.7243 7.73274C18.6994 7.69221 18.6741 7.65192 18.6484 7.61187C18.6227 7.57181 18.5967 7.532 18.5703 7.49246C18.5438 7.45289 18.517 7.41358 18.4899 7.37452C18.4627 7.33546 18.4352 7.29666 18.4073 7.25813C18.3794 7.21958 18.3511 7.1813 18.3225 7.14328C18.2939 7.10528 18.2649 7.06755 18.2356 7.03008C18.2063 6.99261 18.1766 6.95543 18.1466 6.91852C18.1166 6.88161 18.0862 6.845 18.0555 6.80867C17.8672 6.58165 17.6624 6.32436 17.4337 6.13725L17.4119 6.09471C17.5178 5.98669 17.9411 5.99407 18.1071 5.91425Z" fill="#D38A40"/>
<path d="M4.77745 16.3601C4.74986 16.3158 4.72268 16.2713 4.69591 16.2265C4.66915 16.1818 4.64279 16.1367 4.61684 16.0915C4.5909 16.0462 4.56537 16.0008 4.54027 15.955C4.51517 15.9093 4.49049 15.8634 4.46623 15.8172C4.44198 15.771 4.41815 15.7246 4.39474 15.678C4.37134 15.6314 4.34836 15.5846 4.32581 15.5375C4.30328 15.4905 4.28118 15.4432 4.25951 15.3958C4.23784 15.3483 4.2166 15.3007 4.1958 15.2529C4.17501 15.205 4.15466 15.157 4.13475 15.1088C4.11483 15.0606 4.09536 15.0122 4.07634 14.9636C4.05733 14.9151 4.03876 14.8663 4.02063 14.8174C4.00251 14.7685 3.98484 14.7194 3.96762 14.6702C3.9504 14.6209 3.93364 14.5716 3.91734 14.522C3.90103 14.4725 3.88518 14.4228 3.86979 14.3729C3.85438 14.3231 3.83945 14.2731 3.82498 14.223C3.81051 14.1729 3.79649 14.1227 3.78293 14.0723C3.76938 14.0219 3.7563 13.9714 3.7437 13.9208C3.73107 13.8702 3.71891 13.8195 3.70723 13.7687C3.69554 13.7178 3.68432 13.6669 3.67357 13.6158C3.66284 13.5648 3.65256 13.5137 3.64275 13.4624C3.63294 13.4112 3.6236 13.3599 3.61474 13.3085C3.60588 13.2571 3.5975 13.2056 3.58959 13.154C3.58167 13.1025 3.57423 13.0509 3.56728 12.9992C3.56031 12.9475 3.55382 12.8957 3.5478 12.8439C3.5418 12.7921 3.53627 12.7402 3.53121 12.6883C3.52616 12.6364 3.52159 12.5844 3.51748 12.5324C3.51338 12.4804 3.50977 12.4284 3.50662 12.3763C3.50348 12.3243 3.50083 12.2722 3.49866 12.2201C3.49647 12.168 3.49477 12.1158 3.49355 12.0637C3.49233 12.0115 3.49159 11.9594 3.49132 11.9072C3.49105 11.8551 3.49127 11.8029 3.49198 11.7508C3.49268 11.6986 3.49386 11.6465 3.49552 11.5943C3.49752 11.5244 3.50037 11.4545 3.50409 11.3847C3.50781 11.3148 3.51239 11.2451 3.51783 11.1753C3.52328 11.1056 3.52959 11.0359 3.53674 10.9664C3.5439 10.8968 3.55192 10.8273 3.56081 10.7579C3.56969 10.6886 3.57942 10.6193 3.59002 10.5502C3.60059 10.4811 3.61203 10.4121 3.62433 10.3432C3.63661 10.2744 3.64975 10.2057 3.66375 10.1371C3.67773 10.0686 3.69256 10.0003 3.70823 9.9321C3.72391 9.86394 3.74042 9.79599 3.75778 9.72824C3.77512 9.66047 3.7933 9.59294 3.81232 9.52565C3.83135 9.45833 3.8512 9.39127 3.87187 9.32446C3.89255 9.25764 3.91404 9.1911 3.93635 9.12482C3.95868 9.05854 3.98181 8.99254 4.00575 8.92682C4.0297 8.8611 4.05446 8.79569 4.08002 8.7306C4.10559 8.66549 4.13195 8.60072 4.1591 8.53628C4.18626 8.47182 4.21421 8.40772 4.24296 8.34395C4.27171 8.28018 4.30123 8.21679 4.33153 8.15375C4.36184 8.09072 4.39293 8.02807 4.42479 7.96581C4.45665 7.90354 4.48927 7.84168 4.52264 7.78023C4.55603 7.71876 4.59017 7.65772 4.62506 7.59711C4.65995 7.5365 4.69559 7.47633 4.73196 7.41657C4.76834 7.35684 4.80544 7.29757 4.84327 7.23875C4.88111 7.17993 4.91967 7.12158 4.95895 7.06372C4.99823 7.00585 5.03822 6.94847 5.07891 6.89158C5.11961 6.8347 5.161 6.77833 5.20308 6.72247C5.24517 6.66661 5.28795 6.61129 5.3314 6.55649C5.37485 6.50168 5.41898 6.44741 5.46377 6.39369C5.50857 6.33999 5.55402 6.28684 5.60011 6.23425C5.64622 6.18165 5.69297 6.12964 5.74036 6.0782C5.78775 6.02676 5.83577 5.97592 5.88441 5.92567C5.93305 5.8754 5.98231 5.82575 6.03218 5.77672C6.08206 5.72769 6.13252 5.67928 6.18359 5.63148C6.22487 5.59223 6.26653 5.55341 6.30858 5.51502C6.35064 5.47661 6.39309 5.43865 6.43591 5.40111C6.47874 5.36357 6.52194 5.32647 6.56552 5.28981C6.60912 5.25314 6.65307 5.21691 6.69738 5.18113C6.7417 5.14536 6.78636 5.11004 6.83138 5.07517C6.87641 5.04029 6.92178 5.00588 6.9675 4.97193C7.01323 4.93797 7.0593 4.90448 7.10569 4.87145C7.15209 4.83843 7.19883 4.80589 7.24589 4.77381C7.29295 4.74173 7.34033 4.71013 7.38802 4.679C7.43572 4.6479 7.48373 4.61727 7.53206 4.58713C7.58038 4.55697 7.62899 4.52732 7.67791 4.49816C7.72684 4.46899 7.77605 4.44033 7.82555 4.41217C7.87505 4.384 7.92482 4.35633 7.97487 4.32918C8.02493 4.30202 8.07526 4.27536 8.12585 4.24921C8.17646 4.22307 8.22732 4.19744 8.27843 4.17233C8.32955 4.14722 8.38092 4.12263 8.43253 4.09855C8.48414 4.07449 8.53599 4.05094 8.58809 4.02791C8.64018 4.0049 8.6925 3.9824 8.74505 3.96043C8.79759 3.93847 8.85036 3.91704 8.90334 3.89615C8.95631 3.87524 9.00949 3.85488 9.06288 3.83507C9.11627 3.81524 9.16987 3.79596 9.22366 3.77722C9.27744 3.75849 9.33141 3.7403 9.38555 3.72266C9.4397 3.70502 9.49403 3.68793 9.54853 3.67138C9.60302 3.65483 9.65767 3.63884 9.7125 3.6234C9.76731 3.60797 9.82228 3.59308 9.87741 3.57875C9.93253 3.56443 9.98779 3.55065 10.0432 3.53743C10.0986 3.52423 10.1541 3.51159 10.2098 3.49951C10.2654 3.48742 10.3212 3.4759 10.3771 3.46494C10.433 3.45399 10.489 3.4436 10.5451 3.43377C10.6012 3.42394 10.6574 3.41468 10.7136 3.406C10.7699 3.39733 10.8263 3.38922 10.8827 3.38167C10.9392 3.37412 10.9957 3.36715 11.0523 3.36074C11.4119 3.32017 11.7791 3.29446 12.1412 3.30662C12.4927 3.31839 12.8441 3.33939 13.1924 3.3895C13.2505 3.39759 13.3085 3.40629 13.3664 3.41558C13.4243 3.4249 13.4821 3.43481 13.5398 3.44533C13.5975 3.45586 13.6551 3.46699 13.7126 3.47872C13.77 3.49046 13.8274 3.50279 13.8846 3.51573C13.9418 3.52867 13.9989 3.5422 14.0558 3.55632C14.1127 3.57047 14.1695 3.5852 14.2261 3.60053C14.2827 3.61586 14.3392 3.63178 14.3955 3.64829C14.4518 3.66481 14.5079 3.68192 14.5638 3.69962C14.6197 3.71731 14.6754 3.73559 14.731 3.75447C14.7865 3.77333 14.8418 3.79277 14.897 3.8128C14.9521 3.83283 15.007 3.85344 15.0617 3.87463C15.1164 3.8958 15.1709 3.91755 15.2251 3.93988C15.2794 3.96221 15.3334 3.98511 15.3871 4.00857C15.4409 4.03203 15.4944 4.05605 15.5476 4.08065C15.6009 4.10524 15.6539 4.13038 15.7066 4.15607C15.7593 4.18177 15.8118 4.20802 15.8639 4.23482C15.9161 4.26163 15.968 4.28898 16.0196 4.31687C16.0712 4.34476 16.1225 4.37319 16.1735 4.40216C16.2245 4.43113 16.2752 4.46064 16.3256 4.49068C16.376 4.52072 16.426 4.55128 16.4757 4.58237C16.5255 4.61345 16.5749 4.64505 16.624 4.67718C16.673 4.7093 16.7218 4.74194 16.7702 4.7751C16.8186 4.80825 16.8666 4.84191 16.9143 4.87607C16.962 4.91022 17.0093 4.94488 17.0562 4.98004C17.1032 5.01519 17.1497 5.05083 17.196 5.08696C17.2422 5.1231 17.288 5.15972 17.3334 5.19681C17.3789 5.2339 17.4239 5.27147 17.4685 5.30952C17.5132 5.34757 17.5574 5.38608 17.6013 5.42504C17.6451 5.46401 17.6885 5.50344 17.7315 5.54333C17.7745 5.58321 17.8171 5.62354 17.8593 5.66432C17.9014 5.7051 17.9432 5.74632 17.9845 5.78797C18.0258 5.82963 18.0666 5.87172 18.107 5.91423C17.9409 5.99406 17.5177 5.98668 17.4117 6.0947L17.4336 6.13724L17.3762 6.14111C17.118 6.18979 16.8376 6.31234 16.5898 6.40452C16.5093 6.43447 16.4108 6.48435 16.3271 6.4964C16.0292 6.2777 15.738 6.04651 15.4173 5.8614C14.1339 5.12045 12.5182 4.79359 11.0511 5.0203C9.25748 5.29745 7.54284 6.20561 6.46078 7.68585C6.42609 7.73246 6.39199 7.77948 6.35848 7.82692C6.32495 7.87437 6.29202 7.92223 6.25969 7.9705C6.22734 8.01876 6.19561 8.06743 6.16448 8.11649C6.13336 8.16554 6.10284 8.21497 6.07294 8.26478C6.04303 8.31459 6.01375 8.36476 5.98509 8.41529C5.95644 8.46583 5.92841 8.51671 5.901 8.56794C5.87361 8.61918 5.84685 8.67074 5.82073 8.72263C5.7946 8.77452 5.76912 8.82672 5.7443 8.87924C5.71947 8.93177 5.6953 8.9846 5.67178 9.03772C5.64827 9.09085 5.62541 9.14425 5.60323 9.19794C5.58102 9.25163 5.55949 9.30559 5.53863 9.35982C5.51779 9.41404 5.49761 9.46851 5.47809 9.52323C5.45859 9.57797 5.43977 9.63293 5.42163 9.68811C5.40348 9.7433 5.38602 9.79871 5.36925 9.85433C5.35248 9.90996 5.33641 9.96578 5.32102 10.0218C5.30562 10.0778 5.29094 10.134 5.27695 10.1904C5.26295 10.2468 5.24966 10.3033 5.23706 10.3601C5.22447 10.4168 5.21259 10.4736 5.20141 10.5306C5.19023 10.5877 5.17975 10.6448 5.16998 10.7021C5.16022 10.7593 5.15116 10.8167 5.14282 10.8742C5.13448 10.9317 5.12684 10.9893 5.11992 11.047C5.11302 11.1047 5.10682 11.1624 5.10134 11.2203C5.09585 11.2781 5.09109 11.336 5.08704 11.3939C5.08298 11.4519 5.07964 11.5099 5.07703 11.5679C5.07442 11.626 5.07253 11.684 5.07136 11.7421C5.07019 11.8002 5.06973 11.8583 5.07 11.9164C5.07027 11.9745 5.07126 12.0326 5.07298 12.0906C5.07468 12.1487 5.0771 12.2067 5.08024 12.2648C5.08338 12.3228 5.08725 12.3807 5.09184 12.4386C5.09642 12.4966 5.10172 12.5544 5.10773 12.6122C5.11375 12.67 5.12048 12.7277 5.12794 12.7853C5.13538 12.8429 5.14353 12.9004 5.15241 12.9579C5.17644 13.1128 5.20571 13.2668 5.24023 13.4198C5.27474 13.5728 5.31441 13.7245 5.35924 13.8748C5.40409 14.0251 5.45398 14.1737 5.50891 14.3206C5.56387 14.4675 5.62374 14.6123 5.68854 14.7551C5.73579 14.861 5.78595 14.9936 5.85314 15.0874C5.62289 15.3206 5.38038 15.5836 5.18548 15.8473C5.08849 15.9676 4.87966 16.2765 4.77745 16.3601Z" fill="#EBC348"/>
<path d="M4.60718 14.6969C4.40058 14.3409 4.29153 13.8825 4.20748 13.4824C3.76165 11.3599 4.14146 9.23087 5.33096 7.41486C6.48593 5.65159 8.21975 4.35242 10.3009 3.92136C10.3642 3.90796 10.4276 3.89535 10.4913 3.88353C10.5549 3.87174 10.6186 3.86074 10.6825 3.85053C10.7464 3.84035 10.8104 3.83096 10.8746 3.82239C10.9387 3.81381 11.0029 3.80605 11.0673 3.79911C11.1316 3.79216 11.196 3.78602 11.2605 3.78069C11.325 3.77538 11.3895 3.77087 11.4541 3.76717C11.5187 3.76348 11.5833 3.76061 11.648 3.75857C11.7127 3.7565 11.7774 3.75527 11.8421 3.75486C11.9068 3.75444 11.9715 3.75484 12.0362 3.75606C12.1009 3.75728 12.1655 3.75931 12.2302 3.76215C12.2948 3.76501 12.3594 3.76868 12.424 3.77317C12.4885 3.77765 12.553 3.78296 12.6174 3.78908C12.6818 3.79519 12.7461 3.80212 12.8104 3.80987C12.8746 3.8176 12.9387 3.82616 13.0028 3.83553C13.0668 3.84489 13.1307 3.85507 13.1945 3.86605C13.2582 3.87703 13.3218 3.88882 13.3853 3.90142C13.4488 3.91401 13.5121 3.9274 13.5752 3.94159C13.6383 3.95578 13.7013 3.97076 13.764 3.98654C13.8268 4.00232 13.8893 4.0189 13.9516 4.03628C14.0139 4.05364 14.0761 4.07178 14.1379 4.09072C14.1998 4.10966 14.2614 4.12937 14.3228 4.14985C14.3842 4.17035 14.4453 4.19162 14.5061 4.21365C14.5669 4.2357 14.6275 4.2585 14.6877 4.28207C14.748 4.30564 14.808 4.32997 14.8676 4.35505C14.9272 4.38014 14.9866 4.40598 15.0455 4.43256C15.1045 4.45915 15.1632 4.48648 15.2215 4.51454C15.2798 4.54262 15.3377 4.57143 15.3953 4.60096C15.4529 4.63049 15.5101 4.66075 15.5669 4.69173C15.6237 4.72271 15.6801 4.75441 15.7361 4.78682C15.7921 4.81922 15.8476 4.85233 15.9028 4.88614C15.958 4.91996 16.0127 4.95446 16.067 4.98967C16.1213 5.02485 16.1751 5.06073 16.2285 5.09729C16.519 5.29721 16.7836 5.52976 17.0447 5.76589C17.1366 5.84893 17.3048 6.03163 17.3996 6.08842C17.4035 6.09078 17.4077 6.09259 17.4118 6.09468L17.4337 6.13721L17.3763 6.14108C17.0708 5.90031 16.7625 5.67243 16.4365 5.45996C14.7394 4.35395 12.7586 3.85998 10.754 4.28584C10.1363 4.41707 9.52121 4.58809 8.93874 4.834C7.53465 5.42678 6.26332 6.47518 5.43251 7.75478C5.39142 7.81854 5.35127 7.88289 5.31207 7.94783C5.27286 8.01277 5.23461 8.07827 5.19732 8.14433C5.16004 8.21039 5.12372 8.27699 5.08838 8.34411C5.05305 8.41124 5.01872 8.47887 4.98537 8.54701C4.95201 8.61514 4.91966 8.68374 4.88832 8.75284C4.85697 8.82192 4.82665 8.89144 4.79736 8.96141C4.76806 9.03138 4.73979 9.10176 4.71254 9.17256C4.6853 9.24335 4.65911 9.31454 4.63395 9.38612C4.60881 9.45768 4.58472 9.5296 4.56167 9.60186C4.53862 9.67414 4.51664 9.74675 4.49572 9.81967C4.47481 9.89257 4.45497 9.96578 4.43618 10.0393C4.41742 10.1128 4.39973 10.1865 4.38312 10.2606C4.36651 10.3346 4.351 10.4088 4.33658 10.4833C4.32214 10.5578 4.30879 10.6324 4.29654 10.7073C4.28431 10.7822 4.27317 10.8572 4.26312 10.9324C4.25308 11.0076 4.24414 11.0829 4.23631 11.1583C4.20535 11.4724 4.20139 11.7847 4.20244 12.1C4.20394 12.5413 4.22438 12.9666 4.293 13.4034C4.3291 13.6365 4.37764 13.867 4.43862 14.0948C4.49382 14.2957 4.56364 14.4929 4.60718 14.6969Z" fill="#FDF9AC"/>
<path d="M5.85328 15.0873C5.78609 14.9935 5.73593 14.861 5.68868 14.7551C5.62388 14.6123 5.56401 14.4674 5.50906 14.3205C5.45412 14.1736 5.40423 14.025 5.35938 13.8747C5.31456 13.7244 5.27488 13.5728 5.24037 13.4198C5.20585 13.2668 5.17658 13.1128 5.15255 12.9578C5.14367 12.9004 5.13552 12.8429 5.12808 12.7853C5.12063 12.7277 5.11389 12.67 5.10788 12.6122C5.10186 12.5544 5.09656 12.4966 5.09199 12.4386C5.08739 12.3807 5.08352 12.3228 5.08038 12.2647C5.07724 12.2067 5.07482 12.1487 5.07312 12.0906C5.0714 12.0325 5.07041 11.9745 5.07014 11.9164C5.06988 11.8583 5.07033 11.8002 5.0715 11.7421C5.07267 11.684 5.07456 11.626 5.07717 11.5679C5.07978 11.5099 5.08312 11.4519 5.08718 11.3939C5.09123 11.336 5.09599 11.2781 5.10148 11.2203C5.10696 11.1624 5.11316 11.1046 5.12006 11.047C5.12699 10.9893 5.13462 10.9317 5.14296 10.8742C5.15131 10.8167 5.16036 10.7593 5.17013 10.7021C5.17989 10.6448 5.19037 10.5876 5.20156 10.5306C5.21273 10.4736 5.22461 10.4168 5.2372 10.36C5.2498 10.3033 5.2631 10.2468 5.2771 10.1904C5.29108 10.134 5.30577 10.0778 5.32116 10.0218C5.33655 9.96576 5.35263 9.90994 5.36939 9.85432C5.38616 9.79869 5.40362 9.74328 5.42177 9.6881C5.43992 9.63289 5.45874 9.57793 5.47824 9.52321C5.49775 9.4685 5.51793 9.41402 5.53877 9.35978C5.55963 9.30557 5.58117 9.25161 5.60337 9.19793C5.62556 9.14424 5.64841 9.09083 5.67192 9.03771C5.69544 8.98458 5.71961 8.93175 5.74444 8.87922C5.76927 8.82671 5.79474 8.7745 5.82087 8.72261C5.84699 8.67072 5.87375 8.61916 5.90114 8.56792C5.92855 8.51669 5.95658 8.46581 5.98524 8.41528C6.01389 8.36475 6.04317 8.31457 6.07308 8.26476C6.10299 8.21495 6.1335 8.16552 6.16463 8.11647C6.19575 8.06741 6.22749 8.01875 6.25983 7.97048C6.29216 7.92221 6.32509 7.87435 6.35862 7.8269C6.39213 7.77946 6.42624 7.73244 6.46092 7.68583C7.54299 6.20559 9.25763 5.29743 11.0512 5.02028C12.5184 4.79357 14.1341 5.12043 15.4175 5.86139C15.7381 6.0465 16.0294 6.27768 16.3272 6.49638C16.3295 6.4987 16.3318 6.50104 16.3342 6.50336C16.4391 6.60696 16.5655 6.6914 16.6762 6.78958C16.8815 6.97174 17.076 7.17447 17.2595 7.37875C18.2175 8.44502 18.8973 9.9723 18.9143 11.4181C18.9166 11.6158 18.9214 11.8172 18.9112 12.0146C18.8159 13.8586 18.0549 15.4389 16.7689 16.7486C15.5551 17.9847 13.7898 18.6907 12.0642 18.7034C12.0066 18.7041 11.949 18.7041 11.8913 18.7034C11.8337 18.7026 11.7761 18.7012 11.7185 18.699C11.661 18.6969 11.6034 18.694 11.5459 18.6905C11.4884 18.6869 11.4309 18.6827 11.3735 18.6777C11.3161 18.6727 11.2588 18.6671 11.2015 18.6607C11.1442 18.6543 11.087 18.6473 11.0299 18.6395C10.9729 18.6317 10.9159 18.6233 10.859 18.6141C10.8021 18.6049 10.7453 18.5951 10.6887 18.5845C10.632 18.574 10.5755 18.5627 10.5191 18.5508C10.4628 18.5388 10.4066 18.5262 10.3505 18.5129C10.2944 18.4996 10.2385 18.4856 10.1828 18.4709C10.1271 18.4562 10.0715 18.4408 10.0162 18.4248C9.96086 18.4088 9.90573 18.392 9.85081 18.3746C9.79587 18.3572 9.74115 18.3392 9.68665 18.3204C9.63217 18.3017 9.57792 18.2823 9.5239 18.2622C9.46988 18.2422 9.41612 18.2214 9.3626 18.2001C9.3091 18.1787 9.25587 18.1567 9.2029 18.134C9.14993 18.1113 9.09724 18.0879 9.04484 18.064C8.99245 18.04 8.94035 18.0154 8.88856 17.9901C8.83676 17.9649 8.78528 17.939 8.73413 17.9125C8.68295 17.886 8.63213 17.8588 8.58164 17.8311C8.53114 17.8033 8.48099 17.7749 8.4312 17.746C8.38138 17.717 8.33194 17.6874 8.28286 17.6572C8.2338 17.627 8.1851 17.5962 8.13677 17.5648C8.08845 17.5334 8.04052 17.5014 7.99299 17.4689C7.94544 17.4363 7.89831 17.4032 7.85159 17.3695C7.80485 17.3357 7.75854 17.3014 7.71265 17.2666C7.66677 17.2317 7.62132 17.1963 7.57629 17.1604C7.53127 17.1244 7.4867 17.0879 7.44258 17.0508C7.39845 17.0138 7.35479 16.9762 7.31159 16.9381C7.26837 16.8999 7.22563 16.8613 7.18338 16.8221C7.14112 16.7829 7.09934 16.7433 7.05806 16.7031C6.57338 16.2249 6.19713 15.6717 5.85328 15.0873Z" fill="#B46930"/>
<path d="M11.7334 5.64502C11.775 5.62242 11.8433 5.63166 11.8904 5.62805C12.4831 5.58239 13.1435 5.69831 13.7132 5.86748C15.3021 6.33933 16.583 7.45097 17.3671 8.90004C17.3909 8.94446 17.4141 8.98916 17.4368 9.03415C17.4595 9.07915 17.4816 9.12442 17.5032 9.16997C17.5248 9.2155 17.5458 9.2613 17.5662 9.30736C17.5867 9.35342 17.6066 9.39973 17.6258 9.4463C17.6451 9.49284 17.6638 9.53962 17.682 9.58664C17.7001 9.63366 17.7177 9.68089 17.7346 9.72834C17.7516 9.77578 17.768 9.82343 17.7838 9.87129C17.7996 9.91915 17.8148 9.9672 17.8294 10.0154C17.844 10.0636 17.858 10.112 17.8714 10.1606C17.8848 10.2092 17.8976 10.2579 17.9098 10.3068C17.922 10.3557 17.9336 10.4048 17.9446 10.4539C17.9556 10.5031 17.9659 10.5524 17.9757 10.6019C17.9855 10.6513 17.9946 10.7009 18.0032 10.7505C18.0117 10.8002 18.0196 10.85 18.027 10.8998C18.0343 10.9497 18.041 10.9996 18.047 11.0496C18.0531 11.0997 18.0586 11.1498 18.0634 11.1999C18.0682 11.2501 18.0724 11.3003 18.0761 11.3505C18.0797 11.4008 18.0826 11.4511 18.085 11.5015C18.0873 11.5518 18.089 11.6022 18.0901 11.6525C18.0913 11.7029 18.0917 11.7533 18.0916 11.8037C18.0915 11.8541 18.0907 11.9045 18.0893 11.9548C18.0879 12.0052 18.0859 12.0556 18.0833 12.1059C18.0806 12.1562 18.0774 12.2065 18.0735 12.2567C18.0696 12.307 18.0651 12.3572 18.06 12.4073C18.0549 12.4574 18.0491 12.5075 18.0428 12.5575C18.0364 12.6075 18.0295 12.6574 18.0219 12.7072C18.0143 12.757 18.0061 12.8067 17.9973 12.8564C17.9884 12.906 17.979 12.9555 17.9689 13.0048C17.9589 13.0542 17.9482 13.1035 17.937 13.1526C17.9257 13.2017 17.9139 13.2507 17.9014 13.2995C17.8889 13.3483 17.8758 13.397 17.8621 13.4455C17.8485 13.494 17.8342 13.5423 17.8193 13.5905C17.8048 13.639 17.7898 13.6873 17.7741 13.7355C17.7584 13.7836 17.7421 13.8316 17.7253 13.8793C17.7084 13.927 17.691 13.9746 17.6729 14.0219C17.6549 14.0692 17.6363 14.1163 17.6171 14.1631C17.5979 14.21 17.5781 14.2566 17.5578 14.303C17.5374 14.3493 17.5165 14.3954 17.495 14.4413C17.4735 14.4871 17.4515 14.5327 17.4289 14.578C17.4063 14.6233 17.3831 14.6683 17.3594 14.7131C17.3357 14.7578 17.3114 14.8022 17.2866 14.8464C17.2618 14.8905 17.2364 14.9343 17.2105 14.9779C17.1846 15.0214 17.1582 15.0645 17.1312 15.1074C17.1043 15.1502 17.0768 15.1928 17.0487 15.2349C17.0207 15.2771 16.9922 15.3189 16.9632 15.3604C16.9341 15.4019 16.9045 15.443 16.8745 15.4838C16.8444 15.5245 16.8139 15.5648 16.7828 15.6048C16.7517 15.6448 16.7202 15.6844 16.6882 15.7236C16.6561 15.7629 16.6236 15.8017 16.5906 15.8401C16.5576 15.8785 16.5242 15.9165 16.4902 15.954C16.4563 15.9916 16.4219 16.0288 16.3871 16.0655C16.3522 16.1022 16.3169 16.1385 16.2812 16.1744C16.2454 16.2103 16.2092 16.2457 16.1726 16.2807C16.136 16.3156 16.099 16.3501 16.0615 16.3842C16.024 16.4182 15.9861 16.4518 15.9478 16.485C15.9095 16.5181 15.8708 16.5507 15.8317 16.5829C15.7926 16.615 15.7531 16.6467 15.7132 16.6779C15.6733 16.7091 15.6331 16.7398 15.5924 16.77C15.5518 16.8002 15.5108 16.8299 15.4694 16.8591C15.428 16.8882 15.3863 16.9169 15.3442 16.9451C15.3021 16.9732 15.2597 17.0008 15.2169 17.0279C15.1742 17.055 15.1311 17.0816 15.0876 17.1077C15.0442 17.1337 15.0005 17.1592 14.9564 17.1842C14.9124 17.2091 14.868 17.2335 14.8234 17.2574C13.381 18.0319 11.7052 18.1135 10.1499 17.6448C8.59524 17.1762 7.28203 16.1527 6.51134 14.7154C6.46915 14.6365 6.42849 14.5569 6.38935 14.4764C6.31943 14.342 6.25355 14.2102 6.20595 14.0658C5.94183 13.4064 5.82153 12.6524 5.79898 11.9451C5.74517 10.2561 6.39893 8.65971 7.55147 7.43646C8.33785 6.60185 9.53679 5.97804 10.656 5.75346C11.0098 5.68247 11.3733 5.65528 11.7334 5.64502Z" fill="#D38A40"/>
<path d="M13.4509 11.6582C13.4687 11.6803 13.4657 11.6997 13.4661 11.7276C13.471 12.0008 13.4532 12.2776 13.4525 12.5513C13.4514 12.9283 13.4655 13.3075 13.4583 13.6839C13.3288 13.8161 13.1834 13.9341 13.0518 14.0655L13.0382 14.0607C13.0093 13.9681 13.0444 13.1414 13.0461 12.9777C13.0487 12.7235 13.0405 12.4681 13.0487 12.2141C13.0509 12.1451 13.0586 12.0788 13.0712 12.011C13.1921 11.8891 13.3253 11.7755 13.4509 11.6582Z" fill="#B46930"/>
<path d="M15.1176 8.25268C15.2348 8.2287 15.5016 8.19371 15.6071 8.26269C15.6467 8.28859 15.6536 8.34099 15.6606 8.38435C15.6925 8.5847 15.7036 9.67527 15.6265 9.79588C15.6104 9.82091 15.5404 9.82536 15.5109 9.82853C15.2679 9.85452 15.0097 9.82845 14.7653 9.82318C14.4149 9.81484 14.0644 9.81207 13.7139 9.81488C13.4666 9.8151 13.2165 9.80947 12.9699 9.83101C12.8689 10.1525 12.9238 10.7263 12.9223 11.078L12.9029 12.5918L12.892 14.219C12.8912 14.4616 12.9216 15.6016 12.8632 15.7564C12.6505 15.8061 12.3508 15.7716 12.1307 15.7711C11.7936 15.7703 11.4568 15.7811 11.1197 15.7735C11.1099 15.2622 11.1203 14.7505 11.1206 14.2392L11.1211 11.2773C11.1211 11.0487 11.1548 10.0079 11.1045 9.8671C10.8893 9.72969 8.49238 9.91297 8.33209 9.81074C8.31053 9.79698 8.30186 9.76112 8.2967 9.73787C8.27408 9.63554 8.27915 8.37132 8.30092 8.26949C8.51734 8.24277 8.76172 8.23766 8.97915 8.26002C8.83996 8.26995 8.69486 8.26208 8.555 8.26185C8.55264 8.47159 8.51591 9.12793 8.59675 9.27892C8.65129 9.3212 8.72312 9.3336 8.79032 9.34154C9.04049 9.37107 9.29964 9.34665 9.55093 9.34257C9.91565 9.33667 10.28 9.338 10.6446 9.3241C10.9104 9.314 11.1778 9.28874 11.4428 9.32232C11.4624 9.53059 11.442 9.74858 11.4378 9.95764C11.4316 10.2643 11.433 10.5715 11.4314 10.8783C11.4267 11.7905 11.4277 12.7027 11.4345 13.6149C11.4358 14.0537 11.4199 14.4963 11.435 14.9346C11.4399 15.0784 11.4539 15.1558 11.5632 15.2575C11.8461 15.257 12.2348 15.3281 12.4901 15.1931C12.5239 14.9519 12.5151 14.6914 12.5154 14.4479C12.516 13.9893 12.5043 13.5308 12.5031 13.0722C12.5064 11.8169 12.5186 10.5617 12.5398 9.30657C13.1756 9.31238 13.8111 9.34103 14.4468 9.3425C14.6848 9.34304 14.9403 9.36027 15.1764 9.33024L15.1789 9.32743C15.2081 9.29584 15.2348 9.26649 15.2511 9.22606C15.3259 9.04039 15.3329 8.54202 15.2447 8.36082C15.2158 8.30141 15.1795 8.27284 15.1176 8.25268Z" fill="#EBC348"/>
<path d="M8.97894 8.26003C9.46907 8.2676 9.96032 8.26082 10.4506 8.26012L13.4676 8.25194C14.0163 8.25065 14.5691 8.23652 15.1174 8.25269C15.1793 8.27285 15.2155 8.30142 15.2445 8.36083C15.3327 8.54203 15.3257 9.0404 15.2509 9.22607C15.2346 9.2665 15.2079 9.29585 15.1787 9.32744L15.1761 9.33025C14.9401 9.36028 14.6846 9.34305 14.4466 9.34251C13.8108 9.34104 13.1754 9.31239 12.5395 9.30658C12.5184 10.5617 12.5061 11.8169 12.5028 13.0722C12.5041 13.5308 12.5158 13.9893 12.5152 14.4479C12.5149 14.6914 12.5237 14.9519 12.4899 15.1931C12.2346 15.3281 11.8459 15.257 11.563 15.2575C11.4537 15.1558 11.4397 15.0784 11.4347 14.9346C11.4197 14.4963 11.4356 14.0537 11.4343 13.6149C11.4275 12.7026 11.4264 11.7905 11.4312 10.8783C11.4328 10.5716 11.4314 10.2643 11.4376 9.95765C11.4418 9.74859 11.4622 9.5306 11.4426 9.32233C11.1776 9.28875 10.9102 9.31401 10.6444 9.32411C10.2798 9.33801 9.91543 9.33668 9.55072 9.34258C9.29943 9.34666 9.04028 9.37108 8.79011 9.34155C8.72291 9.33361 8.65107 9.32121 8.59653 9.27893C8.5157 9.12794 8.55243 8.4716 8.55479 8.26186C8.69464 8.26209 8.83975 8.26997 8.97894 8.26003Z" fill="#FDF9AC"/>
<path d="M11.7334 5.64502C12.7783 5.64793 13.8874 5.90086 14.7804 6.45743C15.0827 6.64585 15.3558 6.87068 15.6157 7.11324L15.3738 6.98541C15.0255 7.21736 14.6818 7.45576 14.3425 7.70061C14.183 7.81707 14.0186 7.93125 13.8721 8.0641L13.8552 8.06588C13.6752 8.08411 13.4882 8.07493 13.3072 8.07486C13.0089 8.07539 12.7105 8.07442 12.4122 8.07195C11.5267 8.06748 10.6412 8.06829 9.75577 8.07439C9.51946 8.07562 9.28316 8.07443 9.04688 8.07082C8.84482 8.06672 8.63956 8.0532 8.43797 8.06939C8.36553 8.07521 8.25139 8.08313 8.20149 8.1402C8.15288 8.19577 8.1312 8.27403 8.12067 8.34544C8.09311 8.53259 8.11601 8.73036 8.11463 8.919C8.11266 9.18837 8.08643 9.47079 8.11374 9.738C8.12161 9.81509 8.13624 9.89984 8.20057 9.95086C8.23732 9.97997 8.29458 9.98991 8.33935 10.0005C8.35069 10.1064 8.35123 10.2468 8.44153 10.3209C8.55054 10.4104 10.3949 10.3148 10.7155 10.3616C10.3511 10.7294 9.96785 11.0798 9.59161 11.4355L7.97065 12.9768L6.84094 14.0475C6.69392 14.1858 6.54736 14.3533 6.38935 14.4764C6.31943 14.342 6.25355 14.2102 6.20595 14.0658C5.94183 13.4064 5.82153 12.6524 5.79898 11.9451C5.74517 10.2561 6.39893 8.65971 7.55147 7.43646C8.33785 6.60186 9.53679 5.97804 10.656 5.75346C11.0098 5.68247 11.3733 5.65529 11.7334 5.64502Z" fill="#EBC348"/>
<path d="M11.2563 6.37989C11.2621 6.37937 11.2679 6.37878 11.2737 6.37831C11.457 6.36383 11.7405 6.40217 11.8802 6.53117C11.8877 6.53802 11.8949 6.54522 11.9017 6.55278C11.9085 6.56036 11.9148 6.56826 11.9208 6.57648C11.9268 6.5847 11.9323 6.59321 11.9374 6.602C11.9425 6.6108 11.9472 6.61983 11.9513 6.6291C11.9555 6.63836 11.9592 6.64781 11.9624 6.65746C11.9656 6.6671 11.9683 6.67688 11.9706 6.6868C11.9728 6.69672 11.9745 6.70673 11.9756 6.71682C11.9768 6.72693 11.9775 6.73707 11.9776 6.74722C11.9811 6.89256 11.8961 7.02699 11.801 7.13059C11.4777 7.48278 10.9647 7.6374 10.5003 7.65667C10.2928 7.65467 10.0399 7.63583 9.87238 7.49783C9.81376 7.44955 9.77633 7.38545 9.7705 7.30911C9.76019 7.17442 9.8339 7.04931 9.91958 6.95134C10.2453 6.57889 10.7773 6.4115 11.2563 6.37989Z" fill="#FDF9AC"/>
<path d="M11.7334 5.64502C12.7783 5.64793 13.8874 5.90086 14.7804 6.45743C15.0827 6.64585 15.3558 6.87068 15.6157 7.11324L15.3738 6.98541C15.0394 6.77832 14.6888 6.57671 14.3258 6.42366C14.291 6.40913 14.2561 6.39494 14.221 6.3811C14.1859 6.36725 14.1507 6.35376 14.1154 6.34062C14.08 6.32746 14.0445 6.31465 14.0089 6.30218C13.9734 6.28973 13.9376 6.27762 13.9018 6.26586C13.866 6.25409 13.83 6.24268 13.794 6.23161C13.7579 6.22055 13.7218 6.20985 13.6855 6.1995C13.6492 6.18914 13.6129 6.17914 13.5764 6.1695C13.54 6.15986 13.5034 6.15058 13.4668 6.14166C13.4301 6.13274 13.3934 6.12417 13.3566 6.11595C13.3198 6.10775 13.2829 6.0999 13.246 6.09242C13.209 6.08492 13.172 6.07779 13.1349 6.07104C13.0978 6.06428 13.0606 6.05787 13.0234 6.05182C12.9861 6.04579 12.9489 6.04012 12.9115 6.03481C12.8742 6.02951 12.8368 6.02457 12.7994 6.02C12.7619 6.01542 12.7245 6.01121 12.687 6.00736C12.6494 6.00352 12.6119 6.00004 12.5743 5.99693C12.5367 5.99382 12.4991 5.99108 12.4615 5.98871C12.4238 5.98633 12.3862 5.98432 12.3485 5.98268C12.3108 5.98104 12.2731 5.97977 12.2354 5.97886C12.1977 5.97797 12.16 5.97744 12.1223 5.97727C12.0846 5.97711 12.0469 5.97732 12.0092 5.97788C11.9715 5.97846 11.9338 5.9794 11.8961 5.98071C11.8584 5.98203 11.8207 5.98371 11.7831 5.98575C11.7454 5.9878 11.7078 5.99021 11.6702 5.993C11.6326 5.99578 11.595 5.99893 11.5575 6.00244C11.5199 6.00596 11.4824 6.00984 11.4449 6.01409C11.4075 6.01836 11.37 6.02297 11.3326 6.02794C11.2953 6.03293 11.2579 6.03828 11.2207 6.044C11.1834 6.04972 11.1462 6.05579 11.109 6.06223C11.0718 6.06867 11.0348 6.07547 10.9977 6.08264C10.9607 6.0898 10.9238 6.09732 10.8869 6.10522C10.85 6.11311 10.8132 6.12136 10.7765 6.12997C10.7269 6.14172 10.6775 6.15407 10.6282 6.16704C10.5789 6.18001 10.5298 6.19358 10.4809 6.20775C10.4319 6.22194 10.3832 6.23672 10.3346 6.2521C10.286 6.26749 10.2376 6.28347 10.1894 6.30005C10.1412 6.31663 10.0933 6.33379 10.0455 6.35154C9.99774 6.36931 9.9502 6.38766 9.90289 6.4066C9.85559 6.42553 9.80853 6.44505 9.7617 6.46514C9.71487 6.48524 9.6683 6.50591 9.62199 6.52716C9.57566 6.54839 9.5296 6.57021 9.48382 6.5926C9.43806 6.61497 9.39257 6.63792 9.34735 6.66143C9.30213 6.68493 9.25721 6.70899 9.2126 6.7336C9.16798 6.75822 9.12367 6.78339 9.07967 6.80909C9.03568 6.83479 8.99201 6.86104 8.94865 6.88784C8.90531 6.91462 8.8623 6.94193 8.81963 6.96978C8.77694 6.99762 8.73461 7.026 8.69264 7.0549C8.65067 7.08379 8.60907 7.11319 8.56782 7.1431C8.52657 7.17302 8.48569 7.20345 8.44519 7.23439C8.40469 7.26531 8.36458 7.29673 8.32486 7.32865C8.28513 7.36057 8.2458 7.39298 8.20688 7.42587C8.16796 7.45875 8.12945 7.49211 8.09135 7.52595C8.05326 7.55979 8.01558 7.5941 7.97832 7.62886C7.94107 7.66363 7.90425 7.69885 7.86788 7.73454C7.83149 7.77021 7.79555 7.80633 7.76007 7.84289C7.72457 7.87947 7.68953 7.91647 7.65495 7.95389C7.62037 7.99133 7.58626 8.02918 7.55262 8.06745C7.51898 8.10571 7.48582 8.14439 7.45313 8.18349C7.42044 8.22258 7.38824 8.26207 7.35652 8.30196C7.3248 8.34184 7.29358 8.38211 7.26286 8.42276C7.23214 8.46342 7.20193 8.50445 7.17223 8.54585C7.14251 8.58726 7.11332 8.62903 7.08464 8.67115C7.05597 8.71326 7.02782 8.75573 7.00017 8.79856C6.97255 8.84137 6.94546 8.88452 6.91889 8.928C6.73807 9.221 6.59621 9.52763 6.46903 9.84713C6.44182 9.91397 6.41571 9.98125 6.39071 10.0489C6.36572 10.1167 6.34186 10.1848 6.31913 10.2533C6.29639 10.3218 6.27479 10.3906 6.25432 10.4598C6.23387 10.529 6.21457 10.5986 6.19641 10.6684C6.17825 10.7382 6.16126 10.8084 6.14543 10.8788C6.1296 10.9492 6.11494 11.0199 6.10144 11.0908C6.08796 11.1617 6.07564 11.2328 6.0645 11.3041C6.05336 11.3754 6.04341 11.4468 6.03464 11.5185C6.02588 11.5901 6.01829 11.6619 6.01189 11.7338C6.0055 11.8057 6.00029 11.8776 5.99628 11.9497C5.99228 12.0217 5.98946 12.0939 5.98784 12.166C5.98621 12.2382 5.98578 12.3103 5.98655 12.3825C5.98732 12.4547 5.98928 12.5268 5.99243 12.5989C5.99559 12.671 5.99993 12.743 6.00546 12.815C6.01101 12.8869 6.01775 12.9588 6.02567 13.0305C6.03357 13.1022 6.04267 13.1738 6.05297 13.2453C6.07303 13.3886 6.22667 13.9869 6.20595 14.0658C5.94183 13.4064 5.82153 12.6524 5.79898 11.9451C5.74517 10.2561 6.39893 8.65971 7.55147 7.43646C8.33785 6.60186 9.53679 5.97804 10.656 5.75346C11.0098 5.68247 11.3733 5.65529 11.7334 5.64502Z" fill="#FDF9AC"/>
</svg>
